<svg xmlns="http://www.w3.org/2000/svg"><defs><font id="EBGaramond" horiz-adv-x="540"><font-face font-family="EB Garamond Medium" panose-1="0 0 6 0 0 0 0 0 0 0" ascent="1007" descent="-298" alphabetic="0"/><glyph glyph-name="space" horiz-adv-x="213"/><glyph unicode="!" glyph-name="exclam" horiz-adv-x="264" d="M121 195l-5 10-8 33Q95 341 86 438t-9 147q0 25 16 44t41 20q23 0 38-19t16-47q0-75-33-320l-3-25q-5-43-22-43-9 0-14 10zM104-14L85 5 66 50q0 27 19 46t46 19q26 0 45-19t19-46q0-26-19-45t-45-19q-27 0-46 19z"/><glyph unicode="&quot;" glyph-name="quotedbl" horiz-adv-x="354" d="M70 431l-2 8-2 17q1 21 1 36t-1 24q0 13-3 79-1 11-1 24 0 11 6 21t16 16q16 13 26 18t23 5q9 0 13-10t5-24q0-37-17-91t-37-96q-4-10-11-18t-11-9q-5 0-7 8zm141 0l-2 8-2 17q1 21 1 36t-1 24q0 13-3 79-1 11-1 24 0 11 6 21t16 16q16 13 26 18t23 5q9 0 13-10t5-24q0-37-17-91t-37-96q-4-10-11-18t-11-9q-5 0-7 8z"/><glyph unicode="#" glyph-name="numbersign" horiz-adv-x="474" d="M58-84l-3 4-3 10v4l42 171-61-3q-7 0-12 4t-5 11q0 20 7 37t22 18l66 3 32 129-65-3h-2q-6 0-10 4t-5 10q0 21 7 38t21 18l71 3 40 162q4 20 35 20 4 0 7-4t3-10l-1-6-39-160 113 5 41 166q4 20 35 20 4 0 7-4t3-10q0-1-1-2t-1-4l-40-163 59 3q8 0 12-4t5-11q0-16-9-35t-25-20l-59-3-32-129 64 3q8 0 12-4t5-11q0-16-10-35t-24-20l-64-3-41-169q-3-10-11-13t-21-4q-6 0-9 4t-3 10v3l41 167-114-6L96-66q-3-11-11-14t-22-4q-5 0-8 4zm211 266l31 129-113-5-32-129 114 5z"/><glyph unicode="$" glyph-name="dollar" horiz-adv-x="448" d="M165-82l-5 6-4 16 8 68v2q0 7-7 7-52 9-97 41-11 9-14 20-7 18-9 43t-3 65q0 6 5 9t13 3q14 0 17-11 28-96 92-123 3-2 6-1t3 5l24 209v3q0 8-11 14-62 36-97 74t-35 95q0 69 47 116t131 53q10 2 10 7l7 55q1 9 10 13t21 5q6 0 10-5t4-14l-3-27-4-28q0-6 7-7 31-5 69-22 16-4 21-24 8-31 12-52t5-43q0-10-15-10-9 0-17 3t-10 9q-29 75-75 93-5 0-5-5l-22-183v-4q0-4 4-8t13-10q67-39 101-79t35-101q0-80-51-128T216 14q-7 0-8-6l-9-76q-1-7-8-10t-18-4q-8 0-13 6zm47 495v6l19 163q0 8-7 8-79-9-79-90 0-23 15-42t44-40q8-5 8 1zm52-353l23 25 24 67q0 38-16 61t-51 46q-3 2-5 1t-2-6L214 66q0-6 2-8t7-2q41 4 64 29z"/><glyph unicode="%" glyph-name="percent" horiz-adv-x="668" d="M111 263l-30 24-46 64-16 86q0 48 18 89t51 65 78 24q39 0 68-23t45-62 16-82q0-50-17-92t-51-68-76-25q-40 0-70 24zm86 25l12 41 13 107q0 151-67 151-35 0-48-40t-14-99q0-160 68-160 36 0 48 41zm322 369l10 4 26 4q6 0 11-5t5-10q0-3-1-4L142-32q-6-10-15-13t-25-3q-7 0-13 4t-6 9q0 2 1 3l428 678q7 11 17 15zM464-17L434 7l-46 64-16 86q0 48 18 89t51 65 78 24q39 0 68-23t45-62 16-82q0-50-17-92T580 8t-76-25q-40 0-70 24zm86 25l12 41 13 107q0 151-67 151-35 0-48-40t-14-99Q446 8 514 8q36 0 48 41z"/><glyph unicode="&amp;" glyph-name="ampersand" horiz-adv-x="771" d="M163-15L123 3 60 53l-24 75q0 70 43 123t120 89l20 9-12 14-23 23q-18 18-30 43t-13 52q0 51 45 84t109 34q42 0 73-17t47-44 17-56q1-39-26-66t-79-47l-17-6 15-17 35-35q24-24 47-49t42-51l14-18 17 17q33 35 63 78t30 57q0 9-8 18t-20 12q-5 2-10 6t-5 7q0 13 25 13l30-2q34-4 49-4t60 9q36 8 48 8 4 0 9-3t5-7q0-7-9-13t-19-9q-44-5-80-39-11-10-89-90-67-69-80-80l17-24q36-48 65-72t63-25q45 0 78 16 12 6 19 6 8 0 11-3t3-10q0-11-22-29T659-1t-65-14q-37 0-63 11t-47 33-50 63l-14 21-6-6q-57-62-100-92T211-15q-48 0-88 18zm144 404q21 11 33 38t12 57q0 35-16 60t-46 26q-27 0-46-17t-20-43q0-33 11-55t42-55l17-18 13 7zM294 60l33 16 67 50 8 8-13 19q-34 48-109 128l-31 33-12 14-20-9q-50-21-67-57t-18-86q0-51 33-83t88-33q41 0 74 16z"/><glyph unicode="'" glyph-name="quotesingle" horiz-adv-x="213" d="M70 431l-2 8-2 17q1 21 1 36t-1 24q0 13-3 79-1 11-1 24 0 11 6 21t16 16q16 13 26 18t23 5q9 0 13-10t5-24q0-37-17-91t-37-96q-4-10-11-18t-11-9q-5 0-7 8z"/><glyph unicode="(" glyph-name="parenleft" horiz-adv-x="311" d="M225-214l-8 8q-36 36-78 118T68 91 39 268q0 80 27 164t68 153 78 107q5 5 15 9t19 4q7 0 17-6t10-13q0-2-6-11t-10-13q-49-59-86-162t-37-222q0-79 17-168t45-164 56-109q2-3 10-12t9-12q0-12-10-19t-23-8q-13 0-21 8z"/><glyph unicode=")" glyph-name="parenright" horiz-adv-x="311" d="M60-214l-10 7-10 20q0 2 8 11t11 13q28 34 55 108t45 164 18 169q0 118-37 221T54 662q-3 4-9 13t-7 11q0 7 10 13t17 6q9 0 19-4t15-9q38-38 78-107t67-153 28-164q0-80-28-176T173-87 94-206q-8-8-21-8t-23 7z"/><glyph unicode="*" glyph-name="asterisk" horiz-adv-x="346" d="M180 365l-6 6-8 17-13 85q-33-23-74-46-5-5-15-5-8 0-14 5t-7 13q0 13 11 22l67 53q-57 28-76 39-15 8-15 23 0 9 6 14t15 5q5 0 11-2l51-20 30-12q-5 45-5 86 0 11 5 19t16 9q9-1 15-7t7-16l12-85 19 12q31 22 54 34 6 6 15 6 8 0 15-5t7-14q0-10-11-21l-67-54q57-27 76-38 7-4 11-10t5-13q0-9-6-14t-17-5q-6 0-9 1l-51 20-30 12q5-59 6-87 0-12-5-19t-17-8q-8 0-14 6z"/><glyph unicode="+" glyph-name="plus" horiz-adv-x="594" d="M278-9l-4 4-4 11v208q0 7-6 7H59q-6 0-10 3t-5 9q0 12 7 27t19 15h191q6 0 7 2t2 8v174q0 14 18 23t29 9q5 0 9-5t5-11V283q0-8 5-8h205q7 0 11-3t5-9q0-14-9-28t-23-14H338q-7 0-7-6V16q0-14-17-19t-31-6q-5 0-9 4z"/><glyph unicode="," glyph-name="comma" horiz-adv-x="236" d="M21-153v13q0 10 16 13 40 9 66 34t27 68q0 14-12 27T90 19q-20 3-32 15T45 66q0 22 18 37t42 15q39 0 64-28t25-71q0-49-24-88t-61-62-68-22q-20 0-20 13z"/><glyph unicode="-" glyph-name="hyphen" horiz-adv-x="289" d="M28 168v7q0 23 4 39t14 18q128 19 204 26h2q9 0 9-9 0-51-21-54-134-21-205-27-7 0-7 7z"/><glyph unicode="." glyph-name="period" horiz-adv-x="236" d="M92-20L73-1 54 44q0 27 19 46t45 19q26 0 45-19t19-46q0-26-19-45t-45-19Q92-20 73-1z"/><glyph unicode="/" glyph-name="slash" horiz-adv-x="401" d="M26-62l-5 5-2 11 301 693q6 11 16 15t26 4q10 0 14-6t1-13L76-46q-5-10-14-13t-26-3q-10 0-15 5z"/><glyph unicode="0" glyph-name="zero" horiz-adv-x="497" d="M438-14l-48 46-72 119-24 151q0 81 24 156t74 123 125 49q68 0 116-46t72-119 24-149q0-81-24-156T631 35 506-14q-68 0-116 46zm137 33l25 79 26 200q0 76-15 144t-43 111-69 43q-53 0-77-77t-24-199q0-77 14-146t42-112 69-43q52 0 77 79z"/><glyph unicode="1" glyph-name="one" horiz-adv-x="497" d="M103-3l-4 4-4 9q0 5 4 9t12 6q42 11 61 18t31 22 11 41v375q0 28-22 38t-63 15q-10 1-18 6t-8 13q0 9 7 14t20 7q57 7 95 19t73 42q2 2 7 2 6 0 10-3t5-7q-5-32-5-71V97q0-23 10-35t29-19 64-18q17-6 17-16 0-5-4-8t-10-4q-40 0-81 3-50 2-74 2t-76-2q-40-3-80-3-7 0-11 4z"/><glyph unicode="2" glyph-name="two" horiz-adv-x="497" d="M388-2q-68 4-118 4-8 0-155-3L62-2q-4 0-12 6t-8 11q0 6 4 10t6 6l162 172q112 119 112 246 0 48-28 78t-70 30q-38 0-71-20t-56-55q-12-16-23-16-6 0-10 8t-4 20q0 19 28 52t74 59 99 25q74 0 117-46t43-120q0-40-22-89t-54-87q-26-30-132-136-66-66-66-68 0-4 14-6 31-4 89-4 61 0 105 4 40 2 58 12t35 40q14 22 26 22 6 0 8-4t1-11l-10-32q-19-56-25-85-2-13-9-18t-13-5l-42 1z"/><glyph unicode="3" glyph-name="three" horiz-adv-x="497" d="M130-38L94-23 58 7q0 14 14 32t27 19q9 0 16-4t19-14q17-17 34-27t41-11q35 0 66 18t50 52 19 75q0 63-29 107t-80 45q-34 0-65-18-2-1-5-1-6 0-11 4t-4 8q7 26 34 41 48 23 86 57t38 81q0 39-25 67t-64 28q-44 0-69-20t-45-50q-2-3-7-9t-8-7q-6 0-12 6t-6 15q0 19 22 50t66 55 108 24q35 0 66-15t51-41 19-61q0-40-28-81t-88-67q-3-2-3-4t4-2q45 0 82-20t58-56 21-80q0-72-40-126T303-8 165-38q-35 0-71 15z"/><glyph unicode="4" glyph-name="four" horiz-adv-x="497" d="M205-3l-6 4-7 10q0 12 20 14 43 7 58 20t16 40v80q0 4-6 6t-10 3q-37 0-65-1t-49-2q-76-4-125-4-4 0-8 3t-4 7q0 2 3 5l36 45 257 384q22 31 36 31h16q4 0 4-6 0-8-2-10L111 243q-5-11 3-11h161q4 0 7 2t4 6v142q0 14 2 18t9 9q17 9 38 12t34 4q13 0 16-14t3-55V236q0-2 1-4t4-3q16-1 39-1 14 0 58 2 5 0 8-2t3-5q0-11-8-29t-13-18l-49 1q-13 0-29-2-4-1-8-3t-5-3V88q0-28 12-40t54-23q8-2 14-6t6-10q0-5-5-8t-12-4q-37 0-66 3-36 2-57 2-23 0-59-2-28-3-65-3-6 0-12 4z"/><glyph unicode="5" glyph-name="five" horiz-adv-x="497" d="M76-38v13q0 8 12 13t26 7q69 2 119 28t77 67 27 82q0 57-51 95t-172 72q-19 11-26 21t-8 27q0 18 8 47t27 85q4 11 6 19t5 14q11 33 44 41 44 11 106 21t107 14h1q8 0 11-6t1-13l-11-25-9-19q-14-34-46-37l-72-6q-82-6-97-9-10-1-23-26t-14-38v-3q0-11 12-14 105-27 180-64 59-30 87-72t28-100q0-55-33-104t-90-82q-38-21-88-34T117-38q-41 0-41 13z"/><glyph unicode="6" glyph-name="six" horiz-adv-x="497" d="M202-15L155 9 81 81 53 193q0 158 119 283 43 47 112 92t150 70q5 2 13 2 7 0 11-2t3-5q-3-8-9-13t-20-11q-63-28-107-63t-80-89q-33-49-60-119t-28-142q1-53 20-92t48-59 60-20q38 0 64 31t26 89q0 46-24 80t-60 35q-23 0-37-2t-29-10q-6-3-9-3-7 0-7 7 0 6 6 12 11 13 26 22 15 12 44 24t55 13q35 0 66-17t50-47 19-66q0-57-30-105t-79-75-105-28q-59 0-106 24z"/><glyph unicode="7" glyph-name="seven" horiz-adv-x="497" d="M130-31l-6 7-6 21q0 5 10 21t13 23l268 480 2 5q0 5-12 6H154q-26 0-42-9t-33-34q-1-1-10-17t-22-17q-5 0-8 4t-3 11q0 10 7 31 17 82 19 112 0 7 4 10t10 3q5 0 31-4t57-5q74-2 124-2 167 0 205 5 3 0 5-5t2-11q0-7-7-20t-16-27l-14-22L162-2q-14-29-20-29-12 0-18 7z"/><glyph unicode="8" glyph-name="eight" horiz-adv-x="497" d="M200-14L157 6 89 61l-26 81q0 39 21 67t45 46 70 42q6 3 6 5t-9 9q-42 35-63 56t-37 51-16 68q0 40 28 73t72 52 93 19q42 0 81-17t62-48 24-72q0-57-55-97l-50-36q-14-8-14-13 0-4 9-9 67-46 98-82t31-89q0-52-29-93T352 9 250-14q-50 0-93 20zm126 402l10 32 10 79q0 43-21 71t-60 29q-34 0-62-26t-28-64q0-27 9-46t24-34 44-37q12-8 31-24 4-3 8-4t8 2q27 22 37 54zM306 20l27 30 28 72q0 70-113 151-13 10-19 10-3 0-12-7-30-25-42-51t-13-70q0-54 28-94t75-41q41 0 68 30z"/><glyph unicode="9" glyph-name="nine" horiz-adv-x="497" d="M54-38v11q0 13 19 15 47 2 108 44t108 102q45 58 68 120t24 135q0 47-18 93t-48 76-62 30q-42 0-66-33t-24-79q0-30 13-58t35-47 45-19q19 0 30 4t22 9 15 8q2 1 5 1 9 0 9-9 0-3-3-8-6-11-29-31-15-12-42-23t-51-12q-36 0-69 17t-55 49-22 68q0 46 29 93t79 79 109 32q51 0 97-32t74-86 28-111q0-88-38-162T337 91Q286 37 207 0T72-38q-18 0-18 11z"/><glyph unicode=":" glyph-name="colon" horiz-adv-x="260" d="M102 256l-19 19-19 45q0 27 19 46t45 19q26 0 45-19t19-46q0-26-19-45t-45-19q-26 0-45 19zm0-276L83-1 64 44q0 27 19 46t45 19q26 0 45-19t19-46q0-26-19-45t-45-19q-26 0-45 19z"/><glyph unicode=";" glyph-name="semicolon" horiz-adv-x="235" d="M82 257l-19 19-19 45q0 27 19 46t45 19q26 0 45-19t19-46q0-26-19-45t-45-19q-26 0-45 19zM21-153v13q0 10 16 13 40 9 66 34t27 68q0 14-12 27T90 19q-20 3-32 15T45 66q0 22 18 37t42 15q39 0 64-28t25-71q0-49-24-88t-61-62-68-22q-20 0-20 13z"/><glyph unicode="&lt;" glyph-name="less" horiz-adv-x="553" d="M91 193q-43 22-43 28 0 9 10 25t25 23l403 198q5 3 8 3 11 0 11-14 0-13-9-28t-24-23L133 235q-2-1-2-3t3-3L478 60q13-6 20-21t8-28q0-14-13-14-3 0-9 2L91 193z"/><glyph unicode="=" glyph-name="equal" horiz-adv-x="588" d="M58 315l-4 4-5 8q0 12 6 26t19 14h449q6 0 11-4t6-9q0-11-10-25t-22-14H63q-5 0-9 4zm0-175l-4 4-5 8q0 12 6 26t19 14h449q6 0 11-3t6-9q0-13-10-26t-22-14H63q-5 0-9 4z"/><glyph unicode="&gt;" glyph-name="greater" horiz-adv-x="553" d="M462 272q43-21 43-28 0-9-10-25t-25-23L67-2q-4-3-8-3Q48-5 48 9q0 13 9 28t24 23l339 170q2 1 2 3t-3 3L75 405q-13 6-20 21t-8 28q0 14 13 14 3 0 9-2l393-194z"/><glyph unicode="?" glyph-name="question" horiz-adv-x="383" d="M134 178l-8 9-12 21q-10 26-14 43t-5 44q0 28 25 49t82 49q27 13 44 32t18 41q0 43-24 69t-68 27q-14 0-32-5-3 0-11-1t-16-2q-18 0-33 22t-16 44q0 15 16 28t35 13q30 0 62-15t59-43q39-40 63-92t24-95q0-35-12-57t-32-31q-39-21-87-51-20-12-26-29t-9-47q-1-9-5-16t-13-7q-5 0-13 9zM122-14L103 5 84 50q0 27 19 46t45 19q27 0 46-19t19-46q0-26-19-45t-46-19q-26 0-45 19z"/><glyph unicode="@" glyph-name="at" horiz-adv-x="760" d="M296-139l-79 41L91 16 44 182q0 106 51 181t136 115 187 39q78 0 146-37t110-102 42-140q0-58-29-103t-77-70-102-25q-21 0-32 8t-19 19-11 11q-3 0-24-11t-46-20-54-9q-54 0-90 31t-36 85q0 62 30 110t81 75 110 26q15 0 36-3t31-6q7-2 15-4t10-3q5 0 12 11t14 11q5 0 14-3t9-6q-10-25-24-86l-21-134q-3-24-3-26 0-29 18-29 35 0 65 16t49 48 19 71q0 70-34 127t-95 89-132 33q-81 0-150-34t-110-98-41-147q0-78 41-143T250-54t149-38q48 0 109 21t99 53q16 12 24 12 18 0 18-14t-44-43-105-53-112-23q-92 0-171 41zm80 218l13 5 30 17q10 6 16 17t10 33l20 107q1 3 1 12 0 27-20 43t-53 17q-29 0-55-18t-43-53-17-82q0-50 24-74t58-24q16 0 29 5z"/><glyph unicode="A" glyph-name="A" horiz-adv-x="702" d="M13-5L5-2-3 9q0 14 30 23 29 8 50 25t35 48q52 119 92 221t90 239q14 36 18 66 29 7 48 17 12 6 19 18t10 16q6 4 9-2 3-5 5-12t3-12q60-191 157-478l20-59q16-46 38-64t57-25q15-3 22-9t8-14q0-11-26-11l-62 2q-43 3-85 3l-68-1q-20-1-53-1-12 0-19 3t-8 10q0 7 8 12t22 8q35 6 50 18t12 32q-1 18-10 54t-19 72q-2 5-7 23-2 7-7 9t-17 3H234q-10 0-17-17-10-30-23-74t-15-59q-6-46 59-62 30-7 30-20 0-12-27-12-25 0-40 1l-57 1q-15 0-35-1T79-2Q51-5 25-5 13-5 5-2zm395 289q6 0 10 1t4 4q0 1-2 11l-74 237q-5 16-8 16-2 0-7-15l-87-238-2-8q0-5 5-6t15-2h146z"/><glyph unicode="B" glyph-name="B" horiz-adv-x="601" d="M32-5l-7 3-7 9q0 13 29 19 39 8 56 23t17 49v452q0 35-14 51t-51 20q-15 1-22 7t-7 13q0 6 7 9t19 4q31 0 65-2l50-1q24 0 48 3 57 3 74 3 121 0 178-34t58-115q0-31-11-57t-29-42q-16-15-30-24t-39-17q-4-2-4-5t4-5q42-12 73-28t53-49 22-87q0-51-16-84t-37-49-51-32Q392-4 288-4q-10 0-42 2-40 2-68 2-24 0-64-2-32-3-70-3-12 0-19 3zm300 375l45 29q14 9 27 32t13 61q0 130-131 130-35 0-48-10t-13-34V407q0-21 13-29t31-8q63 0 108 29zm4-328l34 19 54 53 21 74q0 49-19 78t-46 46q-38 24-102 24-25 0-39-11t-14-24V110q0-37 18-52t54-16q39 0 73 19z"/><glyph unicode="C" glyph-name="C" horiz-adv-x="710" d="M309-15l-84 42L91 146 40 321q0 94 52 172t142 124 198 46q51 0 89-7t91-22q13-4 19-11t8-21q6-58 9-116 0-7-5-11t-12-5q-15 0-19 15-10 38-22 62t-34 40q-49 38-138 38-73 0-130-39t-90-103-33-137q0-85 31-159t90-118 137-45q71 0 118 31t80 95q8 14 21 14 6 0 10-4t4-12q0-14-7-45t-18-58q-6-13-11-18t-19-10Q564 2 513-6t-107-9q-97 0-181 42z"/><glyph unicode="D" glyph-name="D" horiz-adv-x="758" d="M347-7l-50 3q-86 4-128 4-18 0-52-2-38-2-66-2Q25-4 25 9q0 8 6 11t23 7q38 7 52 22t15 49v452q0 34-14 48t-53 23q-16 3-22 7t-7 12q0 7 7 10t19 4q25 0 63-2l59-1q23 0 99 4 68 4 84 4 119 0 202-41t126-114 42-164q0-93-45-172T555 41 375-7q-28 0-78 3zm88 41l55 36 86 100 30 149q0 91-35 159t-94 105-128 37q-48 0-71-2t-37-14-14-37V125q0-52 36-71t99-20q73 0 128 36z"/><glyph unicode="E" glyph-name="E" horiz-adv-x="568" d="M31-5V7q0 13 29 19 38 8 54 23t16 49v452q0 34-14 48t-51 23q-29 6-29 20 0 6 7 9t19 4q35 0 87-2 50-2 80-2 67 0 165 2 33 0 56 1t27 2q7 0 13-3t7-9l5-30q11-57 11-82 0-9-4-13t-10-4q-9 0-14 12-1 4-6 19t-11 26-10 16q-27 28-68 28H278q-14 0-28-10t-14-26V375q0-10 6-16t15-6h94q27 0 38 12t20 41q7 20 19 20 5 0 9-5t4-13q-4-56-4-73 0-37 3-79v-4q0-16-9-16-16 0-24 29-7 27-17 39t-30 13h-93q-17 0-24-5t-7-21V100q0-34 14-48t47-14h79q58 0 85 19 16 11 29 29t28 49q8 13 17 12 11 0 11-16t-10-52-21-68q-7-16-17-16-70 0-150 3-27 1-69 2t-99 1q-28 0-57-3-57-3-66-3Q31-5 31 7z"/><glyph unicode="F" glyph-name="F" horiz-adv-x="524" d="M26-4V8q0 7 7 11t22 8q38 7 52 22t14 50v431q0 43-12 63t-48 28q-30 6-30 20 0 6 7 9t19 4q35 0 85-2t79-2h144q31 0 71 6 30 4 38 4 7 0 13-3t8-9q2-28 3-59t2-54q0-9-3-15t-7-6q-6 0-11 4t-6 10q-11 40-27 59-26 26-69 26H268q-22 0-31-13t-10-36V374q0-22 15-22l65 1q17 1 44 1 41 0 61 45 2 5 8 11t10 6q5 0 9-5t4-13q-3-37-3-61t3-68q0-21-9-21t-15 7-9 17q-13 43-48 43l-49 1q-42 0-63-1-10-1-16-7t-7-18q0-126 3-190 1-33 16-49t53-24q15-3 22-7t7-12q0-12-25-12-19 0-39 1t-29 2q-25 3-51 3-32 0-62-3-10 0-31-1T51-4Q26-4 26 8z"/><glyph unicode="G" glyph-name="G" horiz-adv-x="726" d="M294-14l-80 42L87 145 39 312q0 95 49 175t134 128 189 48q37 0 106-11t94-23q6-2 8-5t5-11q10-84 10-110 0-8-4-14t-11-6q-10 0-15 6t-10 19q-15 36-37 61-17 19-54 35t-93 16q-73 0-129-40t-87-106-31-144q0-91 32-159t86-105 121-37q68 0 103 32 12 11 20 30t8 43q0 20 1 33l1 34q0 25-11 32-12 11-39 18t-47 9q-7 1-14 6t-8 13q0 6 7 11t14 5q24 0 66-2 44-2 70-2 17 0 49 2t52 2q6 0 12-4t7-12q0-7-6-12t-14-7q-23-7-33-17t-13-32q-5-36-5-75v-29q0-6 3-10t5-7q2-3 7-9t5-10q0-17-16-19-9-2-28-12-48-23-98-38T387-14q-93 0-173 42z"/><glyph unicode="H" glyph-name="H" horiz-adv-x="807" d="M45-4l-7 3-7 10q0 7 6 11t22 7q36 7 48 21t13 50v453q0 35-10 49t-45 21q-15 3-22 7t-7 12q0 6 6 10t19 4q29 0 65-2 32-2 50-2l54 1q38 2 67 2 25 0 25-13 0-7-7-11t-22-8q-38-8-52-24t-15-46V360q0-11 14-11h334q9 0 9 13v189q0 30-14 46t-52 24q-15 3-22 7t-7 12q0 13 25 13 27 0 69-2l58-1q17 0 45 2 34 2 62 2 12 0 19-4t7-10q0-7-7-11t-22-8q-35-7-45-22t-10-47V99q0-37 10-51t47-21q16-3 22-7t6-11q0-6-7-9t-19-4q-35 0-64 3-32 2-51 2-18 0-54-2-30-3-67-3-11 0-18 3t-7 10q0 8 6 11t22 7q35 8 51 24t17 46v193q0 15-8 15H234q-5 0-6-2t-2-10V104q0-30 19-49t56-28q16-3 22-6t7-12q0-6-7-9t-19-4q-36 0-68 3-40 2-60 2-19 0-55-2-28-3-65-3-11 0-18 3z"/><glyph unicode="I" glyph-name="I" horiz-adv-x="348" d="M18-4V8q0 7 7 11t22 8q39 7 56 22t18 49v452q0 34-14 48t-52 23q-29 6-29 20 0 13 25 13 27 0 69-2 38-2 58-2l56 1q38 2 66 2 26 0 26-12 0-14-29-20-40-8-55-23t-15-48V98q0-32 17-47t58-24q15-3 22-7t7-12q0-12-25-12-36 0-68 3-40 2-60 2-22 0-64-2-33-3-70-3Q18-4 18 8z"/><glyph unicode="J" glyph-name="J" horiz-adv-x="350" d="M-15-200l-29 13-30 39q0 18 15 34t29 17q24 0 45-24 17-22 26-30t22-8q65 0 65 161v549q0 33-14 47t-52 23q-29 6-29 20 0 13 26 13 28 0 68-2 38-2 58-2l47 1q36 2 65 2 25 0 25-12 0-14-29-20-37-8-48-22t-11-48V61q0-51-23-101t-57-92q-54-68-112-68-57 0-86 13z"/><glyph unicode="K" glyph-name="K" horiz-adv-x="710" d="M43-5l-8 3-9 10q0 7 7 11t24 8q38 7 51 22t14 51v451q0 33-14 47t-53 23q-29 6-29 20 0 6 7 9t19 4q27 0 67-2l56-1q32 0 48 1l66 1q25 0 25-12 0-14-29-20-36-8-46-23t-11-47V358q0-6 2-12t5-6q9 0 26 17l197 205q17 17 17 31 0 19-27 25-15 4-21 9t-7 12q0 6 7 9t19 3h59q42 0 112 2l63 2q10 0 16-3t7-9q0-15-32-21-94-15-152-64-47-39-88-79t-98-100q-3-3-3-8 0-7 7-14L578 96q31-34 49-47t58-22q18-4 25-8t8-11q0-13-33-13-21 0-43 1t-34 2q-36 3-76 3l-39-1q-30-2-57-2-26 0-26 13 0 12 25 18 32 7 32 23 0 10-15 27L257 298q-16 16-23 16-6 0-6-19 0-89 4-188 2-35 14-53t48-27q16-3 23-7t8-12q0-6-8-9t-21-4q-39 0-67 5-7 0-19 1t-25 2q-21 0-57-4-42-4-73-4-12 0-20 3z"/><glyph unicode="L" glyph-name="L" horiz-adv-x="585" d="M38-5l-6 4-7 9q0 11 21 18 40 9 57 24t18 46v461q0 24-5 35t-17 18-40 11q-29 6-29 20 0 13 26 13 27 0 67-2 36-2 56-2l64 1q44 2 70 2 25 0 25-12 0-14-29-20-45-10-63-21t-19-38V99q0-31 14-44t55-14h116q24 0 43 7t33 19q18 17 29 32t23 42q8 16 13 23t11 8q6 0 9-6t4-13q0-3-1-5t-1-6q-14-50-19-74t-9-55q-2-18-15-18-52 0-172 2-88 3-172 3-47 0-107-4L50-5Q38-5 32-1z"/><glyph unicode="M" glyph-name="M" horiz-adv-x="907" d="M19-4V8q0 7 7 10t25 8q25 5 41 25t21 53q34 270 40 421 0 21-1 33 0 24-18 37-14 12-29 17t-39 11q-11 2-17 7t-7 13q0 8 8 10t24 3q15 0 34-1t39-2q68-4 91-4 7 0 13-5t8-12q7-22 8-29 13-42 15-47l154-383q3-8 11-8 5 0 8 6l178 383 19 81q3 13 12 13h38q18 0 81 5 40 4 49 4 23 0 23-12 0-7-5-11t-20-10q-16-5-48-19-17-8-25-18t-8-28q0-95 3-170t12-177l8-116q1-29 19-45t55-24q15-3 22-7t7-12q0-12-26-12-37 0-69 3-40 2-61 2-18 0-52-2-28-3-66-3-26 0-26 12 0 14 29 19 32 5 44 20t12 49q-2 156-12 345l-1 21q0 9-4 9-3 0-10-10L417-3q-3-8-10-8-8 0-11 8-51 137-148 368l-42 100q-2 5-8 5t-7-8q-23-193-23-359 0-28 18-48t50-28q16-3 24-7t8-12q0-12-28-12-31 0-57 2-24 2-40 2-19 0-49-2-28-2-47-2Q19-4 19 8z"/><glyph unicode="N" glyph-name="N" horiz-adv-x="798" d="M658-18L631-1l-50 49-108 124Q227 455 206 478q-11 15-18 15-4 0-6-6t-2-15q-2-192-2-365 0-66 70-80 31-7 31-19T251-4q-30 0-60 2-24 2-40 2-20 0-46-2T60-4Q32-4 32 8q0 7 7 11t24 9q50 14 55 81 7 68 13 177t6 221q0 49-24 73t-72 40q-9 3-19 9t-11 14q0 8 7 11t17 4q42 0 75-3 54-2 94-2 7 0 11-3t11-12l117-140q64-76 140-166t129-153q15-18 22-18 9 0 10 19v381q-1 21-20 36t-44 22q-16 3-27 8t-11 12q0 6 11 9t24 3h71l49 1q32 2 64 2 27 0 27-13 0-14-31-20-36-7-49-18t-14-38q-5-270-5-441 0-28 5-83l2-27q0-32-24-32-14 0-41 17z"/><glyph unicode="O" glyph-name="O" horiz-adv-x="762" d="M287-14l-77 41L86 144 39 315q0 92 40 172t119 128 187 49q90 0 167-41t124-117 47-171q0-92-40-172T564 35 376-14q-89 0-166 41zm207 42l54 69 54 188q0 92-26 168t-79 121-129 46q-101 0-154-68t-54-186q0-92 26-169t78-123 128-46q102 0 156 69z"/><glyph unicode="P" glyph-name="P" horiz-adv-x="571" d="M21-4V8q0 7 7 11t22 8q39 7 55 22t16 50v431q0 43-12 63t-48 28q-30 6-30 20 0 6 7 9t19 4q29 0 63-2l49-1q21 0 61 4 38 4 59 4 118 0 187-49t70-135q0-64-25-115t-77-82-128-31q-22 0-35 6t-13 15q0 5 6 10t11 5q5 0 17-1t27-2q53 0 81 48t28 134q0 81-40 122t-109 41q-61 0-61-45l-1-473q0-35 16-54t55-26q15-3 22-7t7-12q0-12-26-12-10 0-67 3-25 3-51 3-34 0-66-3-10 0-31-1T47-4Q21-4 21 8z"/><glyph unicode="Q" glyph-name="Q" horiz-adv-x="762" d="M674-248l-55 19-107 57-17 12q-81 57-133 101-50 42-114 69-91 40-150 113T39 315q0 92 40 172t119 128 187 49q90 0 167-41t124-117 47-171q0-75-26-142T618 76 491 3q-9-3-9-8 0-4 5-9 50-53 120-106 49-36 92-51t96-15q34 0 49 5 9 3 20 3 17 0 17-12 0-9-4-14t-15-13q-52-31-123-31-65 0-120 19zM495 29l53 68 54 188q0 93-26 168t-79 121-129 45q-101 0-154-67t-54-186q0-93 26-169t78-122 128-46q103 0 156 68z"/><glyph unicode="R" glyph-name="R" horiz-adv-x="730" d="M586-21L549-5l-65 51q-41 51-71 94t-72 114q-13 24-37 37-25 12-63 17-14 0-14-20V107q0-33 16-53t55-27q15-3 22-7t7-12q0-12-26-12-10 0-67 3-25 3-51 3-34 0-66-3-10 0-31-1T47-4Q21-4 21 8q0 7 7 11t22 8q39 7 55 22t16 50v434q0 36-4 52t-16 24-40 12q-15 1-22 7t-8 13q0 6 7 9t19 4q32 0 64-2l48-1q17 0 47 2 38 4 76 4 113 0 172-41t59-122q0-61-35-100t-86-63q-3-1-3-5l2-8q60-91 99-142t96-103q26-24 53-30t71-6q15 0 15-14 0-23-29-33t-66-11q-54 0-91 16zM337 334l37 41 38 101q0 71-29 108t-105 38q-28 0-37-19t-12-74q-2-64-2-159 0-22 11-29t37-7q62 0 99 41z"/><glyph unicode="S" glyph-name="S" horiz-adv-x="475" d="M123-15L62 31Q49 42 47 52 36 84 34 171q0 7 5 10t15 4q14 0 18-12 20-73 60-112t91-39q50 0 80 32t31 81q0 36-12 60t-35 42-66 44q-60 36-90 58t-54 56-23 83q0 53 26 95t75 67 117 24q58 0 113-23 17-7 23-27 17-68 17-106 0-5-4-8t-12-3q-9 0-17 4t-10 10q-20 57-50 85t-74 29q-49 0-78-26t-30-80q0-37 33-66t106-74q73-45 109-87t36-109q0-93-61-145T209-15q-86 0-147 46z"/><glyph unicode="T" glyph-name="T" horiz-adv-x="679" d="M184-4V8q0 7 7 11t23 8q40 7 58 24t18 50v396q0 63-4 84t-15 24q-16 4-62 4h-39q-27 0-52-12t-38-32q-28-42-46-42-10 0-10 14 0 8 6 22 16 31 23 55t11 58q3 24 20 24 5 0 14-14t13-19q7-9 28-14t43-5l361 1q57 0 85 14 12 8 16 12 2 1 9 6t18 6q4 0 6-6t2-15q0-7-3-25l-7-30q-3-11-5-21t-2-24v-14q0-13-4-23t-12-11q-8 0-12 9t-11 32q-6 27-27 40t-67 14h-84q-22 0-32-6t-13-30-4-76V101q0-32 18-48t59-26q15-3 22-7t7-12q0-12-26-12-37 0-69 3-40 2-60 2-23 0-65-2-33-3-71-3-27 0-27 12z"/><glyph unicode="U" glyph-name="U" horiz-adv-x="740" d="M239-14l-70 69-71 190v299q0 31-13 50t-34 25q-32 9-32 22t28 13q18 0 52-2 38-2 56-2t56 2l44 1q28 0 28-13 0-6-6-10t-17-7-15-6q-15-5-27-25t-13-49V269q0-109 53-164t140-56q96 0 144 64t48 182q0 135-2 206-2 50-12 79t-34 38q-2 1-12 4t-17 8-6 10q0 12 29 12l46-1q12-1 37-1 18 0 46 2 26 2 38 2 28 0 28-13t-31-20q-28-6-40-26t-14-54q-6-116-8-242l-1-45q-1-78-36-139t-96-95-133-34q-133 0-203 69z"/><glyph unicode="V" glyph-name="V" horiz-adv-x="684" d="M318-14l-4 10q-11 26-26 70L101 548q-23 58-71 71-16 6-23 10t-7 12q0 12 26 12l57-1q50-2 74-2t72 2l49 1q12 0 20-3t8-9q0-8-8-14t-23-7q-63-8-63-39 0-16 4-28t5-14l139-373q2-6 5-6t6 7l129 341q11 28 11 51 0 26-15 41t-43 19q-14 2-23 8t-9 13q0 6 8 9t21 3q29 0 43-1l55-1q23 0 63 2 36 2 49 2 30 0 30-13 0-7-7-11t-24-9q-64-15-95-90L389 107l-21-51Q346 3 343-4q-5-10-14-10-11 0-15 10z"/><glyph unicode="W" glyph-name="W" horiz-adv-x="953" d="M341-16l-10 27-229 543q-12 26-28 42t-42 23q-17 6-24 10t-8 12q0 12 28 12l51-1q36-2 54-2 21 0 59 2l44 1q29 0 29-12 0-8-7-12t-25-9q-13-3-17-10t-4-22q0-11 2-22t5-16q67-169 161-384 6-11 9-11 4 0 7 10l70 161q6 14 6 22 0 6-7 25l-73 170q-11 28-36 48t-54 28q-16 6-23 10t-7 12q0 12 26 12l54-1q38-2 57-2 17 0 51 2l41 1q14 0 22-3t9-9q0-5-5-9t-14-9q-2-1-10-6t-11-12q-7-3-7-10 0-2 2-8 34-90 46-117 6-12 9-12t9 12q13 29 32 85l10 28 2 12q0 9-5 14t-18 12q-2 1-7 4t-8 7-3 8q0 12 27 12 17 0 30-1t24-1q11 0 27 2 22 2 37 2 13 0 21-3t8-10q0-7-7-11t-24-9q-29-7-41-18t-28-35q-18-33-58-129-6-16-6-28 0-8 3-14l93-234q3-5 5-5 3 0 7 9 49 122 129 373 8 23 8 41-2 31-30 38-32 10-32 21 0 6 8 9t21 3l41-1q10-1 30-1 11 0 35 2 34 2 51 2 31 0 31-13 0-7-8-11t-24-9q-31-7-49-29t-31-52L656 9q-8-22-18-22-9 0-19 19-24 53-73 171l-47 115q-3 6-5 6-3 0-7-10-74-167-118-276-10-28-22-28-6 0-16 27z"/><glyph unicode="X" glyph-name="X" horiz-adv-x="722" d="M11-6L3-3-5 7q0 7 7 11t24 11q31 9 69 33t67 62l124 156q15 18 15 34 0 14-12 30L152 536q-29 41-52 59t-52 26q-16 5-23 9t-7 13q0 6 7 9t19 3q32 0 71-3 14-1 36-2t52-1q26 0 66 2 34 2 43 2 13 0 21-3t8-9q0-7-7-11t-25-10q-30-9-42-15t-12-19q0-15 28-52l92-129q11-15 17-15t15 12l98 132q25 33 25 52 0 12-10 20t-34 13q-33 9-33 21 0 6 8 9t22 3q27 0 40-1l45-1q14 0 32 1t29 2q26 3 48 3 31 0 31-12 0-8-7-12t-25-8q-44-13-116-98L437 378q-16-17-16-28 0-6 6-17l160-228q19-29 44-49t50-27q34-8 34-22 0-12-28-12-33 0-74 3-15 1-37 2t-50 1l-64-1q-16-1-45-1-12 0-20 3t-8 10q0 10 31 20 20 5 34 16t15 29q0 14-11 29L352 258q-11 14-17 14t-13-10L202 102q-12-17-12-33 1-14 13-24t32-14q32-8 32-21 0-12-29-12-26 0-42 1l-51 1q-15 0-35-1T79-3Q51-6 24-6 11-6 3-3z"/><glyph unicode="Y" glyph-name="Y" horiz-adv-x="605" d="M157-5V7q0 14 32 20 74 13 74 82v144q0 36-27 84L115 531q-21 33-41 57t-44 31q-16 6-23 10t-7 12q0 12 26 12 17 0 59-2 46-2 74-2 19 0 53 2 30 2 43 2 12 0 20-3t8-9q0-13-31-21-21-5-30-11t-9-18q0-13 12-36l96-173q16-30 25-30 5 0 10 6t17 24q31 51 86 153 16 28 16 47 0 18-13 26t-33 11q-11 2-21 8t-11 13q0 6 8 9t21 3l43-1q13-1 41-1 23 0 61 2 30 2 42 2 30 0 30-13 0-7-10-11t-35-12q-26-7-44-25t-44-58l-22-34-93-150q-16-28-20-45t-5-47V109q0-35 18-54t57-28q16-3 24-7t8-12q0-13-29-13-18 0-38 1t-30 2q-30 3-60 3-32 0-64-3-10 0-31-1t-39-2q-29 0-29 12z"/><glyph unicode="Z" glyph-name="Z" horiz-adv-x="601" d="M481-5L363-3q-82 2-122 2-86-2-129-2L35-4q-5 0-7 8t-2 12q4 11 22 39t36 54q20 29 46 66t57 82q166 242 224 330 4 8 4 11 0 9-18 9-62 2-122 2-66 0-91-2-32-2-62-22t-46-56q-8-16-15-24t-18-8q-11 0-11 13 0 8 7 27 22 56 28 122 1 20 17 20 5 0 18-7t20-11q14-6 37-10t49-4h123q100 0 230 4 5 0 10-8t3-12l-64-91q-84-119-151-219T199 77q-6-10-6-17 0-6 4-10t11-6q50-4 100-4 83 0 137 9 37 6 63 31t46 74q2 7 8 12t13 6q11 0 11-13t-13-67-23-79q-7-18-21-18-48 0-166 2z"/><glyph unicode="[" glyph-name="bracketleft" horiz-adv-x="340" d="M129-200l-6 1-10 9-3 24v827q0 21 3 29t10 10 26 2l154-1q20 0 20-14 0-15-29-17l-80-8q-8-2-14-9t-7-16v-759q0-12 6-20t15-10l78-12q14-3 22-7t8-12q0-9-7-13t-18-4H144q-15 0-21 1z"/><glyph unicode="\" glyph-name="backslash" horiz-adv-x="401" d="M349-62l-9 3-15 13L24 647q-1 2-1 6 0 6 4 9t12 4q16 0 26-4t16-15L382-46q1-1 1-4 0-5-5-8t-13-4q-16 0-25 3z"/><glyph unicode="]" glyph-name="bracketright" horiz-adv-x="340" d="M211-200l6 1 10 9 3 24v827q0 21-3 29t-10 10-26 2l-154-1q-20 0-20-14 0-15 29-17l80-8q8-2 14-9t7-16v-759q0-12-6-20t-15-10l-78-12q-14-3-22-7t-8-12q0-9 7-13t18-4h153q15 0 21 1z"/><glyph unicode="^" glyph-name="asciicircum" horiz-adv-x="505" d="M51 272l-4 3-4 10 2 9 204 311h5l205-311q3-4 3-9t-3-9-10-4q-12 0-25 7t-19 16L256 510q-4 5-5 5t-5-5L100 296q-7-10-20-17t-24-7q-5 0-9 3z"/><glyph unicode="_" glyph-name="underscore" horiz-adv-x="532" d="M522-131l5-3 5-9q0-12-10-26t-22-15H15q-6 0-10 4t-5 9q0 11 6 25t19 15h490q7 0 12-3z"/><glyph unicode="`" glyph-name="grave" horiz-adv-x="213" d="M169 456l-19 19q-24 23-58 63t-57 70q-1 1-5 8t-5 14q0 11 15 16t38 6q22 0 33-20 15-27 39-74t34-73q4-12 4-19 0-10-9-10-10 0-29 19z"/><glyph unicode="a" glyph-name="a" horiz-adv-x="413" d="M101-14L81-1 47 33 34 74q0 32 18 52t58 37l97 41q20 8 24 14t5 27l2 61q1 28-13 45t-41 18q-14 0-28-5t-24-13q-8-8-8-26l1-22q0-8-28-22t-46-15q-6 0-9 4t-4 9q0 33 42 69 35 31 80 51t77 21q42 0 68-28t25-74l-5-226q-1-22 9-36t25-14q24 0 36 12 4 4 7 4 5 0 8-3t4-8q0-11-14-25-17-17-36-26t-38-10q-51 0-80 54h-3q-33-29-62-41t-60-13q-20 0-40 13zm100 54l21 21q10 10 11 36l2 57v5q0 14-9 14-6 0-17-5-44-17-62-35t-19-41q0-25 13-38t32-14q28 0 49 21z"/><glyph unicode="b" glyph-name="b" horiz-adv-x="525" d="M228-14L174 0l-22 6q-26 8-33 8-12 0-27-13-8-6-11-6-6 0-11 4t-5 9q0 7 3 22 1 6 3 24t3 35l-2 471q0 27-11 46t-32 27q-13 4-13 15 0 10 12 12 30 6 121 42 6 3 10 3 8 0 8-9 0-4-1-30t-2-60l-1-208q0-31 9-31 31 24 69 38t71 15q50 0 92-26t66-72 24-102q0-69-29-122t-81-82-119-30q-37 0-91 14zm108 35l30 50 30 125q0 42-14 82t-42 68-69 27q-32 0-60-10t-48-27V135q0-50 37-82t86-32q50 0 80 50z"/><glyph unicode="c" glyph-name="c" horiz-adv-x="408" d="M161-15l-41 26-65 73-24 103q0 64 29 117t78 85 108 31q72 0 122-41 11-9 11-19 0-12-16-27t-29-16q-6 0-12 4t-13 9q-25 20-51 34t-45 14q-45 0-71-41t-27-113q0-71 40-117t104-47q29 0 50 9t46 33q10 6 13 6 5 0 8-4t3-10q0-12-12-30-23-33-64-56t-91-23q-51 0-92 26z"/><glyph unicode="d" glyph-name="d" horiz-adv-x="523" d="M355-19l-5 5-5 7q0 6 2 22 3 20 3 36v6q-18-29-53-50t-78-21q-55 0-97 29T55 91 31 192q0 62 28 114t81 83 121 31q33 0 68-11l13-3q3 0 5 5t2 16v133q0 37-11 52t-36 21q-4 1-7 5t-3 9q0 10 9 13 60 14 120 39 12 5 17 5 8 0 8-8 0-3-3-30t-3-82l-2-471q0-35 5-49t17-15l42 3h5q6 0 8-2t3-8q0-7-5-13t-10-7q-61-7-129-35-12-6-17-6-2 0-7 5zm-72 63l24 11 41 31v195q0 24-15 47t-40 37-56 15q-26 0-51-16t-43-54-17-94q0-62 22-100t53-55 59-17q23 0 47 11z"/><glyph unicode="e" glyph-name="e" horiz-adv-x="400" d="M158-15l-42 28-65 77-24 114q0 58 27 107t74 79 101 30q62 0 102-37t41-93q0-17-7-25t-24-8H134q-14 0-19-8t-6-29q0-44 19-81t52-58 74-22q56 0 100 44 5 8 11 8 9 0 9-11 0-15-14-38-21-34-60-55t-88-22q-54 0-96 28zm57 306q45 0 69 5 9 3 9 25 0 28-23 47t-55 20q-21 0-43-13t-35-33-14-39q0-12 13-12h79z"/><glyph unicode="f" glyph-name="f" horiz-adv-x="333" d="M23-3V9q0 7 5 11t16 6q25 7 34 15t9 28v283q-31 0-52 2-4 1-9 8t-5 14q0 4 8 7 22 10 58 28 2 105 38 171t90 95 105 29q59 0 88-17t29-49q0-21-10-32t-26-12q-8 0-15 6t-20 19q-18 19-38 30t-50 12q-46 0-72-40t-27-119v-86q0-11 13-11h120q7 0 10-3t4-10q0-19-6-31-5-8-9-8H204q-15 0-20-4t-5-13V75q0-23 13-33t53-15q11-2 16-6t5-11q0-6-5-9t-13-4q-31 0-60 3-36 2-53 2T92 0Q71-3 43-3 23-3 23 9z"/><glyph unicode="g" glyph-name="g" horiz-adv-x="458" d="M456 396l4-5 4-13q0-5-3-12t-8-13q-6-6-10-6h-27q-26 0-31-8-6-12-6-46 0-51-23-94t-63-70-86-26q-28 0-58 11-15-8-24-18t-10-19q0-19 32-30t102-16q98-6 144-31t46-71q0-52-35-103t-90-83-112-33q-89 0-140 31t-52 87q0 28 8 45t27 34l75 58Q77-24 58-5T39 44q0 21 24 38 21 16 35 27t20 19q-36 22-58 56t-23 75q0 47 25 84t68 58 91 21q28 0 72-12 20-6 30-8 34-9 72-9 11 0 33 2l22 1q6 0 10-5zM250 141l23 37 23 95q0 47-26 81t-61 34q-33 0-57-35t-25-82q0-54 26-92t62-38q35 0 58 37zM357-85l-32 15-111 21-52 6q-38-25-54-50t-17-58q0-41 35-68t87-27q63 0 96 27 23 18 35 45t13 59q0 30-32 45z"/><glyph unicode="h" glyph-name="h" horiz-adv-x="531" d="M18-3V9q0 6 5 10t18 8q20 6 30 13t11 27v493q0 30-9 49t-33 23q-9 2-9 15 0 10 8 13 25 6 61 19t65 24q6 2 9 2 8 0 8-9 0-5-4-28t-4-84V390q0-23 6-34 35 27 71 45t79 19q51 0 84-38t34-100V69q0-18 10-27t30-15q12-4 17-8t5-10q0-12-21-12-28 0-46 3-22 2-40 2t-40-2q-16-3-45-3-21 0-21 12 0 7 5 10t17 8q18 6 28 15t10 28v202q0 34-26 59t-57 26q-20 0-42-5t-36-17q-13-10-17-22t-5-37V67q1-18 10-26t27-14q22-7 22-18 0-12-20-12-28 0-46 3-24 2-40 2-17 0-41-2-21-3-48-3Q18-3 18 9z"/><glyph unicode="i" glyph-name="i" horiz-adv-x="263" d="M23-3V9q0 11 21 17 25 7 35 14t10 24v216q0 64-45 71-10 1-10 15 0 12 9 13 65 14 123 53 12 7 16 7 8 0 8-8 0-6-4-46-6-60-6-93V64q0-15 10-23t35-15q21-6 21-17 0-12-18-12-26 0-49 3-28 2-45 2T91 0Q70-3 42-3 23-3 23 9zm84 511l-17 17-18 43q0 26 17 43t43 18q26 0 44-17t18-44q0-25-18-42t-44-18q-25 0-42 17z"/><glyph unicode="j" glyph-name="j" horiz-adv-x="240" d="M-9-287l-8 3-9 9q0 6 4 11t10 7q19 7 34 20t29 41q18 39 25 112t7 147v217q0 63-46 71-4 1-6 5t-3 10q0 5 2 8t7 5q36 8 63 21t58 32l16 7q9 0 9-8-9-90-9-152l1-188q0-67-6-128t-27-115q-21-52-63-93T2-287q-11 0-19 3zM97 508l-17 17-18 43q0 26 17 43t43 18q26 0 44-17t18-44q0-25-18-42t-44-18q-25 0-42 17z"/><glyph unicode="k" glyph-name="k" horiz-adv-x="496" d="M18-3V9q0 6 4 9t11 5 8 4q20 6 30 13t11 27v493q0 34-9 50t-34 23q-9 2-9 14 0 11 8 13 44 9 81 24t45 18q6 3 10 3 7 0 7-10 0-7-3-36t-4-75V240q0-10 6-10 13 0 29 15 36 32 65 62t41 45q9 12 9 16 0 5-8 9t-20 7q-12 1-12 10 0 13 22 13h49q16 0 72 7 30 4 37 4 13 0 13-11 0-12-24-19-35-9-73-33-15-9-52-38t-69-59q-6-4-6-10 0-4 4-8 66-84 143-164 15-15 37-28t40-21q15-5 22-8t7-10q0-12-20-12l-97 1q-68 2-104 2-19 0-19 11 0 12 19 17 12 4 17 8t6 13q0 6-8 16L187 201q-4 6-8 6-5 0-5-7-1-20-1-64 0-47 1-70 0-17 8-25t25-14q11-4 16-7t6-11q0-6-7-9t-14-3q-26 0-43 3-22 2-38 2-17 0-41-2-19-3-46-3Q18-3 18 9z"/><glyph unicode="l" glyph-name="l" horiz-adv-x="256" d="M18-3V8q0 7 5 10t18 9q22 7 31 13t10 25v495q0 64-44 73-8 2-8 14 0 11 7 13 43 9 81 24t47 19q6 2 9 2t4-3 2-6q0-6-3-34t-3-78V65q0-18 10-25t31-13q23-8 23-19 0-10-20-10t-48 2q-26 2-43 2-16 0-42-2-19-3-47-3Q18-3 18 8z"/><glyph unicode="m" glyph-name="m" horiz-adv-x="788" d="M23-3V9q0 7 5 10t18 8q21 7 31 13t10 25v220q0 29-7 45t-28 21q-10 2-10 14 0 13 9 14 36 9 61 21t58 32q8 4 10 4 7 0 7-8l-2-22q-1-7-2-18t-1-23q0-10 2-12h2q69 67 153 67 70 0 99-72h3q72 72 159 72 47 0 75-40t29-100V64q0-18 9-24t32-13q11-3 16-7t6-11q0-12-19-12-27 0-47 3-24 2-41 2t-41-2q-19-3-47-3-19 0-19 12 0 7 5 11t17 7q18 5 27 12t10 23v209q0 36-21 63t-50 27q-46 0-77-26-23-18-23-61V64q0-18 10-25t30-12q11-4 16-7t6-11q0-12-19-12-27 0-47 3-24 2-41 2t-41-2q-19-3-47-3-8 0-13 3t-6 9q0 7 5 10t17 8q18 5 28 12t10 23v209q0 36-20 62t-51 28q-44 0-77-26-22-15-22-60V64q0-17 9-24t28-13q11-4 16-7t6-11q0-12-19-12-28 0-46 3-24 2-40 2T91 0Q72-3 43-3 23-3 23 9z"/><glyph unicode="n" glyph-name="n" horiz-adv-x="541" d="M34-3l-5 3-6 9q0 7 5 11t18 7q20 5 30 12t11 26v220q0 29-7 44t-28 22q-10 2-10 14 0 13 9 14 64 17 116 51 8 6 13 6 7 0 7-9l-2-20q-1-7-2-18t-1-23q0-11 2-13 35 34 73 50t84 17q50 0 83-39t33-101V64q0-18 10-24t32-13q22-8 22-19T502-3q-28 0-48 3-26 2-42 2t-42-2q-19-3-48-3-7 0-13 2t-6 9q0 11 22 19 22 7 31 13t10 24v207q0 41-22 64t-59 25q-55 0-98-35-8-8-8-21V64q0-18 10-25t30-12q22-6 22-18T222-3q-27 0-47 3-24 2-41 2-16 0-42-2-21-3-49-3-9 0-14 3z"/><glyph unicode="o" glyph-name="o" horiz-adv-x="498" d="M178-14l-46 26-74 73-27 105q0 58 30 111t82 87 113 33q58 0 106-28t77-75 28-101q0-62-26-115t-79-84-127-32q-57 0-103 26zm140 35l26 47q21 39 21 125 0 50-16 94t-44 71-66 27q-24 0-42-7t-33-26q-17-22-24-56t-7-83q0-49 16-93t44-71 63-28q62 0 88 47z"/><glyph unicode="p" glyph-name="p" horiz-adv-x="530" d="M32-277l-7 3-7 8q0 11 23 19 22 7 31 14t10 24v497q0 18-12 40t-32 27q-10 3-10 15t9 14q56 13 125 43 2 1 3 2t5 1q3 0 5-3t2-7l-2-25q-3-18-3-35 0-8 1-9 11 11 38 27t60 28 63 12q50 0 87-27t58-72 21-92q0-60-31-116t-83-91-114-35q-21 0-50 8t-44 20q-2 0-3-15t-1-25v-179q0-17 12-24t26-12 18-6q11-4 17-7t6-11q0-5-6-8t-15-3q-29 0-54 3-32 2-49 2-18 0-42-2-21-3-48-3-7 0-14 3zM302 21l27 17 48 56 21 99q0 99-39 135t-83 37q-21 0-44-9t-40-21-16-20l-1-102q-1-24-1-54 0-34 15-66t41-52 51-20q21 0 48 17z"/><glyph unicode="q" glyph-name="q" horiz-adv-x="527" d="M309-286l-6 3-6 8q0 11 23 19 23 7 34 15t12 26V14q0 27-6 27t-9-3q-22-18-57-35t-67-17q-53 0-98 24T58 79 31 183q0 68 30 122t86 85 131 31q49 0 89-11t44-12q10 0 16 5t14 16q5 5 10 5 6 0 11-3t5-8q0-6-3-20-8-53-8-93v-518q0-16 11-23t37-15q23-8 23-19 0-6-6-8t-14-3q-28 0-51 3-30 2-46 2t-44-2q-21-3-50-3-7 0-13 3zM299 44l27 10 41 26q0 166-1 197-1 45-33 76t-77 32q-33 0-61-21t-44-62-17-92q0-55 20-92t52-56 65-18q28 0 55 10z"/><glyph unicode="r" glyph-name="r" horiz-adv-x="362" d="M26-3V9q0 7 5 11t18 7q20 4 29 13t9 25v220q0 27-8 43t-29 22q-4 1-7 5t-4 10q0 10 10 14 26 7 57 21t55 27q13 8 18 8 7 0 7-8l-3-77q0-4 2-4 26 33 57 54t62 21q26 0 40-10t14-28q0-19-14-40t-32-21q-8 0-32 11-4 2-14 6t-19 5q-29 0-48-20t-19-68V68q0-15 12-24t40-18q12-3 17-7t6-10q0-12-19-12-29 0-53 3-30 2-46 2T95 0Q74-3 46-3 26-3 26 9z"/><glyph unicode="s" glyph-name="s" horiz-adv-x="336" d="M85-14L42 21q-6 11-9 38t-4 54q0 10 15 10 5 0 9-2t7-7q14-46 41-70t60-25q28 0 46 18t18 45q0 26-17 44t-60 44q-52 30-77 59t-25 71q0 53 39 87t105 34q29 0 52-6t35-14q8-11 13-35t6-51q0-4-4-6t-9-2q-7 0-13 3t-8 8q-28 71-80 71-25 0-43-15t-19-41q0-22 16-39t53-39q64-36 90-65t27-76q0-59-42-93T152-14Q85-14 42 21z"/><glyph unicode="t" glyph-name="t" horiz-adv-x="335" d="M145-14l-29 31-30 91v232q0 8-7 11t-25 4h-8q-6 0-10 8t-4 17q0 3 2 6t5 4q28 16 58 41t51 47l7 7q6 6 13 6 15 0 14-15l-6-49v-4q0-9 6-12t18-4h116q3 0 6-7t3-14q0-11-3-21t-7-10h-97q-25 0-32-5t-8-23V133q0-42 17-64t48-23q26 0 41 4t30 13l5 2q8 0 8-16 0-7-19-22T259-1t-59-13q-55 0-84 31z"/><glyph unicode="u" glyph-name="u" horiz-adv-x="535" d="M351-20v9l2 29q3 18 3 33v8q-70-73-163-73-49 0-80 34t-32 92v198q0 22-10 35t-32 21q-14 4-14 17 0 15 15 17 34 2 57 6t58 13q10 2 13 2 12 0 11-14-7-43-7-77V136q0-36 23-61t53-27q26 0 43 4t33 17q36 28 36 71v175q0 26-19 38t-43 14q-22 0-22 18 0 17 22 17 55 2 82 5t57 12q6 2 11 2 6 0 10-3t4-8q0-3-1-5t-2-6q-2-12-4-35t-3-35V98q0-46 18-46l40 2q16 0 16-15 0-14-15-16-38-5-67-14t-63-22q-14-7-22-7t-8 9z"/><glyph unicode="v" glyph-name="v" horiz-adv-x="454" d="M218-21l-7 18-9 22-28 74q-26 66-58 138l-42 99q-8 20-21 34t-30 20q-10 4-14 7t-4 11q0 10 21 10 28 0 44-3 20-2 38-2t42 2q20 3 47 3 7 0 14-2t7-8q0-7-4-10t-11-5-8-4q-10-4-15-15t-6-26q0-20 4-29l75-194q2-1 3 0l70 182q7 17 7 38 0 18-6 28t-22 16q-13 4-18 7t-5 11q0 11 21 11 9 0 25-2 28-2 47-2 18 0 38 2 14 2 25 2 21 0 21-10 0-7-5-11t-17-8q-16-5-33-23t-27-43l-78-191q-9-19-20-46t-16-43q-2-5-12-27t-16-31h-12q-5 0-12 18z"/><glyph unicode="w" glyph-name="w" horiz-adv-x="709" d="M222-26l-3 9L78 330q-7 20-21 34t-30 19q-22 7-22 19 0 10 21 10 22 0 42-3 24-2 40-2t44 2q22 3 46 3 7 0 14-2t7-8q0-6-4-9t-10-6-9-4q-21-6-21-39 0-12 6-30l71-185q2-3 4-3 3 0 4 3l68 160q7 20 7 42 0 17-14 30t-33 22q-11 4-16 7t-5 12q0 10 22 10 10 0 34-2 19-3 45-3 29 0 51 3 28 2 39 2 21 0 21-11 0-7-5-10t-18-8q-14-5-22-12t-8-23q0-17 7-34l70-180q3-8 6-8t6 7l69 165q7 17 7 40 0 16-10 28t-23 16q-12 4-17 8t-6 11q0 10 21 10 18 0 38-2t35-2q17 0 33 2t28 2q21 0 21-10 0-11-21-19-16-5-30-22t-25-42L497-17q-3-8-12-8-6 0-11 8L363 251q-1 6-5 6-2 0-5-7L241-17q-5-9-12-9t-10 9z"/><glyph unicode="x" glyph-name="x" horiz-adv-x="456" d="M9-4V6q0 7 5 11t16 8q15 5 29 16t33 39l83 113q6 7 6 13t-4 11L97 337q-14 22-23 31t-24 14q-11 4-16 8t-6 11q0 10 20 10 22 0 44-2t46-2l34 1q20 2 35 2 23 0 23-11 0-5-3-7t-9-5-8-3q-12-4-17-8t-6-12q0-11 13-31l46-69q5-6 9 0l44 69q10 15 10 30 0 14-15 18l-8 4q-6 3-10 6t-4 9q0 10 23 10l29-1q9-1 26-1 18 0 40 2 14 2 23 2 22 0 22-10 0-12-22-19-41-14-65-48l-66-95q-3-4-3-8t3-10l93-149q23-37 55-47 11-4 16-8t5-11q0-10-21-10t-45 2q-26 2-50 2-15 0-43-2l-44-1q-12 0-18 3t-6 8q0 8 6 12t19 8q28 8 28 29 0 12-8 24l-56 89q-1 1-3 1t-3-1l-60-93q-8-13-8-27 0-19 16-24 11-4 16-7t6-11q0-11-23-11l-30 1q-10 1-26 1-19 0-43-2-16-2-25-2Q9-4 9 6z"/><glyph unicode="y" glyph-name="y" horiz-adv-x="453" d="M48-284l-18 12-18 36q0 20 9 34t27 15q9 0 25-4 4-1 9-2t11-1q11 0 17 3t11 14q35 56 73 150 6 15 6 32 0 19-8 37L74 330q-18 43-47 52-11 5-16 9t-5 11q0 9 21 9 23 0 47-2 20-2 35-2 18 0 40 2 26 2 47 2 8 0 14-3t7-8q0-13-26-22-12-3-17-11t-5-23q0-14 10-34l74-183q2-5 5-5 2 0 4 5l63 173q3 7 5 18t2 20q0 29-23 39-13 6-20 11t-7 12q0 5 7 8t14 3q11 0 31-2 22-2 40-2 16 0 34 2 16 2 29 2 21 0 21-9 0-7-5-11t-16-9q-17-5-33-23t-26-42L237-19q-37-92-91-218-10-23-29-35t-45-12q-24 0-42 12z"/><glyph unicode="z" glyph-name="z" horiz-adv-x="398" d="M36-5l-6 7-6 14q0 7 38 61 108 160 184 282 2 4 2 5 0 5-12 5l-83 3q-25 0-44-19-7-7-36-48l-15-21q-3-3-10-3t-12 3-3 10q21 80 21 109 0 8 6 14t11 6q6 0 17-9 7-6 45-6l39 1q99 0 194 3 7 0 11-8t0-13q-30-39-39-52L153 54q-3-4-3-7 0-8 14-8h98q25 0 47 23 12 12 26 32t29 44q5 6 11 6t10-3 5-10q0-8-12-54t-19-67q-3-15-17-15l-46 1q-80 4-172 4-18 0-31-1T71-3L41-5q-5 0-11 7z"/><glyph unicode="{" glyph-name="braceleft" horiz-adv-x="375" d="M250-149l-56 31-56 95q0 40 9 94 8 56 8 86 0 41-22 67t-62 39q-22 7-22 18 0 7 6 12t18 9q40 13 60 36t20 67q0 29-8 83-8 56-8 90 0 64 59 99t141 38q9 0 15-4t6-12q0-8-8-11t-22-6q-51-9-71-29t-21-69q0-36 9-86 8-54 8-81 0-46-41-82t-87-52q-4-2 2-4 46-15 86-53t41-84q0-27-8-81-9-50-9-86 0-51 20-71t70-26q2 0 10-1t13-5 5-9q0-7-6-11t-14-4q-85 3-141 34z"/><glyph unicode="|" glyph-name="bar" horiz-adv-x="266" d="M104-289l-5 5-5 13v938q0 13 12 21t26 13 21 5q7 0 12-4t6-12v-948q0-17-21-24t-40-7q-6 0-11 5z"/><glyph unicode="}" glyph-name="braceright" horiz-adv-x="375" d="M125-149l56 31 56 95q0 40-9 94-8 56-8 86 0 41 22 67t62 39q22 7 22 18 0 7-6 12t-18 9q-40 13-60 36t-20 67q0 29 8 83 8 56 8 90 0 64-59 99T38 715q-9 0-15-4t-6-12q0-8 8-11t22-6q51-9 71-29t21-69q0-36-9-86-8-54-8-81 0-46 41-82t87-52q4-2-2-4-46-15-86-53t-41-84q0-27 8-81 9-50 9-86 0-51-20-71t-70-26q-2 0-10-1t-13-5-5-9q0-7 6-11t14-4q85 3 141 34z"/><glyph unicode="~" glyph-name="asciitilde" horiz-adv-x="516" d="M324 256l-20 7-50 24q-29 15-49 23t-42 8q-25 0-46-14t-36-28-15-14q-6 0-13 7t-7 12q0 17 18 43t47 47 61 20q23 0 42-7t49-24q28-16 48-24t40-9q23 0 44 15t37 31 17 16q7 0 14-7t7-17q0-20-19-46t-48-44-56-19q-23 0-43 7z"/><glyph glyph-name="uni00A0" horiz-adv-x="213"/><glyph unicode="¡" glyph-name="exclamdown" horiz-adv-x="264" d="M121 285l-5-10-8-33Q95 139 86 42t-9-147q0-25 16-44t41-20q23 0 38 19t16 47q0 75-33 320l-3 25q-5 43-22 43-9 0-14-10zm-17 209l-19-19-19-45q0-27 19-46t46-19q26 0 45 19t19 46q0 26-19 45t-45 19q-27 0-46-19z"/><glyph unicode="¢" glyph-name="cent" horiz-adv-x="426" d="M195-40l-5 5-4 12 7 75q-44 8-81 36t-59 73-22 96q0 57 26 106t74 82 106 38l5 60q1 9 8 14t16 5q7 0 11-6t3-13l-4-59q73-5 113-51 5-6 5-14 0-14-14-27t-30-13q-17 0-25 12-24 40-54 49l-32-309q14-2 19-2 86 0 115 46 5 6 11 6 5 0 9-4t4-9q0-5-3-11-26-51-65-78t-98-29l-7-73q-1-7-7-12t-14-5q-8 0-13 5zm39 487h-2q-36 0-63-21t-41-57-14-74q0-58 23-98t65-57l32 307z"/><glyph unicode="£" glyph-name="sterling" horiz-adv-x="518" d="M480 182l11-17 12-43q0-38-24-74t-64-60-86-24q-42 0-73 14t-77 48q-17 13-39 23t-30 11q-5 0-20-18T63 6Q54-9 42-17t-25-8Q6-24-1-15t-8 26q0 32 29 58t71 34q8 1 14 13 11 23 16 66t12 120l-85-6q-6 0-11 4t-5 9q0 8 8 16t19 9l76 5 1 11q4 70 29 133t77 105 127 41q51 0 79-25t28-60q0-26-16-45t-38-19q-15 0-15 16 0 5 1 11t1 16q-1 30-16 51t-40 22q-46 0-71-59t-37-191l133 9q6 0 10-4t5-9q0-7-11-15t-24-10l-117-8q-10-63-34-118t-49-73q-3-2-2-6t5-4q39 0 71-9t69-27q36-16 58-23t45-8q25 0 38 11t13 31q0 15-10 47-7 21-7 30t6 15 15 7q21 0 32-17z"/><glyph unicode="¤" glyph-name="currency" horiz-adv-x="507" d="M58 53L47 64 36 85q0 5 3 8l57 57q-38 52-38 119t39 118l-58 58q-3 3-3 7 0 11 11 22t22 11q5 0 8-3l56-56q55 42 122 42t120-40l55 55q3 3 8 3 11 0 22-11t11-22q0-5-4-9l-54-55q40-53 40-120 0-69-40-120l56-55q3-4 3-8 0-10-11-21t-23-12q-5 0-8 3l-54 54q-52-41-121-41-71 0-122 42L77 56q-3-3-9-3-10 0-21 11zm236 69l33 20 53 53 20 74q0 39-19 72t-53 54-73 20q-39 0-72-19t-52-54-20-73q0-40 19-73t53-54 72-20q39 0 72 20z"/><glyph unicode="¥" glyph-name="yen" horiz-adv-x="599" d="M157-5V7q0 14 32 20 74 13 74 82l1 83H143q-6 0-11 4t-5 10q1 8 9 17t19 9h109v21q0 11-2 25H143q-6 0-11 4t-5 10q1 8 9 17t19 9h97L115 531q-50 78-85 88-16 6-23 10t-7 12q0 12 26 12 17 0 59-2 46-2 74-2 19 0 53 2 30 2 43 2 12 0 20-3t8-9q0-7-7-11t-24-10q-36-9-36-35 0-16 9-30l92-168q10-18 16-25t10-7q5 0 10 7t17 25l14 23q52 84 72 125 8 18 8 36 0 19-10 32t-28 16q-32 10-32 21 0 6 8 9t21 3l43-1q13-1 42-1 22 0 58 2 30 2 42 2 29 0 29-13 0-7-7-11t-24-9q-24-5-50-31t-46-55q-44-68-115-187-14-22-17-30l114-1q6 0 10-4t4-9q0-8-11-17t-24-9H370v-46h121q6 0 10-4t4-9q0-8-11-17t-24-10H370v-83q0-35 18-54t57-28q16-3 24-7t8-12q0-13-29-13-18 0-38 1t-30 2q-30 3-60 3-32 0-64-3-10 0-31-1t-39-2q-29 0-29 12z"/><glyph unicode="¦" glyph-name="brokenbar" horiz-adv-x="266" d="M104 269l-5 8-5 16v372q0 13 12 22t26 13 21 5q7 0 12-5t6-12V298q0-13-23-21t-38-8q-6 0-11 8zm0-559l-4 5-5 13v419q0 9 12 16t27 13 20 5q7 0 12-7t6-16v-417q0-17-22-24t-40-7q-6 0-10 5z"/><glyph unicode="§" glyph-name="section" horiz-adv-x="415" d="M101-148l-19 10-20 25q0 11 7 27t23 29q2 2 7 2 7 0 18-8 14-12 35-19t41-7q25 0 38 20t13 57q0 30-25 62t-77 82l-18 17q-49 48-73 92t-25 88q0 61 18 101t53 79q14 52 54 91t93 40q22 0 46-6t33-16q13-11 13-20 0-3-6-17t-16-25-20-11q-7 0-14 7-17 16-36 27t-32 11q-29 0-44-18t-16-44q0-26 30-64t80-83q58-51 82-102t24-122q0-91-49-171T190-136q-23-12-60-12-29 0-48 10zM301 51h4l5 4q9 38 9 70 0 47-22 88t-69 87Q124 404 107 450q-1 3-4 3t-6-3q-12-36-12-70 0-45 22-86t69-88q53-54 83-88t41-63q1-4 5-4z"/><glyph unicode="¨" glyph-name="dieresis" horiz-adv-x="319" d="M46 503l-17 17-18 40q0 23 17 40t40 18q23 0 41-17t18-41q0-22-18-39t-41-18q-22 0-39 17zm183 0l-17 17-18 40q0 23 17 40t40 18q23 0 41-17t18-41q0-22-18-39t-41-18q-22 0-39 17z"/><glyph unicode="©" glyph-name="copyright" horiz-adv-x="671" d="M261 21l-70 41L80 174 39 327q0 83 41 153t111 111 154 42q83 0 153-41t111-112 41-153q0-83-41-153T497 63 344 21q-83 0-153 41zm154 40l60 36 95 97 35 133q0 70-35 131t-95 97-130 36q-71 0-130-36t-95-96-35-132q0-71 34-132t94-98 131-36q71 0 131 36zm-107 87l-41 24-65 66-24 88q0 49 26 88t72 62 101 23q20 0 44-4t43-12q9-3 11-5t4-9q5-26 3-64 0-6-4-10t-9-4q-9 0-14 15-8 24-25 36-25 20-60 20-50 0-79-37t-29-94q0-62 28-104t83-42q32 0 54 11t34 37q8 15 17 15t9-15q0-18-14-52-4-7-8-9t-8-6q-39-18-99-18-50 0-91 24z"/><glyph unicode="ª" glyph-name="ordfeminine" horiz-adv-x="324" d="M83 273l-20 20-20 41q0 21 10 34t35 23l71 26q13 5 16 9t3 16v25q0 17-8 26t-25 10q-12 0-23-3t-16-9q-2-3-2-10l1-16q0-10-54-23h-2q-4 0-5 3t1 10q6 14 11 22t17 19q18 16 48 29t56 14q30 0 52-19t21-48l-3-119q0-37 20-37 7 0 11 2t6 4q6 4 7 4 4 0 7-4t3-9q0-6-12-18-22-22-46-22-23 0-35 10t-21 24h-4q-15-15-33-24t-44-10q-23 0-43 20zm65 44l6 3 16 11q3 3 4 7t2 11l1 38q0 7-3 9t-11 0q-53-16-53-47 0-16 9-24t20-8q9 0 15 3zm132-118l5-4 5-9-1-3q-13-23-34-23H48q-6 0-10 4t-5 10q0 8 8 16t18 9h216q5 0 10-4z"/><glyph unicode="«" glyph-name="guillemotleft" horiz-adv-x="591" d="M303 18l-19 19q-53 50-102 84T77 181q-9 5-15 14t-6 18q0 8 5 10 85 51 129 83t98 82q19 19 31 19 6 0 6-10 0-7-5-15-40-61-72-94t-76-68q-7-5-7-7 0-1 7-8 41-33 74-68t74-96q4-8 4-11 0-4-2-8t-6-4q-13 0-32 19zm211 0l-19 19q-53 50-102 84t-105 60q-9 5-15 14t-6 18q0 8 5 10 85 51 129 83t98 82q19 19 31 19 6 0 6-10 0-7-5-15-40-61-72-94t-76-68q-7-5-7-7 0-1 7-8 41-33 74-68t74-96q4-8 4-11 0-4-2-8t-6-4q-13 0-32 19z"/><glyph unicode="¬" glyph-name="logicalnot" horiz-adv-x="608" d="M496 43l-4 4-4 11v245q0 17-15 17H60q-6 0-11 4t-5 9q0 15 6 33t21 18h466q7 0 11-5t4-11V70q0-15-18-21t-33-6q-5 0-9 4z"/><glyph unicode="­" glyph-name="uni00AD" horiz-adv-x="289" d="M28 168v7q0 23 4 39t14 18q128 19 204 26h2q9 0 9-9 0-51-21-54-134-21-205-27-7 0-7 7z"/><glyph unicode="®" glyph-name="registered" horiz-adv-x="672" d="M262 21l-70 41L81 174 40 327q0 83 41 153t111 111 154 42q83 0 153-41t111-112 41-153q0-83-41-153T498 63 345 21q-83 0-153 41zm154 40l60 36 95 97 35 133q0 70-35 130t-95 95-130 35q-71 0-130-35t-95-95-35-130q0-72 34-133t94-97 131-36q71 0 131 36zm29 111l-38 43-57 90q-5 14-30 14-13 0-13-10v-79q0-15 9-21t27-11q17-6 17-15 0-5-4-8t-10-4q-16 0-38 2t-34 2q-12 0-30-2-20-2-36-2-4 0-9 4t-5 8q0 9 17 15 15 4 21 10t6 22v200q0 18-2 25t-5 9-18 6q-17 4-17 15 0 5 4 8t13 2q7 0 15-1t13-2q20-2 31-2 14 0 42 2 24 3 51 3 45 0 75-21t30-58q0-29-17-49t-44-31q-4-1-4-4t1-5 2-5q12-30 32-56t42-43 35-17h6q7 0 7-5 0-13-15-21t-36-8q-34 0-72 43zm-85 177l20 17 21 44q0 25-17 39t-44 15q-19 0-26-6t-8-21v-69q0-12 6-15t19-4q29 0 49 17z"/><glyph unicode="¯" glyph-name="overscore" horiz-adv-x="319" d="M36 503l-4 4-5 10q0 16 8 33t21 17h222q6 0 10-4t5-10q0-20-9-35t-25-15H43q-7 0-11 4z"/><glyph unicode="°" glyph-name="degree" horiz-adv-x="310" d="M120 394l-29 19-48 49-18 65q0 34 17 63t48 46 65 18q35 0 65-17t47-45 18-63q0-34-17-65t-48-50-65-20q-35 0-64 19zm67 48l23 24 24 58q0 34-23 57t-56 24q-33 0-56-23t-23-58q0-34 23-58t56-24q32 0 55 24z"/><glyph unicode="±" glyph-name="plusminus" horiz-adv-x="593" d="M278 122l-4 5-4 10v208q0 8-6 8H59q-6 0-10 3t-5 9q0 12 6 26t20 14h191q6 0 7 2t2 8v171q0 13 14 22t24 10q6 0 10-5t5-11V414q0-6 1-7t6-2h203q6 0 11-3t5-9q0-12-10-26t-22-14H330q-7 0-7-7V148q0-12-14-19t-26-7q-5 0-9 5zM54 35l-5 4-5 9q0 12 7 26t20 15h461q7 0 12-3t6-10q0-12-10-26t-24-15H60q-6 0-11 4z"/><glyph unicode="²" glyph-name="uni00B2" horiz-adv-x="315" d="M235 437l-38 2q-40 2-61 2l-71-1q-14-1-31-1-4 0-8 3t-4 6q0 4 7 10l38 37q50 50 80 90t30 79q0 28-14 43t-39 16q-23 0-39-9t-34-31q-6-8-12-8-4 0-6 4t-3 11q0 13 15 34t44 37 63 16q45 0 71-26t26-66q0-20-10-43t-30-45q-19-23-49-52t-48-43l-1-1q0-1 4-2t7-1h81q19 0 34 12t31 35q3 4 6 7t9 4q5 0 6-3t1-7q-20-53-29-95-1-7-4-10t-6-4q-16 0-54 2z"/><glyph unicode="³" glyph-name="uni00B3" horiz-adv-x="288" d="M71 434l-20 10-20 28q0 11 5 20t13 9q7 0 15-8 18-15 30-22t28-7q24 0 39 20t15 54q0 22-17 42t-42 20q-11 0-23-4t-17-5q-5 0-10 2t-4 7q1 8 13 15t25 12 17 8q26 12 37 26t12 35q0 16-14 27t-32 12q-41 0-67-34-7-9-10-9t-7 6-4 9q0 10 15 27t39 29 53 13q35 0 62-19t27-50q0-24-14-39t-45-29q-5-3 0-5 32-7 54-26t22-49q0-36-21-64t-55-45-74-16q-25 0-45 10z"/><glyph unicode="´" glyph-name="acute" horiz-adv-x="213" d="M26 456v10q0 7 4 19 9 25 33 72t40 75q11 20 33 20 23 0 38-5t15-17q0-7-4-14t-6-8q-22-30-56-70t-59-63q-19-19-29-19-9 0-9 10z"/><glyph unicode="µ" glyph-name="uni00B5" horiz-adv-x="545" d="M126-285l-12 15-21 44Q85-197 82 0q0 108-2 270-1 53-1 122 0 16 7 22t29 6q28 0 49-10t22-23q0-28-21-144-17-89-17-106 0-25 15-48t41-23q36 0 61 26t54 93q13 70 18 217 1 11 5 15t18 4q32 0 56-14t25-29q0-33-13-84t-40-129q0-30 18-55t50-25q17 0 31 7t26 16 15 10q5 0 8-3t4-7q0-38-14-66T488 0t-46-15q-25 0-45 28t-27 72q-1 8-2 19t-1 18h-2q-6-13-28-46t-48-62-47-28q-24 0-44 13t-41 35q-15 17-16 19-12 15-15 15-4 0-6-8t-3-23l2-70 2-87q1-31 18-52t46-41q10-7 17-13t8-12q0-17-21-32t-40-15q-23 0-35 15z"/><glyph unicode="¶" glyph-name="paragraph" horiz-adv-x="607" d="M237-297l-38 32-39 84q0 34 17 61t44 42 55 16q33 0 51-15t19-40q0-23-13-38t-33-15q-16 0-32 16-2 2-10 9t-17 8q-13 0-24-14t-11-38q0-29 26-50t64-21q40 0 69 32t29 99V74q0 10-3 18t-11 8q-95 0-173 31T82 224 35 373q0 144 99 209t284 66q39 0 81-2t64-5q8-1 12-8t4-15q0-9-4-20t-11-12q-4 1-36 8t-73 8q-7 0-13-6t-6-15v-709q0-79-41-124t-104-45q-54 0-92 32z"/><glyph unicode="·" glyph-name="middot" horiz-adv-x="219" d="M84 143l-19 19-19 45q0 27 19 46t45 19q26 0 45-19t19-46q0-26-19-45t-45-19q-26 0-45 19z"/><glyph unicode="¸" glyph-name="cedilla" horiz-adv-x="226" d="M49-274l-8 9-8 34q0 21 14 21 5 0 22-6t36-6q17 0 26 11t9 32q0 25-17 38t-41 14q-8 0-16-4t-12-4q-7 0-13 5t-6 14q0 7 8 15L131 8h36l-37-47q-5-8-5-11 0-5 11-11 26-11 42-31t17-47q0-36-22-67t-53-49-53-19q-18 0-26 9z"/><glyph unicode="¹" glyph-name="uni00B9" horiz-adv-x="256" d="M43 440l-4 4-4 9q0 6 3 10t10 6q27 3 38 9t11 28v161q0 19-14 31t-33 15q-6 1-10 4t-4 8q0 6 3 10t9 5q61 6 103 39 1 2 4 3t5 1q5 0 7-3t2-9q-1-5-3-22t-2-39V507q0-15 3-21t12-10 31-7q12-3 12-15 0-6-3-10t-8-4q-27 0-53 2l-29 1-31-1q-24-2-50-2-5 0-9 4z"/><glyph unicode="º" glyph-name="ordmasculine" horiz-adv-x="315" d="M103 273l-38 35-39 90q0 38 19 70t53 52 74 19q36 0 67-17t51-46 19-62q0-59-39-100t-111-41q-56 0-94 35zm98 32l13 27 13 67q0 42-18 74t-47 32q-30 0-42-27t-13-66q0-43 18-75t47-32q29 0 42 27zm84-106l5-4 5-9-1-3q-13-23-34-23H37q-6 0-10 4t-5 10q0 8 8 16t18 9h232q5 0 10-4z"/><glyph unicode="»" glyph-name="guillemotright" horiz-adv-x="591" d="M288 18l19 19q53 50 102 84t105 60q9 5 15 14t6 18q0 8-5 10-85 51-129 83t-98 82q-19 19-31 19-6 0-6-10 0-7 5-15 40-61 72-94t76-68q7-5 7-7 0-1-7-8-41-33-74-68t-74-96q-4-8-4-11 0-4 2-8t6-4q13 0 32 19zM77 18l19 19q53 50 102 84t105 60q9 5 15 14t6 18q0 8-5 10-85 51-129 83t-98 82q-19 19-31 19-6 0-6-10 0-7 5-15 40-61 72-94t76-68q7-5 7-7 0-1-7-8-41-33-74-68T60 41q-4-8-4-11 0-4 2-8t6-4q13 0 32 19z"/><glyph unicode="¼" glyph-name="onequarter" horiz-adv-x="653" d="M43 278l-4 4-4 9q0 6 3 10t10 6q27 3 38 9t11 28v161q0 19-14 31t-33 15q-6 1-10 4t-4 8q0 6 3 10t9 5q61 6 103 39 1 2 4 3t5 1q5 0 7-3t2-9q-1-5-3-22t-2-39V345q0-15 3-21t12-10 31-7q12-3 12-15 0-6-3-10t-8-4q-27 0-53 2l-29 1-31-1q-24-2-50-2-5 0-9 4zm506 379l10 4 26 4q6 0 11-5t5-10q0-3-1-4L172-32q-6-10-15-13t-25-3q-7 0-13 4t-6 9q0 2 1 3l428 678q7 11 17 15zM512-8v97q0 3-3 4t-6 2q-25 0-75-2-42-2-70-2-3 0-5 2t-3 4v2q0 1 1 1 18 23 44 54t40 48l55 65q22 27 61 66 13 13 20 13 4 0 4-9V139q0-7 7-7h20q20 0 33 1 6 0 6-7 0-8-5-18t-10-11h-39q-7 0-9-1t-3-6V22q0-10-22-20T522-8q-10 0-10 8zm-7 141q2 0 4 1t3 4v105q0 2-2 2t-3-1q-45-49-91-106-1-2-1-3t2-2h88z"/><glyph unicode="½" glyph-name="onehalf" horiz-adv-x="718" d="M43 278l-4 4-4 9q0 6 3 10t10 6q27 3 38 9t11 28v161q0 19-14 31t-33 15q-6 1-10 4t-4 8q0 6 3 10t9 5q61 6 103 39 1 2 4 3t5 1q5 0 7-3t2-9q-1-5-3-22t-2-39V345q0-15 3-21t12-10 31-7q12-3 12-15 0-6-3-10t-8-4q-27 0-53 2l-29 1-31-1q-24-2-50-2-5 0-9 4zm506 379l10 4 26 4q6 0 11-5t5-10q0-3-1-4L172-32q-6-10-15-13t-25-3q-7 0-13 4t-6 9q0 2 1 3l428 678q7 11 17 15zm89-674l-38 2q-40 2-61 2l-71-1q-14-1-31-1-4 0-8 3t-4 6q0 4 7 10l38 37q50 50 80 90t30 79q0 28-14 43t-39 16q-23 0-39-9t-34-31q-6-8-12-8-4 0-6 4t-3 11q0 13 15 34t44 37 63 16q45 0 71-26t26-66q0-20-10-43t-30-45q-19-23-49-52t-48-43l-1-1q0-1 4-2t7-1h81q19 0 34 12t31 35q3 4 6 7t9 4q5 0 6-3t1-7q-20-53-29-95-1-7-4-10t-6-4q-16 0-54 2z"/><glyph unicode="¾" glyph-name="threequarters" horiz-adv-x="643" d="M71 274l-20 10-20 28q0 11 5 20t13 9q7 0 15-8 18-15 30-22t28-7q24 0 39 20t15 54q0 22-17 42t-42 20q-11 0-23-4t-17-5q-5 0-10 2t-4 7q1 8 13 15t25 12 17 8q26 12 37 26t12 35q0 16-14 27t-32 12q-41 0-67-34-7-9-10-9t-7 6-4 9q0 10 15 27t39 29 53 13q35 0 62-19t27-50q0-24-14-39t-45-29q-5-3 0-5 32-7 54-26t22-49q0-36-21-64t-55-45-74-16q-25 0-45 10zm468 383l10 4 26 4q6 0 11-5t5-10q0-3-1-4L162-32q-6-10-15-13t-25-3q-7 0-13 4t-6 9q0 2 1 3l428 678q7 11 17 15zM503-8v97q0 3-3 4t-6 2q-25 0-75-2-42-2-70-2-3 0-5 2t-3 4v2q0 1 1 1 18 23 44 54t40 48l55 65q22 27 61 66 13 13 20 13 4 0 4-9V139q0-7 7-7h20q20 0 33 1 6 0 6-7 0-8-5-18t-10-11h-39q-7 0-9-1t-3-6V22q0-10-22-20T513-8q-10 0-10 8zm-7 141q2 0 4 1t3 4v105q0 2-2 2t-3-1q-45-49-91-106-1-2-1-3t2-2h88z"/><glyph unicode="¿" glyph-name="questiondown" horiz-adv-x="383" d="M249 302l8-9 12-21q10-26 14-43t5-44q0-28-25-49t-82-49q-27-13-44-32t-18-41q0-43 24-69t68-27q14 0 32 5 3 0 11 1t16 2q18 0 33-22t16-44q0-15-16-28t-35-13q-30 0-62 15t-59 43q-39 40-63 92T60 64q0 35 12 57t32 31q39 21 87 51 20 12 26 29t9 47q1 9 5 16t13 7q5 0 13-9zm12 192l19-19 19-45q0-27-19-46t-45-19q-27 0-46 19t-19 46q0 26 19 45t46 19q26 0 45-19z"/><glyph unicode="À" glyph-name="Agrave" horiz-adv-x="702" d="M13-5L5-2-3 9q0 14 30 23 29 8 50 25t35 48q52 119 92 221t90 239q14 36 18 66 29 7 48 17 12 6 19 18t10 16q6 4 9-2 3-5 5-12t3-12q60-191 157-478l20-59q16-46 38-64t57-25q15-3 22-9t8-14q0-11-26-11l-62 2q-43 3-85 3l-68-1q-20-1-53-1-12 0-19 3t-8 10q0 7 8 12t22 8q35 6 50 18t12 32q-1 18-10 54t-19 72q-2 5-7 23-2 7-7 9t-17 3H234q-10 0-17-17-10-30-23-74t-15-59q-6-46 59-62 30-7 30-20 0-12-27-12-25 0-40 1l-57 1q-15 0-35-1T79-2Q51-5 25-5 13-5 5-2zm395 289q6 0 10 1t4 4q0 1-2 11l-74 237q-5 16-8 16-2 0-7-15l-87-238-2-8q0-5 5-6t15-2h146zm-17 400l-13 9q-16 12-52 36-60 41-91 65-8 6-11 10t-4 10q-1 9 23 18t40 10q20 0 29-13 37-46 88-121 7-10 7-17t-8-7q-8 0-21 9z"/><glyph unicode="Á" glyph-name="Aacute" horiz-adv-x="702" d="M13-5L5-2-3 9q0 14 30 23 29 8 50 25t35 48q52 119 92 221t90 239q14 36 18 66 29 7 48 17 12 6 19 18t10 16q6 4 9-2 3-5 5-12t3-12q60-191 157-478l20-59q16-46 38-64t57-25q15-3 22-9t8-14q0-11-26-11l-62 2q-43 3-85 3l-68-1q-20-1-53-1-12 0-19 3t-8 10q0 7 8 12t22 8q35 6 50 18t12 32q-1 18-10 54t-19 72q-2 5-7 23-2 7-7 9t-17 3H234q-10 0-17-17-10-30-23-74t-15-59q-6-46 59-62 30-7 30-20 0-12-27-12-25 0-40 1l-57 1q-15 0-35-1T79-2Q51-5 25-5 13-5 5-2zm395 289q6 0 10 1t4 4q0 1-2 11l-74 237q-5 16-8 16-2 0-7-15l-87-238-2-8q0-5 5-6t15-2h146zm-87 400v7q0 7 7 17 51 75 88 121 9 13 29 13 15-1 39-10t24-18q-1-6-4-10t-11-10q-31-24-91-65-36-24-52-36-13-9-21-9t-8 7z"/><glyph unicode="Â" glyph-name="Acircumflex" horiz-adv-x="702" d="M13-5L5-2-3 9q0 14 30 23 29 8 50 25t35 48q52 119 92 221t90 239q14 36 18 66 29 7 48 17 12 6 19 18t10 16q6 4 9-2 3-5 5-12t3-12q60-191 157-478l20-59q16-46 38-64t57-25q15-3 22-9t8-14q0-11-26-11l-62 2q-43 3-85 3l-68-1q-20-1-53-1-12 0-19 3t-8 10q0 7 8 12t22 8q35 6 50 18t12 32q-1 18-10 54t-19 72q-2 5-7 23-2 7-7 9t-17 3H234q-10 0-17-17-10-30-23-74t-15-59q-6-46 59-62 30-7 30-20 0-12-27-12-25 0-40 1l-57 1q-15 0-35-1T79-2Q51-5 25-5 13-5 5-2zm395 289q6 0 10 1t4 4q0 1-2 11l-74 237q-5 16-8 16-2 0-7-15l-87-238-2-8q0-5 5-6t15-2h146zM216 695v11q0 7 7 13l101 87q17 15 25 19t19 5q11 0 19-4t25-20l101-87q6-5 6-13 0-12-15-12-10 0-56 20t-69 34q-5 4-11 4t-11-4q-23-13-69-33t-56-20q-16 0-16 11z"/><glyph unicode="Ã" glyph-name="Atilde" horiz-adv-x="702" d="M13-5L5-2-3 9q0 14 30 23 29 8 50 25t35 48q52 119 92 221t90 239q14 36 18 66 29 7 48 17 12 6 19 18t10 16q6 4 9-2 3-5 5-12t3-12q60-191 157-478l20-59q16-46 38-64t57-25q15-3 22-9t8-14q0-11-26-11l-62 2q-43 3-85 3l-68-1q-20-1-53-1-12 0-19 3t-8 10q0 7 8 12t22 8q35 6 50 18t12 32q-1 18-10 54t-19 72q-2 5-7 23-2 7-7 9t-17 3H234q-10 0-17-17-10-30-23-74t-15-59q-6-46 59-62 30-7 30-20 0-12-27-12-25 0-40 1l-57 1q-15 0-35-1T79-2Q51-5 25-5 13-5 5-2zm395 289q6 0 10 1t4 4q0 1-2 11l-74 237q-5 16-8 16-2 0-7-15l-87-238-2-8q0-5 5-6t15-2h146zM242 692l-6 5-6 11q0 6 16 29t34 42 30 19q28 0 74-4l21-1q32-2 50-2 20 0 37 19 6 6 12 13t8 7q7 0 14-5t7-12q0-4-7-12t-9-10q-13-15-44-57-5-7-14-10t-16-4q-6 0-56 4-82 5-88 5-7 0-16-4t-16-11q-7-7-12-14t-8-8q-5 0-11 5z"/><glyph unicode="Ä" glyph-name="Adieresis" horiz-adv-x="702" d="M13-5L5-2-3 9q0 14 30 23 29 8 50 25t35 48q52 119 92 221t90 239q14 36 18 66 29 7 48 17 12 6 19 18t10 16q6 4 9-2 3-5 5-12t3-12q60-191 157-478l20-59q16-46 38-64t57-25q15-3 22-9t8-14q0-11-26-11l-62 2q-43 3-85 3l-68-1q-20-1-53-1-12 0-19 3t-8 10q0 7 8 12t22 8q35 6 50 18t12 32q-1 18-10 54t-19 72q-2 5-7 23-2 7-7 9t-17 3H234q-10 0-17-17-10-30-23-74t-15-59q-6-46 59-62 30-7 30-20 0-12-27-12-25 0-40 1l-57 1q-15 0-35-1T79-2Q51-5 25-5 13-5 5-2zm395 289q6 0 10 1t4 4q0 1-2 11l-74 237q-5 16-8 16-2 0-7-15l-87-238-2-8q0-5 5-6t15-2h146zM246 692l-17 17-17 41q0 25 17 41t41 17q25 0 42-16t17-42q0-24-17-41t-42-17q-24 0-41 17zm196 0l-17 17-17 41q0 25 17 41t41 17q25 0 41-16t17-42q0-24-16-41t-42-17q-24 0-41 17z"/><glyph unicode="Å" glyph-name="Aring" horiz-adv-x="702" d="M13-5L5-2-3 9q0 14 30 23 29 8 50 25t35 48q52 119 92 221t90 239q14 36 18 66 29 7 48 17 12 6 19 18t10 16q6 4 9-2 3-5 5-12t3-12q60-191 157-478l20-59q16-46 38-64t57-25q15-3 22-9t8-14q0-11-26-11l-62 2q-43 3-85 3l-68-1q-20-1-53-1-12 0-19 3t-8 10q0 7 8 12t22 8q35 6 50 18t12 32q-1 18-10 54t-19 72q-2 5-7 23-2 7-7 9t-17 3H234q-10 0-17-17-10-30-23-74t-15-59q-6-46 59-62 30-7 30-20 0-12-27-12-25 0-40 1l-57 1q-15 0-35-1T79-2Q51-5 25-5 13-5 5-2zm395 289q6 0 10 1t4 4q0 1-2 11l-74 237q-5 16-8 16-2 0-7-15l-87-238-2-8q0-5 5-6t15-2h146zm-2 564l26-19 27-52q0-36-29-58t-70-23q-38 0-64 20t-27 53q0 35 30 57t70 22q37 0 63-19zm-88-97l14-15 37-15q19 0 30 15t11 36q0 21-14 35t-35 15q-19 0-31-15t-12-35q0-21 14-36z"/><glyph unicode="Æ" glyph-name="AE" horiz-adv-x="885" d="M-5-5V8q0 7 7 12t23 10q26 7 53 31t46 57l280 477 2 5q0 9-15 11l-69 13q-13 4-13 15 0 5 3 9t10 4l69-1q60-2 97-2 28 0 223 3l86 1q7 0 13-3t7-9q13-67 14-112 0-6-4-9t-10-4q-10 0-14 12-9 25-15 39t-15 23q-22 25-66 25H596q-15 0-28-8t-14-23V357q0-10 5-16t15-6l93 1q16 1 27 8t21 23q5 6 13 18 4 7 8 12t10 5q4 0 8-5t4-13q-3-37-3-66 0-32 3-76v-4q0-16-9-16-8 0-14 7t-10 16q-7 25-20 37t-28 13q-39 2-100 2-10 0-16-6t-7-17V107q0-30 15-49t46-20h99q12 0 38 6t36 13q25 20 47 71 3 7 6 10t9 2q5 0 9-3t4-9q0-41-21-117-4-16-17-16-61 0-138 3-29 1-87 2T500 1q-29 0-58-3-9 0-28-1t-38-2q-12 0-19 3t-7 9q0 13 30 19 37 8 53 23t16 47v162q0 18-21 18H287q-10 0-16-5t-12-17q-25-42-74-143-8-18-8-30 0-20 17-31t48-19q29-7 29-20 0-12-26-12t-41 1l-58 1q-16 0-36-1T78-2Q49-5 23-5-5-5-5 8zm438 328q10 0 13 2t3 12v232q0 16-4 16-3 0-11-14L305 339q-4-7-3-11 0-5 16-5h115z"/><glyph unicode="Ç" glyph-name="Ccedilla" horiz-adv-x="710" d="M309-15l-84 42L91 146 40 321q0 94 52 172t142 124 198 46q51 0 89-7t91-22q13-4 19-11t8-21q6-58 9-116 0-7-5-11t-12-5q-15 0-19 15-10 38-22 62t-34 40q-49 38-138 38-73 0-130-39t-90-103-33-137q0-85 31-159t90-118 137-45q71 0 118 31t80 95q8 14 21 14 6 0 10-4t4-12q0-14-7-45t-18-58q-6-13-11-18t-19-10Q564 2 513-6t-107-9q-97 0-181 42zm-1-260l-12 8-12 28q0 15 5 24t13 9q2 0 16-6t46-7q20 0 31 10t12 29q0 24-12 36t-36 13q-6 0-13-2t-12-2q-12 0-19 6t-8 13q0 8 6 16L397 8h37l-37-53q-4-5-4-10 0-7 10-12 26-9 45-32t20-54q0-32-22-60t-55-45-59-17q-24 0-36 8z"/><glyph unicode="È" glyph-name="Egrave" horiz-adv-x="568" d="M31-5V7q0 13 29 19 38 8 54 23t16 49v452q0 34-14 48t-51 23q-29 6-29 20 0 6 7 9t19 4q35 0 87-2 50-2 80-2 67 0 165 2 33 0 56 1t27 2q7 0 13-3t7-9l5-30q11-57 11-82 0-9-4-13t-10-4q-9 0-14 12-1 4-6 19t-11 26-10 16q-27 28-68 28H278q-14 0-28-10t-14-26V375q0-10 6-16t15-6h94q27 0 38 12t20 41q7 20 19 20 5 0 9-5t4-13q-4-56-4-73 0-37 3-79v-4q0-16-9-16-16 0-24 29-7 27-17 39t-30 13h-93q-17 0-24-5t-7-21V100q0-34 14-48t47-14h79q58 0 85 19 16 11 29 29t28 49q8 13 17 12 11 0 11-16t-10-52-21-68q-7-16-17-16-70 0-150 3-27 1-69 2t-99 1q-28 0-57-3-57-3-66-3Q31-5 31 7zm290 689l-13 9q-16 12-52 36-60 41-91 65-8 6-11 10t-4 10q-1 9 23 18t40 10q20 0 29-13 37-46 88-121 7-10 7-17t-8-7q-8 0-21 9z"/><glyph unicode="É" glyph-name="Eacute" horiz-adv-x="568" d="M31-5V7q0 13 29 19 38 8 54 23t16 49v452q0 34-14 48t-51 23q-29 6-29 20 0 6 7 9t19 4q35 0 87-2 50-2 80-2 67 0 165 2 33 0 56 1t27 2q7 0 13-3t7-9l5-30q11-57 11-82 0-9-4-13t-10-4q-9 0-14 12-1 4-6 19t-11 26-10 16q-27 28-68 28H278q-14 0-28-10t-14-26V375q0-10 6-16t15-6h94q27 0 38 12t20 41q7 20 19 20 5 0 9-5t4-13q-4-56-4-73 0-37 3-79v-4q0-16-9-16-16 0-24 29-7 27-17 39t-30 13h-93q-17 0-24-5t-7-21V100q0-34 14-48t47-14h79q58 0 85 19 16 11 29 29t28 49q8 13 17 12 11 0 11-16t-10-52-21-68q-7-16-17-16-70 0-150 3-27 1-69 2t-99 1q-28 0-57-3-57-3-66-3Q31-5 31 7zm220 689v7q0 7 7 17 51 75 88 121 9 13 29 13 15-1 39-10t24-18q-1-6-4-10t-11-10q-31-24-91-65-36-24-52-36-13-9-21-9t-8 7z"/><glyph unicode="Ê" glyph-name="Ecircumflex" horiz-adv-x="568" d="M31-5V7q0 13 29 19 38 8 54 23t16 49v452q0 34-14 48t-51 23q-29 6-29 20 0 6 7 9t19 4q35 0 87-2 50-2 80-2 67 0 165 2 33 0 56 1t27 2q7 0 13-3t7-9l5-30q11-57 11-82 0-9-4-13t-10-4q-9 0-14 12-1 4-6 19t-11 26-10 16q-27 28-68 28H278q-14 0-28-10t-14-26V375q0-10 6-16t15-6h94q27 0 38 12t20 41q7 20 19 20 5 0 9-5t4-13q-4-56-4-73 0-37 3-79v-4q0-16-9-16-16 0-24 29-7 27-17 39t-30 13h-93q-17 0-24-5t-7-21V100q0-34 14-48t47-14h79q58 0 85 19 16 11 29 29t28 49q8 13 17 12 11 0 11-16t-10-52-21-68q-7-16-17-16-70 0-150 3-27 1-69 2t-99 1q-28 0-57-3-57-3-66-3Q31-5 31 7zm115 700v11q0 7 7 13l101 87q17 15 25 19t19 5q11 0 19-4t25-20l101-87q6-5 6-13 0-12-15-12-10 0-56 20t-69 34q-5 4-11 4t-11-4q-23-13-69-33t-56-20q-16 0-16 11z"/><glyph unicode="Ë" glyph-name="Edieresis" horiz-adv-x="568" d="M31-5V7q0 13 29 19 38 8 54 23t16 49v452q0 34-14 48t-51 23q-29 6-29 20 0 6 7 9t19 4q35 0 87-2 50-2 80-2 67 0 165 2 33 0 56 1t27 2q7 0 13-3t7-9l5-30q11-57 11-82 0-9-4-13t-10-4q-9 0-14 12-1 4-6 19t-11 26-10 16q-27 28-68 28H278q-14 0-28-10t-14-26V375q0-10 6-16t15-6h94q27 0 38 12t20 41q7 20 19 20 5 0 9-5t4-13q-4-56-4-73 0-37 3-79v-4q0-16-9-16-16 0-24 29-7 27-17 39t-30 13h-93q-17 0-24-5t-7-21V100q0-34 14-48t47-14h79q58 0 85 19 16 11 29 29t28 49q8 13 17 12 11 0 11-16t-10-52-21-68q-7-16-17-16-70 0-150 3-27 1-69 2t-99 1q-28 0-57-3-57-3-66-3Q31-5 31 7zm145 697l-17 17-17 41q0 25 17 41t41 17q25 0 42-16t17-42q0-24-17-41t-42-17q-24 0-41 17zm196 0l-17 17-17 41q0 25 17 41t41 17q25 0 41-16t17-42q0-24-16-41t-42-17q-24 0-41 17z"/><glyph unicode="Ì" glyph-name="Igrave" horiz-adv-x="348" d="M18-4V8q0 7 7 11t22 8q39 7 56 22t18 49v452q0 34-14 48t-52 23q-29 6-29 20 0 13 25 13 27 0 69-2 38-2 58-2l56 1q38 2 66 2 26 0 26-12 0-14-29-20-40-8-55-23t-15-48V98q0-32 17-47t58-24q15-3 22-7t7-12q0-12-25-12-36 0-68 3-40 2-60 2-22 0-64-2-33-3-70-3Q18-4 18 8zm180 688l-13 9q-16 12-52 36-60 41-91 65-8 6-11 10t-4 10q-1 9 23 18t40 10q20 0 29-13 37-46 88-121 7-10 7-17t-8-7q-8 0-21 9z"/><glyph unicode="Í" glyph-name="Iacute" horiz-adv-x="348" d="M18-4V8q0 7 7 11t22 8q39 7 56 22t18 49v452q0 34-14 48t-52 23q-29 6-29 20 0 13 25 13 27 0 69-2 38-2 58-2l56 1q38 2 66 2 26 0 26-12 0-14-29-20-40-8-55-23t-15-48V98q0-32 17-47t58-24q15-3 22-7t7-12q0-12-25-12-36 0-68 3-40 2-60 2-22 0-64-2-33-3-70-3Q18-4 18 8zm110 688v7q0 7 7 17 51 75 88 121 9 13 29 13 15-1 39-10t24-18q-1-6-4-10t-11-10q-31-24-91-65-36-24-52-36-13-9-21-9t-8 7z"/><glyph unicode="Î" glyph-name="Icircumflex" horiz-adv-x="348" d="M18-4V8q0 7 7 11t22 8q39 7 56 22t18 49v452q0 34-14 48t-52 23q-29 6-29 20 0 13 25 13 27 0 69-2 38-2 58-2l56 1q38 2 66 2 26 0 26-12 0-14-29-20-40-8-55-23t-15-48V98q0-32 17-47t58-24q15-3 22-7t7-12q0-12-25-12-36 0-68 3-40 2-60 2-22 0-64-2-33-3-70-3Q18-4 18 8zm5 699v11q0 7 7 13l101 87q17 15 25 19t19 5q11 0 19-4t25-20l101-87q6-5 6-13 0-12-15-12-10 0-56 20t-69 34q-5 4-11 4t-11-4q-23-13-69-33t-56-20q-16 0-16 11z"/><glyph unicode="Ï" glyph-name="Idieresis" horiz-adv-x="348" d="M18-4V8q0 7 7 11t22 8q39 7 56 22t18 49v452q0 34-14 48t-52 23q-29 6-29 20 0 13 25 13 27 0 69-2 38-2 58-2l56 1q38 2 66 2 26 0 26-12 0-14-29-20-40-8-55-23t-15-48V98q0-32 17-47t58-24q15-3 22-7t7-12q0-12-25-12-36 0-68 3-40 2-60 2-22 0-64-2-33-3-70-3Q18-4 18 8zm35 696l-17 17-17 41q0 25 17 41t41 17q25 0 42-16t17-42q0-24-17-41t-42-17q-24 0-41 17zm196 0l-17 17-17 41q0 25 17 41t41 17q25 0 41-16t17-42q0-24-16-41t-42-17q-24 0-41 17z"/><glyph unicode="Ð" glyph-name="Eth" horiz-adv-x="758" d="M475 659l83-41 126-114 42-164q0-93-45-172T555 41 375-7q-28 0-78 3-86 4-128 4-18 0-52-2-38-2-66-2Q25-4 25 9q0 8 6 11t23 7q38 7 52 22t15 49v215H59q-8 0-12 7t-5 15q0 9 7 15t19 7h53v193q0 34-14 48t-53 23q-16 3-22 7t-7 12q0 7 7 10t19 4q25 0 63-2l59-1q23 0 99 4 68 4 84 4 119 0 202-41zM435 34l55 36 86 100 30 149q0 91-35 159t-94 105-128 37q-48 0-71-2t-37-14-14-37V357h146q6 0 11-4t5-10l-1-3q-12-27-34-27H227V125q0-52 36-71t99-20q73 0 128 36z"/><glyph unicode="Ñ" glyph-name="Ntilde" horiz-adv-x="798" d="M658-18L631-1l-50 49-108 124Q227 455 206 478q-11 15-18 15-4 0-6-6t-2-15q-2-192-2-365 0-66 70-80 31-7 31-19T251-4q-30 0-60 2-24 2-40 2-20 0-46-2T60-4Q32-4 32 8q0 7 7 11t24 9q50 14 55 81 7 68 13 177t6 221q0 49-24 73t-72 40q-9 3-19 9t-11 14q0 8 7 11t17 4q42 0 75-3 54-2 94-2 7 0 11-3t11-12l117-140q64-76 140-166t129-153q15-18 22-18 9 0 10 19v381q-1 21-20 36t-44 22q-16 3-27 8t-11 12q0 6 11 9t24 3h71l49 1q32 2 64 2 27 0 27-13 0-14-31-20-36-7-49-18t-14-38q-5-270-5-441 0-28 5-83l2-27q0-32-24-32-14 0-41 17zM287 692l-6 5-6 11q0 6 16 29t34 42 30 19q28 0 74-4l21-1q32-2 50-2 20 0 37 19 6 6 12 13t8 7q7 0 14-5t7-12q0-4-7-12t-9-10q-13-15-44-57-5-7-14-10t-16-4q-6 0-56 4-82 5-88 5-7 0-16-4t-16-11q-7-7-12-14t-8-8q-5 0-11 5z"/><glyph unicode="Ò" glyph-name="Ograve" horiz-adv-x="762" d="M287-14l-77 41L86 144 39 315q0 92 40 172t119 128 187 49q90 0 167-41t124-117 47-171q0-92-40-172T564 35 376-14q-89 0-166 41zm207 42l54 69 54 188q0 92-26 168t-79 121-129 46q-101 0-154-68t-54-186q0-92 26-169t78-123 128-46q102 0 156 69zm-80 656l-13 9q-16 12-52 36-60 41-91 65-8 6-11 10t-4 10q-1 9 23 18t40 10q20 0 29-13 37-46 88-121 7-10 7-17t-8-7q-8 0-21 9z"/><glyph unicode="Ó" glyph-name="Oacute" horiz-adv-x="762" d="M287-14l-77 41L86 144 39 315q0 92 40 172t119 128 187 49q90 0 167-41t124-117 47-171q0-92-40-172T564 35 376-14q-89 0-166 41zm207 42l54 69 54 188q0 92-26 168t-79 121-129 46q-101 0-154-68t-54-186q0-92 26-169t78-123 128-46q102 0 156 69zM344 684v7q0 7 7 17 51 75 88 121 9 13 29 13 15-1 39-10t24-18q-1-6-4-10t-11-10q-31-24-91-65-36-24-52-36-13-9-21-9t-8 7z"/><glyph unicode="Ô" glyph-name="Ocircumflex" horiz-adv-x="762" d="M287-14l-77 41L86 144 39 315q0 92 40 172t119 128 187 49q90 0 167-41t124-117 47-171q0-92-40-172T564 35 376-14q-89 0-166 41zm207 42l54 69 54 188q0 92-26 168t-79 121-129 46q-101 0-154-68t-54-186q0-92 26-169t78-123 128-46q102 0 156 69zM239 695v11q0 7 7 13l101 87q17 15 25 19t19 5q11 0 19-4t25-20l101-87q6-5 6-13 0-12-15-12-10 0-56 20t-69 34q-5 4-11 4t-11-4q-23-13-69-33t-56-20q-16 0-16 11z"/><glyph unicode="Õ" glyph-name="Otilde" horiz-adv-x="762" d="M287-14l-77 41L86 144 39 315q0 92 40 172t119 128 187 49q90 0 167-41t124-117 47-171q0-92-40-172T564 35 376-14q-89 0-166 41zm207 42l54 69 54 188q0 92-26 168t-79 121-129 46q-101 0-154-68t-54-186q0-92 26-169t78-123 128-46q102 0 156 69zM265 692l-6 5-6 11q0 6 16 29t34 42 30 19q28 0 74-4l21-1q32-2 50-2 20 0 37 19 6 6 12 13t8 7q7 0 14-5t7-12q0-4-7-12t-9-10q-13-15-44-57-5-7-14-10t-16-4q-6 0-56 4-82 5-88 5-7 0-16-4t-16-11q-7-7-12-14t-8-8q-5 0-11 5z"/><glyph unicode="Ö" glyph-name="Odieresis" horiz-adv-x="762" d="M287-14l-77 41L86 144 39 315q0 92 40 172t119 128 187 49q90 0 167-41t124-117 47-171q0-92-40-172T564 35 376-14q-89 0-166 41zm207 42l54 69 54 188q0 92-26 168t-79 121-129 46q-101 0-154-68t-54-186q0-92 26-169t78-123 128-46q102 0 156 69zM269 692l-17 17-17 41q0 25 17 41t41 17q25 0 42-16t17-42q0-24-17-41t-42-17q-24 0-41 17zm196 0l-17 17-17 41q0 25 17 41t41 17q25 0 41-16t17-42q0-24-16-41t-42-17q-24 0-41 17z"/><glyph unicode="×" glyph-name="multiply" horiz-adv-x="579" d="M441 57l-5 5-142 143q-5 5-10-1L143 64q-3-4-8-5t-10 1q-6 4-14 17t-9 24q0 8 6 14l132 131q3 3 3 6t-4 7L109 389q-5 5-5 14 0 10 6 22t11 19q3 3 9 3 7 0 11-4l142-142q4-3 6-3t4 2l144 143q5 5 11 5t9-4q2-3 10-16t8-25q0-8-7-14L336 257q-4-4 0-9l136-135q5-5 5-14 0-13-9-27t-19-15q-8 0-13 5z"/><glyph unicode="Ø" glyph-name="Oslash" horiz-adv-x="769" d="M648 545q36-42 55-95t20-115q0-92-40-172T564 35 376-14q-60 0-117 20T157 62L84-10q-6-4-12-4-13 0-23 8T38 11q0 13 12 25l67 65q-37 43-57 97T39 315q0 92 40 172t119 128 187 49q63 0 122-21t106-62l78 76q5 6 13 6 5 0 10-3t6-7q4-12 4-19 0-15-9-23l-67-66zM160 257l34-81 352 340q-30 49-75 76t-103 28q-101 0-154-68t-54-186q0-109 34-190zm442 130l-32 81-349-343q30-46 73-71t98-26q102 0 156 69t54 188q0 102-32 183z"/><glyph unicode="Ù" glyph-name="Ugrave" horiz-adv-x="740" d="M239-14l-70 69-71 190v299q0 31-13 50t-34 25q-32 9-32 22t28 13q18 0 52-2 38-2 56-2t56 2l44 1q28 0 28-13 0-6-6-10t-17-7-15-6q-15-5-27-25t-13-49V269q0-109 53-164t140-56q96 0 144 64t48 182q0 135-2 206-2 50-12 79t-34 38q-2 1-12 4t-17 8-6 10q0 12 29 12l46-1q12-1 37-1 18 0 46 2 26 2 38 2 28 0 28-13t-31-20q-28-6-40-26t-14-54q-6-116-8-242l-1-45q-1-78-36-139t-96-95-133-34q-133 0-203 69zm180 698l-13 9q-16 12-52 36-60 41-91 65-8 6-11 10t-4 10q-1 9 23 18t40 10q20 0 29-13 37-46 88-121 7-10 7-17t-8-7q-8 0-21 9z"/><glyph unicode="Ú" glyph-name="Uacute" horiz-adv-x="740" d="M239-14l-70 69-71 190v299q0 31-13 50t-34 25q-32 9-32 22t28 13q18 0 52-2 38-2 56-2t56 2l44 1q28 0 28-13 0-6-6-10t-17-7-15-6q-15-5-27-25t-13-49V269q0-109 53-164t140-56q96 0 144 64t48 182q0 135-2 206-2 50-12 79t-34 38q-2 1-12 4t-17 8-6 10q0 12 29 12l46-1q12-1 37-1 18 0 46 2 26 2 38 2 28 0 28-13t-31-20q-28-6-40-26t-14-54q-6-116-8-242l-1-45q-1-78-36-139t-96-95-133-34q-133 0-203 69zm110 698v7q0 7 7 17 51 75 88 121 9 13 29 13 15-1 39-10t24-18q-1-6-4-10t-11-10q-31-24-91-65-36-24-52-36-13-9-21-9t-8 7z"/><glyph unicode="Û" glyph-name="Ucircumflex" horiz-adv-x="740" d="M239-14l-70 69-71 190v299q0 31-13 50t-34 25q-32 9-32 22t28 13q18 0 52-2 38-2 56-2t56 2l44 1q28 0 28-13 0-6-6-10t-17-7-15-6q-15-5-27-25t-13-49V269q0-109 53-164t140-56q96 0 144 64t48 182q0 135-2 206-2 50-12 79t-34 38q-2 1-12 4t-17 8-6 10q0 12 29 12l46-1q12-1 37-1 18 0 46 2 26 2 38 2 28 0 28-13t-31-20q-28-6-40-26t-14-54q-6-116-8-242l-1-45q-1-78-36-139t-96-95-133-34q-133 0-203 69zm5 709v11q0 7 7 13l101 87q17 15 25 19t19 5q11 0 19-4t25-20l101-87q6-5 6-13 0-12-15-12-10 0-56 20t-69 34q-5 4-11 4t-11-4q-23-13-69-33t-56-20q-16 0-16 11z"/><glyph unicode="Ü" glyph-name="Udieresis" horiz-adv-x="740" d="M239-14l-70 69-71 190v299q0 31-13 50t-34 25q-32 9-32 22t28 13q18 0 52-2 38-2 56-2t56 2l44 1q28 0 28-13 0-6-6-10t-17-7-15-6q-15-5-27-25t-13-49V269q0-109 53-164t140-56q96 0 144 64t48 182q0 135-2 206-2 50-12 79t-34 38q-2 1-12 4t-17 8-6 10q0 12 29 12l46-1q12-1 37-1 18 0 46 2 26 2 38 2 28 0 28-13t-31-20q-28-6-40-26t-14-54q-6-116-8-242l-1-45q-1-78-36-139t-96-95-133-34q-133 0-203 69zm35 706l-17 17-17 41q0 25 17 41t41 17q25 0 42-16t17-42q0-24-17-41t-42-17q-24 0-41 17zm196 0l-17 17-17 41q0 25 17 41t41 17q25 0 41-16t17-42q0-24-16-41t-42-17q-24 0-41 17z"/><glyph unicode="Ý" glyph-name="Yacute" horiz-adv-x="605" d="M157-5V7q0 14 32 20 74 13 74 82v144q0 36-27 84L115 531q-21 33-41 57t-44 31q-16 6-23 10t-7 12q0 12 26 12 17 0 59-2 46-2 74-2 19 0 53 2 30 2 43 2 12 0 20-3t8-9q0-13-31-21-21-5-30-11t-9-18q0-13 12-36l96-173q16-30 25-30 5 0 10 6t17 24q31 51 86 153 16 28 16 47 0 18-13 26t-33 11q-11 2-21 8t-11 13q0 6 8 9t21 3l43-1q13-1 41-1 23 0 61 2 30 2 42 2 30 0 30-13 0-7-10-11t-35-12q-26-7-44-25t-44-58l-22-34-93-150q-16-28-20-45t-5-47V109q0-35 18-54t57-28q16-3 24-7t8-12q0-13-29-13-18 0-38 1t-30 2q-30 3-60 3-32 0-64-3-10 0-31-1t-39-2q-29 0-29 12zm135 689v7q0 7 7 17 51 75 88 121 9 13 29 13 15-1 39-10t24-18q-1-6-4-10t-11-10q-31-24-91-65-36-24-52-36-13-9-21-9t-8 7z"/><glyph unicode="Þ" glyph-name="Thorn" horiz-adv-x="570" d="M20-4V8q0 7 7 11t22 8q40 7 57 22t18 49v452q0 32-11 48t-48 23q-29 6-29 20 0 13 25 13 30 0 66-2 34-2 52-2l60 1q42 2 69 2 25 0 25-12 0-14-29-20-40-9-56-23t-18-46v-14q0-6 1-11t5-5q5 1 12 2t11 3q29 7 74 7 57 0 103-22t73-66 27-105q0-70-35-117t-95-71-132-24q-8 0-18 1t-18 2q-8 0-8-9V97q0-30 18-45t57-25q15-3 22-7t7-12q0-12-25-12-37 0-69 3-38 2-59 2-23 0-65-2-33-3-70-3Q20-4 20 8zm329 165l38 46 39 128q0 73-30 119t-89 47q-46 0-61-15t-16-61V222q0-32 13-46t34-15q72 0 110 46z"/><glyph unicode="ß" glyph-name="germandbls" horiz-adv-x="531" d="M306-15L284-1l-23 39q0 21 7 36t20 16q13 0 33-18 17-17 31-23t36-6q21 0 37 13t16 38q0 25-18 46t-71 71q-42 39-59 56t-25 33-8 35q0 23 14 40t45 43q36 33 37 34 20 20 32 46t12 54q0 50-28 81t-83 32q-111 0-111-191V71q0-19 12-29t34-15q21-8 21-19T224-3q-27 0-48 3-24 2-42 2-16 0-42-2-19-3-47-3Q23-3 23 8q0 7 6 11t17 8q19 6 29 15t11 28v282q-31 0-52 2-4 1-7 8t-4 13q0 6 5 8 17 5 31 11t27 14q2 105 39 172t91 96 112 30q39 0 71-17t50-47 18-62q0-36-15-63t-54-63q-26-24-36-40t-11-46q0-17 11-31t44-46l21-19q43-41 60-68t17-58q0-42-25-79T416 8t-74-23q-36 0-58 14z"/><glyph unicode="à" glyph-name="agrave" horiz-adv-x="413" d="M101-14L81-1 47 33 34 74q0 32 18 52t58 37l97 41q20 8 24 14t5 27l2 61q1 28-13 45t-41 18q-14 0-28-5t-24-13q-8-8-8-26l1-22q0-8-28-22t-46-15q-6 0-9 4t-4 9q0 33 42 69 35 31 80 51t77 21q42 0 68-28t25-74l-5-226q-1-22 9-36t25-14q24 0 36 12 4 4 7 4 5 0 8-3t4-8q0-11-14-25-17-17-36-26t-38-10q-51 0-80 54h-3q-33-29-62-41t-60-13q-20 0-40 13zm100 54l21 21q10 10 11 36l2 57v5q0 14-9 14-6 0-17-5-44-17-62-35t-19-41q0-25 13-38t32-14q28 0 49 21zm26 416l-19 19q-24 23-58 63t-57 70q-1 1-5 8t-5 14q0 11 15 16t38 6q22 0 33-20 15-27 39-74t34-73q4-12 4-19 0-10-9-10-10 0-29 19z"/><glyph unicode="á" glyph-name="aacute" horiz-adv-x="413" d="M101-14L81-1 47 33 34 74q0 32 18 52t58 37l97 41q20 8 24 14t5 27l2 61q1 28-13 45t-41 18q-14 0-28-5t-24-13q-8-8-8-26l1-22q0-8-28-22t-46-15q-6 0-9 4t-4 9q0 33 42 69 35 31 80 51t77 21q42 0 68-28t25-74l-5-226q-1-22 9-36t25-14q24 0 36 12 4 4 7 4 5 0 8-3t4-8q0-11-14-25-17-17-36-26t-38-10q-51 0-80 54h-3q-33-29-62-41t-60-13q-20 0-40 13zm100 54l21 21q10 10 11 36l2 57v5q0 14-9 14-6 0-17-5-44-17-62-35t-19-41q0-25 13-38t32-14q28 0 49 21zm-26 416v10q0 7 4 19 9 25 33 72t40 75q11 20 33 20 23 0 38-5t15-17q0-7-4-14t-6-8q-22-30-56-70t-59-63q-19-19-29-19-9 0-9 10z"/><glyph unicode="â" glyph-name="acircumflex" horiz-adv-x="413" d="M101-14L81-1 47 33 34 74q0 32 18 52t58 37l97 41q20 8 24 14t5 27l2 61q1 28-13 45t-41 18q-14 0-28-5t-24-13q-8-8-8-26l1-22q0-8-28-22t-46-15q-6 0-9 4t-4 9q0 33 42 69 35 31 80 51t77 21q42 0 68-28t25-74l-5-226q-1-22 9-36t25-14q24 0 36 12 4 4 7 4 5 0 8-3t4-8q0-11-14-25-17-17-36-26t-38-10q-51 0-80 54h-3q-33-29-62-41t-60-13q-20 0-40 13zm100 54l21 21q10 10 11 36l2 57v5q0 14-9 14-6 0-17-5-44-17-62-35t-19-41q0-25 13-38t32-14q28 0 49 21zm20 616l14-25q77-128 85-154 2-8 2-10 0-12-11-12-10 0-33 25-8 9-16 20t-18 22l-30 37q-3 4-4 4t-5-4l-63-79q-9-9-18-17t-16-8q-11 0-11 10l2 12q5 15 35 68t50 86q14 25 25 25 12 0 26-25z"/><glyph unicode="ã" glyph-name="atilde" horiz-adv-x="413" d="M101-14L81-1 47 33 34 74q0 32 18 52t58 37l97 41q20 8 24 14t5 27l2 61q1 28-13 45t-41 18q-14 0-28-5t-24-13q-8-8-8-26l1-22q0-8-28-22t-46-15q-6 0-9 4t-4 9q0 33 42 69 35 31 80 51t77 21q42 0 68-28t25-74l-5-226q-1-22 9-36t25-14q24 0 36 12 4 4 7 4 5 0 8-3t4-8q0-11-14-25-17-17-36-26t-38-10q-51 0-80 54h-3q-33-29-62-41t-60-13q-20 0-40 13zm100 54l21 21q10 10 11 36l2 57v5q0 14-9 14-6 0-17-5-44-17-62-35t-19-41q0-25 13-38t32-14q28 0 49 21zM83 461l-5 4-6 12q0 6 19 31t42 47 33 22q9 0 29-2l28-3q50-4 60-4 21 0 38 19l16 18q8 9 10 9 7 0 14-5t7-13q0-3-9-13t-13-15q-5-6-30-38l-16-21q-5-7-14-10t-16-4q-15 0-45 3-67 5-78 5-16 0-33-19-3-3-12-13t-12-10q-7 0-12 4z"/><glyph unicode="ä" glyph-name="adieresis" horiz-adv-x="413" d="M101-14L81-1 47 33 34 74q0 32 18 52t58 37l97 41q20 8 24 14t5 27l2 61q1 28-13 45t-41 18q-14 0-28-5t-24-13q-8-8-8-26l1-22q0-8-28-22t-46-15q-6 0-9 4t-4 9q0 33 42 69 35 31 80 51t77 21q42 0 68-28t25-74l-5-226q-1-22 9-36t25-14q24 0 36 12 4 4 7 4 5 0 8-3t4-8q0-11-14-25-17-17-36-26t-38-10q-51 0-80 54h-3q-33-29-62-41t-60-13q-20 0-40 13zm100 54l21 21q10 10 11 36l2 57v5q0 14-9 14-6 0-17-5-44-17-62-35t-19-41q0-25 13-38t32-14q28 0 49 21zM95 503l-17 17-18 40q0 23 17 40t40 18q23 0 41-17t18-41q0-22-18-39t-41-18q-22 0-39 17zm183 0l-17 17-18 40q0 23 17 40t40 18q23 0 41-17t18-41q0-22-18-39t-41-18q-22 0-39 17z"/><glyph unicode="å" glyph-name="aring" horiz-adv-x="413" d="M101-14L81-1 47 33 34 74q0 32 18 52t58 37l97 41q20 8 24 14t5 27l2 61q1 28-13 45t-41 18q-14 0-28-5t-24-13q-8-8-8-26l1-22q0-8-28-22t-46-15q-6 0-9 4t-4 9q0 33 42 69 35 31 80 51t77 21q42 0 68-28t25-74l-5-226q-1-22 9-36t25-14q24 0 36 12 4 4 7 4 5 0 8-3t4-8q0-11-14-25-17-17-36-26t-38-10q-51 0-80 54h-3q-33-29-62-41t-60-13q-20 0-40 13zm100 54l21 21q10 10 11 36l2 57v5q0 14-9 14-6 0-17-5-44-17-62-35t-19-41q0-25 13-38t32-14q28 0 49 21zm-33 440l-26 25-26 62q0 36 29 63t67 27q36 0 62-24t26-59q0-41-29-67t-67-27q-36 0-62 25zm65 29l9 16 10 42q0 22-14 40t-35 18q-20 0-29-15t-10-39q0-25 13-43t35-19q21 0 30 16z"/><glyph unicode="æ" glyph-name="ae" horiz-adv-x="580" d="M92-14L63 12 34 69q0 33 18 55t59 39l99 42q20 9 25 15t5 20v64q0 28-14 46t-40 18q-16 0-33-9t-23-20q-5-6-5-19 0-5 1-9t1-9q0-10-31-23t-46-14q-5 0-8 4t-3 10q0 16 11 34t31 35q32 27 75 50t81 23q17 0 37-10t32-22q3-5 5-5t8 4q21 13 50 22t56 10q52 0 91-27t39-76q0-15-6-22t-18-12q-9-4-39-15-122-47-152-60-4-1-7-7t-4-11v-46q0-42 27-64t65-22q68 0 110 50 5 5 11 5 5 0 8-3t4-9q0-5-2-11-34-53-73-78t-99-26q-67 0-118 45-10 10-12 10-3 0-8-5-3-2-19-16T182-4t-55-10q-35 0-64 26zm291 281l56 19 25 8q6 2 8 6t2 12q0 29-19 50t-51 21q-12 0-29-8t-31-21-13-30v-63q0-6 4-8t9-1q39 15 95 34zM201 39l25 23q12 10 12 33v55q0 13-1 17t-6 5q-5 0-14-3-32-10-59-30t-29-47q0-26 14-39t31-14q27 0 52 23z"/><glyph unicode="ç" glyph-name="ccedilla" horiz-adv-x="408" d="M161-15l-41 26-65 73-24 103q0 64 29 117t78 85 108 31q72 0 122-41 11-9 11-19 0-12-16-27t-29-16q-6 0-12 4t-13 9q-25 20-51 34t-45 14q-45 0-71-41t-27-113q0-71 40-117t104-47q29 0 50 9t46 33q10 6 13 6 5 0 8-4t3-10q0-12-12-30-23-33-64-56t-91-23q-51 0-92 26zm-18-259l-8 9-8 34q0 21 14 21 5 0 22-6t36-6q17 0 26 11t9 32q0 25-17 38t-41 14q-8 0-16-4t-12-4q-7 0-13 5t-6 14q0 7 8 15L225 8h36l-37-47q-5-8-5-11 0-5 11-11 26-11 42-31t17-47q0-36-22-67t-53-49-53-19q-18 0-26 9z"/><glyph unicode="è" glyph-name="egrave" horiz-adv-x="400" d="M158-15l-42 28-65 77-24 114q0 58 27 107t74 79 101 30q62 0 102-37t41-93q0-17-7-25t-24-8H134q-14 0-19-8t-6-29q0-44 19-81t52-58 74-22q56 0 100 44 5 8 11 8 9 0 9-11 0-15-14-38-21-34-60-55t-88-22q-54 0-96 28zm57 306q45 0 69 5 9 3 9 25 0 28-23 47t-55 20q-21 0-43-13t-35-33-14-39q0-12 13-12h79zm30 165l-19 19q-24 23-58 63t-57 70q-1 1-5 8t-5 14q0 11 15 16t38 6q22 0 33-20 15-27 39-74t34-73q4-12 4-19 0-10-9-10-10 0-29 19z"/><glyph unicode="é" glyph-name="eacute" horiz-adv-x="400" d="M158-15l-42 28-65 77-24 114q0 58 27 107t74 79 101 30q62 0 102-37t41-93q0-17-7-25t-24-8H134q-14 0-19-8t-6-29q0-44 19-81t52-58 74-22q56 0 100 44 5 8 11 8 9 0 9-11 0-15-14-38-21-34-60-55t-88-22q-54 0-96 28zm57 306q45 0 69 5 9 3 9 25 0 28-23 47t-55 20q-21 0-43-13t-35-33-14-39q0-12 13-12h79zm-22 165v10q0 7 4 19 9 25 33 72t40 75q11 20 33 20 23 0 38-5t15-17q0-7-4-14t-6-8q-22-30-56-70t-59-63q-19-19-29-19-9 0-9 10z"/><glyph unicode="ê" glyph-name="ecircumflex" horiz-adv-x="400" d="M158-15l-42 28-65 77-24 114q0 58 27 107t74 79 101 30q62 0 102-37t41-93q0-17-7-25t-24-8H134q-14 0-19-8t-6-29q0-44 19-81t52-58 74-22q56 0 100 44 5 8 11 8 9 0 9-11 0-15-14-38-21-34-60-55t-88-22q-54 0-96 28zm57 306q45 0 69 5 9 3 9 25 0 28-23 47t-55 20q-21 0-43-13t-35-33-14-39q0-12 13-12h79zm24 365l14-25q77-128 85-154 2-8 2-10 0-12-11-12-10 0-33 25-8 9-16 20t-18 22l-30 37q-3 4-4 4t-5-4l-63-79q-9-9-18-17t-16-8q-11 0-11 10l2 12q5 15 35 68t50 86q14 25 25 25 12 0 26-25z"/><glyph unicode="ë" glyph-name="edieresis" horiz-adv-x="400" d="M158-15l-42 28-65 77-24 114q0 58 27 107t74 79 101 30q62 0 102-37t41-93q0-17-7-25t-24-8H134q-14 0-19-8t-6-29q0-44 19-81t52-58 74-22q56 0 100 44 5 8 11 8 9 0 9-11 0-15-14-38-21-34-60-55t-88-22q-54 0-96 28zm57 306q45 0 69 5 9 3 9 25 0 28-23 47t-55 20q-21 0-43-13t-35-33-14-39q0-12 13-12h79zM113 503l-17 17-18 40q0 23 17 40t40 18q23 0 41-17t18-41q0-22-18-39t-41-18q-22 0-39 17zm183 0l-17 17-18 40q0 23 17 40t40 18q23 0 41-17t18-41q0-22-18-39t-41-18q-22 0-39 17z"/><glyph unicode="ì" glyph-name="igrave" horiz-adv-x="263" d="M23-3V9q0 11 21 17 25 7 35 14t10 24v216q0 64-45 71-10 1-10 15 0 12 9 13 65 14 123 53 12 7 16 7 8 0 8-8 0-6-4-46-6-60-6-93V64q0-15 10-23t35-15q21-6 21-17 0-12-18-12-26 0-49 3-28 2-45 2T91 0Q70-3 42-3 23-3 23 9zm127 459l-19 19q-24 23-58 63t-57 70q-1 1-5 8t-5 14q0 11 15 16t38 6q22 0 33-20 15-27 39-74t34-73q4-12 4-19 0-10-9-10-10 0-29 19z"/><glyph unicode="í" glyph-name="iacute" horiz-adv-x="263" d="M23-3V9q0 11 21 17 25 7 35 14t10 24v216q0 64-45 71-10 1-10 15 0 12 9 13 65 14 123 53 12 7 16 7 8 0 8-8 0-6-4-46-6-60-6-93V64q0-15 10-23t35-15q21-6 21-17 0-12-18-12-26 0-49 3-28 2-45 2T91 0Q70-3 42-3 23-3 23 9zm75 459v10q0 7 4 19 9 25 33 72t40 75q11 20 33 20 23 0 38-5t15-17q0-7-4-14t-6-8q-22-30-56-70t-59-63q-19-19-29-19-9 0-9 10z"/><glyph unicode="î" glyph-name="icircumflex" horiz-adv-x="263" d="M23-3V9q0 11 21 17 25 7 35 14t10 24v216q0 64-45 71-10 1-10 15 0 12 9 13 65 14 123 53 12 7 16 7 8 0 8-8 0-6-4-46-6-60-6-93V64q0-15 10-23t35-15q21-6 21-17 0-12-18-12-26 0-49 3-28 2-45 2T91 0Q70-3 42-3 23-3 23 9zm377 659l14-25q77-128 85-154 2-8 2-10 0-12-11-12-10 0-33 25-8 9-16 20t-18 22l-30 37q-3 4-4 4t-5-4l-63-79q-9-9-18-17t-16-8q-11 0-11 10l2 12q5 15 35 68t50 86q14 25 25 25 12 0 26-25z"/><glyph unicode="ï" glyph-name="idieresis" horiz-adv-x="263" d="M23-3V9q0 11 21 17 25 7 35 14t10 24v216q0 64-45 71-10 1-10 15 0 12 9 13 65 14 123 53 12 7 16 7 8 0 8-8 0-6-4-46-6-60-6-93V64q0-15 10-23t35-15q21-6 21-17 0-12-18-12-26 0-49 3-28 2-45 2T91 0Q70-3 42-3 23-3 23 9zm251 506l-17 17-18 40q0 23 17 40t40 18q23 0 41-17t18-41q0-22-18-39t-41-18q-22 0-39 17zm183 0l-17 17-18 40q0 23 17 40t40 18q23 0 41-17t18-41q0-22-18-39t-41-18q-22 0-39 17z"/><glyph unicode="ð" glyph-name="eth" horiz-adv-x="497" d="M179-14l-49 25-77 72-29 106q0 62 32 115t86 85 118 32q35 0 67-17 2-1 5-1 2 0 2 2t0 6q-24 92-58 137l-144-75q-4-2-6-2-5 0-8 4t-4 8q0 30 12 36l122 63q-35 36-76 59t-82 33q-13 3-19 6t-6 11q0 7 9 10t23 4q50 0 108-23t109-66l104 55q8 4 14 4 12 0 12-9 0-15-4-25t-16-16l-75-39q117-125 117-336 0-62-26-123T361 26 236-14q-57 0-106 25zm108 36l25 25 39 70 15 105q0 33-7 63t-22 50q-20 22-44 34t-52 13q-53 0-83-49t-31-120q0-48 17-92t47-71 64-28q32 0 57 25z"/><glyph unicode="ñ" glyph-name="ntilde" horiz-adv-x="541" d="M34-3l-5 3-6 9q0 7 5 11t18 7q20 5 30 12t11 26v220q0 29-7 44t-28 22q-10 2-10 14 0 13 9 14 64 17 116 51 8 6 13 6 7 0 7-9l-2-20q-1-7-2-18t-1-23q0-11 2-13 35 34 73 50t84 17q50 0 83-39t33-101V64q0-18 10-24t32-13q22-8 22-19T502-3q-28 0-48 3-26 2-42 2t-42-2q-19-3-48-3-7 0-13 2t-6 9q0 11 22 19 22 7 31 13t10 24v207q0 41-22 64t-59 25q-55 0-98-35-8-8-8-21V64q0-18 10-25t30-12q22-6 22-18T222-3q-27 0-47 3-24 2-41 2-16 0-42-2-21-3-49-3-9 0-14 3zm108 464l-5 4-6 12q0 6 19 31t42 47 33 22q9 0 29-2l28-3q50-4 60-4 21 0 38 19l16 18q8 9 10 9 7 0 14-5t7-13q0-3-9-13t-13-15q-5-6-30-38l-16-21q-5-7-14-10t-16-4q-15 0-45 3-67 5-78 5-16 0-33-19-3-3-12-13t-12-10q-7 0-12 4z"/><glyph unicode="ò" glyph-name="ograve" horiz-adv-x="498" d="M178-14l-46 26-74 73-27 105q0 58 30 111t82 87 113 33q58 0 106-28t77-75 28-101q0-62-26-115t-79-84-127-32q-57 0-103 26zm140 35l26 47q21 39 21 125 0 50-16 94t-44 71-66 27q-24 0-42-7t-33-26q-17-22-24-56t-7-83q0-49 16-93t44-71 63-28q62 0 88 47zm-45 435l-19 19q-24 23-58 63t-57 70q-1 1-5 8t-5 14q0 11 15 16t38 6q22 0 33-20 15-27 39-74t34-73q4-12 4-19 0-10-9-10-10 0-29 19z"/><glyph unicode="ó" glyph-name="oacute" horiz-adv-x="498" d="M178-14l-46 26-74 73-27 105q0 58 30 111t82 87 113 33q58 0 106-28t77-75 28-101q0-62-26-115t-79-84-127-32q-57 0-103 26zm140 35l26 47q21 39 21 125 0 50-16 94t-44 71-66 27q-24 0-42-7t-33-26q-17-22-24-56t-7-83q0-49 16-93t44-71 63-28q62 0 88 47zm-97 435v10q0 7 4 19 9 25 33 72t40 75q11 20 33 20 23 0 38-5t15-17q0-7-4-14t-6-8q-22-30-56-70t-59-63q-19-19-29-19-9 0-9 10z"/><glyph unicode="ô" glyph-name="ocircumflex" horiz-adv-x="498" d="M178-14l-46 26-74 73-27 105q0 58 30 111t82 87 113 33q58 0 106-28t77-75 28-101q0-62-26-115t-79-84-127-32q-57 0-103 26zm140 35l26 47q21 39 21 125 0 50-16 94t-44 71-66 27q-24 0-42-7t-33-26q-17-22-24-56t-7-83q0-49 16-93t44-71 63-28q62 0 88 47zm-51 635l14-25q77-128 85-154 2-8 2-10 0-12-11-12-10 0-33 25-8 9-16 20t-18 22l-30 37q-3 4-4 4t-5-4l-63-79q-9-9-18-17t-16-8q-11 0-11 10l2 12q5 15 35 68t50 86q14 25 25 25 12 0 26-25z"/><glyph unicode="õ" glyph-name="otilde" horiz-adv-x="498" d="M178-14l-46 26-74 73-27 105q0 58 30 111t82 87 113 33q58 0 106-28t77-75 28-101q0-62-26-115t-79-84-127-32q-57 0-103 26zm140 35l26 47q21 39 21 125 0 50-16 94t-44 71-66 27q-24 0-42-7t-33-26q-17-22-24-56t-7-83q0-49 16-93t44-71 63-28q62 0 88 47zM118 461l-5 4-6 12q0 6 19 31t42 47 33 22q9 0 29-2l28-3q50-4 60-4 21 0 38 19l16 18q8 9 10 9 7 0 14-5t7-13q0-3-9-13t-13-15q-5-6-30-38l-16-21q-5-7-14-10t-16-4q-15 0-45 3-67 5-78 5-16 0-33-19-3-3-12-13t-12-10q-7 0-12 4z"/><glyph unicode="ö" glyph-name="odieresis" horiz-adv-x="498" d="M178-14l-46 26-74 73-27 105q0 58 30 111t82 87 113 33q58 0 106-28t77-75 28-101q0-62-26-115t-79-84-127-32q-57 0-103 26zm140 35l26 47q21 39 21 125 0 50-16 94t-44 71-66 27q-24 0-42-7t-33-26q-17-22-24-56t-7-83q0-49 16-93t44-71 63-28q62 0 88 47zM141 503l-17 17-18 40q0 23 17 40t40 18q23 0 41-17t18-41q0-22-18-39t-41-18q-22 0-39 17zm183 0l-17 17-18 40q0 23 17 40t40 18q23 0 41-17t18-41q0-22-18-39t-41-18q-22 0-39 17z"/><glyph unicode="÷" glyph-name="divide" horiz-adv-x="593" d="M274 351l-16 16-16 39q0 23 16 39t38 16q23 0 39-16t17-39q0-23-16-39t-40-16q-22 0-38 16zM68 239l-5 3-5 8q0 12 6 27t20 15h437q6 0 11-3t5-8q0-15-9-28t-23-14H74q-6 0-11 3zM275 66l-16 16-16 39q0 23 16 39t38 16q23 0 39-16t17-39q0-23-16-39t-40-16q-22 0-38 16z"/><glyph unicode="ø" glyph-name="oslash" horiz-adv-x="491" d="M423 341q44-55 44-124 0-62-26-115t-79-84-127-32q-76 0-131 44L64-9q-6-6-13-6-10 0-18 6T25 6q0 15 11 24l36 34q-41 54-41 126 0 58 30 111t82 87 113 33q77 0 137-49l46 44q5 5 15 5 15 0 15-18 0-7-3-15t-9-14l-34-33zM133 172l12-38 191 183q-17 32-42 50t-55 18q-24 0-42-7t-33-26q-17-22-24-56t-7-83q0-41 12-79zm232 62l-11 39L164 88q17-31 40-49t52-18q62 0 88 47 21 39 21 125 0 41-11 80z"/><glyph unicode="ù" glyph-name="ugrave" horiz-adv-x="535" d="M351-20v9l2 29q3 18 3 33v8q-70-73-163-73-49 0-80 34t-32 92v198q0 22-10 35t-32 21q-14 4-14 17 0 15 15 17 34 2 57 6t58 13q10 2 13 2 12 0 11-14-7-43-7-77V136q0-36 23-61t53-27q26 0 43 4t33 17q36 28 36 71v175q0 26-19 38t-43 14q-22 0-22 18 0 17 22 17 55 2 82 5t57 12q6 2 11 2 6 0 10-3t4-8q0-3-1-5t-2-6q-2-12-4-35t-3-35V98q0-46 18-46l40 2q16 0 16-15 0-14-15-16-38-5-67-14t-63-22q-14-7-22-7t-8 9zm-70 476l-19 19q-24 23-58 63t-57 70q-1 1-5 8t-5 14q0 11 15 16t38 6q22 0 33-20 15-27 39-74t34-73q4-12 4-19 0-10-9-10-10 0-29 19z"/><glyph unicode="ú" glyph-name="uacute" horiz-adv-x="535" d="M351-20v9l2 29q3 18 3 33v8q-70-73-163-73-49 0-80 34t-32 92v198q0 22-10 35t-32 21q-14 4-14 17 0 15 15 17 34 2 57 6t58 13q10 2 13 2 12 0 11-14-7-43-7-77V136q0-36 23-61t53-27q26 0 43 4t33 17q36 28 36 71v175q0 26-19 38t-43 14q-22 0-22 18 0 17 22 17 55 2 82 5t57 12q6 2 11 2 6 0 10-3t4-8q0-3-1-5t-2-6q-2-12-4-35t-3-35V98q0-46 18-46l40 2q16 0 16-15 0-14-15-16-38-5-67-14t-63-22q-14-7-22-7t-8 9zM229 456v10q0 7 4 19 9 25 33 72t40 75q11 20 33 20 23 0 38-5t15-17q0-7-4-14t-6-8q-22-30-56-70t-59-63q-19-19-29-19-9 0-9 10z"/><glyph unicode="û" glyph-name="ucircumflex" horiz-adv-x="535" d="M351-20v9l2 29q3 18 3 33v8q-70-73-163-73-49 0-80 34t-32 92v198q0 22-10 35t-32 21q-14 4-14 17 0 15 15 17 34 2 57 6t58 13q10 2 13 2 12 0 11-14-7-43-7-77V136q0-36 23-61t53-27q26 0 43 4t33 17q36 28 36 71v175q0 26-19 38t-43 14q-22 0-22 18 0 17 22 17 55 2 82 5t57 12q6 2 11 2 6 0 10-3t4-8q0-3-1-5t-2-6q-2-12-4-35t-3-35V98q0-46 18-46l40 2q16 0 16-15 0-14-15-16-38-5-67-14t-63-22q-14-7-22-7t-8 9zm-76 676l14-25q77-128 85-154 2-8 2-10 0-12-11-12-10 0-33 25-8 9-16 20t-18 22l-30 37q-3 4-4 4t-5-4l-63-79q-9-9-18-17t-16-8q-11 0-11 10l2 12q5 15 35 68t50 86q14 25 25 25 12 0 26-25z"/><glyph unicode="ü" glyph-name="udieresis" horiz-adv-x="535" d="M351-20v9l2 29q3 18 3 33v8q-70-73-163-73-49 0-80 34t-32 92v198q0 22-10 35t-32 21q-14 4-14 17 0 15 15 17 34 2 57 6t58 13q10 2 13 2 12 0 11-14-7-43-7-77V136q0-36 23-61t53-27q26 0 43 4t33 17q36 28 36 71v175q0 26-19 38t-43 14q-22 0-22 18 0 17 22 17 55 2 82 5t57 12q6 2 11 2 6 0 10-3t4-8q0-3-1-5t-2-6q-2-12-4-35t-3-35V98q0-46 18-46l40 2q16 0 16-15 0-14-15-16-38-5-67-14t-63-22q-14-7-22-7t-8 9zM149 503l-17 17-18 40q0 23 17 40t40 18q23 0 41-17t18-41q0-22-18-39t-41-18q-22 0-39 17zm183 0l-17 17-18 40q0 23 17 40t40 18q23 0 41-17t18-41q0-22-18-39t-41-18q-22 0-39 17z"/><glyph unicode="ý" glyph-name="yacute" horiz-adv-x="453" d="M48-284l-18 12-18 36q0 20 9 34t27 15q9 0 25-4 4-1 9-2t11-1q11 0 17 3t11 14q35 56 73 150 6 15 6 32 0 19-8 37L74 330q-18 43-47 52-11 5-16 9t-5 11q0 9 21 9 23 0 47-2 20-2 35-2 18 0 40 2 26 2 47 2 8 0 14-3t7-8q0-13-26-22-12-3-17-11t-5-23q0-14 10-34l74-183q2-5 5-5 2 0 4 5l63 173q3 7 5 18t2 20q0 29-23 39-13 6-20 11t-7 12q0 5 7 8t14 3q11 0 31-2 22-2 40-2 16 0 34 2 16 2 29 2 21 0 21-9 0-7-5-11t-16-9q-17-5-33-23t-26-42L237-19q-37-92-91-218-10-23-29-35t-45-12q-24 0-42 12zm173 740v10q0 7 4 19 9 25 33 72t40 75q11 20 33 20 23 0 38-5t15-17q0-7-4-14t-6-8q-22-30-56-70t-59-63q-19-19-29-19-9 0-9 10z"/><glyph unicode="þ" glyph-name="thorn" horiz-adv-x="520" d="M16-277v11q0 11 23 19 23 7 33 14t10 24v769q0 28-10 48t-34 25q-8 2-8 14 0 11 7 13 39 8 101 32l29 11 6 2q3 0 5-3t2-6q0-7-2-35t-4-77V394q0-29 2-41 21 20 68 42t88 23q50 0 87-27t58-72 21-92q0-60-31-116t-83-91-114-35q-21 0-49 8t-44 20q-3 0-3-40v-178q0-20 10-28t33-15q11-4 17-7t6-11q0-11-21-11-28 0-49 3-26 2-43 2-16 0-42-2-19-3-47-3-22 0-22 11zM300 21l27 17 48 56 21 99q0 99-39 135t-84 37q-43 0-77-29-22-16-22-69V117q0-18 5-39t16-33q10-10 32-17t52-7q21 0 48 17z"/><glyph unicode="ÿ" glyph-name="ydieresis" horiz-adv-x="453" d="M48-284l-18 12-18 36q0 20 9 34t27 15q9 0 25-4 4-1 9-2t11-1q11 0 17 3t11 14q35 56 73 150 6 15 6 32 0 19-8 37L74 330q-18 43-47 52-11 5-16 9t-5 11q0 9 21 9 23 0 47-2 20-2 35-2 18 0 40 2 26 2 47 2 8 0 14-3t7-8q0-13-26-22-12-3-17-11t-5-23q0-14 10-34l74-183q2-5 5-5 2 0 4 5l63 173q3 7 5 18t2 20q0 29-23 39-13 6-20 11t-7 12q0 5 7 8t14 3q11 0 31-2 22-2 40-2 16 0 34 2 16 2 29 2 21 0 21-9 0-7-5-11t-16-9q-17-5-33-23t-26-42L237-19q-37-92-91-218-10-23-29-35t-45-12q-24 0-42 12zm93 787l-17 17-18 40q0 23 17 40t40 18q23 0 41-17t18-41q0-22-18-39t-41-18q-22 0-39 17zm183 0l-17 17-18 40q0 23 17 40t40 18q23 0 41-17t18-41q0-22-18-39t-41-18q-22 0-39 17z"/><glyph unicode="–" glyph-name="endash" horiz-adv-x="579" d="M55 184l-4 3-5 9q0 12 6 28t19 16h446q6 0 11-4t5-9q0-15-10-29t-22-14H61q-6 0-10 3z"/><glyph unicode="—" glyph-name="emdash" horiz-adv-x="953" d="M51 184l-5 4-5 8q0 12 6 28t20 16h829q6 0 11-4t5-9q0-15-10-29t-22-14H56q-5 0-10 4z"/><glyph unicode="‘" glyph-name="quoteleft" horiz-adv-x="241" d="M205 694v-13q0-10-16-13-40-9-66-34t-27-68q0-14 12-27t28-17q20-3 32-15t13-32q0-22-18-37t-42-15q-39 0-64 28t-25 71q0 49 24 88t61 62 68 22q20 0 20-13z"/><glyph unicode="’" glyph-name="quoteright" horiz-adv-x="241" d="M36 420v13q0 10 16 13 40 9 66 34t27 68q0 14-12 27t-28 17q-20 3-32 15t-13 32q0 22 18 37t42 15q39 0 64-28t25-71q0-49-24-88t-61-62-68-22q-20 0-20 13z"/><glyph unicode="‚" glyph-name="quotesinglbase" horiz-adv-x="241" d="M36-153v13q0 10 16 13 40 9 66 34t27 68q0 14-12 27t-28 17q-20 3-32 15T60 66q0 22 18 37t42 15q39 0 64-28t25-71q0-49-24-88t-61-62-68-22q-20 0-20 13z"/><glyph unicode="“" glyph-name="quotedblleft" horiz-adv-x="426" d="M393 693v-13q0-10-16-13-40-9-66-34t-27-68q0-14 12-27t28-17q20-3 32-15t13-32q0-22-18-37t-42-15q-39 0-64 28t-25 71q0 49 24 88t61 62 68 22q20 0 20-13zm-185 0v-13q0-10-16-13-40-9-66-34t-27-68q0-14 12-27t28-17q20-3 32-15t13-32q0-22-18-37t-42-15q-39 0-64 28t-25 71q0 49 24 88t61 62 68 22q20 0 20-13z"/><glyph unicode="”" glyph-name="quotedblright" horiz-adv-x="426" d="M36 420v13q0 10 16 13 40 9 66 34t27 68q0 14-12 27t-28 17q-20 3-32 15t-13 32q0 22 18 37t42 15q39 0 64-28t25-71q0-49-24-88t-61-62-68-22q-20 0-20 13zm185 0v13q0 10 16 13 40 9 66 34t27 68q0 14-12 27t-28 17q-20 3-32 15t-13 32q0 22 18 37t42 15q39 0 64-28t25-71q0-49-24-88t-61-62-68-22q-20 0-20 13z"/><glyph unicode="„" glyph-name="quotedblbase" horiz-adv-x="426" d="M36-153v13q0 10 16 13 40 9 66 34t27 68q0 14-12 27t-28 17q-20 3-32 15T60 66q0 22 18 37t42 15q39 0 64-28t25-71q0-49-24-88t-61-62-68-22q-20 0-20 13zm185 0v13q0 10 16 13 40 9 66 34t27 68q0 14-12 27t-28 17q-20 3-32 15t-13 32q0 22 18 37t42 15q39 0 64-28t25-71q0-49-24-88t-61-62-68-22q-20 0-20 13z"/><glyph unicode="•" glyph-name="bullet" horiz-adv-x="357" d="M141 222l-31 18-50 49-18 69q0 37 18 68t49 50 70 19q37 0 68-18t49-50 19-69q0-37-18-68t-50-50-68-18q-38 0-69 18z"/><glyph unicode="‹" glyph-name="guilsinglleft" horiz-adv-x="380" d="M303 18l-19 19q-53 50-102 84T77 181q-9 5-15 14t-6 18q0 8 5 10 85 51 129 83t98 82q19 19 31 19 6 0 6-10 0-7-5-15-40-61-72-94t-76-68q-7-5-7-7 0-1 7-8 41-33 74-68t74-96q4-8 4-11 0-4-2-8t-6-4q-13 0-32 19z"/><glyph unicode="›" glyph-name="guilsinglright" horiz-adv-x="380" d="M77 18l19 19q53 50 102 84t105 60q9 5 15 14t6 18q0 8-5 10-85 51-129 83t-98 82q-19 19-31 19-6 0-6-10 0-7 5-15 40-61 72-94t76-68q7-5 7-7 0-1-7-8-41-33-74-68T60 41q-4-8-4-11 0-4 2-8t6-4q13 0 32 19z"/></font>
</defs>
</svg>
