<svg xmlns="http://www.w3.org/2000/svg"><defs><font id="EBGaramond" horiz-adv-x="552"><font-face font-family="EB Garamond SemiBold" panose-1="0 0 7 0 0 0 0 0 0 0" ascent="1007" descent="-298" alphabetic="0"/><glyph glyph-name="space" horiz-adv-x="225"/><glyph unicode="!" glyph-name="exclam" horiz-adv-x="277" d="M125 187l-5 10-10 37Q75 486 75 575q0 29 19 51t46 23q28 0 45-22t18-53q0-40-7-98t-22-162l-12-80q-7-47-26-47-11 0-16 10zM108-14L88 6 68 54q0 28 20 48t48 21q28 0 48-20t20-49q0-28-20-48t-48-20q-28 0-48 20z"/><glyph unicode="&quot;" glyph-name="quotedbl" horiz-adv-x="376" d="M72 420l-2 8-3 18q1 15 1 25t-1 18v20q0 30-4 74l-2 35q0 21 26 40 18 13 29 18t26 5q9 0 15-10t6-25q0-39-19-96t-41-101q-5-11-13-20t-13-9q-5 0-7 8zm151 0l-2 8-3 18q1 15 1 25t-1 18v20q0 30-4 74l-2 35q0 21 26 40 18 13 29 18t26 5q9 0 15-10t6-25q0-39-19-96t-41-101q-5-11-13-20t-13-9q-5 0-7 8z"/><glyph unicode="#" glyph-name="numbersign" horiz-adv-x="479" d="M61-88l-4 4-4 11v5L95 98l-60-3q-8 0-13 5t-6 12q0 27 8 44t24 18l66 3 29 120-66-3q-8 0-13 5t-5 12q0 28 8 44t24 18l72 3 38 156q3 13 12 17t26 5q4 0 7-5t3-11l-1-6-37-153 113 4 39 160q3 13 12 17t26 5q4 0 7-5t4-11q0-2-1-3t-1-3l-38-157 59 3h2q8 0 13-5t6-12q0-20-11-40t-27-22l-62-3-30-121 66 3h2q9 0 14-5t5-12q0-20-11-40t-26-21l-69-3-40-163q-3-12-11-16t-23-4q-6 0-9 5t-4 11v4l40 160-114-5-42-168q-3-12-10-16t-23-4q-6 0-10 4zm214 272l29 121-113-5-30-121 114 5z"/><glyph unicode="$" glyph-name="dollar" horiz-adv-x="454" d="M165-82l-5 7-5 17 8 66v2q0 4-6 6-53 9-98 40-11 8-17 20-14 42-12 120 0 12 18 12 13 0 17-11 14-48 39-81t56-48q9-3 10 4l22 193v3q0 8-10 14-65 37-100 76T46 459q0 70 49 118t132 56q10 0 10 7l5 54q1 9 11 13t23 5q7 0 11-6t3-16l-5-51q0-7 7-8 35-6 74-22 10-4 14-9t9-17q14-52 14-101 0-5-4-8t-12-3q-9 0-16 4t-10 10q-30 80-78 98-6 0-6-6l-20-169q-1-8 2-12t19-14q71-42 104-84t34-102q0-83-53-130T218 13q-6 0-7-7l-9-75q-1-6-8-9t-19-4q-10 0-15 7zm46 506v8l18 145q0 9-7 9-67-12-67-83 0-37 49-73 7-6 7 2zm53-361l20 24 21 60q0 34-14 55t-46 43q-7 4-7-5L218 69v-3q0-7 9-7 37 4 57 28z"/><glyph unicode="%" glyph-name="percent" horiz-adv-x="685" d="M99 263l-38 50-38 124q0 77 40 128t107 51q61 0 98-49t37-121q0-81-40-132t-106-51q-60 0-98 50zm121 29v144q0 62-13 105t-46 44q-52 0-52-139 0-65 13-109t46-45q52 0 52 144zm309 364l11 4 28 4q7 0 12-5t5-10q0-4-1-5L164-18q-11-18-42-18-8 0-14 4t-7 10q0 3 1 4l420 662q7 12 18 16zM456-17l-38 50-38 124q0 77 40 128t107 51q61 0 98-49t37-121q0-81-40-132T516-17q-60 0-98 50zm121 29v144q0 62-13 105t-46 44q-52 0-52-139 0-65 13-109t46-45q52 0 52 144z"/><glyph unicode="&amp;" glyph-name="ampersand" horiz-adv-x="785" d="M164-16L124 1 59 52l-25 77q0 65 42 119t118 90l21 10-11 11q-4 5-23 24t-31 44-13 52q0 34 22 62t61 43 85 16q43 0 76-16t52-42 18-56q0-41-26-67t-80-46l-19-7 18-19 30-31q60-62 87-95l16-19 16 15q30 31 54 68t25 53q0 11-8 19t-21 13q-17 6-17 16 0 13 27 13 14 0 35-3 8-1 21-2t31-1q21 0 65 10 38 9 54 9 5 0 9-4t5-8q0-8-9-15t-21-9q-44-7-86-45l-30-30Q497 177 496 176l19-23q36-47 64-71t59-24q43 0 78 16 2 1 9 3t12 3q8 0 11-2t4-12q0-13-22-32T673 0t-73-15q-55 0-88 22t-76 77l-16 21-5-6q-50-56-98-85T209-16q-45 0-85 17zm156 411q18 12 27 38t9 55q0 33-14 56t-42 23q-23 0-40-16t-18-41q0-34 11-56t36-48l19-19 12 8zm20-326l50 53 8 8-14 19q-34 43-107 124l-31 35-12 14-19-10q-68-30-68-122 0-54 33-87t87-34q73 0 123 53z"/><glyph unicode="'" glyph-name="quotesingle" horiz-adv-x="225" d="M72 420l-2 8-3 18q1 15 1 25t-1 18v20q0 30-4 74l-2 35q0 21 26 40 18 13 29 18t26 5q9 0 15-10t6-25q0-39-19-96t-41-101q-5-11-13-20t-13-9q-5 0-7 8z"/><glyph unicode="(" glyph-name="parenleft" horiz-adv-x="308" d="M226-215l-13 11q-36 36-77 118T66 92 37 268q0 79 27 162t66 153 78 107q7 7 18 11t22 5q9 0 20-7t12-17q0-2-7-12t-12-15q-47-59-82-160t-36-220q0-76 16-163t43-160 54-106q2-3 11-15t10-13q0-15-12-24t-27-9q-12 0-25 11z"/><glyph unicode=")" glyph-name="parenright" horiz-adv-x="308" d="M55-215l-12 9-12 24q0 1 9 13t12 15q27 33 53 105t43 160 17 164q0 118-35 219T47 655q-4 5-11 15t-8 12q0 9 11 16t21 8q11 0 22-4t18-12q38-38 77-107t67-152 27-163q0-79-28-175T173-86 95-204q-13-11-25-11-15 0-27 9z"/><glyph unicode="*" glyph-name="asterisk" horiz-adv-x="352" d="M182 359l-7 8-10 19-13 78-38-23-31-19q-12-6-19-6-10 0-17 6t-8 17q0 7 4 13t10 12l62 49q-11 7-33 17l-38 20q-8 4-13 11t-5 17q0 10 7 16t19 7q6 0 14-3l35-14 38-16q-3 39-3 80 0 13 6 22t19 10q10 0 17-8t10-19l11-78 17 11q25 18 49 32 10 7 20 7 9 0 16-6t8-17q0-13-12-25l-61-50q5-3 19-9l52-26q8-4 13-11t6-15q0-11-8-17t-20-7q-7 0-11 1l-74 28 1-20q2-16 4-61 0-13-6-22t-20-9q-10 0-17 8z"/><glyph unicode="+" glyph-name="plus" horiz-adv-x="598" d="M278-10l-3 4-4 11v206q0 9-9 9H55q-6 0-11 4t-5 9q0 13 7 29t20 16h194q7 0 9 2t2 9v177q0 13 17 23t29 10q7 0 11-5t4-14V288q0-6 1-8t7-2h205q7 0 12-4t6-10q0-14-9-29t-23-15H341q-9 0-9-9V17q0-14-17-20t-32-7q-5 0-8 4z"/><glyph unicode="," glyph-name="comma" horiz-adv-x="242" d="M34-159l-6 4-7 11q0 6 4 9t16 5q40 11 64 35t25 61q0 15-12 27T89 10q-20 4-32 17T45 62q0 23 20 40t45 17q42 0 68-28t27-74q0-50-24-90t-63-63-74-23q-10 0-16 4z"/><glyph unicode="-" glyph-name="hyphen" horiz-adv-x="302" d="M30 166l-1 2-2 7q0 26 5 42t15 17q107 17 215 28 13 0 13-12 0-28-4-41t-16-15q-132-19-219-28-6 0-7 2z"/><glyph unicode="." glyph-name="period" horiz-adv-x="242" d="M91-25L70-4 48 47q0 31 21 52t51 22q31 0 52-21t22-53q0-29-21-50t-53-22Q91-25 70-4z"/><glyph unicode="/" glyph-name="slash" horiz-adv-x="403" d="M26-62l-6 5-3 13 306 690q6 12 16 16t27 4q11 0 16-6t2-14L78-44q-5-11-15-14t-27-4q-10 0-16 5z"/><glyph unicode="0" glyph-name="zero" horiz-adv-x="513" d="M439-14l-50 46-76 119-25 151q0 82 25 157t78 123 131 49q72 0 122-46t76-119 26-149q0-81-25-157T642 35 511-14q-72 0-122 46zm137 39l23 78 24 196q0 74-14 141t-40 110-64 42q-48 0-71-77t-23-196q0-75 13-142t39-109 64-43q49 0 72 78z"/><glyph unicode="1" glyph-name="one" horiz-adv-x="513" d="M107-3l-5 4-5 10q0 13 17 18 38 9 56 16t30 20 11 37v369q0 30-22 41t-63 18q-10 1-18 6t-8 15q0 9 8 15t21 7q57 6 99 19t84 42q2 2 9 2t12-3 5-7q-1-9-3-29t-2-43V98q0-21 10-33t30-19 60-18q18-5 18-17 0-6-4-9t-11-4q-26 0-84 2-56 2-77 2-22 0-80-2-42-3-81-3-7 0-12 4z"/><glyph unicode="2" glyph-name="two" horiz-adv-x="513" d="M395-3q-82 4-138 4-23 0-149-3L70-3q-3 0-11 6t-9 11q0 9 5 14t7 6l154 167q108 118 108 244 0 47-25 76t-65 29q-35 0-67-20t-56-50q-14-18-28-18-6 0-10 6t-4 19q0 21 29 56t76 61 102 26q74 0 117-47t44-120q0-39-23-89t-55-87q-18-20-123-125-66-62-66-66t15-6q31-4 89-4 56 0 97 4 37 3 57 15t35 41q4 8 11 15t16 7q6 0 9-5t1-12q-3-12-9-27-4-12-15-49t-15-56q-1-11-8-17t-13-6l-45 1z"/><glyph unicode="3" glyph-name="three" horiz-adv-x="513" d="M134-38L99-23 64 9q0 18 12 37t26 19q14 0 31-17 20-21 37-33t39-12q33 0 62 18t46 51 18 76q0 62-28 104t-76 42q-29 0-65-19-4-2-7-2-7 0-12 4t-4 10q8 31 38 46 55 28 88 62t34 80q0 36-24 61t-60 26q-40 0-64-19t-45-47q-12-17-16-17-6 0-13 7t-7 16q0 18 22 48t67 55 110 24q57 0 99-33t42-85q0-41-31-83t-94-63q-3-2-3-4t4-2q48 0 87-20t61-55 22-82q0-71-41-125T311-8 169-38q-35 0-70 15z"/><glyph unicode="4" glyph-name="four" horiz-adv-x="513" d="M207-3l-7 4-7 10q0 14 21 18 42 7 56 19t15 41v69q0 5-5 7t-11 3q-33 0-115-4-76-4-120-4-5 0-9 2t-4 7q0 4 3 8 19 24 33 43l253 389q8 14 19 23t21 10h12q7 0 7-8 0-7-3-10L120 246q-2-3-2-7 0-6 7-6h151q3 0 6 2t3 5v132q0 15 2 21t12 10q20 10 45 14t41 4q16 0 19-15t4-57V235q0-6 5-6 16-1 37-1 12 0 58 2 5 0 8-2t4-6q0-12-8-33t-14-22l-48 1q-10 0-28-2-4-1-8-3t-5-3V92q0-28 13-40t53-23q21-6 21-18 0-6-5-9t-13-4q-26 0-72 2-42 2-61 2-23 0-63-2-33-3-68-3-7 0-14 4z"/><glyph unicode="5" glyph-name="five" horiz-adv-x="513" d="M80-38v14q0 9 12 14t28 7q64 4 113 29t75 63 26 76q0 56-47 94t-159 69q-25 10-34 21t-10 29q0 31 38 148l7 23q9 36 45 45 43 10 115 21t105 14q7 0 11-6t2-14q-2-13-10-31t-11-23q-8-18-22-29t-33-13l-89-6q-63-4-78-6-10-1-20-21t-10-30q0-14 11-15 97-22 179-62 117-57 117-175 0-55-33-105t-90-82q-36-20-88-34T125-38q-45 0-45 14z"/><glyph unicode="6" glyph-name="six" horiz-adv-x="513" d="M173-15l-56 56-57 152q0 153 115 281 41 45 109 90t149 72q11 4 23 4 15 0 14-7-2-9-9-14t-24-14q-58-26-99-61t-75-87q-31-47-57-117t-27-143q0-53 16-91t42-59 53-20q36 0 59 31t23 90q0 45-23 79t-55 34q-32 0-53-10-7-3-12-3-8 0-8 7 0 6 7 15 10 11 24 22 18 14 47 27t55 13q36 0 67-18t51-49 20-68q0-55-30-104t-81-78-112-30q-96 0-152 56z"/><glyph unicode="7" glyph-name="seven" horiz-adv-x="513" d="M142-30l-7 8-7 22q0 4 14 28l11 19 255 456q2 4 2 6 0 6-13 6H163q-26 0-41-8t-32-32q-1-2-13-22t-27-20q-6 0-9 4t-4 11q0 6 3 20t5 19l4 21q15 67 18 104 0 8 5 11t12 4l35-5q28-4 58-6l146-1q147 0 182 4 4 0 6-6t3-13q0-7-20-38l-18-29L176 0q-16-30-21-30-13 0-20 8z"/><glyph unicode="8" glyph-name="eight" horiz-adv-x="513" d="M204-13L160 7 89 62l-27 81q0 34 17 59t41 42 62 38l18 10q6 3 6 6t-9 10q-39 31-62 54t-39 53-16 69q0 41 29 74t77 52 97 19q45 0 85-17t65-49 25-72q0-62-58-99l-19-12q-11-6-28-18-15-10-15-15 0-3 4-5t6-4q66-44 98-80t32-87q0-54-30-96t-81-65-110-23q-53 0-97 20zm144 421v88q0 42-19 69t-56 28q-32 0-57-24t-25-59q0-39 20-63t64-58q-1 1 17-14 11-9 18-2 38 35 38 123zM312 25l25 28 26 68q0 65-109 145-12 10-17 10t-13-7q-25-22-36-48t-11-68q0-51 27-89t70-39q38 0 63 28z"/><glyph unicode="9" glyph-name="nine" horiz-adv-x="513" d="M65-44l-5 4-6 9q0 9 7 14t16 6q50 4 109 45t103 100q95 122 95 255 0 46-16 91t-44 74-57 29q-40 0-61-30t-22-81q0-30 12-59t31-47 41-18q16 0 26 3t18 7 12 6l9 2q10 0 10-9 0-6-6-14-5-8-13-16t-12-11q-14-12-42-24t-52-13q-37 0-72 18t-57 52-22 72q0 45 31 94t83 81 112 33q54 0 101-32t76-86 29-111q0-155-146-305-52-52-136-95T76-44q-11 0-16 4z"/><glyph unicode=":" glyph-name="colon" horiz-adv-x="271" d="M101 251l-21 21-22 51q0 31 21 52t51 22q31 0 52-21t22-53q0-29-21-50t-53-22q-29 0-50 21zm0-276L80-4 58 47q0 31 21 52t51 22q31 0 52-21t22-53q0-29-21-50t-53-22q-29 0-50 21z"/><glyph unicode=";" glyph-name="semicolon" horiz-adv-x="241" d="M81 252l-21 21-22 51q0 31 21 52t51 22q31 0 52-21t22-53q0-29-21-50t-53-22q-29 0-50 21zM34-159l-6 4-7 11q0 6 4 9t16 5q40 11 64 35t25 61q0 15-12 27T89 10q-20 4-32 17T45 62q0 23 20 40t45 17q42 0 68-28t27-74q0-50-24-90t-63-63-74-23q-10 0-16 4z"/><glyph unicode="&lt;" glyph-name="less" horiz-adv-x="547" d="M89 191q-46 22-46 30 0 9 11 26t26 23l403 198 7 2q14 0 14-18 0-13-9-28t-25-22L135 237q-3-2-3-4t3-4L473 64q14-6 22-21t9-28q0-12-7-16t-15 0L89 191z"/><glyph unicode="=" glyph-name="equal" horiz-adv-x="608" d="M56 315l-4 4-5 9q0 12 7 27t19 15h469q7 0 13-4t6-10q0-12-10-26t-22-15H62q-6 0-10 4zm0-177l-4 4-5 8q0 12 7 27t19 15h469q8 0 13-4t6-10q0-13-10-26t-22-14H62q-6 0-10 4z"/><glyph unicode="&gt;" glyph-name="greater" horiz-adv-x="547" d="M458 274q46-22 46-30 0-9-11-26t-26-23L64-3l-7-2Q43-5 43 13q0 13 9 28t25 22l335 165q3 2 3 4t-3 4L74 401q-14 6-22 21t-9 28q0 12 7 16t15 0l393-192z"/><glyph unicode="?" glyph-name="question" horiz-adv-x="389" d="M136 176l-8 8-15 22q-9 22-14 41t-6 47q0 30 26 53t86 52q63 31 63 74 0 36-23 57t-61 23q-20 0-41-8-20-5-30-5-19 0-36 25t-17 51q0 17 18 31t41 14q34 0 69-17t65-49q37-39 59-88t23-92q0-36-13-59t-34-33q-30-16-64-36-10-7-24-15-20-11-28-27t-10-46q-1-10-6-16t-13-7q-7 0-15 8zM119-14L99 6 78 54q0 29 20 49t49 20q28 0 48-20t20-49q0-28-20-48t-48-20q-28 0-48 20z"/><glyph unicode="@" glyph-name="at" horiz-adv-x="770" d="M299-146l-81 42L88 13 39 183q0 109 52 186t139 118 192 40q82 0 153-38t113-104 43-145q0-59-29-106t-78-74-102-27q-23 0-35 8t-22 20-13 12q-3 0-24-12t-48-21-57-9q-58 0-96 32t-38 89q0 66 31 116t83 78 115 28q16 0 37-3t33-6q7-2 15-5t11-3q5 0 13 11t15 12q6 0 17-2t10-7q-8-19-15-47t-10-45l-23-135q-1-4-2-11t-1-14q0-29 18-29 35 0 65 16t49 47 19 70q0 72-34 129t-94 90-135 33q-82 0-152-35t-111-99-42-147q0-80 41-146T254-56t151-38q47 0 108 21t101 51q19 15 28 15 21 0 21-17 0-15-45-45t-109-53-116-24q-94 0-175 42zm79 224l13 5 28 16q10 6 15 17t10 33l21 111q1 3 1 12 0 28-20 45t-52 17q-29 0-55-18t-42-54-16-84q0-50 24-75t56-25q17 0 30 5z"/><glyph unicode="A" glyph-name="A" horiz-adv-x="711" d="M-4-5v15q0 8 6 13t21 10q62 16 85 70 90 207 178 450 9 27 14 46t8 27q36 9 57 18 16 8 26 20t13 15q8 6 12-2 2-4 9-25 37-118 85-266t68-206l23-68q13-38 34-55t55-26q27-6 27-22 0-12-23-12l-69 2q-45 3-85 3-22 0-72-2-46-2-63-2-11 0-18 3t-7 11q0 16 27 21 34 6 49 16t16 29q0 7-1 10-8 44-35 136-2 9-6 12t-15 3H235q-12 0-17-18-30-89-37-122-1-5-1-14 0-21 14-33t47-20q27-6 27-21 0-6-6-9t-18-4l-48 1q-34 2-56 2-14 0-32-1T80-2Q52-5 24-5T-4 10zm405 290q8 0 11 1t3 5q0 1-2 11l-70 231q-5 14-7 14-1 0-7-13l-84-232q-2-4-2-8 0-9 19-9h139z"/><glyph unicode="B" glyph-name="B" horiz-adv-x="613" d="M31-5l-7 4-7 10q0 13 26 19 38 10 53 24t15 45v453q0 34-13 49t-50 21q-13 2-19 7t-7 13q0 7 6 10t18 4q42 0 71-3 32-2 54-2 13 0 28 1t24 2q35 5 80 5 122 0 180-34t59-115q0-30-12-57t-33-44q-16-15-32-24t-39-16q-4-2-4-5t4-5q67-16 110-51t44-112q0-51-16-84t-38-50-51-32Q409-4 302-4q-16 0-54 2-44 2-69 2-24 0-68-2-34-3-70-3-10 0-17 4zm307 374l41 28q13 11 24 33t12 60q0 128-117 128-32 0-45-10t-13-34V405q0-19 13-27t29-9q56 0 97 28zm4-323l30 18 48 51 18 72q0 48-17 77t-41 43q-13 9-36 16t-54 7q-21 0-35-9t-15-24V112q0-66 67-66 35 0 65 18z"/><glyph unicode="C" glyph-name="C" horiz-adv-x="709" d="M305-14l-85 42L85 145 34 319q0 93 51 172t142 126 206 47q47 0 89-8t92-24q22-7 25-30 8-64 8-118 1-8-4-12t-13-5q-7 0-12 4t-8 12q-10 35-20 56t-30 38q-50 42-140 42-70 0-124-38t-85-101-30-135q0-87 28-158t84-114 130-42q72 0 119 31t79 96q4 7 9 11t12 4q6 0 10-4t5-12q0-17-6-48t-17-61q-5-12-11-17t-18-11Q568 4 516-5t-111-9q-100 0-185 42z"/><glyph unicode="D" glyph-name="D" horiz-adv-x="762" d="M352-7l-78 4q-23 1-49 2t-51 1q-19 0-59-2-44-2-71-2-10 0-16 4t-7 10q0 8 6 12t20 8q38 8 52 22t14 46v452q0 33-13 47t-53 23q-13 2-19 6t-7 14q0 6 6 10t17 4q23 0 69-2 42-2 64-2 21 0 95 4 65 5 98 5 110 0 192-41t126-115 45-165q0-92-44-171T564 41 379-7q-27 0-105 4zm118 46l59 75 60 201q0 89-30 157t-84 104-122 37q-43 0-64-2t-34-12-12-31V128q0-49 31-69t91-20q105 0 164 75z"/><glyph unicode="E" glyph-name="E" horiz-adv-x="571" d="M39-5l-7 4-7 10q0 13 26 19 37 10 52 23t15 46v453q0 33-13 47t-51 23q-26 5-26 20 0 7 6 10t18 4q30 0 82-2t77-2q80 0 190 2 31 1 53 3t27 2q21 0 23-15l7-45q9-52 9-76 0-8-4-13t-10-5q-10 0-16 14-8 21-15 39t-16 27q-28 30-71 30h-93q-19 0-33-11t-15-29V377q0-23 23-23h91q25 0 36 13t22 43q6 20 19 20 5 0 9-5t4-15q-4-40-4-77 0-51 3-81v-5q0-18-10-18-7 0-13 7t-10 21q-8 29-19 42t-30 14h-93q-15 0-21-5t-7-19V99q0-32 13-45t44-13h82q54 0 81 20 27 21 57 78 7 13 18 13 10-1 10-17 0-32-31-125-6-14-20-14L381-2Q253 0 180 0q-19 0-63-2-33-3-68-3-10 0-17 4z"/><glyph unicode="F" glyph-name="F" horiz-adv-x="535" d="M36-4l-7 3-7 10q0 15 25 21 39 8 53 21t14 47v440q0 39-13 57t-48 25q-26 5-26 20 0 14 24 14 29 0 81-2 50-2 75-2h159q26 0 77 7 34 4 43 4 8 0 14-4t8-12q5-63 5-124 0-9-3-14t-8-6q-6 0-11 4t-7 11q-15 49-32 67-26 27-71 27h-91q-23 0-35-13t-12-35V376q0-23 19-23l58 1q16 1 45 1 22 0 36 12t24 36q2 7 8 12t11 5q5 0 9-5t4-14q-4-36-4-67 0-24 3-69v-5q0-18-9-18-8 0-14 7t-10 17q-8 26-20 36t-29 11l-48 1q-41 0-61-1-23-2-23-24 0-64 2-190 1-31 16-46t57-23q13-3 19-7t6-13q0-13-22-13-39 0-75 3-44 2-61 2-33 0-66-3-12-1-34-2T45-4q-9 0-16 3z"/><glyph unicode="G" glyph-name="G" horiz-adv-x="722" d="M288-14l-80 42L81 145 34 313q0 94 48 174t134 129 193 48q39 0 105-11t95-24q15-7 16-20 11-81 11-115 0-8-4-14t-12-6q-10 0-15 6t-10 18q-22 46-43 69-47 49-138 49-71 0-124-38t-82-103-29-140q0-91 27-159t78-105 115-37q52 0 86 29 11 8 18 27t8 42l2 74q0 25-17 33-12 10-34 16t-41 8q-8 2-15 7t-8 13q0 7 7 11t14 5q23 0 71-2 50-2 73-2 17 0 55 2 36 2 57 2 7 0 13-4t6-12q0-8-6-12t-14-7q-26-7-36-17t-13-32q-7-34-7-75v-31q0-6 5-11t6-7q2-2 6-8t5-12q0-19-18-21-6-1-27-11-45-22-96-37T383-14q-95 0-175 42z"/><glyph unicode="H" glyph-name="H" horiz-adv-x="804" d="M39-4l-7 4-7 10q0 8 6 12t19 8q35 8 47 21t13 47v453q0 34-10 47t-47 22q-25 4-25 20 0 7 6 10t17 4q27 0 69-2 40-2 57-2 18 0 60 2 46 2 73 2 21 0 21-15 0-8-5-12t-20-7q-39-10-52-24t-14-46V364q0-12 15-12h299q11 0 11 14v185q0 29-13 44t-52 25q-14 3-20 7t-6 12q0 15 22 15 26 0 74-2 44-2 64-2 16 0 52 2 40 2 68 2 10 0 16-3t7-11q0-15-25-20-35-8-46-22t-11-47V98q0-33 11-47t47-21q13-3 19-7t6-13q0-6-7-10t-16-4q-34 0-67 3-40 2-59 2-18 0-62-2-46-2-72-2-21 0-21 14 0 8 5 12t19 7q37 8 52 23t15 45v190q0 16-10 16H251q-6 0-8-3t-3-12V102q0-30 17-47t54-25q14-3 19-7t6-12q0-14-22-14-26 0-72 2t-65 2q-20 0-62-2-33-3-67-3-9 0-16 4z"/><glyph unicode="I" glyph-name="I" horiz-adv-x="356" d="M31-4l-7 3-7 10q0 15 25 21 40 8 56 22t16 45v454q0 33-14 47t-53 22q-25 4-25 21 0 6 7 9t16 4q25 0 71-2 44-2 64-2t62 2q48 2 72 2 10 0 16-3t6-11q0-8-6-12t-19-8q-40-10-54-24t-14-46V98q0-30 16-44t55-24q13-3 19-7t7-13q0-13-22-13-26 0-74 2-44 2-64 2-22 0-68-2-34-3-72-3-9 0-16 3z"/><glyph unicode="J" glyph-name="J" horiz-adv-x="360" d="M-14-200l-32 14-32 41q0 19 16 36t31 18q24 0 44-24 6-7 16-20t18-18 15-5q64 0 64 163v546q0 32-14 46t-52 23q-26 5-26 21 0 6 7 9t16 4q27 0 73-2 42-2 62-2 18 0 58 2 44 2 70 2 10 0 16-3t6-11q0-8-6-12t-19-8q-39-10-50-23t-12-47V73q0-45-23-97t-57-95q-63-81-126-81t-95 14z"/><glyph unicode="K" glyph-name="K" horiz-adv-x="736" d="M40-6l-9 4-9 11q0 15 29 21 37 7 50 21t13 48v452q0 33-13 47t-53 22q-26 5-26 21 0 6 7 9t16 4q26 0 72-2 42-2 61-2 18 0 58 2 46 2 71 2 10 0 16-3t6-11q0-8-6-12t-19-8q-38-9-49-23t-12-47V352q0-6 2-11t7-5q9 0 25 16l195 206q17 17 17 31 0 9-8 16t-25 12q-25 6-25 21 0 6 7 9t16 4h64q37 0 103 2l83 1q11 0 18-3t7-10q0-15-31-20-89-13-154-64-35-27-65-56t-78-78l-36-36q-5-4-5-11 0-6 7-15L608 97q26-30 46-44t59-23q17-5 24-9t8-11q0-7-9-11t-27-4q-43 0-82 3-13 1-38 2t-45 1l-51-1q-36-2-60-2-9 0-16 3t-7 10q0 8 5 12t18 8q36 7 36 25 0 12-16 30L274 290q-14 17-23 17-8 0-8-19 0-93 4-185 2-33 13-49t47-24q14-3 21-7t8-13q0-6-8-10t-21-4q-35 0-75 4-24 3-48 3-19 0-55-4-52-5-78-5-11 0-20 4z"/><glyph unicode="L" glyph-name="L" horiz-adv-x="585" d="M36-5l-6 4-7 10q0 7 6 12t15 7q38 10 54 23t16 44v460q0 33-12 44t-52 21q-26 5-26 21 0 6 7 9t16 4q28 0 72-2 42-2 61-2 21 0 69 2t73 2q10 0 16-3t6-11q0-8-6-12t-19-8q-43-11-59-22t-17-40V101q0-30 13-43t49-13h109q22 0 41 8t32 20q17 15 29 32t24 44q14 31 25 31 6 0 9-6t4-13l-2-15q-14-49-20-75t-9-58q-2-18-16-18-33 0-145 2-100 3-200 3-2 0-92-3L46-5Q36-5 30-1z"/><glyph unicode="M" glyph-name="M" horiz-adv-x="912" d="M20-4V9q0 7 6 10t23 8q25 8 41 28t21 51q26 183 40 415v34q-1 15-5 25t-16 17q-22 15-63 25-24 5-24 21 0 14 29 14 28 0 73-3 72-4 104-4 7 0 13-5t9-12q10-28 11-34l14-41 150-366q4-7 9-7t6 5l161 358q12 58 20 86 3 13 13 13h41q42 2 78 6 54 4 67 4 23 0 23-13 0-8-5-12t-19-9q-25-9-38-15-23-10-32-24t-9-39q3-106 7-193t11-172l6-83q1-27 19-43t54-24q14-3 20-7t7-13q0-6-7-9t-17-4q-26 0-74 2t-67 2q-18 0-60-2-33-3-70-3-11 0-18 3t-7 10q0 16 27 21 35 6 47 20t12 47q-4 164-12 363 0 7-4 7-3 0-8-8L423-1q-4-9-12-9-4 0-8 2t-5 7q-33 83-117 277-70 162-79 183-3 6-7 6-6 0-8-11-15-141-15-351 0-28 18-47t53-26q14-3 21-7t8-13q0-6-7-9t-19-4q-30 0-58 2-24 2-41 2-6 0-63-3-30-2-39-2Q20-4 20 9z"/><glyph unicode="N" glyph-name="N" horiz-adv-x="804" d="M661-18L633-1l-54 50q-40 44-82 92t-79 89Q263 405 200 474q-10 12-16 12-4 0-6-6t-2-14v-63l1-294q0-32 18-51t57-28q15-3 22-7t8-13q0-6-8-9t-19-4q-30 0-62 2-26 2-43 2-11 0-59-3-24-2-33-2-10 0-18 3T32 9q0 8 7 12t21 9q47 15 54 81 19 204 19 397 0 48-23 71t-70 41q-11 3-20 9t-9 14q0 15 25 15 23 0 69-2 51-3 112-3 12 0 21-13 30-34 174-202 155-182 206-239 13-16 19-16 4 0 6 4t3 13v157q0 137-1 201-1 23-19 38t-50 22q-33 8-33 21 0 6 9 9t21 4l84-1 48 1q32 2 62 2 12 0 19-3t8-10q0-15-29-21-36-7-50-19t-15-40q0-67-3-174-4-168-4-246 0-23 2-52t4-38q3-21 3-31 0-38-26-38-15 0-43 17z"/><glyph unicode="O" glyph-name="O" horiz-adv-x="761" d="M285-14l-78 41L81 144 34 315q0 92 41 172t120 128 190 49q91 0 169-41t126-117 47-171q0-92-41-172T566 35 376-14q-91 0-169 41zm201 44l49 68 49 186q0 89-24 165t-74 123-119 47q-92 0-141-68t-49-185q0-89 24-165t72-124 120-47q93 0 142 68z"/><glyph unicode="P" glyph-name="P" horiz-adv-x="589" d="M33-4l-7 3-7 10q0 15 25 21 39 8 54 22t16 46v440q0 39-13 57t-48 25q-26 5-26 20 0 14 24 14 27 0 67-2l56-1q20 0 58 4 42 4 71 4 120 0 190-50t71-138q0-64-26-116t-80-84-130-31q-23 0-37 7t-14 17q0 6 6 10t12 5q7 0 18-1t25-2q47 0 71 47t25 129q0 86-34 127t-97 42q-59 0-59-48l-1-469q0-34 16-50t57-24q13-3 19-7t6-13q0-13-21-13-38 0-76 3-44 2-61 2-34 0-67-3-12-1-34-2T42-4q-9 0-16 3z"/><glyph unicode="Q" glyph-name="Q" horiz-adv-x="761" d="M671-248l-59 20-110 57q-85 60-142 108-63 54-114 74-89 36-150 109T34 315q0 92 41 172t120 128 190 49q91 0 169-41t126-117 47-171q0-111-58-201T506 8q-10-3-10-9 0-5 5-10 49-51 114-100 49-38 91-54t91-17q29 0 42 5 4 1 9 2t12 1q22 0 22-17 0-9-4-14t-15-13q-48-30-129-30-63 0-122 20zM487 32l48 66 49 186q0 91-24 166t-73 121-120 46q-93 0-141-66t-49-185q0-91 24-167t72-121 120-46q94 0 142 66z"/><glyph unicode="R" glyph-name="R" horiz-adv-x="744" d="M580-21L541-1l-71 59q-40 53-69 95t-64 109q-14 24-33 34-20 11-49 13h-1q-11 0-11-20V103q0-32 16-49t57-24q13-3 19-7t6-13q0-13-21-13-38 0-76 3-44 2-61 2-34 0-67-3-12-1-34-2T42-4q-9 0-16 3T19 9q0 15 25 21 39 8 54 22t16 46v442q0 30-4 45t-17 22-40 13q-13 2-19 7t-7 13q0 14 24 14 42 0 69-3 32-2 53-2 14 0 29 1t22 2q33 5 80 5 116 0 177-40t61-122q0-61-36-99t-90-60q-4-1-4-5t4-7q54-82 95-136t92-101q28-26 57-33t74-7q15 0 15-15 0-28-30-40t-76-13q-63 0-102 20zM345 338l33 38 33 99q0 70-28 106t-93 37q-26 0-35-19t-11-74q-1-31-1-150 0-21 10-29t33-8q59 0 92 38z"/><glyph unicode="S" glyph-name="S" horiz-adv-x="484" d="M125-15L62 29Q49 39 43 52 28 97 30 184q0 13 19 13 8 0 12-2t7-10q22-75 64-117t95-42q47 0 75 31t28 75q0 34-12 56t-35 40-66 43q-58 34-90 57t-55 59-24 88q0 55 28 98t80 67 118 24q34 0 66-7t54-17q10-4 15-10t10-19q15-52 15-111 0-12-17-12-9 0-17 4t-10 11q-37 118-127 118-47 0-74-24t-27-74q0-35 32-64t105-72q77-47 112-91t35-111q0-97-62-148T214-15q-89 0-152 44z"/><glyph unicode="T" glyph-name="T" horiz-adv-x="687" d="M199-4l-7 3-8 10q0 15 27 21 40 8 57 22t17 47v405q0 58-4 77t-14 22q-17 6-54 6h-31q-29 0-56-14t-42-36q-9-15-23-30t-27-16q-12 0-12 16 0 10 6 24 17 35 25 60t12 60q4 24 22 24 5 0 15-13t15-20q8-8 30-13t41-5l369 1q47 0 77 14 7 4 19 14 8 7 13 10t13 4q10 0 10-19 0-5-3-23l-7-28q-10-37-10-61v-17q0-15-4-24t-13-10q-8 0-14 9t-11 30q-9 33-30 48t-66 15h-68q-21 0-30-7t-14-30-4-73V100q0-31 17-46t57-24q14-3 20-7t7-13q0-6-7-9t-17-4q-24 0-74 2-46 2-67 2-20 0-68-2-36-3-74-3-10 0-17 3z"/><glyph unicode="U" glyph-name="U" horiz-adv-x="742" d="M237-14l-71 70-72 193v292q0 30-13 51t-36 27q-30 7-30 22 0 6 8 9t20 4q19 0 57-2 42-2 61-2t61 2l56 1q27 0 27-13 0-7-6-11t-17-8-18-7q-16-7-28-26t-12-49V270q0-103 49-156t129-53q94 0 140 59t47 173q0 133-2 199-2 58-12 86t-37 39q-5 2-15 5t-16 8-6 9q0 14 29 14l52-1q12-1 38-1 18 0 44 2l43 1q27 0 27-13t-30-21q-30-8-42-28t-15-56q-5-107-7-211 0-44-1-67-1-78-36-140t-96-97-134-35q-136 0-207 70z"/><glyph unicode="V" glyph-name="V" horiz-adv-x="695" d="M326-15l-5 13q-15 35-31 78L99 549q-23 55-72 70-14 4-20 8t-7 13q0 7 6 10t18 4q17 0 65-2 50-2 73-2t75 2q48 2 63 2 11 0 19-4t9-10q0-7-9-13t-22-8q-31-5-45-13t-15-26q0-12 3-22t5-13l134-368q2-6 5-6 2 0 5 7l123 324q12 32 12 55 0 53-59 62-13 2-22 7t-10 14q0 6 8 9t21 4q32 0 46-1l51-1q21 0 59 2 36 2 52 2 30 0 30-14 0-8-7-12t-22-8q-32-8-53-31t-39-63L415 133l-25-58q-24-59-33-77-6-13-19-13-12 0-17 13z"/><glyph unicode="W" glyph-name="W" horiz-adv-x="986" d="M994 655v-14q0-8-8-12t-24-8q-30-7-46-27t-30-49L672 7q-5-11-9-16t-10-5q-12 0-22 19l-60 136-56 130q-3 6-6 6-4 0-7-9-72-151-121-258-6-13-10-20t-12-7q-6 0-10 6t-9 21L100 554q-12 26-27 41t-43 24q-15 5-22 9t-8 12q0 6 8 10t19 4q18 0 60-2 40-2 59-2 20 0 60 2 36 2 52 2 17 0 25-6 6 6 19 6 19 0 63-2t63-2q19 0 55 2l51 1q32 0 32-13 0-9-18-18-14-6-20-13-14-4-14-15 0-3 2-11 9-24 22-59t25-61q6-12 9-12 2 0 5 5t4 7q7 16 18 46t15 41l10 27q3 6 3 15 0 10-6 16t-19 12q-9 5-14 9t-5 10q0 7 5 10t19 4q19 0 32-1t25-2q7 0 21 2 24 2 47 2 29 0 29-14 0-8-7-12t-22-8q-28-8-41-20t-28-38q-36-67-63-134-5-12-5-25t4-21l85-206q3-6 5-6 3 0 7 9 63 151 135 361 10 26 10 45-2 27-29 34-13 3-22 8t-10 13q0 6 8 9t21 4l40-1q21-2 31-1 12 0 36 2 28 2 46 2 32 0 32-14zM484 324v7q0 7-6 22l-88 194q-10 26-32 44t-52 28q-17 5-23 11-6-6-28-11-13-3-17-10t-4-21q0-16 6-34 40-97 101-239l58-137q6-11 8-11 4 0 8 10l63 133q6 14 6 21z"/><glyph unicode="X" glyph-name="X" horiz-adv-x="736" d="M-5-6V8q0 7 7 11t22 10q31 9 65 32t65 63l123 157q13 18 13 34t-12 32L139 543q-25 35-45 52t-49 25q-14 4-20 8t-7 13q0 13 24 13 22 0 74-2 42-3 86-3 39 0 73 3 42 2 59 2 11 0 19-4t8-10q0-12-30-21-31-7-43-14t-13-22q0-14 22-44l93-130q11-14 18-14 6 0 15 12l91 123q25 34 25 54 0 24-45 35-12 3-21 8t-10 13q0 13 30 13l44-1q26-2 44-2 20 0 56 4 9 1 21 2t29 1q13 0 22-3t9-12q0-7-7-11t-24-9q-23-6-51-29t-52-53L454 381q-14-15-14-26 0-8 8-22l163-232q19-27 40-45t44-24q35-10 35-24 0-6-7-9t-20-4q-28 0-49 1t-35 2q-42 3-83 3l-68-1q-20-1-57-1-11 0-19 3t-9 10q0 7 9 12t21 9q53 13 53 42 0 13-10 27L349 254q-13 18-20 18-9 0-17-14L205 111q-17-25-15-43 1-14 13-23t33-14q31-7 31-21 0-6-8-9t-21-4q-18 0-52 2l-46 1q-15 0-33-1T80-3Q52-6 25-6-5-6-5 8z"/><glyph unicode="Y" glyph-name="Y" horiz-adv-x="629" d="M176-6l-7 4-8 11q0 15 31 20 37 7 54 27t17 53v142q0 41-29 92L109 540q-19 29-38 50t-44 29q-14 4-20 8t-7 13q0 7 6 10t18 4q23 0 69-2 38-3 78-3 29 0 56 3 36 2 54 2 11 0 19-4t9-10q0-13-30-21-25-6-35-12t-11-21q0-15 12-35l100-175q13-25 21-25 4 0 10 7t13 18q39 65 87 160 13 26 13 44 0 33-49 39-11 1-21 7t-11 14q0 6 8 9t21 4q19 0 49-2 28-2 44-2 13 0 29 1t25 2q26 3 49 3 29 0 29-14 0-7-10-12t-28-10q-27-8-47-26t-40-50l-25-40-93-150q-15-26-21-46t-6-49V110q0-36 16-54t56-27q16-3 23-7t8-13q0-7-7-10t-20-4q-26 0-74 4-12 1-28 2t-37 1q-22 0-66-4-48-4-74-4-13 0-20 4z"/><glyph unicode="Z" glyph-name="Z" horiz-adv-x="599" d="M425-3Q317-1 249-1q-48 0-136-2L36-4Q29-4 26 6t-2 14q9 18 58 94l98 148q125 187 209 321 6 8 6 13 0 9-17 10l-101 1q-57 0-81-1-36-2-67-23t-51-58q-8-15-16-24t-21-10q-6 0-9 4t-4 11q0 8 7 27 23 52 29 126 1 13 5 18t14 6q6 0 23-11 18-10 22-12 30-12 86-12h121q78 0 162 3l66 1q6 0 11-9t4-13l-66-99q-84-122-189-291-24-37-48-76t-52-81q-8-12-8-22 0-12 19-14 31-3 88-3 87 0 134 12 32 8 55 32t40 69q7 16 20 16 6 0 9-3t4-11q0-17-12-64t-23-81q-7-18-24-18L425-3z"/><glyph unicode="[" glyph-name="bracketleft" horiz-adv-x="348" d="M130-201l-7 2-10 10-3 30v814q0 23 3 32t10 12 27 2l162-1q10 0 16-3t6-12q0-14-32-19l-80-9q-8-1-14-8t-6-16l-1-756q0-10 5-18t15-9l77-12q33-6 33-20 0-18-22-18l-162-1q-17 0-24 2z"/><glyph unicode="\" glyph-name="backslash" horiz-adv-x="403" d="M351-62l-10 3-16 15L19 646q-1 2-1 6 0 6 5 10t14 4q17 0 27-4t16-16L386-44q1-1 1-4 0-6-5-10t-15-4q-16 0-26 3z"/><glyph unicode="]" glyph-name="bracketright" horiz-adv-x="348" d="M218-201l7 2 10 10 3 30v814q0 23-3 32t-10 12-27 2l-162-1q-10 0-16-3t-6-12q0-14 32-19l80-9q8-1 14-8t6-16l1-756q0-10-5-18t-15-9l-77-12q-33-6-33-20 0-18 22-18l162-1q17 0 24 2z"/><glyph unicode="^" glyph-name="asciicircum" horiz-adv-x="509" d="M48 261l-5 3-5 11q0 5 3 9l210 322h6l212-322 2-8q0-6-4-10t-13-5q-13 0-25 8t-21 20L258 506q-4 5-5 5t-5-5L101 290q-8-13-20-21t-26-8q-7 0-12 3z"/><glyph unicode="_" glyph-name="underscore" horiz-adv-x="561" d="M549-129l5-4 6-10q0-13-10-27t-23-15H16q-6 0-11 4t-5 9q0 12 7 27t20 16h514q8 0 13-4z"/><glyph unicode="`" glyph-name="grave" horiz-adv-x="225" d="M176 454l-18 18q-53 53-121 137-10 13-10 23 0 11 16 17t40 6q14 0 23-5t16-18q13-23 36-71t34-75q4-12 4-21 0-11-10-11t-28 18z"/><glyph unicode="a" glyph-name="a" horiz-adv-x="425" d="M89-14L61 14 32 76q0 33 19 54t61 40l93 40q20 8 24 14t5 27l2 59q1 28-12 45t-37 17q-13 0-27-5t-22-13q-7-6-7-23l1-25q0-10-30-24t-51-15q-7 0-11 5t-4 12q0 31 44 68 36 31 83 52t80 22q48 0 77-31t28-83l-5-214q-1-22 8-37t24-15q22 0 34 12 4 4 7 4 5 0 8-3t4-9q0-11-16-27-17-18-38-27t-41-10q-27 0-47 13t-39 42h-3q-33-29-60-42t-59-13q-36 0-64 28zm117 60l15 18q9 7 10 31l2 64v4q0 13-9 13-6 0-15-4-38-16-53-32t-16-44q0-26 12-38t29-12q25 0 40 18z"/><glyph unicode="b" glyph-name="b" horiz-adv-x="533" d="M225-14L176 1q-9 2-27 7t-26 5q-15 0-30-13-7-6-13-6-7 0-12 3t-5 9q0 8 5 35t4 56l-2 458q0 61-42 72-12 4-12 16 0 11 11 13 31 6 117 38l19 7q8 4 12 4t6-3 3-7q0-6-2-29t-2-48V407q0-30 9-30 31 23 67 36t67 13q51 0 93-26t66-73 24-104q0-70-30-123t-83-84-123-30q-45 0-94 15zm109 39l26 49 27 124q0 42-12 82t-38 68-63 27q-26 0-51-8t-43-23V138q0-49 32-81t77-32q45 0 71 49z"/><glyph unicode="c" glyph-name="c" horiz-adv-x="410" d="M160-14l-42 27-66 75-25 106q0 63 29 116t80 85 111 31q37 0 70-12t58-36q10-9 10-18 0-11-17-28t-29-17q-7 0-13 4t-16 12q-26 21-52 34t-46 14q-42 0-64-36t-23-108q0-73 37-117t100-44q29 0 50 9t47 31q1 1 5 4t10 4q11 0 11-15 0-12-10-29-21-35-65-63t-98-29q-52 0-94 27z"/><glyph unicode="d" glyph-name="d" horiz-adv-x="537" d="M355-19l-5 5-6 9q4 25 6 56v6q-20-30-55-50t-77-21q-55 0-98 28T52 90 27 193q0 65 29 117t83 83 123 31q34 0 65-9l13-3q5 0 5 17v126q0 36-9 51t-33 21q-11 3-11 15 0 11 10 14 73 17 130 42 15 7 20 7 10 0 10-10 0-1-2-23t-4-68l-3-487q0-35 5-49t17-15q15 0 41 3h5q5 0 7-2t3-8q0-8-5-15t-11-8q-74-10-140-36-12-6-17-6-3 0-8 5zm-71 68l23 9 38 27v208q0 20-14 41t-38 34-48 14q-25 0-48-18t-38-55-15-90q0-57 18-95t47-57 55-18q20 0 43 9z"/><glyph unicode="e" glyph-name="e" horiz-adv-x="408" d="M158-14l-42 28-67 77-24 113q0 60 28 111t77 81 105 30q63 0 105-38t42-96q0-18-7-27t-24-9H148q-14 0-20-8t-6-27q0-42 18-76t49-54 71-20q52 0 100 43 8 8 13 8 4 0 7-3t3-9q0-13-12-34-18-38-61-64t-98-26q-54 0-96 28zm61 309q44 0 64 5 9 2 9 26 0 27-20 45t-51 19q-21 0-41-12t-32-32-13-39q0-12 14-12h70z"/><glyph unicode="f" glyph-name="f" horiz-adv-x="346" d="M34-3l-6 3-6 10q0 8 5 11t15 7q27 8 35 15t8 27v283q-31 0-52 2-5 1-9 10t-5 16q0 6 8 8l58 26q3 103 41 168t93 94 110 29q63 0 93-18t30-54q0-22-10-34t-27-13q-8 0-16 6t-20 21q-21 22-42 35t-50 13q-44 0-67-38t-24-114v-85q0-12 14-12h117q7 0 11-4t4-11q0-19-8-33-1-4-3-6t-5-2H226q-17 0-23-4t-7-16V81q0-25 12-35t53-17q11-2 16-6t5-12q0-6-5-10t-13-4q-32 0-65 3-40 2-57 2-15 0-47-2-24-3-53-3-8 0-14 3z"/><glyph unicode="g" glyph-name="g" horiz-adv-x="478" d="M476 402l4-5 4-15q0-6-3-14t-9-16q-5-6-10-6h-27q-28 0-34-8-3-6-4-15t-1-32q0-51-25-95t-67-70-91-27q-32 0-64 12-12-7-19-16t-7-15q0-18 31-28t107-15q103-8 150-32t48-71q0-53-37-105t-95-85-118-33q-94 0-147 30T9-173q0 29 8 47t30 34q19 16 45 34l22 17Q74-28 56-7T37 45q0 20 26 38 42 29 54 44-37 23-59 58t-22 76q0 48 27 86t71 59 94 22q27 0 73-12 22-6 38-8 36-9 75-9 13 0 35 2l20 1q7 0 11-5zM255 140l21 36 21 95q0 51-23 85t-57 34q-31 0-53-34t-23-84q0-55 23-93t58-39q33 0 54 36zM358-93l-29 13-108 20q-27 2-61 8-34-20-49-43t-16-53q0-40 34-67t88-27q66 0 96 27 21 18 33 43t12 51q0 28-29 41z"/><glyph unicode="h" glyph-name="h" horiz-adv-x="545" d="M28-3l-5 3-6 10q0 7 5 11t18 8q22 8 31 14t9 25v487q0 31-8 49t-33 23q-10 2-10 15 0 11 9 14 43 10 140 46 6 3 10 3 10 0 10-10 0-6-3-28t-4-63V391q0-24 6-31 36 29 70 47t78 19q53 0 87-38t35-102V71q0-19 9-27t28-15q12-4 17-8t5-11q0-13-21-13-30 0-51 3-24 2-43 2-21 0-43-2-18-3-48-3-22 0-22 14 0 7 5 10t16 8q17 6 26 15t10 28v199q0 34-22 58t-51 24q-18 0-38-5t-35-17q-11-8-14-17t-4-31V69q1-18 9-25t26-14q21-7 21-19 0-14-18-14-28 0-51 3-28 2-44 2-17 0-45-2-22-3-52-3-9 0-14 3z"/><glyph unicode="i" glyph-name="i" horiz-adv-x="279" d="M32-3l-5 3-5 10q0 13 20 18 25 6 35 13t10 24v217q0 32-10 48t-34 20q-5 1-8 5t-3 11q0 13 11 15 66 15 138 55 14 7 18 7 11 0 11-10l-3-34q-8-64-8-108V66q0-15 9-22t36-16q11-4 16-7t5-11q0-12-18-12-19 0-55 2-32 2-50 2-16 0-48-2-25-3-54-3-8 0-13 3zm79 504l-20 20-20 48q0 30 20 50t49 21q30 0 50-20t20-51q0-29-20-48t-50-20q-29 0-49 20z"/><glyph unicode="j" glyph-name="j" horiz-adv-x="253" d="M-12-287l-9 3-10 11q0 11 16 20 19 7 33 19t27 39q18 38 25 110t7 142v225q0 31-10 47t-34 21q-5 1-8 5t-3 11q0 5 3 9t7 6q55 12 94 32t44 23q16 7 18 7 10 0 10-10l-3-32q-7-86-7-119l1-191q0-67-7-128t-29-115q-21-52-66-93T3-287q-15 0-24 3zM98 501l-20 20-20 48q0 30 20 50t49 21q30 0 50-20t20-51q0-29-20-48t-50-20q-29 0-49 20z"/><glyph unicode="k" glyph-name="k" horiz-adv-x="521" d="M17-3v13q0 7 5 10t18 9q22 8 31 14t9 25v487q0 33-9 50t-33 22q-5 1-7 5t-3 10q0 12 9 14 48 10 140 46 7 3 11 3 9 0 9-11 0-8-3-33t-4-57l1-359q0-11 7-11 8 0 23 12 34 30 63 61t42 48q9 12 9 17t-8 9-22 7q-12 3-12 12 0 6 6 9t16 4h49q38 0 102 8 7 1 13 1t12 1q5 0 8-3t4-8q0-14-24-20-36-9-80-35-20-11-53-37t-61-52q-5-5-5-10t5-10q93-120 139-168 15-16 38-30t40-21q4-1 12-4t12-6 5-9q0-13-21-13-38 0-110 2L297 0q-19 0-19 12t20 19q10 4 14 8t6 10q0 5-10 20L203 203q-3 5-7 5-5-2-5-8-1-19-1-62 0-48 1-70 0-17 7-25t24-13q22-8 22-19 0-7-6-10t-14-4q-27 0-48 3-26 2-43 2-16 0-44-2-22-3-51-3-21 0-21 13z"/><glyph unicode="l" glyph-name="l" horiz-adv-x="270" d="M29-3l-6 3-6 9q0 7 6 11t17 9l15 5q12 4 19 12t6 21v488q0 30-9 48t-33 24q-5 1-7 5t-3 10q0 12 9 14 41 9 120 38l21 8q6 3 10 3 9 0 9-10 0-7-3-31t-3-60V68q0-17 8-23t18-10 13-5q23-7 23-20 0-6-5-9t-15-3q-21 0-53 2-30 2-47 2T88 0Q66-3 37-3q-8 0-14 3z"/><glyph unicode="m" glyph-name="m" horiz-adv-x="797" d="M34-3l-6 3-6 10q0 11 23 19 21 6 30 13t10 25v224q0 26-7 42t-27 19q-10 2-10 17 0 12 9 15 72 17 134 52 8 6 12 6t6-3 2-7l-2-22q-1-7-2-17t-1-22q0-10 2-12h2q32 31 68 49t83 18q32 0 58-19t39-55h4q69 74 155 74 48 0 78-40t30-102V66q0-18 9-24t30-13q22-7 22-19 0-6-5-9t-14-4q-29 0-52 3-28 2-45 2t-43-2q-21-3-49-3-8 0-13 3t-5 10q0 8 5 11t16 8q16 4 24 11t8 23v206q0 37-18 61t-45 25q-38 0-68-24-19-16-19-52V66q0-18 8-24t28-13q21-8 21-19 0-6-5-9t-13-4q-27 0-50 3-26 2-43 2t-43-2q-22-3-50-3-7 0-12 3t-6 10q0 7 5 11t16 8q17 4 25 11t8 23v206q0 37-18 61t-45 25q-37 0-69-24-17-12-17-50V66q0-17 7-24t25-13q21-8 21-19 0-6-5-9t-13-4q-28 0-49 3-26 2-43 2T94 0Q72-3 42-3q-8 0-14 3z"/><glyph unicode="n" glyph-name="n" horiz-adv-x="553" d="M34-3l-6 3-6 10q0 8 5 11t18 8q21 6 30 13t10 25v224q0 26-7 41t-27 20q-10 4-10 17 0 12 9 15 73 17 130 50 2 1 7 4t9 4q8 0 8-11l-2-21q-3-36-3-38 0-12 2-14 36 34 72 51t81 17q52 0 86-39t34-103V66q0-18 9-24t30-13q10-4 16-8t6-12q0-6-6-9t-13-3q-29 0-52 3-28 2-45 2-16 0-46-2-22-3-52-3-6 0-11 3t-6 9q0 13 20 20 20 6 29 12t9 25v203q0 40-19 63t-53 23q-47 0-86-31-8-5-8-20V66q0-18 9-24t29-13q21-6 21-19 0-6-5-9t-13-4q-28 0-51 3-28 2-44 2-15 0-47-2-24-3-53-3-8 0-14 3z"/><glyph unicode="o" glyph-name="o" horiz-adv-x="501" d="M178-14l-48 26-75 74-28 107q0 61 30 115t84 86 116 33q59 0 108-28t79-76 29-103q0-64-27-117t-80-85-130-32q-58 0-106 26zm131 39l23 41q21 38 21 130 0 52-14 95t-39 70-59 26q-40 0-63-27-18-20-24-55t-7-88q0-49 14-93t40-71 55-28q53 0 76 41z"/><glyph unicode="p" glyph-name="p" horiz-adv-x="540" d="M30-270l-6 3-7 10q0 12 23 19 21 7 30 14t10 24v489q0 19-12 39t-32 23q-10 3-10 17 0 11 9 15 77 18 135 45l6 3 6 3q8 0 8-11l-2-25q-3-18-3-34 0-9 2-11 11 12 37 28t60 29 62 12q51 0 89-27t58-72 21-95q0-61-31-117t-84-92-115-36q-19 0-46 7T194 8q-2 0-3-11t-1-18v-173q0-19 13-27t42-17q22-7 22-19 0-6-5-9t-13-4q-32 0-60 3-36 2-52 2-15 0-47-2-24-3-53-3-7 0-13 3zM306 25l25 17 43 55 19 97q0 97-35 132t-76 35q-19 0-40-8t-35-20-15-20l-2-161q0-29 13-59t35-49 49-19q19 0 44 17z"/><glyph unicode="q" glyph-name="q" horiz-adv-x="531" d="M296-286l-5 3-6 9q0 12 23 19 25 8 36 17t12 28V14q0 26-6 26-7-3-9-4-24-18-58-34t-63-16q-53 0-97 25T53 83 27 188q0 66 29 120t85 87 133 32q30 0 54-4t56-14q26-6 29-6 17 0 32 18 8 6 12 6 8 0 13-3t5-9q0-8-5-39t-6-71l1-521q0-16 10-24t33-14q23-7 23-20 0-6-6-9t-14-3q-30 0-54 3-32 2-48 2-17 0-49-2-27-3-57-3-7 0-12 3zm-2 334l25 9 38 24q0 162-1 197-1 47-30 78t-72 32q-29 0-53-22t-39-62-14-89q0-50 17-88t44-58 60-21q25 0 50 9z"/><glyph unicode="r" glyph-name="r" horiz-adv-x="388" d="M35-3l-5 3-6 10q0 8 5 12t18 7q21 6 29 14t9 24v225q0 25-7 39t-27 20q-12 4-12 17 0 12 11 15 29 7 64 21t60 27q16 9 20 9 8 0 8-10l-3-78q0-2 1-4t2-2q26 34 59 57t65 24q28 0 43-11t15-31q0-21-16-45t-36-24q-11 0-35 12-26 12-36 12-29 0-47-20t-18-71V73q0-17 12-26t41-19q12-3 17-7t5-11q0-13-18-13-31 0-58 3-34 2-51 2-15 0-47-2-24-3-53-3-9 0-14 3z"/><glyph unicode="s" glyph-name="s" horiz-adv-x="348" d="M89-14L43 20q-7 13-11 43t-3 60q0 6 5 9t12 3q6 0 11-4t8-9q17-46 43-71t59-26q27 0 43 16t17 42q0 25-18 43t-55 39q-53 29-80 60t-28 77q0 55 42 90t110 35q30 0 55-6t38-15q8-10 13-36t5-56q0-4-4-6t-11-3q-7 0-14 3t-9 9q-28 75-79 75-24 0-42-15t-18-40q0-20 16-37t52-36q66-36 92-66t27-80q0-61-42-96T158-14Q89-14 43 20z"/><glyph unicode="t" glyph-name="t" horiz-adv-x="355" d="M149-14l-31 32-31 93v231q0 9-7 12t-25 5H44q-6 0-10 9t-4 19q0 7 6 10 30 14 65 42t62 53q2 2 8 7t14 6q17 0 15-17l-6-55v-4q0-9 6-12t19-4h117q3 0 6-7t3-14q0-13-4-24t-8-11h-95q-24 0-32-5t-8-21V139q0-44 17-66t48-23q26 0 40 4t29 13q2 2 6 2t6-5 3-14q0-6-21-22T274-1t-65-13q-60 0-91 32z"/><glyph unicode="u" glyph-name="u" horiz-adv-x="543" d="M345-20v9l2 31q3 18 3 32l-1 9q-31-35-73-55t-87-21q-49 0-80 37t-32 97v192q0 24-9 37t-32 20q-15 2-15 17 0 16 15 18 36 2 64 6t67 14q10 4 16 4 13 0 12-14-7-43-7-77V143q0-36 20-60t49-25q44 0 68 22 10 8 19 25t9 41v168q0 26-17 39t-41 15q-23 2-23 21 0 9 6 13t17 5q64 3 94 6t59 12l12 2q15 0 15-11 0-2-4-14-2-11-4-34t-3-35V101q0-42 18-42l34 1q18 0 18-17 0-9-3-13t-13-6q-64-6-141-38-16-6-24-6t-8 9z"/><glyph unicode="v" glyph-name="v" horiz-adv-x="468" d="M227-21l-5 10-9 19-5 13q-8 17-31 78-13 31-31 71t-26 59q-21 44-46 103-21 47-51 56-10 4-14 8t-4 12q0 10 23 10 29 0 47-3 24-2 43-2t47 2q23 3 53 3 8 0 15-2t7-10q0-7-5-10t-17-8q-22-9-22-42 0-21 4-30l70-180q2-1 3 0l65 170q7 15 7 35 0 36-30 46-13 5-18 8t-5 11q0 12 23 12 14 0 32-2 26-2 38-2 11 0 33 2 18 2 33 2 22 0 22-11 0-8-4-12t-16-8q-18-6-34-23t-26-41l-78-193-8-19-26-63q-5-13-14-33t-18-36h-17q-5 0-10 10z"/><glyph unicode="w" glyph-name="w" horiz-adv-x="730" d="M223-28l-3 9L77 332q-17 44-52 55-11 4-15 8t-5 13q0 10 23 10 26 0 46-3 26-2 43-2 18 0 46 2 23 3 50 3 8 0 15-2t7-10q0-7-5-10t-17-8q-21-7-21-40 0-17 6-32l65-171q0-2 3-2t3 2l67 159q7 19 7 35 0 14-12 27t-31 21q-20 7-20 20 0 11 24 11 21 0 44-3 28-2 40-2 26 0 49 3 30 2 45 2 8 0 15-2t7-10q0-6-4-9t-10-6-8-4q-28-9-28-33 0-16 8-38l65-168q2-6 4-6 4 0 5 5l62 155q9 21 7 40 0 16-9 27t-22 17q-11 4-16 8t-6 11q0 6 7 9t15 3q18 0 38-2 22-2 33-2 13 0 35 2 3 0 27 2 23 0 23-11 0-13-20-20-17-6-31-23t-25-41L514-19q-4-8-14-8-9 0-12 8L369 259q-2 4-4 4-1 0-4-5L247-19q-5-9-14-9-10 0-13 9z"/><glyph unicode="x" glyph-name="x" horiz-adv-x="480" d="M7-4V7q0 8 5 12t16 8q13 4 26 15t32 37l87 120q7 8 7 13 0 4-5 12L97 339q-14 23-23 33t-25 15q-20 7-20 20 0 11 24 11 21 0 45-2 18-3 47-3 17 0 41 2 26 2 44 2 24 0 24-12 0-6-4-9t-10-5-8-3q-12-4-18-8t-7-14q0-12 13-30l46-68q2-4 4-4t5 4l37 61q12 20 11 37 0 15-16 20-11 4-16 7t-5 11q0 12 23 12l37-1q9-1 23-1 13 0 33 2 18 2 31 2 22 0 22-10 0-8-4-12t-16-9q-31-10-60-48l-69-95q-5-8-5-11 0-4 5-12l88-140q26-41 60-52 11-5 16-9t5-12q0-10-23-10-22 0-52 2-22 3-53 3-16 0-48-2t-52-2q-23 0-23 12 0 8 5 11t18 8q14 4 21 11t8 23q0 14-10 30l-54 81q-1 1-3 1t-3-1l-53-88q-11-16-11-32 0-21 17-27l8-4q6-3 10-6t4-9q0-7-7-9t-16-3l-23 1q-14 1-36 1L62-2Q44-4 30-4 7-4 7 7z"/><glyph unicode="y" glyph-name="y" horiz-adv-x="467" d="M53-284l-20 16-21 40q0 21 10 37t28 16q13 0 28-5 18-4 26-4 13 0 19 4t13 18q32 55 61 125 9 19 9 40 0 17-10 43L75 331q-10 23-21 36t-27 19q-11 4-15 8t-5 12q0 11 22 11 26 0 54-2 22-2 35-2 18 0 46 2t52 2q9 0 16-3t7-10q0-7-7-11t-19-9q-11-4-16-12t-6-24q0-12 10-40l69-167q1-4 4-4 2 0 3 4l57 163q8 20 8 38 0 31-27 41-13 6-19 10t-6 11q0 7 7 10t15 3q15 0 39-2 20-2 33-2 12 0 32 2 18 2 33 2 23 0 23-11 0-8-4-12t-16-8q-17-5-33-22t-26-41L249-25l-87-206q-11-26-33-39t-51-14q-25 0-45 16z"/><glyph unicode="z" glyph-name="z" horiz-adv-x="417" d="M38-5l-8 9-8 15q0 6 11 22t15 22l14 20 25 38q99 151 153 239 2 4 2 6 0 5-12 5l-70 1q-25 1-44-18-10-12-40-54l-17-24q-4-4-11-4t-12 4-5 10q22 88 22 121 0 9 6 16t14 7q8 0 18-10 8-6 46-6l41 1q104 0 202 3 9 0 14-11t0-18q-20-24-40-54L178 59q-3-4-3-7 0-8 15-8h81q27 0 49 23 13 13 26 33t28 46q4 7 14 7 6 0 11-3t6-10q0-10-11-53t-21-77q-2-7-6-11t-12-4l-48 2q-19 0-71 2T128 1q-19 0-53-4L42-5q-4 0-12 9z"/><glyph unicode="{" glyph-name="braceleft" horiz-adv-x="374" d="M248-149l-57 30-57 92q0 31 10 93 1 9 5 38t4 53q0 41-19 65t-61 39q-13 4-19 8t-7 12q0 13 27 23 39 14 58 35t19 66q0 35-9 84-1 7-5 33t-4 53q0 43 28 74t75 48 99 17q12 0 18-3t6-13q0-8-8-11t-25-8q-49-11-65-31t-17-66q0-25 10-81 1-8 5-34t4-47q0-48-42-85t-94-52q-3-1-2-2t4-2q57-19 96-56t40-85q0-26-10-82-10-58-10-81 0-50 17-69t65-26q15-2 22-5t8-12q0-15-22-15-87 3-144 33z"/><glyph unicode="|" glyph-name="bar" horiz-adv-x="270" d="M101-289l-6 7-6 15v925q0 15 14 26t32 16 25 6q8 0 14-6t7-14v-938q0-21-26-29t-47-8q-7 0-13 7z"/><glyph unicode="}" glyph-name="braceright" horiz-adv-x="374" d="M126-149l57 30 57 92q0 31-10 93-1 9-5 38t-4 53q0 41 19 65t61 39q13 4 19 8t7 12q0 13-27 23-39 14-58 35t-19 66q0 35 9 84 1 7 5 33t4 53q0 43-28 74t-75 48-99 17q-12 0-18-3t-6-13q0-8 8-11t25-8q49-11 65-31t17-66q0-25-10-81-1-8-5-34t-4-47q0-48 42-85t94-52q3-1 2-2t-4-2q-57-19-96-56t-40-85q0-26 10-82 10-58 10-81 0-50-17-69t-65-26q-15-2-22-5t-8-12q0-15 22-15 87 3 144 33z"/><glyph unicode="~" glyph-name="asciitilde" horiz-adv-x="530" d="M334 253l-20 7-51 23q-32 17-53 25t-44 8q-25 0-47-14t-38-28-18-15q-6 0-13 9t-8 15q0 18 19 46t50 49 63 21q22 0 43-8t50-23q35-18 54-25t42-8q24 0 46 14t39 30 19 16q8 0 15-8t7-19q0-20-21-47t-52-48-60-20q-22 0-42 7z"/><glyph glyph-name="uni00A0" horiz-adv-x="225"/><glyph unicode="¡" glyph-name="exclamdown" horiz-adv-x="277" d="M125 293l-5-10-10-37Q75-6 75-95q0-29 19-51t46-23q28 0 45 22t18 53q0 40-7 98t-22 162l-12 80q-7 47-26 47-11 0-16-10zm-17 201l-20-20-20-48q0-28 20-48t48-21q28 0 48 20t20 49q0 28-20 48t-48 20q-28 0-48-20z"/><glyph unicode="¢" glyph-name="cent" horiz-adv-x="430" d="M196-64l-6 5-5 13 7 75q-44 8-82 36t-60 74-23 99q0 57 27 107t75 82 108 39l6 61q1 9 8 14t17 6q7 0 12-6t4-14l-6-61q34-2 65-15t54-38q7-7 7-16 0-17-16-31t-34-14q-19 0-30 14-24 37-51 48l-30-288q7-1 22-1 38 0 69 11t46 36q5 8 13 8 6 0 9-4t4-10q0-7-4-17-25-56-65-87T233 26l-6-72q-2-8-8-13t-15-5q-8 0-14 5zm37 486h-2q-51 0-79-41t-28-101q0-53 21-90t58-53l30 285z"/><glyph unicode="£" glyph-name="sterling" horiz-adv-x="542" d="M503 195l12-18 13-45q0-40-26-79t-71-65-93-25q-40 0-70 15t-76 49q-18 13-41 25t-31 12q-5 0-22-20T69 5Q59-10 46-18t-25-7Q8-25 0-14t-8 30q0 34 30 62t74 36q6 1 9 5t7 9q9 23 14 65t11 108l-86-6h-2q-6 0-11 4t-5 11q0 8 9 16t20 10l78 5 1 17q5 69 31 130t79 101 136 40q54 0 83-26t30-64q0-27-20-48t-44-21q-8 0-12 5t-5 12q0 6 1 14t1 18q0 31-13 52t-36 22q-43 0-65-56t-38-187l134 9q6 0 10-5t5-10q0-7-12-16t-25-10l-117-8q-12-63-34-111t-52-67q-2-1-2-5 0-6 5-6 41 0 75-10t72-28q8-4 31-14t40-15 31-5q44 0 44 38 0 16-10 50-7 25-7 34 0 10 6 17t18 7q22 0 34-18z"/><glyph unicode="¤" glyph-name="currency" horiz-adv-x="508" d="M56 49L44 60 32 83q0 6 3 9l57 57q-38 52-38 118t39 121l-58 57q-3 3-3 8 0 11 12 23t23 12q6 0 9-3l56-57q57 44 125 44 69 0 121-41l55 54q4 4 8 4 11 0 23-12t12-23q0-5-3-10l-54-53q20-26 30-58t11-66q0-66-40-122l53-53q3-3 3-8 0-11-12-23t-23-12q-5 0-8 3l-53 52q-54-41-123-41t-126 44L75 52q-3-3-8-3-11 0-23 11zm241 71l34 20 53 53 20 74q0 40-19 74t-54 55-74 20q-40 0-73-20t-54-54-20-75q0-40 20-73t53-54 74-20q40 0 74 20z"/><glyph unicode="¥" glyph-name="yen" horiz-adv-x="626" d="M176-6l-7 4-8 11q0 15 31 20 37 7 54 27t17 53v79H146q-6 0-11 5t-6 11q1 9 10 19t20 10l104-1v19q0 11-2 25H146q-6 0-11 5t-6 10q1 9 10 19t20 11h91L109 540q-20 31-39 51t-43 28q-14 4-20 8t-7 13q0 7 6 10t18 4q23 0 69-2 38-3 78-3 29 0 56 3 36 2 54 2 11 0 19-4t9-10q0-12-30-21-22-5-33-13t-11-23q0-16 10-32l92-172q13-25 22-25 8 0 22 25 7 14 28 49 41 69 61 109 9 17 9 36t-12 31-32 15q-12 2-22 7t-10 14q0 6 8 9t21 4q18 0 48-2t46-2q14 0 31 1t26 2q24 3 46 3 30 0 30-14 0-8-7-12t-22-8q-26-6-51-29t-42-49q-51-80-118-193-11-16-16-30l107-1q7 0 11-4t4-10q0-8-13-18t-26-11h-93v-44l117-1q6 0 10-4t5-10q-1-8-13-18t-26-11h-93v-78q0-36 16-54t55-27q16-3 23-7t8-13q0-7-7-10t-20-4q-26 0-74 4-12 1-28 2t-37 1q-22 0-66-4-48-4-74-4-13 0-20 4z"/><glyph unicode="¦" glyph-name="brokenbar" horiz-adv-x="272" d="M101 262l-6 8-6 18v370q0 15 14 25t32 16 25 6q8 0 14-6t7-14V298q0-17-27-26t-46-10q-7 0-13 8zm1-552l-6 7-6 15v406q0 13 14 23t32 15 25 6q8 0 15-7t7-17v-411q0-21-26-29t-48-8q-7 0-13 7z"/><glyph unicode="§" glyph-name="section" horiz-adv-x="429" d="M105-148l-21 10-22 27q0 12 7 30t26 31q2 2 7 2 11 0 20-9 14-13 37-20t45-8q25 0 38 19t14 54q0 29-26 60t-77 79l-23 22q-52 48-77 92t-26 88q0 61 19 99t57 78q15 55 58 94t96 40q24 0 50-7t37-17q7-6 10-10t4-12q0-4-7-18t-17-27-21-13q-8 0-16 7-17 17-38 29t-35 12q-30 0-44-17t-15-43q0-47 116-146 56-48 81-99t26-124q0-95-50-172T201-135q-27-13-64-13-32 0-53 10zM314 55h3l5 4q9 35 9 67 0 44-24 85t-70 85q-99 99-118 146-1 4-4 4t-6-4q-13-26-13-67 0-79 91-167 49-49 82-86t44-63q1-4 4-4z"/><glyph unicode="¨" glyph-name="dieresis" horiz-adv-x="337" d="M47 499l-19 19-19 45q0 27 19 46t45 19q27 0 46-19t20-46q0-25-19-44t-47-20q-26 0-45 19zm189 0l-19 19-20 45q0 27 19 46t45 19q27 0 47-19t20-46q0-25-20-44t-47-20q-25 0-44 19z"/><glyph unicode="©" glyph-name="copyright" horiz-adv-x="675" d="M259 19l-70 41L77 172 36 327q0 84 41 154t112 112 155 42q84 0 154-41t112-112 42-155q0-84-41-154T498 61 343 19q-84 0-154 41zm155 45l59 35 93 96 35 132q0 70-34 129t-94 95-129 36q-70 0-129-35t-94-95-35-130q0-71 34-131t94-96 129-36q71 0 130 35zm-110 79l-43 24-68 66-25 91q0 50 26 91t73 65 108 24q23 0 48-5t45-14q7-2 10-5t5-10q3-21 3-42t0-27q0-7-5-12t-11-4q-11 0-16 15-8 24-23 38-26 22-63 22-48 0-75-37t-28-92q0-65 26-105t80-40q33 0 54 12t35 43q4 8 9 12t11 2q10-2 10-17 0-13-4-28t-9-31q-3-7-7-9t-9-5q-46-22-104-22-53 0-96 24z"/><glyph unicode="ª" glyph-name="ordfeminine" horiz-adv-x="337" d="M83 278l-21 19-21 43q0 21 12 35t40 26l65 25q14 5 17 9t3 17v26q0 36-29 36-11 0-20-3t-14-9q-3-3-3-11l1-16q0-7-21-15t-41-12h-2q-5 0-6 4t1 12q6 16 11 24t19 20q19 16 52 30t59 14q36 0 60-22t23-58l-4-113q0-14 5-25t15-12q7 0 12 3t7 5q3 3 5 3 4 0 7-4t3-8q0-6-14-20-21-23-52-23-24 0-37 9t-26 26h-2q-17-16-34-25t-43-10q-27 0-48 19zm73 47l15 10q4 4 4 14l2 44q0 14-13 9-24-9-33-19t-9-28q0-16 7-23t18-7q9 0 24 10zm132-123l5-4 6-10-1-4q-14-24-36-24H47q-6 0-11 4t-5 10q0 8 8 18t19 10h225q5 0 10-4z"/><glyph unicode="«" glyph-name="guillemotleft" horiz-adv-x="587" d="M304 17l-19 19q-57 53-101 83T76 180q-12 6-18 16t-6 19q0 10 8 13 88 53 130 83t97 82q2 1 12 10t21 10q3 0 5-3t2-7q0-5-6-17-42-63-72-94t-73-69q-7-7-7-8t7-8q42-36 72-68t73-97q5-7 5-13 0-5-2-8t-6-4q-14 0-33 19zm211 0l-19 19q-57 53-101 83t-108 61q-12 6-18 16t-6 19q0 10 8 13 88 53 130 83t97 82q2 1 12 10t21 10q3 0 5-3t2-7q0-5-6-17-42-63-72-94t-73-69q-7-7-7-8t7-8q42-36 72-68t73-97q5-7 5-13 0-5-2-8t-6-4q-14 0-33 19z"/><glyph unicode="¬" glyph-name="logicalnot" horiz-adv-x="614" d="M494 42l-4 5-4 13v241q0 17-15 17H56q-6 0-11 4t-6 10q0 16 7 35t23 19h469q7 0 11-5t4-13V72q0-15-19-22t-35-8q-5 0-9 5z"/><glyph unicode="­" glyph-name="uni00AD" horiz-adv-x="302" d="M30 166l-1 2-2 7q0 26 5 42t15 17q107 17 215 28 13 0 13-12 0-28-4-41t-16-15q-132-19-219-28-6 0-7 2z"/><glyph unicode="®" glyph-name="registered" horiz-adv-x="679" d="M261 19l-70 41L79 172 38 327q0 84 41 154t112 112 154 42q84 0 154-41t112-112 42-155q0-84-41-154T499 61 344 19q-83 0-153 41zm154 45l59 35 94 96 35 132q0 70-34 129t-94 94-130 35q-70 0-129-35t-93-94-35-129q0-70 34-130t93-97 129-36q71 0 130 35zm28 107l-39 42-60 93q-6 13-25 13-4 0-7-3t-3-7v-80q0-14 9-20t29-12q15-4 15-15 0-4-4-8t-9-4q-14 0-40 2t-37 2q-12 0-34-2-24-2-37-2-4 0-8 4t-5 8q0 11 15 15 17 5 23 11t7 21v205q0 21-4 27t-23 11q-15 3-15 13 0 4 4 7t11 2q13 0 35-2 18-2 29-2 12 0 36 2 28 2 50 2 52 0 83-20t32-59q0-53-62-80-3-1-3-3t1-4 2-4q13-33 34-60t42-41 36-15q12 0 12-7 0-14-16-22t-42-8q-32 0-71 42zm-83 180l18 16 18 40q0 26-15 40t-42 14q-18 0-25-6t-7-17v-69q0-18 23-18 30 0 48 16z"/><glyph unicode="¯" glyph-name="overscore" horiz-adv-x="337" d="M34 506l-5 5-6 11q0 21 9 38t24 18h240q7 0 12-5t5-11q0-22-11-39t-27-17H41q-7 0-12 5z"/><glyph unicode="°" glyph-name="degree" horiz-adv-x="328" d="M126 388l-32 20-50 52-19 69q0 36 18 66t51 49 71 18q38 0 69-18t50-48 19-66q0-36-18-69t-50-53-70-20q-39 0-71 20zm71 52l24 24 24 60q0 36-23 60t-58 24q-34 0-57-24t-24-60q0-35 24-59t57-25q33 0 57 24z"/><glyph unicode="±" glyph-name="plusminus" horiz-adv-x="597" d="M278 124l-3 4-4 11v206q0 9-9 9H55q-6 0-11 4t-5 9q0 13 7 27t20 15h194q7 0 9 2t2 10v170q0 13 14 23t25 10q7 0 11-5t5-14V420q0-7 1-9t7-2h204q7 0 13-3t6-10q0-13-10-27t-23-15H334q-5 0-6-2t-2-7V151q0-13-15-20t-28-7q-5 0-8 4zM50 33l-5 4-6 10q0 12 7 28t22 16h469q8 0 14-4t7-11q0-14-11-28t-24-15H56q-6 0-11 4z"/><glyph unicode="²" glyph-name="uni00B2" horiz-adv-x="328" d="M217 439q-46 2-75 2-35 0-83-2l-24-1q-4 0-7 3t-4 6q0 4 6 10l38 39q10 10 14 16 48 52 71 86t24 69q0 25-14 39t-37 15q-21 0-36-10t-31-29q-7-11-15-11-10 0-10 17 0 14 16 35t45 37 65 16q46 0 74-26t28-64q0-42-40-87-15-18-45-44t-38-33l-18-15v-1q1-1 3-2t6-1h87q34 0 62 45 7 11 16 11 10 0 8-12-8-21-17-50t-12-46q-1-6-4-9t-7-4l-46 1z"/><glyph unicode="³" glyph-name="uni00B3" horiz-adv-x="292" d="M71 435l-19 8-20 25q0 12 5 22t13 10q9 0 14-7 30-30 54-30t39 20 15 56q0 22-16 41t-41 20q-14 0-26-5t-14-6q-6 0-11 2t-4 7q1 11 15 19t33 16q31 16 43 30t12 36q0 14-13 24t-31 11q-39 0-63-31-7-9-11-9t-7 5-4 10q0 9 14 25t40 29 56 13q35 0 62-19t28-49q0-46-60-68-3-1-3-2t3-2q33-4 56-24t23-54q0-36-22-64t-58-43-77-16q-25 0-44 8z"/><glyph unicode="´" glyph-name="acute" horiz-adv-x="225" d="M29 454v11q0 9 4 21 11 26 34 74t36 72q7 13 16 18t23 5q24 0 40-6t16-17q0-10-10-23-68-84-121-137-18-18-28-18t-10 11z"/><glyph unicode="µ" glyph-name="uni00B5" d="M101-285l-15 65q-5 26-8 220 0 156-3 264l-1 124q0 21 8 29t37 9q33 0 54-10t22-28q0-35-26-154-17-79-17-93 0-25 14-44t38-19q34 0 60 31t52 106q8 71 12 155l2 34q2 12 7 17t19 6q41 0 66-15t26-34q0-35-14-85t-42-125q0-29 20-51t51-23q16 0 29 6t27 16 16 10q4 0 8-3t4-8q0-40-15-69T494 1t-48-16q-28 0-49 29t-28 76q-2 12-2 20l1 15-3 1q-6-13-28-48t-47-63-44-29q-22 0-42 15t-44 40l-15 16q-13 17-17 17-11 0-11-29l3-99 2-57q0-25 17-43t47-39q16-11 23-18t8-13q0-20-25-40t-47-21q-44 0-59 65z"/><glyph unicode="¶" glyph-name="paragraph" horiz-adv-x="617" d="M242-304l-40 34-40 87q0 35 18 62t46 43 57 15q34-1 53-15t20-42q0-24-14-40t-33-16q-18 0-37 19-6 7-13 12t-13 6q-13 0-24-14t-12-39q0-29 26-51t68-23q39 0 67 30t29 92V57q0 26-14 26-97 0-179 33T75 213 26 364q0 150 104 217t298 67q42 0 89-2t61-6q7-1 11-8t5-17q0-10-4-22t-11-13q-5 1-38 8t-75 8q-8 0-14-7t-6-16v-716q0-70-40-115t-106-46q-58 0-98 34z"/><glyph unicode="·" glyph-name="middot" horiz-adv-x="237" d="M89 137l-21 21-22 51q0 31 21 52t51 22q31 0 52-21t22-53q0-29-21-50t-53-22q-29 0-50 21z"/><glyph unicode="¸" glyph-name="cedilla" horiz-adv-x="250" d="M59-274l-9 9-10 36q0 23 16 23 5 0 24-7t38-7q33 0 33 42 0 22-17 34t-40 13q-9 0-18-4t-13-4q-7 0-14 6t-7 15q0 6 11 19L143 8h39l-36-45q-6-8-6-11 0-5 13-11 26-11 41-31t15-50q0-34-22-65t-52-50-55-19q-21 0-30 9z"/><glyph unicode="¹" glyph-name="uni00B9" horiz-adv-x="252" d="M43 440l-3 3-4 9q0 6 3 10t8 5q25 4 33 9t9 24v171q0 19-13 30t-30 14q-12 2-12 12 0 14 13 16 36 3 61 11t47 24q1 1 4 2t6 2q9 0 9-10 0-4-2-18t-2-34V500q0-13 2-18t10-8 27-7q11-3 11-15 0-11-10-11l-50 1q-12 1-33 1l-32-1q-26-2-48-2-4 0-7 3z"/><glyph unicode="º" glyph-name="ordmasculine" horiz-adv-x="321" d="M108 278l-41 36-41 92q0 41 21 74t57 53 80 19q39 0 73-17t54-47 20-64q0-62-42-104t-120-42q-61 0-102 36zm101 35l11 27 12 69q0 42-16 74t-42 33q-50 0-50-95 0-43 16-75t42-33q27 0 38 27zm84-111l5-4 6-10-1-4q-14-24-36-24H35q-6 0-11 4t-5 10q0 8 9 18t19 10h241q5 0 10-4z"/><glyph unicode="»" glyph-name="guillemotright" horiz-adv-x="587" d="M283 17l19 19q57 53 101 83t108 61q12 6 18 16t6 19q0 10-8 13-88 53-130 83t-97 82q-2 1-12 10t-21 10q-3 0-5-3t-2-7q0-5 6-17 42-63 72-94t73-69q7-7 7-8t-7-8q-42-36-72-68t-73-97q-5-7-5-13 0-5 2-8t6-4q14 0 33 19zM72 17l19 19q57 53 101 83t108 61q12 6 18 16t6 19q0 10-8 13-88 53-130 83t-97 82q-2 1-12 10t-21 10q-3 0-5-3t-2-7q0-5 6-17 42-63 72-94t73-69q7-7 7-8t-7-8q-42-36-72-68T55 42q-5-7-5-13 0-5 2-8t6-4q14 0 33 19z"/><glyph unicode="¼" glyph-name="onequarter" horiz-adv-x="649" d="M43 278l-3 3-4 9q0 6 3 10t8 5q25 4 33 9t9 24v171q0 19-13 30t-30 14q-12 2-12 12 0 14 13 16 36 3 61 11t47 24q1 1 4 2t6 2q9 0 9-10 0-4-2-18t-2-34V338q0-13 2-18t10-8 27-7q11-3 11-15 0-11-10-11l-50 1q-12 1-33 1l-32-1q-26-2-48-2-4 0-7 3zm495 378l11 4 28 4q7 0 12-5t5-10q0-4-1-5L173-18q-11-18-42-18-8 0-14 4t-7 10q0 3 1 4l420 662q7 12 18 16zM500-9v96q0 3-4 4t-7 2l-66-1q-46-2-77-2-3 0-6 1t-3 4q0 2 2 4 21 27 96 113 34 38 50 57 15 20 62 67 14 14 21 14 5 0 5-9l-1-203q0-6 6-6h19l32 1q7 0 7-7 0-9-5-20t-11-11h-37q-11 0-11-7V26q0-7-13-15T531-3t-21-6q-10 0-10 8zm-7 142q2 0 4 1t3 3v95q0 1-2 1t-3-1q-65-70-84-95-2-4 1-4h81z"/><glyph unicode="½" glyph-name="onehalf" horiz-adv-x="718" d="M43 278l-3 3-4 9q0 6 3 10t8 5q25 4 33 9t9 24v171q0 19-13 30t-30 14q-12 2-12 12 0 14 13 16 36 3 61 11t47 24q1 1 4 2t6 2q9 0 9-10 0-4-2-18t-2-34V338q0-13 2-18t10-8 27-7q11-3 11-15 0-11-10-11l-50 1q-12 1-33 1l-32-1q-26-2-48-2-4 0-7 3zm495 378l11 4 28 4q7 0 12-5t5-10q0-4-1-5L173-18q-11-18-42-18-8 0-14 4t-7 10q0 3 1 4l420 662q7 12 18 16zm70-671q-46 2-75 2-35 0-83-2l-24-1q-4 0-7 3t-4 6q0 4 6 10l38 39q10 10 14 16 48 52 71 86t24 69q0 25-14 39t-37 15q-21 0-36-10t-31-29q-7-11-15-11-10 0-10 17 0 14 16 35t45 37 65 16q46 0 74-26t28-64q0-42-40-87-15-18-45-44t-38-33l-18-15v-1q1-1 3-2t6-1h87q34 0 62 45 7 11 16 11 10 0 8-12-8-21-17-50T665-3q-1-6-4-9t-7-4l-46 1z"/><glyph unicode="¾" glyph-name="threequarters" horiz-adv-x="652" d="M71 275l-19 8-20 25q0 12 5 22t13 10q9 0 14-7 30-30 54-30t39 20 15 56q0 22-16 41t-41 20q-14 0-26-5t-14-6q-6 0-11 2t-4 7q1 11 15 19t33 16q31 16 43 30t12 36q0 14-13 24t-31 11q-39 0-63-31-7-9-11-9t-7 5-4 10q0 9 14 25t40 29 56 13q35 0 62-19t28-49q0-46-60-68-3-1-3-2t3-2q33-4 56-24t23-54q0-36-22-64t-58-43-77-16q-25 0-44 8zm468 381l11 4 28 4q7 0 12-5t5-10q0-4-1-5L174-18q-11-18-42-18-8 0-14 4t-7 10q0 3 1 4l420 662q7 12 18 16zM503-9v96q0 3-4 4t-7 2l-66-1q-46-2-77-2-3 0-6 1t-3 4q0 2 2 4 21 27 96 113 34 38 50 57 15 20 62 67 14 14 21 14 5 0 5-9l-1-203q0-6 6-6h19l32 1q7 0 7-7 0-9-5-20t-11-11h-37q-11 0-11-7V26q0-7-13-15T534-3t-21-6q-10 0-10 8zm-7 142q2 0 4 1t3 3v95q0 1-2 1t-3-1q-65-70-84-95-2-4 1-4h81z"/><glyph unicode="¿" glyph-name="questiondown" horiz-adv-x="389" d="M253 304l8-8 15-22q9-22 14-41t6-47q0-30-26-53t-86-52q-63-31-63-74 0-36 23-57t61-23q20 0 41 8 20 5 30 5 19 0 36-25t17-51q0-17-18-31t-41-14q-34 0-69 17t-65 49Q99-76 77-27T54 65q0 36 13 59t34 33q30 16 64 36 10 7 24 15 20 11 28 27t10 46q1 10 6 16t13 7q7 0 15-8zm17 190l20-20 21-48q0-29-20-49t-49-20q-28 0-48 20t-20 49q0 28 20 48t48 20q28 0 48-20z"/><glyph unicode="À" glyph-name="Agrave" horiz-adv-x="711" d="M-4-5v15q0 8 6 13t21 10q62 16 85 70 90 207 178 450 9 27 14 46t8 27q36 9 57 18 16 8 26 20t13 15q8 6 12-2 2-4 9-25 37-118 85-266t68-206l23-68q13-38 34-55t55-26q27-6 27-22 0-12-23-12l-69 2q-45 3-85 3-22 0-72-2-46-2-63-2-11 0-18 3t-7 11q0 16 27 21 34 6 49 16t16 29q0 7-1 10-8 44-35 136-2 9-6 12t-15 3H235q-12 0-17-18-30-89-37-122-1-5-1-14 0-21 14-33t47-20q27-6 27-21 0-6-6-9t-18-4l-48 1q-34 2-56 2-14 0-32-1T80-2Q52-5 24-5T-4 10zm405 290q8 0 11 1t3 5q0 1-2 11l-70 231q-5 14-7 14-1 0-7-13l-84-232q-2-4-2-8 0-9 19-9h139zm-2 398q-9 0-21 8-19 13-63 41-62 40-90 60-10 6-13 10t-4 11q0 11 26 21t41 11h4q16 0 27-12 50-57 96-123 9-12 9-19t-10-8h-2z"/><glyph unicode="Á" glyph-name="Aacute" horiz-adv-x="711" d="M-4-5v15q0 8 6 13t21 10q62 16 85 70 90 207 178 450 9 27 14 46t8 27q36 9 57 18 16 8 26 20t13 15q8 6 12-2 2-4 9-25 37-118 85-266t68-206l23-68q13-38 34-55t55-26q27-6 27-22 0-12-23-12l-69 2q-45 3-85 3-22 0-72-2-46-2-63-2-11 0-18 3t-7 11q0 16 27 21 34 6 49 16t16 29q0 7-1 10-8 44-35 136-2 9-6 12t-15 3H235q-12 0-17-18-30-89-37-122-1-5-1-14 0-21 14-33t47-20q27-6 27-21 0-6-6-9t-18-4l-48 1q-34 2-56 2-14 0-32-1T80-2Q52-5 24-5T-4 10zm405 290q8 0 11 1t3 5q0 1-2 11l-70 231q-5 14-7 14-1 0-7-13l-84-232q-2-4-2-8 0-9 19-9h139zm-82 399v7q0 7 9 19 46 66 96 123 12 14 31 12 15-1 41-11t26-21q0-6-3-10t-14-11q-28-20-90-60-44-28-63-41-16-10-23-8-10 1-10 8z"/><glyph unicode="Â" glyph-name="Acircumflex" horiz-adv-x="711" d="M-4-5v15q0 8 6 13t21 10q62 16 85 70 90 207 178 450 9 27 14 46t8 27q36 9 57 18 16 8 26 20t13 15q8 6 12-2 2-4 9-25 37-118 85-266t68-206l23-68q13-38 34-55t55-26q27-6 27-22 0-12-23-12l-69 2q-45 3-85 3-22 0-72-2-46-2-63-2-11 0-18 3t-7 11q0 16 27 21 34 6 49 16t16 29q0 7-1 10-8 44-35 136-2 9-6 12t-15 3H235q-12 0-17-18-30-89-37-122-1-5-1-14 0-21 14-33t47-20q27-6 27-21 0-6-6-9t-18-4l-48 1q-34 2-56 2-14 0-32-1T80-2Q52-5 24-5T-4 10zm405 290q8 0 11 1t3 5q0 1-2 11l-70 231q-5 14-7 14-1 0-7-13l-84-232q-2-4-2-8 0-9 19-9h139zM224 694l-5 3-5 8q0 8 9 15l102 90q19 16 27 21t20 5q13 0 21-5t27-21l101-90q8-5 8-15 0-5-4-8t-12-4q-11 0-58 19t-71 33q-5 4-12 4t-12-4q-22-13-69-32t-59-19q-8 0-13 3z"/><glyph unicode="Ã" glyph-name="Atilde" horiz-adv-x="711" d="M-4-5v15q0 8 6 13t21 10q62 16 85 70 90 207 178 450 9 27 14 46t8 27q36 9 57 18 16 8 26 20t13 15q8 6 12-2 2-4 9-25 37-118 85-266t68-206l23-68q13-38 34-55t55-26q27-6 27-22 0-12-23-12l-69 2q-45 3-85 3-22 0-72-2-46-2-63-2-11 0-18 3t-7 11q0 16 27 21 34 6 49 16t16 29q0 7-1 10-8 44-35 136-2 9-6 12t-15 3H235q-12 0-17-18-30-89-37-122-1-5-1-14 0-21 14-33t47-20q27-6 27-21 0-6-6-9t-18-4l-48 1q-34 2-56 2-14 0-32-1T80-2Q52-5 24-5T-4 10zm405 290q8 0 11 1t3 5q0 1-2 11l-70 231q-5 14-7 14-1 0-7-13l-84-232q-2-4-2-8 0-9 19-9h139zM238 691l-6 6-7 10q0 7 16 31t34 44 29 20q16 0 54-2l24-1q48-4 77-4 19 0 37 20 6 6 12 13t8 8q6 0 13-6t8-12q0-6-16-25-11-13-24-32t-18-27q-5-7-14-10t-16-4q-7 0-67 4-70 6-89 6-15 0-30-17-7-7-12-14t-8-8q-5 0-11 6z"/><glyph unicode="Ä" glyph-name="Adieresis" horiz-adv-x="711" d="M-4-5v15q0 8 6 13t21 10q62 16 85 70 90 207 178 450 9 27 14 46t8 27q36 9 57 18 16 8 26 20t13 15q8 6 12-2 2-4 9-25 37-118 85-266t68-206l23-68q13-38 34-55t55-26q27-6 27-22 0-12-23-12l-69 2q-45 3-85 3-22 0-72-2-46-2-63-2-11 0-18 3t-7 11q0 16 27 21 34 6 49 16t16 29q0 7-1 10-8 44-35 136-2 9-6 12t-15 3H235q-12 0-17-18-30-89-37-122-1-5-1-14 0-21 14-33t47-20q27-6 27-21 0-6-6-9t-18-4l-48 1q-34 2-56 2-14 0-32-1T80-2Q52-5 24-5T-4 10zm405 290q8 0 11 1t3 5q0 1-2 11l-70 231q-5 14-7 14-1 0-7-13l-84-232q-2-4-2-8 0-9 19-9h139zM247 690l-19 19-19 45q0 28 19 46t46 19q28 0 47-18t19-47q0-26-19-45t-47-19q-27 0-46 19zm197 0l-19 19-19 45q0 28 19 46t45 19q29 0 48-18t19-47q0-26-19-45t-48-19q-26 0-45 19z"/><glyph unicode="Å" glyph-name="Aring" horiz-adv-x="711" d="M-4-5v15q0 8 6 13t21 10q62 16 85 70 90 207 178 450 9 27 14 46t8 27q36 9 57 18 16 8 26 20t13 15q8 6 12-2 2-4 9-25 37-118 85-266t68-206l23-68q13-38 34-55t55-26q27-6 27-22 0-12-23-12l-69 2q-45 3-85 3-22 0-72-2-46-2-63-2-11 0-18 3t-7 11q0 16 27 21 34 6 49 16t16 29q0 7-1 10-8 44-35 136-2 9-6 12t-15 3H235q-12 0-17-18-30-89-37-122-1-5-1-14 0-21 14-33t47-20q27-6 27-21 0-6-6-9t-18-4l-48 1q-34 2-56 2-14 0-32-1T80-2Q52-5 24-5T-4 10zm405 290q8 0 11 1t3 5q0 1-2 11l-70 231q-5 14-7 14-1 0-7-13l-84-232q-2-4-2-8 0-9 19-9h139zm13 567l29-20 29-54q0-38-32-62t-76-24q-40 0-69 21t-29 56q0 36 32 59t76 24q40 0 69-20zm-92-102l15-15 37-15q19 0 30 15t12 36q0 22-14 36t-37 15q-20 0-31-14t-12-37q0-21 15-36z"/><glyph unicode="Æ" glyph-name="AE" horiz-adv-x="897" d="M-5-5V9q0 8 6 13t21 9q27 8 52 30t43 50l286 486 2 5q0 8-12 10l-51 10q-16 4-16 17 0 6 4 10t11 4q18 0 72-2 58-2 86-2 109 0 241 4l69 1q7 0 14-4t8-12q14-78 15-121 0-6-4-10t-10-5q-10 0-16 14-3 7-10 25t-13 30-13 18q-21 24-66 24h-94q-19 0-33-10t-14-27V365q0-11 6-17t16-6q64 0 90 1 19 0 30 11t22 32q5 6 9 12t8 11 10 5q5 0 9-6t4-14q-5-43-5-72 0-39 4-79v-5q0-18-10-18-8 0-14 7t-9 17q-16 54-49 56-36 1-98 1-11 0-17-6t-6-17V103q0-62 56-62h96q15 0 38 5t34 14q15 12 27 31t25 48q3 8 6 11t9 3q5 0 9-4t5-9q0-24-6-55t-19-75q-5-14-20-14L723-3q-99 3-216 3-19 0-63-2-33-3-68-3-10 0-17 4t-7 10q0 13 26 19 37 10 51 23t15 44v154q0 8-3 13t-16 5H284q-10 0-16-4t-11-15q-25-45-54-111l-12-27q-7-15-7-30 0-19 16-30t48-18q27-6 27-21 0-6-7-9t-18-4l-49 1q-38 2-59 2-15 0-34-1T79-2Q51-5 22-5-5-5-5 9zm434 324q15 0 15 14v226q0 15-3 15-2 0-10-12L308 335q-4-7-3-11 1-5 16-5h108z"/><glyph unicode="Ç" glyph-name="Ccedilla" horiz-adv-x="709" d="M305-14l-85 42L85 145 34 319q0 93 51 172t142 126 206 47q47 0 89-8t92-24q22-7 25-30 8-64 8-118 1-8-4-12t-13-5q-7 0-12 4t-8 12q-10 35-20 56t-30 38q-50 42-140 42-70 0-124-38t-85-101-30-135q0-87 28-158t84-114 130-42q72 0 119 31t79 96q4 7 9 11t12 4q6 0 10-4t5-12q0-17-6-48t-17-61q-5-12-11-17t-18-11Q568 4 516-5t-111-9q-100 0-185 42zm-2-261l-12 8-12 32q0 15 5 23t14 8q2 0 16-6t45-7q19 0 31 9t13 30q0 45-48 45-6 0-13-2t-12-3q-13 0-20 7t-8 13q0 10 6 18L397 8h40l-35-50q-5-7-5-11 0-7 9-10 28-11 46-33t19-53q0-33-23-62t-56-46-63-18q-26 0-38 8z"/><glyph unicode="È" glyph-name="Egrave" horiz-adv-x="571" d="M39-5l-7 4-7 10q0 13 26 19 37 10 52 23t15 46v453q0 33-13 47t-51 23q-26 5-26 20 0 7 6 10t18 4q30 0 82-2t77-2q80 0 190 2 31 1 53 3t27 2q21 0 23-15l7-45q9-52 9-76 0-8-4-13t-10-5q-10 0-16 14-8 21-15 39t-16 27q-28 30-71 30h-93q-19 0-33-11t-15-29V377q0-23 23-23h91q25 0 36 13t22 43q6 20 19 20 5 0 9-5t4-15q-4-40-4-77 0-51 3-81v-5q0-18-10-18-7 0-13 7t-10 21q-8 29-19 42t-30 14h-93q-15 0-21-5t-7-19V99q0-32 13-45t44-13h82q54 0 81 20 27 21 57 78 7 13 18 13 10-1 10-17 0-32-31-125-6-14-20-14L381-2Q253 0 180 0q-19 0-63-2-33-3-68-3-10 0-17 4zm287 688q-9 0-21 8-19 13-63 41-62 40-90 60-10 6-13 10t-4 11q0 11 26 21t41 11h4q16 0 27-12 50-57 96-123 9-12 9-19t-10-8h-2z"/><glyph unicode="É" glyph-name="Eacute" horiz-adv-x="571" d="M39-5l-7 4-7 10q0 13 26 19 37 10 52 23t15 46v453q0 33-13 47t-51 23q-26 5-26 20 0 7 6 10t18 4q30 0 82-2t77-2q80 0 190 2 31 1 53 3t27 2q21 0 23-15l7-45q9-52 9-76 0-8-4-13t-10-5q-10 0-16 14-8 21-15 39t-16 27q-28 30-71 30h-93q-19 0-33-11t-15-29V377q0-23 23-23h91q25 0 36 13t22 43q6 20 19 20 5 0 9-5t4-15q-4-40-4-77 0-51 3-81v-5q0-18-10-18-7 0-13 7t-10 21q-8 29-19 42t-30 14h-93q-15 0-21-5t-7-19V99q0-32 13-45t44-13h82q54 0 81 20 27 21 57 78 7 13 18 13 10-1 10-17 0-32-31-125-6-14-20-14L381-2Q253 0 180 0q-19 0-63-2-33-3-68-3-10 0-17 4zm207 689v7q0 7 9 19 46 66 96 123 12 14 31 12 15-1 41-11t26-21q0-6-3-10t-14-11q-28-20-90-60-44-28-63-41-16-10-23-8-10 1-10 8z"/><glyph unicode="Ê" glyph-name="Ecircumflex" horiz-adv-x="571" d="M39-5l-7 4-7 10q0 13 26 19 37 10 52 23t15 46v453q0 33-13 47t-51 23q-26 5-26 20 0 7 6 10t18 4q30 0 82-2t77-2q80 0 190 2 31 1 53 3t27 2q21 0 23-15l7-45q9-52 9-76 0-8-4-13t-10-5q-10 0-16 14-8 21-15 39t-16 27q-28 30-71 30h-93q-19 0-33-11t-15-29V377q0-23 23-23h91q25 0 36 13t22 43q6 20 19 20 5 0 9-5t4-15q-4-40-4-77 0-51 3-81v-5q0-18-10-18-7 0-13 7t-10 21q-8 29-19 42t-30 14h-93q-15 0-21-5t-7-19V99q0-32 13-45t44-13h82q54 0 81 20 27 21 57 78 7 13 18 13 10-1 10-17 0-32-31-125-6-14-20-14L381-2Q253 0 180 0q-19 0-63-2-33-3-68-3-10 0-17 4zm112 699l-5 3-5 8q0 8 9 15l102 90q19 16 27 21t20 5q13 0 21-5t27-21l101-90q8-5 8-15 0-5-4-8t-12-4q-11 0-58 19t-71 33q-5 4-12 4t-12-4q-22-13-69-32t-59-19q-8 0-13 3z"/><glyph unicode="Ë" glyph-name="Edieresis" horiz-adv-x="571" d="M39-5l-7 4-7 10q0 13 26 19 37 10 52 23t15 46v453q0 33-13 47t-51 23q-26 5-26 20 0 7 6 10t18 4q30 0 82-2t77-2q80 0 190 2 31 1 53 3t27 2q21 0 23-15l7-45q9-52 9-76 0-8-4-13t-10-5q-10 0-16 14-8 21-15 39t-16 27q-28 30-71 30h-93q-19 0-33-11t-15-29V377q0-23 23-23h91q25 0 36 13t22 43q6 20 19 20 5 0 9-5t4-15q-4-40-4-77 0-51 3-81v-5q0-18-10-18-7 0-13 7t-10 21q-8 29-19 42t-30 14h-93q-15 0-21-5t-7-19V99q0-32 13-45t44-13h82q54 0 81 20 27 21 57 78 7 13 18 13 10-1 10-17 0-32-31-125-6-14-20-14L381-2Q253 0 180 0q-19 0-63-2-33-3-68-3-10 0-17 4zm135 695l-19 19-19 45q0 28 19 46t46 19q28 0 47-18t19-47q0-26-19-45t-47-19q-27 0-46 19zm197 0l-19 19-19 45q0 28 19 46t45 19q29 0 48-18t19-47q0-26-19-45t-48-19q-26 0-45 19z"/><glyph unicode="Ì" glyph-name="Igrave" horiz-adv-x="356" d="M31-4l-7 3-7 10q0 15 25 21 40 8 56 22t16 45v454q0 33-14 47t-53 22q-25 4-25 21 0 6 7 9t16 4q25 0 71-2 44-2 64-2t62 2q48 2 72 2 10 0 16-3t6-11q0-8-6-12t-19-8q-40-10-54-24t-14-46V98q0-30 16-44t55-24q13-3 19-7t7-13q0-13-22-13-26 0-74 2-44 2-64 2-22 0-68-2-34-3-72-3-9 0-16 3zm176 687q-9 0-21 8-19 13-63 41-62 40-90 60-10 6-13 10t-4 11q0 11 26 21t41 11h4q16 0 27-12 50-57 96-123 9-12 9-19t-10-8h-2z"/><glyph unicode="Í" glyph-name="Iacute" horiz-adv-x="356" d="M31-4l-7 3-7 10q0 15 25 21 40 8 56 22t16 45v454q0 33-14 47t-53 22q-25 4-25 21 0 6 7 9t16 4q25 0 71-2 44-2 64-2t62 2q48 2 72 2 10 0 16-3t6-11q0-8-6-12t-19-8q-40-10-54-24t-14-46V98q0-30 16-44t55-24q13-3 19-7t7-13q0-13-22-13-26 0-74 2-44 2-64 2-22 0-68-2-34-3-72-3-9 0-16 3zm96 688v7q0 7 9 19 46 66 96 123 12 14 31 12 15-1 41-11t26-21q0-6-3-10t-14-11q-28-20-90-60-44-28-63-41-16-10-23-8-10 1-10 8z"/><glyph unicode="Î" glyph-name="Icircumflex" horiz-adv-x="356" d="M31-4l-7 3-7 10q0 15 25 21 40 8 56 22t16 45v454q0 33-14 47t-53 22q-25 4-25 21 0 6 7 9t16 4q25 0 71-2 44-2 64-2t62 2q48 2 72 2 10 0 16-3t6-11q0-8-6-12t-19-8q-40-10-54-24t-14-46V98q0-30 16-44t55-24q13-3 19-7t7-13q0-13-22-13-26 0-74 2-44 2-64 2-22 0-68-2-34-3-72-3-9 0-16 3zm1 698l-5 3-5 8q0 8 9 15l102 90q19 16 27 21t20 5q13 0 21-5t27-21l101-90q8-5 8-15 0-5-4-8t-12-4q-11 0-58 19t-71 33q-5 4-12 4t-12-4q-22-13-69-32t-59-19q-8 0-13 3z"/><glyph unicode="Ï" glyph-name="Idieresis" horiz-adv-x="356" d="M31-4l-7 3-7 10q0 15 25 21 40 8 56 22t16 45v454q0 33-14 47t-53 22q-25 4-25 21 0 6 7 9t16 4q25 0 71-2 44-2 64-2t62 2q48 2 72 2 10 0 16-3t6-11q0-8-6-12t-19-8q-40-10-54-24t-14-46V98q0-30 16-44t55-24q13-3 19-7t7-13q0-13-22-13-26 0-74 2-44 2-64 2-22 0-68-2-34-3-72-3-9 0-16 3zm24 694l-19 19-19 45q0 28 19 46t46 19q28 0 47-18t19-47q0-26-19-45t-47-19q-27 0-46 19zm197 0l-19 19-19 45q0 28 19 46t45 19q29 0 48-18t19-47q0-26-19-45t-48-19q-26 0-45 19z"/><glyph unicode="Ð" glyph-name="Eth" horiz-adv-x="762" d="M480 659l82-41 126-115 45-165q0-92-44-171T564 41 379-7q-27 0-105 4-23 1-49 2t-51 1q-19 0-59-2-44-2-71-2-10 0-16 4t-7 10q0 8 6 12t20 8q38 8 52 22t14 46v212H58q-9 0-14 8t-5 17q0 10 8 17t19 8h47v190q0 33-13 47t-53 23q-13 2-19 6t-7 14q0 6 6 10t17 4q23 0 69-2 42-2 64-2 21 0 95 4 65 5 98 5 110 0 192-41zM470 39l59 75 60 201q0 89-30 157t-84 104-122 37q-43 0-64-2t-34-12-12-31V360h126q8 0 13-4t6-11l-1-4q-12-31-37-31H243V128q0-49 31-69t91-20q105 0 164 75z"/><glyph unicode="Ñ" glyph-name="Ntilde" horiz-adv-x="804" d="M661-18L633-1l-54 50q-40 44-82 92t-79 89Q263 405 200 474q-10 12-16 12-4 0-6-6t-2-14v-63l1-294q0-32 18-51t57-28q15-3 22-7t8-13q0-6-8-9t-19-4q-30 0-62 2-26 2-43 2-11 0-59-3-24-2-33-2-10 0-18 3T32 9q0 8 7 12t21 9q47 15 54 81 19 204 19 397 0 48-23 71t-70 41q-11 3-20 9t-9 14q0 15 25 15 23 0 69-2 51-3 112-3 12 0 21-13 30-34 174-202 155-182 206-239 13-16 19-16 4 0 6 4t3 13v157q0 137-1 201-1 23-19 38t-50 22q-33 8-33 21 0 6 9 9t21 4l84-1 48 1q32 2 62 2 12 0 19-3t8-10q0-15-29-21-36-7-50-19t-15-40q0-67-3-174-4-168-4-246 0-23 2-52t4-38q3-21 3-31 0-38-26-38-15 0-43 17zM285 691l-6 6-7 10q0 7 16 31t34 44 29 20q16 0 54-2l24-1q48-4 77-4 19 0 37 20 6 6 12 13t8 8q6 0 13-6t8-12q0-6-16-25-11-13-24-32t-18-27q-5-7-14-10t-16-4q-7 0-67 4-70 6-89 6-15 0-30-17-7-7-12-14t-8-8q-5 0-11 6z"/><glyph unicode="Ò" glyph-name="Ograve" horiz-adv-x="761" d="M285-14l-78 41L81 144 34 315q0 92 41 172t120 128 190 49q91 0 169-41t126-117 47-171q0-92-41-172T566 35 376-14q-91 0-169 41zm201 44l49 68 49 186q0 89-24 165t-74 123-119 47q-92 0-141-68t-49-185q0-89 24-165t72-124 120-47q93 0 142 68zm-67 653q-9 0-21 8-19 13-63 41-62 40-90 60-10 6-13 10t-4 11q0 11 26 21t41 11h4q16 0 27-12 50-57 96-123 9-12 9-19t-10-8h-2z"/><glyph unicode="Ó" glyph-name="Oacute" horiz-adv-x="761" d="M285-14l-78 41L81 144 34 315q0 92 41 172t120 128 190 49q91 0 169-41t126-117 47-171q0-92-41-172T566 35 376-14q-91 0-169 41zm201 44l49 68 49 186q0 89-24 165t-74 123-119 47q-92 0-141-68t-49-185q0-89 24-165t72-124 120-47q93 0 142 68zM339 684v7q0 7 9 19 46 66 96 123 12 14 31 12 15-1 41-11t26-21q0-6-3-10t-14-11q-28-20-90-60-44-28-63-41-16-10-23-8-10 1-10 8z"/><glyph unicode="Ô" glyph-name="Ocircumflex" horiz-adv-x="761" d="M285-14l-78 41L81 144 34 315q0 92 41 172t120 128 190 49q91 0 169-41t126-117 47-171q0-92-41-172T566 35 376-14q-91 0-169 41zm201 44l49 68 49 186q0 89-24 165t-74 123-119 47q-92 0-141-68t-49-185q0-89 24-165t72-124 120-47q93 0 142 68zM244 694l-5 3-5 8q0 8 9 15l102 90q19 16 27 21t20 5q13 0 21-5t27-21l101-90q8-5 8-15 0-5-4-8t-12-4q-11 0-58 19t-71 33q-5 4-12 4t-12-4q-22-13-69-32t-59-19q-8 0-13 3z"/><glyph unicode="Õ" glyph-name="Otilde" horiz-adv-x="761" d="M285-14l-78 41L81 144 34 315q0 92 41 172t120 128 190 49q91 0 169-41t126-117 47-171q0-92-41-172T566 35 376-14q-91 0-169 41zm201 44l49 68 49 186q0 89-24 165t-74 123-119 47q-92 0-141-68t-49-185q0-89 24-165t72-124 120-47q93 0 142 68zM258 691l-6 6-7 10q0 7 16 31t34 44 29 20q16 0 54-2l24-1q48-4 77-4 19 0 37 20 6 6 12 13t8 8q6 0 13-6t8-12q0-6-16-25-11-13-24-32t-18-27q-5-7-14-10t-16-4q-7 0-67 4-70 6-89 6-15 0-30-17-7-7-12-14t-8-8q-5 0-11 6z"/><glyph unicode="Ö" glyph-name="Odieresis" horiz-adv-x="761" d="M285-14l-78 41L81 144 34 315q0 92 41 172t120 128 190 49q91 0 169-41t126-117 47-171q0-92-41-172T566 35 376-14q-91 0-169 41zm201 44l49 68 49 186q0 89-24 165t-74 123-119 47q-92 0-141-68t-49-185q0-89 24-165t72-124 120-47q93 0 142 68zM267 690l-19 19-19 45q0 28 19 46t46 19q28 0 47-18t19-47q0-26-19-45t-47-19q-27 0-46 19zm197 0l-19 19-19 45q0 28 19 46t45 19q29 0 48-18t19-47q0-26-19-45t-48-19q-26 0-45 19z"/><glyph unicode="×" glyph-name="multiply" horiz-adv-x="559" d="M434 54l-7 7-142 142q-3 3-6 3t-7-4L134 63q-4-4-9-5t-10 0q-7 2-15 15t-8 27q0 10 6 15l130 130q4 4 4 7t-5 8L97 391q-5 5-5 14 0 17 18 42 3 3 8 3 7 0 12-5l142-142q4-4 6-4t7 3l143 143q5 5 11 5t9-3q1-2 10-15t9-27q0-8-6-14L329 258q-4-3-4-5t4-7l134-134q7-6 7-15 0-13-9-28t-19-15q-8 0-15 7z"/><glyph unicode="Ø" glyph-name="Oslash" horiz-adv-x="765" d="M655 541q72-88 72-206 0-92-41-172T566 35 376-14q-61 0-117 19T158 59L88-9q-5-5-14-5-15 0-27 9T34 15q0 18 14 30l62 59q-36 42-56 96T34 315q0 92 41 172t120 128 190 49q64 0 122-21t105-59l77 73q6 7 16 7 6 0 11-3t8-10q4-12 4-22 0-17-10-27l-63-61zM177 273l26-80 331 316q-27 52-69 81t-98 29q-92 0-141-68t-49-185q0-93 26-173zm407 101l-24 75-328-319q28-47 68-73t93-27q93 0 142 68t49 186q0 90-24 165z"/><glyph unicode="Ù" glyph-name="Ugrave" horiz-adv-x="742" d="M237-14l-71 70-72 193v292q0 30-13 51t-36 27q-30 7-30 22 0 6 8 9t20 4q19 0 57-2 42-2 61-2t61 2l56 1q27 0 27-13 0-7-6-11t-17-8-18-7q-16-7-28-26t-12-49V270q0-103 49-156t129-53q94 0 140 59t47 173q0 133-2 199-2 58-12 86t-37 39q-5 2-15 5t-16 8-6 9q0 14 29 14l52-1q12-1 38-1 18 0 44 2l43 1q27 0 27-13t-30-21q-30-8-42-28t-15-56q-5-107-7-211 0-44-1-67-1-78-36-140t-96-97-134-35q-136 0-207 70zm191 697q-9 0-21 8-19 13-63 41-62 40-90 60-10 6-13 10t-4 11q0 11 26 21t41 11h4q16 0 27-12 50-57 96-123 9-12 9-19t-10-8h-2z"/><glyph unicode="Ú" glyph-name="Uacute" horiz-adv-x="742" d="M237-14l-71 70-72 193v292q0 30-13 51t-36 27q-30 7-30 22 0 6 8 9t20 4q19 0 57-2 42-2 61-2t61 2l56 1q27 0 27-13 0-7-6-11t-17-8-18-7q-16-7-28-26t-12-49V270q0-103 49-156t129-53q94 0 140 59t47 173q0 133-2 199-2 58-12 86t-37 39q-5 2-15 5t-16 8-6 9q0 14 29 14l52-1q12-1 38-1 18 0 44 2l43 1q27 0 27-13t-30-21q-30-8-42-28t-15-56q-5-107-7-211 0-44-1-67-1-78-36-140t-96-97-134-35q-136 0-207 70zm111 698v7q0 7 9 19 46 66 96 123 12 14 31 12 15-1 41-11t26-21q0-6-3-10t-14-11q-28-20-90-60-44-28-63-41-16-10-23-8-10 1-10 8z"/><glyph unicode="Û" glyph-name="Ucircumflex" horiz-adv-x="742" d="M237-14l-71 70-72 193v292q0 30-13 51t-36 27q-30 7-30 22 0 6 8 9t20 4q19 0 57-2 42-2 61-2t61 2l56 1q27 0 27-13 0-7-6-11t-17-8-18-7q-16-7-28-26t-12-49V270q0-103 49-156t129-53q94 0 140 59t47 173q0 133-2 199-2 58-12 86t-37 39q-5 2-15 5t-16 8-6 9q0 14 29 14l52-1q12-1 38-1 18 0 44 2l43 1q27 0 27-13t-30-21q-30-8-42-28t-15-56q-5-107-7-211 0-44-1-67-1-78-36-140t-96-97-134-35q-136 0-207 70zm16 708l-5 3-5 8q0 8 9 15l102 90q19 16 27 21t20 5q13 0 21-5t27-21l101-90q8-5 8-15 0-5-4-8t-12-4q-11 0-58 19t-71 33q-5 4-12 4t-12-4q-22-13-69-32t-59-19q-8 0-13 3z"/><glyph unicode="Ü" glyph-name="Udieresis" horiz-adv-x="742" d="M237-14l-71 70-72 193v292q0 30-13 51t-36 27q-30 7-30 22 0 6 8 9t20 4q19 0 57-2 42-2 61-2t61 2l56 1q27 0 27-13 0-7-6-11t-17-8-18-7q-16-7-28-26t-12-49V270q0-103 49-156t129-53q94 0 140 59t47 173q0 133-2 199-2 58-12 86t-37 39q-5 2-15 5t-16 8-6 9q0 14 29 14l52-1q12-1 38-1 18 0 44 2l43 1q27 0 27-13t-30-21q-30-8-42-28t-15-56q-5-107-7-211 0-44-1-67-1-78-36-140t-96-97-134-35q-136 0-207 70zm39 704l-19 19-19 45q0 28 19 46t46 19q28 0 47-18t19-47q0-26-19-45t-47-19q-27 0-46 19zm197 0l-19 19-19 45q0 28 19 46t45 19q29 0 48-18t19-47q0-26-19-45t-48-19q-26 0-45 19z"/><glyph unicode="Ý" glyph-name="Yacute" horiz-adv-x="629" d="M176-6l-7 4-8 11q0 15 31 20 37 7 54 27t17 53v142q0 41-29 92L109 540q-19 29-38 50t-44 29q-14 4-20 8t-7 13q0 7 6 10t18 4q23 0 69-2 38-3 78-3 29 0 56 3 36 2 54 2 11 0 19-4t9-10q0-13-30-21-25-6-35-12t-11-21q0-15 12-35l100-175q13-25 21-25 4 0 10 7t13 18q39 65 87 160 13 26 13 44 0 33-49 39-11 1-21 7t-11 14q0 6 8 9t21 4q19 0 49-2 28-2 44-2 13 0 29 1t25 2q26 3 49 3 29 0 29-14 0-7-10-12t-28-10q-27-8-47-26t-40-50l-25-40-93-150q-15-26-21-46t-6-49V110q0-36 16-54t56-27q16-3 23-7t8-13q0-7-7-10t-20-4q-26 0-74 4-12 1-28 2t-37 1q-22 0-66-4-48-4-74-4-13 0-20 4zm126 690v7q0 7 9 19 46 66 96 123 12 14 31 12 15-1 41-11t26-21q0-6-3-10t-14-11q-28-20-90-60-44-28-63-41-16-10-23-8-10 1-10 8z"/><glyph unicode="Þ" glyph-name="Thorn" horiz-adv-x="580" d="M32-4l-7 3-7 10q0 15 25 21 40 8 56 22t16 46v452q0 32-12 47t-50 23q-25 4-25 21 0 6 7 9t16 4q27 0 71-2 40-2 58-2 20 0 66 2 48 2 73 2 10 0 16-3t6-11q0-8-6-12t-19-8q-40-9-55-22t-16-42v-13q0-5 1-9t5-4q5 1 13 3t10 3q31 7 75 7 56 0 102-22t73-67 27-109q0-69-35-118t-94-74-132-25q-11 0-20 1t-17 2q-8 0-8-9V97q0-29 16-43t55-24q13-3 19-7t6-13q0-13-21-13-26 0-74 2-44 2-64 2-23 0-67-2-36-3-74-3-9 0-16 3zm321 169l33 44 34 126q0 76-28 123t-78 47q-39 0-54-15t-15-61V228q0-63 43-63 65 0 98 44z"/><glyph unicode="ß" glyph-name="germandbls" horiz-adv-x="555" d="M326-14L302 1l-24 41q0 21 8 38t23 18q13 0 34-22 18-17 31-24t35-8q18 0 33 12t16 34q0 26-19 48t-71 69q-56 49-75 73t-20 54q0 24 14 42t43 43l30 27q48 48 48 103 0 52-26 84t-77 32q-54 0-82-45t-28-147V72q0-18 12-27t37-16q9-2 15-7t6-13q0-6-6-9t-13-3q-29 0-56 3-32 2-48 2T96 0Q72-3 43-3q-6 0-13 3t-8 9q0 7 6 11t17 9q19 6 29 14t10 27v283q-31 0-52 2-4 1-8 9t-5 17q0 6 8 8 34 11 57 25 4 102 42 167t95 95 116 30q39 0 72-16t51-44 19-59q0-38-14-64t-47-59q-22-23-32-42t-10-50q0-20 14-36t59-58q44-40 63-67t19-61q0-43-26-80T440 9t-73-23q-41 0-65 15z"/><glyph unicode="à" glyph-name="agrave" horiz-adv-x="425" d="M89-14L61 14 32 76q0 33 19 54t61 40l93 40q20 8 24 14t5 27l2 59q1 28-12 45t-37 17q-13 0-27-5t-22-13q-7-6-7-23l1-25q0-10-30-24t-51-15q-7 0-11 5t-4 12q0 31 44 68 36 31 83 52t80 22q48 0 77-31t28-83l-5-214q-1-22 8-37t24-15q22 0 34 12 4 4 7 4 5 0 8-3t4-9q0-11-16-27-17-18-38-27t-41-10q-27 0-47 13t-39 42h-3q-33-29-60-42t-59-13q-36 0-64 28zm117 60l15 18q9 7 10 31l2 64v4q0 13-9 13-6 0-15-4-38-16-53-32t-16-44q0-26 12-38t29-12q25 0 40 18zm31 408l-18 18q-53 53-121 137-10 13-10 23 0 11 16 17t40 6q14 0 23-5t16-18q13-23 36-71t34-75q4-12 4-21 0-11-10-11t-28 18z"/><glyph unicode="á" glyph-name="aacute" horiz-adv-x="425" d="M89-14L61 14 32 76q0 33 19 54t61 40l93 40q20 8 24 14t5 27l2 59q1 28-12 45t-37 17q-13 0-27-5t-22-13q-7-6-7-23l1-25q0-10-30-24t-51-15q-7 0-11 5t-4 12q0 31 44 68 36 31 83 52t80 22q48 0 77-31t28-83l-5-214q-1-22 8-37t24-15q22 0 34 12 4 4 7 4 5 0 8-3t4-9q0-11-16-27-17-18-38-27t-41-10q-27 0-47 13t-39 42h-3q-33-29-60-42t-59-13q-36 0-64 28zm117 60l15 18q9 7 10 31l2 64v4q0 13-9 13-6 0-15-4-38-16-53-32t-16-44q0-26 12-38t29-12q25 0 40 18zm-26 408v11q0 9 4 21 11 26 34 74t36 72q7 13 16 18t23 5q24 0 40-6t16-17q0-10-10-23-68-84-121-137-18-18-28-18t-10 11z"/><glyph unicode="â" glyph-name="acircumflex" horiz-adv-x="425" d="M89-14L61 14 32 76q0 33 19 54t61 40l93 40q20 8 24 14t5 27l2 59q1 28-12 45t-37 17q-13 0-27-5t-22-13q-7-6-7-23l1-25q0-10-30-24t-51-15q-7 0-11 5t-4 12q0 31 44 68 36 31 83 52t80 22q48 0 77-31t28-83l-5-214q-1-22 8-37t24-15q22 0 34 12 4 4 7 4 5 0 8-3t4-9q0-11-16-27-17-18-38-27t-41-10q-27 0-47 13t-39 42h-3q-33-29-60-42t-59-13q-36 0-64 28zm117 60l15 18q9 7 10 31l2 64v4q0 13-9 13-6 0-15-4-38-16-53-32t-16-44q0-26 12-38t29-12q25 0 40 18zm18 617l6-7 15-24q22-34 48-80t36-67q3-7 3-14 0-16-13-16-11 0-37 28l-61 74q-3 3-4 3t-6-3l-62-74q-25-28-37-28-14 0-14 13 0 7 5 17 14 34 82 146 10 17 16 24t15 8q8 0 14-7z"/><glyph unicode="ã" glyph-name="atilde" horiz-adv-x="425" d="M89-14L61 14 32 76q0 33 19 54t61 40l93 40q20 8 24 14t5 27l2 59q1 28-12 45t-37 17q-13 0-27-5t-22-13q-7-6-7-23l1-25q0-10-30-24t-51-15q-7 0-11 5t-4 12q0 31 44 68 36 31 83 52t80 22q48 0 77-31t28-83l-5-214q-1-22 8-37t24-15q22 0 34 12 4 4 7 4 5 0 8-3t4-9q0-11-16-27-17-18-38-27t-41-10q-27 0-47 13t-39 42h-3q-33-29-60-42t-59-13q-36 0-64 28zm117 60l15 18q9 7 10 31l2 64v4q0 13-9 13-6 0-15-4-38-16-53-32t-16-44q0-26 12-38t29-12q25 0 40 18zM86 463l-7 6-7 12q0 6 20 33t42 50 33 23q12 0 27-3l36-4q52-4 63-4 19 0 37 20 4 5 13 15t12 11q6 0 13-6t8-13q0-3-6-11t-15-18l-26-35-19-27q-9-14-30-14l-55 3q-50 5-79 5-12 0-28-16-9-12-16-19t-10-8q-6 0-13 6z"/><glyph unicode="ä" glyph-name="adieresis" horiz-adv-x="425" d="M89-14L61 14 32 76q0 33 19 54t61 40l93 40q20 8 24 14t5 27l2 59q1 28-12 45t-37 17q-13 0-27-5t-22-13q-7-6-7-23l1-25q0-10-30-24t-51-15q-7 0-11 5t-4 12q0 31 44 68 36 31 83 52t80 22q48 0 77-31t28-83l-5-214q-1-22 8-37t24-15q22 0 34 12 4 4 7 4 5 0 8-3t4-9q0-11-16-27-17-18-38-27t-41-10q-27 0-47 13t-39 42h-3q-33-29-60-42t-59-13q-36 0-64 28zm117 60l15 18q9 7 10 31l2 64v4q0 13-9 13-6 0-15-4-38-16-53-32t-16-44q0-26 12-38t29-12q25 0 40 18zM93 499l-19 19-19 45q0 27 19 46t45 19q27 0 46-19t20-46q0-25-19-44t-47-20q-26 0-45 19zm189 0l-19 19-20 45q0 27 19 46t45 19q27 0 47-19t20-46q0-25-20-44t-47-20q-25 0-44 19z"/><glyph unicode="å" glyph-name="aring" horiz-adv-x="425" d="M89-14L61 14 32 76q0 33 19 54t61 40l93 40q20 8 24 14t5 27l2 59q1 28-12 45t-37 17q-13 0-27-5t-22-13q-7-6-7-23l1-25q0-10-30-24t-51-15q-7 0-11 5t-4 12q0 31 44 68 36 31 83 52t80 22q48 0 77-31t28-83l-5-214q-1-22 8-37t24-15q22 0 34 12 4 4 7 4 5 0 8-3t4-9q0-11-16-27-17-18-38-27t-41-10q-27 0-47 13t-39 42h-3q-33-29-60-42t-59-13q-36 0-64 28zm117 60l15 18q9 7 10 31l2 64v4q0 13-9 13-6 0-15-4-38-16-53-32t-16-44q0-26 12-38t29-12q25 0 40 18zm-35 434l-28 25-28 65q0 40 31 67t73 28q38 0 66-24t28-63q0-42-31-70t-72-28q-39 0-67 25zm68 33l10 16 10 42q0 24-14 41t-36 18q-19 0-29-16t-11-40q0-25 14-43t36-18q20 0 30 16z"/><glyph unicode="æ" glyph-name="ae" horiz-adv-x="602" d="M92-14L62 12 32 73q0 34 19 57t62 40l94 38q19 9 24 15t5 23l1 62q1 28-12 45t-37 18q-14 0-30-8t-22-17q-4-7-4-19l1-22q0-10-32-24t-50-14q-6 0-10 5t-4 11q0 33 43 70 33 27 78 50t83 24q21 0 41-8t34-23q4-4 7-4t7 3q51 31 106 31 58 0 99-30t42-80q0-15-6-22t-18-12l-61-21q-109-38-135-48-11-5-11-18v-37q0-39 27-64t67-25q31 0 60 12t50 39q6 6 12 6 5 0 8-3t4-10q0-9-4-16-33-56-73-83T391-14q-75 0-127 49-8 8-11 8t-8-5q-28-26-51-39t-64-13q-38 0-68 26zm338 296l44 14q7 3 9 8t3 13q0 30-17 50t-49 20q-24 0-47-17t-25-43v-59q0-6 3-8t8-1l71 23zM205 45l19 19q11 11 11 30v58q0 11-1 15t-6 5q-4 0-12-3-74-27-75-73 0-26 12-38t28-13q24 0 43 19z"/><glyph unicode="ç" glyph-name="ccedilla" horiz-adv-x="410" d="M160-14l-42 27-66 75-25 106q0 63 29 116t80 85 111 31q37 0 70-12t58-36q10-9 10-18 0-11-17-28t-29-17q-7 0-13 4t-16 12q-26 21-52 34t-46 14q-42 0-64-36t-23-108q0-73 37-117t100-44q29 0 50 9t47 31q1 1 5 4t10 4q11 0 11-15 0-12-10-29-21-35-65-63t-98-29q-52 0-94 27zm-21-260l-9 9-10 36q0 23 16 23 5 0 24-7t38-7q33 0 33 42 0 22-17 34t-40 13q-9 0-18-4t-13-4q-7 0-14 6t-7 15q0 6 11 19L223 8h39l-36-45q-6-8-6-11 0-5 13-11 26-11 41-31t15-50q0-34-22-65t-52-50-55-19q-21 0-30 9z"/><glyph unicode="è" glyph-name="egrave" horiz-adv-x="408" d="M158-14l-42 28-67 77-24 113q0 60 28 111t77 81 105 30q63 0 105-38t42-96q0-18-7-27t-24-9H148q-14 0-20-8t-6-27q0-42 18-76t49-54 71-20q52 0 100 43 8 8 13 8 4 0 7-3t3-9q0-13-12-34-18-38-61-64t-98-26q-54 0-96 28zm61 309q44 0 64 5 9 2 9 26 0 27-20 45t-51 19q-21 0-41-12t-32-32-13-39q0-12 14-12h70zm34 159l-18 18q-53 53-121 137-10 13-10 23 0 11 16 17t40 6q14 0 23-5t16-18q13-23 36-71t34-75q4-12 4-21 0-11-10-11t-28 18z"/><glyph unicode="é" glyph-name="eacute" horiz-adv-x="408" d="M158-14l-42 28-67 77-24 113q0 60 28 111t77 81 105 30q63 0 105-38t42-96q0-18-7-27t-24-9H148q-14 0-20-8t-6-27q0-42 18-76t49-54 71-20q52 0 100 43 8 8 13 8 4 0 7-3t3-9q0-13-12-34-18-38-61-64t-98-26q-54 0-96 28zm61 309q44 0 64 5 9 2 9 26 0 27-20 45t-51 19q-21 0-41-12t-32-32-13-39q0-12 14-12h70zm-23 159v11q0 9 4 21 11 26 34 74t36 72q7 13 16 18t23 5q24 0 40-6t16-17q0-10-10-23-68-84-121-137-18-18-28-18t-10 11z"/><glyph unicode="ê" glyph-name="ecircumflex" horiz-adv-x="408" d="M158-14l-42 28-67 77-24 113q0 60 28 111t77 81 105 30q63 0 105-38t42-96q0-18-7-27t-24-9H148q-14 0-20-8t-6-27q0-42 18-76t49-54 71-20q52 0 100 43 8 8 13 8 4 0 7-3t3-9q0-13-12-34-18-38-61-64t-98-26q-54 0-96 28zm61 309q44 0 64 5 9 2 9 26 0 27-20 45t-51 19q-21 0-41-12t-32-32-13-39q0-12 14-12h70zm21 368l6-7 15-24q22-34 48-80t36-67q3-7 3-14 0-16-13-16-11 0-37 28l-61 74q-3 3-4 3t-6-3l-62-74q-25-28-37-28-14 0-14 13 0 7 5 17 14 34 82 146 10 17 16 24t15 8q8 0 14-7z"/><glyph unicode="ë" glyph-name="edieresis" horiz-adv-x="408" d="M158-14l-42 28-67 77-24 113q0 60 28 111t77 81 105 30q63 0 105-38t42-96q0-18-7-27t-24-9H148q-14 0-20-8t-6-27q0-42 18-76t49-54 71-20q52 0 100 43 8 8 13 8 4 0 7-3t3-9q0-13-12-34-18-38-61-64t-98-26q-54 0-96 28zm61 309q44 0 64 5 9 2 9 26 0 27-20 45t-51 19q-21 0-41-12t-32-32-13-39q0-12 14-12h70zM109 499l-19 19-19 45q0 27 19 46t45 19q27 0 46-19t20-46q0-25-19-44t-47-20q-26 0-45 19zm189 0l-19 19-20 45q0 27 19 46t45 19q27 0 47-19t20-46q0-25-20-44t-47-20q-25 0-44 19z"/><glyph unicode="ì" glyph-name="igrave" horiz-adv-x="279" d="M32-3l-5 3-5 10q0 13 20 18 25 6 35 13t10 24v217q0 32-10 48t-34 20q-5 1-8 5t-3 11q0 13 11 15 66 15 138 55 14 7 18 7 11 0 11-10l-3-34q-8-64-8-108V66q0-15 9-22t36-16q11-4 16-7t5-11q0-12-18-12-19 0-55 2-32 2-50 2-16 0-48-2-25-3-54-3-8 0-13 3zm129 457l-18 18Q90 525 22 609q-10 13-10 23 0 11 16 17t40 6q14 0 23-5t16-18q13-23 36-71t34-75q4-12 4-21 0-11-10-11t-28 18z"/><glyph unicode="í" glyph-name="iacute" horiz-adv-x="279" d="M32-3l-5 3-5 10q0 13 20 18 25 6 35 13t10 24v217q0 32-10 48t-34 20q-5 1-8 5t-3 11q0 13 11 15 66 15 138 55 14 7 18 7 11 0 11-10l-3-34q-8-64-8-108V66q0-15 9-22t36-16q11-4 16-7t5-11q0-12-18-12-19 0-55 2-32 2-50 2-16 0-48-2-25-3-54-3-8 0-13 3zm72 457v11q0 9 4 21 11 26 34 74t36 72q7 13 16 18t23 5q24 0 40-6t16-17q0-10-10-23-68-84-121-137-18-18-28-18t-10 11z"/><glyph unicode="î" glyph-name="icircumflex" horiz-adv-x="279" d="M32-3l-5 3-5 10q0 13 20 18 25 6 35 13t10 24v217q0 32-10 48t-34 20q-5 1-8 5t-3 11q0 13 11 15 66 15 138 55 14 7 18 7 11 0 11-10l-3-34q-8-64-8-108V66q0-15 9-22t36-16q11-4 16-7t5-11q0-12-18-12-19 0-55 2-32 2-50 2-16 0-48-2-25-3-54-3-8 0-13 3zm372 666l6-7 15-24q22-34 48-80t36-67q3-7 3-14 0-16-13-16-11 0-37 28l-61 74q-3 3-4 3t-6-3l-62-74q-25-28-37-28-14 0-14 13 0 7 5 17 14 34 82 146 10 17 16 24t15 8q8 0 14-7z"/><glyph unicode="ï" glyph-name="idieresis" horiz-adv-x="279" d="M32-3l-5 3-5 10q0 13 20 18 25 6 35 13t10 24v217q0 32-10 48t-34 20q-5 1-8 5t-3 11q0 13 11 15 66 15 138 55 14 7 18 7 11 0 11-10l-3-34q-8-64-8-108V66q0-15 9-22t36-16q11-4 16-7t5-11q0-12-18-12-19 0-55 2-32 2-50 2-16 0-48-2-25-3-54-3-8 0-13 3zm241 502l-19 19-19 45q0 27 19 46t45 19q27 0 46-19t20-46q0-25-19-44t-47-20q-26 0-45 19zm189 0l-19 19-20 45q0 27 19 46t45 19q27 0 47-19t20-46q0-25-20-44t-47-20q-25 0-44 19z"/><glyph unicode="ð" glyph-name="eth" horiz-adv-x="505" d="M182-14l-50 26-80 74-30 106q0 63 32 117t87 86 123 32q27 0 49-12 7-3 6 6-9 33-22 67t-27 56l-135-70q-3-2-8-2-6 0-10 4t-4 9q0 29 17 37l113 59q-64 71-149 90-28 5-28 19t37 14q54 0 110-22t106-62l105 55q8 4 15 4 14 0 14-11 0-14-5-23t-18-17l-74-39q54-58 86-143t33-196q0-62-27-123T367 26 241-14q-59 0-109 26zm122 41l25 50 26 147q0 32-7 64t-19 53q-37 42-84 42-46 0-73-47t-28-119q0-48 15-92t42-71 58-27q45 0 70 50z"/><glyph unicode="ñ" glyph-name="ntilde" horiz-adv-x="553" d="M34-3l-6 3-6 10q0 8 5 11t18 8q21 6 30 13t10 25v224q0 26-7 41t-27 20q-10 4-10 17 0 12 9 15 73 17 130 50 2 1 7 4t9 4q8 0 8-11l-2-21q-3-36-3-38 0-12 2-14 36 34 72 51t81 17q52 0 86-39t34-103V66q0-18 9-24t30-13q10-4 16-8t6-12q0-6-6-9t-13-3q-29 0-52 3-28 2-45 2-16 0-46-2-22-3-52-3-6 0-11 3t-6 9q0 13 20 20 20 6 29 12t9 25v203q0 40-19 63t-53 23q-47 0-86-31-8-5-8-20V66q0-18 9-24t29-13q21-6 21-19 0-6-5-9t-13-4q-28 0-51 3-28 2-44 2-15 0-47-2-24-3-53-3-8 0-14 3zm114 466l-7 6-7 12q0 6 20 33t42 50 33 23q12 0 27-3l36-4q52-4 63-4 19 0 37 20 4 5 13 15t12 11q6 0 13-6t8-13q0-3-6-11t-15-18l-26-35-19-27q-9-14-30-14l-55 3q-50 5-79 5-12 0-28-16-9-12-16-19t-10-8q-6 0-13 6z"/><glyph unicode="ò" glyph-name="ograve" horiz-adv-x="501" d="M178-14l-48 26-75 74-28 107q0 61 30 115t84 86 116 33q59 0 108-28t79-76 29-103q0-64-27-117t-80-85-130-32q-58 0-106 26zm131 39l23 41q21 38 21 130 0 52-14 95t-39 70-59 26q-40 0-63-27-18-20-24-55t-7-88q0-49 14-93t40-71 55-28q53 0 76 41zm-30 429l-18 18q-53 53-121 137-10 13-10 23 0 11 16 17t40 6q14 0 23-5t16-18q13-23 36-71t34-75q4-12 4-21 0-11-10-11t-28 18z"/><glyph unicode="ó" glyph-name="oacute" horiz-adv-x="501" d="M178-14l-48 26-75 74-28 107q0 61 30 115t84 86 116 33q59 0 108-28t79-76 29-103q0-64-27-117t-80-85-130-32q-58 0-106 26zm131 39l23 41q21 38 21 130 0 52-14 95t-39 70-59 26q-40 0-63-27-18-20-24-55t-7-88q0-49 14-93t40-71 55-28q53 0 76 41zm-87 429v11q0 9 4 21 11 26 34 74t36 72q7 13 16 18t23 5q24 0 40-6t16-17q0-10-10-23-68-84-121-137-18-18-28-18t-10 11z"/><glyph unicode="ô" glyph-name="ocircumflex" horiz-adv-x="501" d="M178-14l-48 26-75 74-28 107q0 61 30 115t84 86 116 33q59 0 108-28t79-76 29-103q0-64-27-117t-80-85-130-32q-58 0-106 26zm131 39l23 41q21 38 21 130 0 52-14 95t-39 70-59 26q-40 0-63-27-18-20-24-55t-7-88q0-49 14-93t40-71 55-28q53 0 76 41zm-43 638l6-7 15-24q22-34 48-80t36-67q3-7 3-14 0-16-13-16-11 0-37 28l-61 74q-3 3-4 3t-6-3l-62-74q-25-28-37-28-14 0-14 13 0 7 5 17 14 34 82 146 10 17 16 24t15 8q8 0 14-7z"/><glyph unicode="õ" glyph-name="otilde" horiz-adv-x="501" d="M178-14l-48 26-75 74-28 107q0 61 30 115t84 86 116 33q59 0 108-28t79-76 29-103q0-64-27-117t-80-85-130-32q-58 0-106 26zm131 39l23 41q21 38 21 130 0 52-14 95t-39 70-59 26q-40 0-63-27-18-20-24-55t-7-88q0-49 14-93t40-71 55-28q53 0 76 41zM119 463l-7 6-7 12q0 6 20 33t42 50 33 23q12 0 27-3l36-4q52-4 63-4 19 0 37 20 4 5 13 15t12 11q6 0 13-6t8-13q0-3-6-11t-15-18l-26-35-19-27q-9-14-30-14l-55 3q-50 5-79 5-12 0-28-16-9-12-16-19t-10-8q-6 0-13 6z"/><glyph unicode="ö" glyph-name="odieresis" horiz-adv-x="501" d="M178-14l-48 26-75 74-28 107q0 61 30 115t84 86 116 33q59 0 108-28t79-76 29-103q0-64-27-117t-80-85-130-32q-58 0-106 26zm131 39l23 41q21 38 21 130 0 52-14 95t-39 70-59 26q-40 0-63-27-18-20-24-55t-7-88q0-49 14-93t40-71 55-28q53 0 76 41zM135 499l-19 19-19 45q0 27 19 46t45 19q27 0 46-19t20-46q0-25-19-44t-47-20q-26 0-45 19zm189 0l-19 19-20 45q0 27 19 46t45 19q27 0 47-19t20-46q0-25-20-44t-47-20q-25 0-44 19z"/><glyph unicode="÷" glyph-name="divide" horiz-adv-x="597" d="M275 350l-18 18-19 44q0 26 18 44t44 19q26 0 44-18t19-45q0-26-18-44t-45-18q-25 0-43 18zM59 246l-5 4-6 8q0 12 7 27t22 16h453q8 0 14-3t6-9q0-15-10-29t-24-14H65q-6 0-11 4zM276 65l-18 18-19 44q0 26 18 44t44 19q26 0 44-18t19-45q0-26-18-44t-45-18q-25 0-43 18z"/><glyph unicode="ø" glyph-name="oslash" horiz-adv-x="495" d="M429 344q44-55 44-124 0-64-27-117t-80-85-130-32q-74 0-130 42L70-7q-10-8-18-8-11 0-20 6T23 7q0 17 12 27l33 32q-41 54-41 127 0 61 30 115t84 86 116 33q79 0 139-49l45 42q7 7 17 7 17 0 17-20 0-8-4-17t-10-15l-32-31zM147 183l8-35 175 167q-15 33-38 52t-51 20q-40 0-63-27-18-20-24-55t-7-88q0-34 8-69zm206 51l-7 29L173 94q16-32 37-50t46-19q53 0 76 41 21 38 21 130 0 38-7 67z"/><glyph unicode="ù" glyph-name="ugrave" horiz-adv-x="543" d="M345-20v9l2 31q3 18 3 32l-1 9q-31-35-73-55t-87-21q-49 0-80 37t-32 97v192q0 24-9 37t-32 20q-15 2-15 17 0 16 15 18 36 2 64 6t67 14q10 4 16 4 13 0 12-14-7-43-7-77V143q0-36 20-60t49-25q44 0 68 22 10 8 19 25t9 41v168q0 26-17 39t-41 15q-23 2-23 21 0 9 6 13t17 5q64 3 94 6t59 12l12 2q15 0 15-11 0-2-4-14-2-11-4-34t-3-35V101q0-42 18-42l34 1q18 0 18-17 0-9-3-13t-13-6q-64-6-141-38-16-6-24-6t-8 9zm-51 474l-18 18q-53 53-121 137-10 13-10 23 0 11 16 17t40 6q14 0 23-5t16-18q13-23 36-71t34-75q4-12 4-21 0-11-10-11t-28 18z"/><glyph unicode="ú" glyph-name="uacute" horiz-adv-x="543" d="M345-20v9l2 31q3 18 3 32l-1 9q-31-35-73-55t-87-21q-49 0-80 37t-32 97v192q0 24-9 37t-32 20q-15 2-15 17 0 16 15 18 36 2 64 6t67 14q10 4 16 4 13 0 12-14-7-43-7-77V143q0-36 20-60t49-25q44 0 68 22 10 8 19 25t9 41v168q0 26-17 39t-41 15q-23 2-23 21 0 9 6 13t17 5q64 3 94 6t59 12l12 2q15 0 15-11 0-2-4-14-2-11-4-34t-3-35V101q0-42 18-42l34 1q18 0 18-17 0-9-3-13t-13-6q-64-6-141-38-16-6-24-6t-8 9zM237 454v11q0 9 4 21 11 26 34 74t36 72q7 13 16 18t23 5q24 0 40-6t16-17q0-10-10-23-68-84-121-137-18-18-28-18t-10 11z"/><glyph unicode="û" glyph-name="ucircumflex" horiz-adv-x="543" d="M345-20v9l2 31q3 18 3 32l-1 9q-31-35-73-55t-87-21q-49 0-80 37t-32 97v192q0 24-9 37t-32 20q-15 2-15 17 0 16 15 18 36 2 64 6t67 14q10 4 16 4 13 0 12-14-7-43-7-77V143q0-36 20-60t49-25q44 0 68 22 10 8 19 25t9 41v168q0 26-17 39t-41 15q-23 2-23 21 0 9 6 13t17 5q64 3 94 6t59 12l12 2q15 0 15-11 0-2-4-14-2-11-4-34t-3-35V101q0-42 18-42l34 1q18 0 18-17 0-9-3-13t-13-6q-64-6-141-38-16-6-24-6t-8 9zm-64 683l6-7 15-24q22-34 48-80t36-67q3-7 3-14 0-16-13-16-11 0-37 28l-61 74q-3 3-4 3t-6-3l-62-74q-25-28-37-28-14 0-14 13 0 7 5 17 14 34 82 146 10 17 16 24t15 8q8 0 14-7z"/><glyph unicode="ü" glyph-name="udieresis" horiz-adv-x="543" d="M345-20v9l2 31q3 18 3 32l-1 9q-31-35-73-55t-87-21q-49 0-80 37t-32 97v192q0 24-9 37t-32 20q-15 2-15 17 0 16 15 18 36 2 64 6t67 14q10 4 16 4 13 0 12-14-7-43-7-77V143q0-36 20-60t49-25q44 0 68 22 10 8 19 25t9 41v168q0 26-17 39t-41 15q-23 2-23 21 0 9 6 13t17 5q64 3 94 6t59 12l12 2q15 0 15-11 0-2-4-14-2-11-4-34t-3-35V101q0-42 18-42l34 1q18 0 18-17 0-9-3-13t-13-6q-64-6-141-38-16-6-24-6t-8 9zM150 499l-19 19-19 45q0 27 19 46t45 19q27 0 46-19t20-46q0-25-19-44t-47-20q-26 0-45 19zm189 0l-19 19-20 45q0 27 19 46t45 19q27 0 47-19t20-46q0-25-20-44t-47-20q-25 0-44 19z"/><glyph unicode="ý" glyph-name="yacute" horiz-adv-x="467" d="M53-284l-20 16-21 40q0 21 10 37t28 16q13 0 28-5 18-4 26-4 13 0 19 4t13 18q32 55 61 125 9 19 9 40 0 17-10 43L75 331q-10 23-21 36t-27 19q-11 4-15 8t-5 12q0 11 22 11 26 0 54-2 22-2 35-2 18 0 46 2t52 2q9 0 16-3t7-10q0-7-7-11t-19-9q-11-4-16-12t-6-24q0-12 10-40l69-167q1-4 4-4 2 0 3 4l57 163q8 20 8 38 0 31-27 41-13 6-19 10t-6 11q0 7 7 10t15 3q15 0 39-2 20-2 33-2 12 0 32 2 18 2 33 2 23 0 23-11 0-8-4-12t-16-8q-17-5-33-22t-26-41L249-25l-87-206q-11-26-33-39t-51-14q-25 0-45 16zm178 738v11q0 9 4 21 11 26 34 74t36 72q7 13 16 18t23 5q24 0 40-6t16-17q0-10-10-23-68-84-121-137-18-18-28-18t-10 11z"/><glyph unicode="þ" glyph-name="thorn" horiz-adv-x="534" d="M29-270l-7 3-7 10q0 11 23 19 22 7 32 14t10 25v754q0 63-42 72-5 1-7 5t-3 10q0 12 9 14 44 10 90 27t52 20l8 2q9 0 9-10 0-7-2-32t-4-59l1-203q0-34 1-43 24 21 69 42t84 22q50 0 88-27t58-72 21-95q0-61-31-117t-83-92-115-36q-18 0-45 7T194 8q-2 0-3-11t-1-18v-172q0-20 10-28t37-17q22-7 22-19 0-6-5-9t-14-4q-30 0-55 3-34 2-50 2t-46-2q-24-3-52-3-8 0-15 3zM305 25l25 17 43 55 19 97q0 97-35 132t-76 35q-39 0-70-28-20-18-20-68V119q0-18 4-38t15-32q10-10 30-17t46-7q19 0 44 17z"/><glyph unicode="ÿ" glyph-name="ydieresis" horiz-adv-x="467" d="M53-284l-20 16-21 40q0 21 10 37t28 16q13 0 28-5 18-4 26-4 13 0 19 4t13 18q32 55 61 125 9 19 9 40 0 17-10 43L75 331q-10 23-21 36t-27 19q-11 4-15 8t-5 12q0 11 22 11 26 0 54-2 22-2 35-2 18 0 46 2t52 2q9 0 16-3t7-10q0-7-7-11t-19-9q-11-4-16-12t-6-24q0-12 10-40l69-167q1-4 4-4 2 0 3 4l57 163q8 20 8 38 0 31-27 41-13 6-19 10t-6 11q0 7 7 10t15 3q15 0 39-2 20-2 33-2 12 0 32 2 18 2 33 2 23 0 23-11 0-8-4-12t-16-8q-17-5-33-22t-26-41L249-25l-87-206q-11-26-33-39t-51-14q-25 0-45 16zm91 783l-19 19-19 45q0 27 19 46t45 19q27 0 46-19t20-46q0-25-19-44t-47-20q-26 0-45 19zm189 0l-19 19-20 45q0 27 19 46t45 19q27 0 47-19t20-46q0-25-20-44t-47-20q-25 0-44 19z"/><glyph unicode="–" glyph-name="endash" horiz-adv-x="605" d="M51 183l-4 4-5 9q0 13 6 29t21 16h475q8 0 13-4t6-11q0-14-10-28t-22-15H57q-6 0-10 4z"/><glyph unicode="—" glyph-name="emdash" horiz-adv-x="957" d="M43 183l-4 4-5 9q0 13 6 29t20 16h844q8 0 13-4t6-11q0-14-10-28t-23-15H49q-6 0-10 4z"/><glyph unicode="‘" glyph-name="quoteleft" horiz-adv-x="240" d="M196 696l6-4 7-11q0-6-4-9t-16-5q-40-11-64-35t-25-61q0-15 12-27t29-17q20-4 32-17t12-35q0-23-20-40t-45-17q-42 0-68 28t-27 74q0 50 24 90t63 63 74 23q10 0 16-4z"/><glyph unicode="’" glyph-name="quoteright" horiz-adv-x="240" d="M43 414l-6 4-7 11q0 6 4 9t16 5q40 11 64 35t25 61q0 15-12 27t-29 17q-20 4-32 17t-12 35q0 23 20 40t45 17q42 0 68-28t27-74q0-50-24-90t-63-63-74-23q-10 0-16 4z"/><glyph unicode="‚" glyph-name="quotesinglbase" horiz-adv-x="240" d="M43-159l-6 4-7 11q0 6 4 9t16 5q40 11 64 35t25 61q0 15-12 27T98 10q-20 4-32 17T54 62q0 23 20 40t45 17q42 0 68-28t27-74q0-50-24-90t-63-63-74-23q-10 0-16 4z"/><glyph unicode="“" glyph-name="quotedblleft" horiz-adv-x="432" d="M395 697l6-4 7-11q0-6-4-9t-16-5q-40-11-64-35t-25-61q0-15 12-27t29-17q20-4 32-17t12-35q0-23-20-40t-45-17q-42 0-68 28t-27 74q0 50 24 90t63 63 74 23q10 0 16-4zm-193 0l6-4 7-11q0-6-4-9t-16-5q-40-11-64-35t-25-61q0-15 12-27t29-17q20-4 32-17t12-35q0-23-20-40t-45-17q-42 0-68 28t-27 74q0 50 24 90t63 63 74 23q10 0 16-4z"/><glyph unicode="”" glyph-name="quotedblright" horiz-adv-x="432" d="M43 414l-6 4-7 11q0 6 4 9t16 5q40 11 64 35t25 61q0 15-12 27t-29 17q-20 4-32 17t-12 35q0 23 20 40t45 17q42 0 68-28t27-74q0-50-24-90t-63-63-74-23q-10 0-16 4zm193 0l-6 4-7 11q0 6 4 9t16 5q40 11 64 35t25 61q0 15-12 27t-29 17q-20 4-32 17t-12 35q0 23 20 40t45 17q42 0 68-28t27-74q0-50-24-90t-63-63-74-23q-10 0-16 4z"/><glyph unicode="„" glyph-name="quotedblbase" horiz-adv-x="432" d="M43-159l-6 4-7 11q0 6 4 9t16 5q40 11 64 35t25 61q0 15-12 27T98 10q-20 4-32 17T54 62q0 23 20 40t45 17q42 0 68-28t27-74q0-50-24-90t-63-63-74-23q-10 0-16 4zm193 0l-6 4-7 11q0 6 4 9t16 5q40 11 64 35t25 61q0 15-12 27t-29 17q-20 4-32 17t-12 35q0 23 20 40t45 17q42 0 68-28t27-74q0-50-24-90t-63-63-74-23q-10 0-16 4z"/><glyph unicode="•" glyph-name="bullet" horiz-adv-x="365" d="M144 213l-33 19-52 52-19 72q0 39 19 72t52 52 72 19q39 0 72-19t52-52 19-72q0-39-19-72t-52-52-72-19q-39 0-72 19z"/><glyph unicode="‹" glyph-name="guilsinglleft" horiz-adv-x="376" d="M304 17l-19 19q-57 53-101 83T76 180q-12 6-18 16t-6 19q0 10 8 13 88 53 130 83t97 82q2 1 12 10t21 10q3 0 5-3t2-7q0-5-6-17-42-63-72-94t-73-69q-7-7-7-8t7-8q42-36 72-68t73-97q5-7 5-13 0-5-2-8t-6-4q-14 0-33 19z"/><glyph unicode="›" glyph-name="guilsinglright" horiz-adv-x="376" d="M72 17l19 19q57 53 101 83t108 61q12 6 18 16t6 19q0 10-8 13-88 53-130 83t-97 82q-2 1-12 10t-21 10q-3 0-5-3t-2-7q0-5 6-17 42-63 72-94t73-69q7-7 7-8t-7-8q-42-36-72-68T55 42q-5-7-5-13 0-5 2-8t6-4q14 0 33 19z"/></font>
</defs>
</svg>
