<svg xmlns="http://www.w3.org/2000/svg"><defs><font id="EBGaramond" horiz-adv-x="522"><font-face font-family="EB Garamond" panose-1="0 0 5 0 0 0 0 0 0 0" ascent="1007" descent="-298" alphabetic="0"/><glyph glyph-name="space" horiz-adv-x="200"/><glyph unicode="!" glyph-name="exclam" horiz-adv-x="287" d="M135 205v14q0 9 3 25 17 79 42 187t35 143q10 33 28 54t38 21q14 0 22-12t8-31q0-18-5-32-9-31-100-251l-32-79q-16-39-30-39-9 0-9 14zM64-14L50 1 36 38q0 28 21 48t51 20q21 0 35-15t14-37q0-28-21-48T85-14Q64-14 50 1z"/><glyph unicode="&quot;" glyph-name="quotedbl" horiz-adv-x="330" d="M147 444v5q0 6 4 18l16 48q15 44 28 104 2 10 10 20t18 16q19 12 28 16t19 5q7 0 7-10 0-16-12-42-20-45-40-78t-49-77q-6-9-14-17t-12-8q-3 0-3 5zm130 0v5q0 6 4 18l16 48q15 44 28 104 2 10 10 20t18 16q19 12 28 16t19 5q7 0 7-10 0-16-12-42-20-45-40-78t-49-77q-6-9-14-17t-12-8q-3 0-3 5z"/><glyph unicode="#" glyph-name="numbersign" horiz-adv-x="449" d="M-25-88l-2 3-1 9 1 3 88 177-60-3q-5 0-8 3t-2 9q1 12 11 29t24 19l65 3 66 138-61-3q-5 0-8 3t-3 9q1 11 11 29t24 19l69 3 83 171q9 17 42 17 5 0 5-12 0-1-1-2t-1-3l-82-169 109 6 85 174q9 17 40 17 4 0 6-4t0-8l-2-5-82-172 56 3q12 0 10-11-1-11-14-29t-28-20l-54-3-67-138 59 3q5 0 8-3t2-9q-1-10-14-28t-29-20l-55-3-85-176q-7-15-37-15-4 0-6 3t-1 9l1 3 84 174-113-6L19-73q-8-15-39-15-5 0-7 3zm275 260l65 138-111-6-67-138 113 6z"/><glyph unicode="$" glyph-name="dollar" horiz-adv-x="483" d="M540 645l3-5 3-11q0-1-13-23t-27-108q-2-14-7-23t-9-9q-8 0-10 6t-3 20q0 47-16 79t-45 49L309 365l14-13q54-47 78-86t24-82q0-56-27-101t-81-71-128-27q-19 0-40 3l-28-68q-3-8-11-11t-17-4q-6 0-9 4t-1 11l31 74Q96-1 82 4 51 16 47 16q-7 0-21-6-3-2-10-6T5 0Q0 0-7 6t-8 13q0 2 9 27 30 69 39 125 2 11 5 15t12 5q8 0 10-8t2-31q0-44 16-77t50-48l118 280q-48 43-71 82t-24 93q0 52 28 93t78 65 111 24q9 0 27-2l21 50q8 17 32 17 5 0 7-5t0-12l-24-58q3 0 9-2 15-4 28-9 21-8 28-8 12 0 20 5t17 5q7 0 10-5zm-157-12q-18 2-27 2-35 0-65-19t-47-50-18-60q0-31 13-57t42-57l102 241zm-44-444l-14 28-52 65L162 17q14-2 24-2 44 0 79 18t54 50 20 70q0 36-14 64z"/><glyph unicode="%" glyph-name="percent" horiz-adv-x="644" d="M125 263l-22 31-23 81q0 35 12 74 12 40 39 78t64 63 76 25q39 0 60-28t21-75q0-35-12-73-21-70-68-123t-106-53q-41 0-63 31zm87 22l26 43 46 109q19 61 19 98 0 55-43 55-39 0-66-41t-46-100q-22-70-22-108 0-56 45-56 41 0 67 43zM40-29l-4 5v10l606 668q9 10 17 13t20 4q10 0 13-5t-1-12L85-14Q72-29 47-29q-7 0-11 5zm361 12l-22 31-23 81q0 35 12 74 12 40 39 78t64 63 76 25q39 0 60-28t21-75q0-35-12-73-21-70-68-123T442-17q-41 0-63 31zm87 22l26 43 46 109q19 61 19 98 0 55-43 55-39 0-66-41t-46-100q-22-70-22-108 0-56 45-56 41 0 67 43z"/><glyph unicode="&amp;" glyph-name="ampersand" horiz-adv-x="822" d="M724 459l-3-3 1-10q19-34 27-67t8-79q0-91-44-163T591 25 413-15q-94 0-167 33t-115 94-41 137q0 60 18 109t52 85q-13 44-13 91 0 50 26 92t69 67 94 25q46 0 73-22t27-60q0-20-12-32t-32-13q-11 0-21 9t-11 21q0 17-10 27t-28 10q-51 0-87-37t-36-96q0-26 3-49 40 23 88 23 49-1 79-23t30-60q0-38-28-63t-72-25q-39 0-70 20t-52 57q-31-46-31-116 0-97 68-159t222-62q91 0 155 35t96 93 32 126q0 136-124 136-33 0-52-18t-19-49q0-21 9-34t30-14q9 0 14 4t11 14q7 12 13 18t18 6q21 0 32-11t11-29q0-23-17-41t-44-19q-52 0-83 29t-32 77q0 36 21 67t56 49 78 19l87 1q141 2 141 103 0 26-15 42t-37 17q-8 0-13-5t-6-13q0-17 15-21 7-2 11-9t4-14q0-14-12-24t-29-10q-24 0-39 15t-15 39q0 29 25 49t64 20q40 0 64-30t24-79q0-68-48-108t-130-40q-8 0-11-3zm-481 5l-34-24q21-72 88-72 27 0 43 14t16 37q0 20-19 32t-50 13q-44 0-78-24z"/><glyph unicode="'" glyph-name="quotesingle" horiz-adv-x="200" d="M147 444v5q0 6 4 18l16 48q15 44 28 104 2 10 10 20t18 16q19 12 28 16t19 5q7 0 7-10 0-16-12-42-20-45-40-78t-49-77q-6-9-14-17t-12-8q-3 0-3 5z"/><glyph unicode="(" glyph-name="parenleft" horiz-adv-x="308" d="M110-216l-11 10-19 29Q30-46 30 72q0 174 91 335t248 286q15 12 29 12 10 0 10-6 0-9-14-23-131-139-212-287T101 89q0-108 4-164t26-119q2-6 2-9 0-13-11-13-12 0-23 10z"/><glyph unicode=")" glyph-name="parenright" horiz-adv-x="309" d="M227 708l11-10 19-29q50-131 50-249 0-174-91-335T-32-201q-15-12-29-12-10 0-10 6 0 9 14 23Q74-45 155 103t81 300q0 108-4 164t-26 119q-2 6-2 9 0 13 11 13 12 0 23-10z"/><glyph unicode="*" glyph-name="asterisk" horiz-adv-x="339" d="M201 378v15q0 7 1 11 1 9 10 43t13 46q-41-7-97-9-19 0-19 10 0 11 19 16 19 6 47 14t41 11q-13 15-53 74-5 7-5 15 0 7 2 9t7 3q4 0 10-4t9-7q46-44 63-63 5 16 25 60l11 25q9 17 17 17 7 0 8-5t2-14q0-5-8-37t-16-59q18 3 50 6t47 3q7 0 13-3t6-10q0-10-19-15-11-2-44-11l-44-12q24-29 52-70 3-4 5-10t3-10q0-12-10-12-4 0-10 3t-9 7l-36 37q-15 13-28 28-7-21-35-85-8-17-18-17t-10 15z"/><glyph unicode="+" glyph-name="plus" horiz-adv-x="590" d="M278-8l-4 4-4 10v211q0 5-4 5H64q-5 0-9 3t-5 9q0 11 6 24t18 14h189q4 0 5 1t2 7v171q0 14 18 22t28 9q5 0 9-4t5-9V273q0-1 2-1t2 0h203q6 0 10-4t3-10q-6-18-12-27t-19-9H334q-4 0-4-4V16q0-13-17-18t-31-6q-4 0-8 4z"/><glyph unicode="," glyph-name="comma" horiz-adv-x="215" d="M-38-129q-12 0-12 6 0 3 4 6t10 5 11 6q44 23 67 52T66 6q0 15-8 23T34 44q-15 8-22 15T4 80q0 17 17 28t38 12q29 0 47-18t19-52q0-47-25-88t-63-66-69-25h-6z"/><glyph unicode="-" glyph-name="hyphen" horiz-adv-x="268" d="M37 170q-4 0-7 4t-3 10q0 15 11 30t21 16l183 25h3q5 0 5-8 0-18-10-34t-26-18L38 170h-1z"/><glyph unicode="." glyph-name="period" horiz-adv-x="215" d="M30-14L17 1 4 36q0 27 19 46t46 19q19 0 32-15t13-35q0-27-19-46T49-14Q30-14 17 1z"/><glyph unicode="/" glyph-name="slash" horiz-adv-x="276" d="M-51-62l-4 5-1 10 402 695q6 10 16 13t25 4q5 0 7-6t0-11L-8-47q-5-9-14-12t-24-3q-5 0-9 5z"/><glyph unicode="0" glyph-name="zero" horiz-adv-x="480" d="M127-14L99 30 71 147q0 74 25 155t68 156 103 123 124 49q58 0 86-45t28-118q0-71-24-151-25-81-69-156T309 35 185-14q-58 0-86 44zm100 26l39 39 75 105 59 142q35 115 35 198 0 50-14 78t-43 29q-53 0-107-82t-92-201q-18-57-28-113t-10-99q0-96 50-96 36 0 75 39z"/><glyph unicode="1" glyph-name="one" horiz-adv-x="480" d="M40-3l-4 2-4 7q0 12 19 16 59 12 93 29t46 52l116 374q3 11 3 20 0 21-18 30t-58 16q-6 1-10 4t-5 9q0 8 7 12t16 6q58 5 168 59 8 4 13 4 4 0 6-2t2-7q-11-25-26-71L259 86q-3-9-3-17 0-17 14-24t46-15q8-2 15-4t15-4q11-4 11-12 0-5-5-9t-11-4q-40 0-78 3-46 2-66 2-38 0-76-3-52-2-77-2-4 0-8 2z"/><glyph unicode="2" glyph-name="two" horiz-adv-x="480" d="M312 0q-44 3-80 3-58 0-104-1T18-2q-5 0-8 4T6 14q0 8 7 14l213 177q81 67 134 139t54 137q0 84-88 84-34 0-71-22t-67-63q-4-6-10-10t-10-4q-3 0-5 4t-2 10q0 7 3 11 30 44 84 91t123 48q59 0 94-33t35-86q0-107-130-221-43-38-147-122T105 76q-4-3-4-5t4-4 9-3q30-3 86-3 55 0 106 3 28 2 41 5t22 11 30 31q9 11 15 16t16 7q5 1 8-6t1-13q-15-23-29-43-6-8-11-18t-16-33Q372-3 359-3l-47 3z"/><glyph unicode="3" glyph-name="three" horiz-adv-x="480" d="M47-38L30-28 13-1q0 18 6 30t21 12q6 0 17-5t21-13q16-11 30-17t31-6q58 0 103 29t71 79 26 106q0 40-17 65t-53 25q-36 0-65-15-2-1-5-1-8 0-8 9 0 11 12 21t26 14q36 11 74 35t64 60 26 74q0 31-18 50t-47 20q-42 0-70-16t-57-57q-2-3-4-7t-5-7-8-2q-4 0-11 10t-8 19q0 20 35 48t83 50 82 21q48 0 82-26t34-69q0-49-43-95t-106-77q-3-2-4-4t3-3q46-8 74-37t28-82q0-61-45-123T271 10q-42-24-91-36T83-38q-36 0-53 10z"/><glyph unicode="4" glyph-name="four" horiz-adv-x="480" d="M120-3l-4 2-4 6q0 7 6 11t14 6q52 5 73 17t30 37l28 93q1 2 1 6 0 7-11 7-52 0-106-3-41-2-122-4-4 0-5 5t1 8l27 25 23 22 363 379q26 28 37 28h18l2-1q0-2-4-6t-5-7L113 240q-3-3-4-6t1-3h161q4 0 8 2t5 6l57 185q3 11 5 15t10 7q14 7 30 10t26 3q8 0 8-11 0-12-13-53l-49-159q-1-2 0-4t3-2q14-1 36-1 14 0 56 2 5 0 7-2t1-7q-6-13-16-25t-15-12l-46 1q-13 0-29-2-13-1-15-10l-26-89q-5-18-5-27 0-16 13-24t44-12q6-1 9-4t4-10q0-4-6-7t-15-4q-37 0-61 3-30 2-50 2-24 0-60-2-28-3-63-3-4 0-8 2z"/><glyph unicode="5" glyph-name="five" horiz-adv-x="480" d="M52-38L39-24 25 9q0 11 4 18t11 8q10 0 27-11Q86 12 96 9q19-8 51-8 40 0 86 19t79 63 33 110q0 36-17 62t-48 46-87 49q-20 10-27 18t-8 19q0 5 3 14 11 36 67 121l21 34q10 15 20 22t25 12q80 21 209 37 10 0 10-10 0-7-11-25t-27-34-27-17q-71-4-61-4-92-6-118-10-8-1-31-31t-32-48q-3-4-3-9 0-6 10-10 73-31 115-56t70-60 27-87q0-71-53-132T237-2 80-38q-28 0-41 14z"/><glyph unicode="6" glyph-name="six" horiz-adv-x="480" d="M114-14L79 19l-33 88q4 113 81 224t194 194 239 114h5q6 0 6-5 0-7-11-12-98-36-199-120T195 317t-65-183q0-53 25-82t72-30q35 0 67 25t50 64 17 76q0 37-18 56t-49 19q-31 0-69-22-4-3-7-3t-3 2q0 3 7 12 25 28 63 49t66 22q41 0 67-29t28-69q0-66-41-120T304 18 189-14q-75 0-110 33z"/><glyph unicode="7" glyph-name="seven" horiz-adv-x="480" d="M32-32v15q0 3 2 11 1 3 14 19t18 22l430 506 2 2q1 1 1 4t-9 4H263q-55 0-84-40-4-6-14-12t-16-7q-7 0-7 10 0 11 6 20 28 47 41 88 5 11 13 11l20-1 37-3q27-1 111-1 176 0 208 5 4 0 7-5t2-9q-31-40-56-69L73-5Q51-32 47-32q-15 0-15 15z"/><glyph unicode="8" glyph-name="eight" horiz-adv-x="480" d="M122-14L84 22l-38 91q0 41 15 72t58 62 122 62q5 1 5 4 0 2-3 5t-4 5q-6 9-12 16t-10 14q-25 33-35 55t-11 54q1 35 28 74t73 67 99 27q62 0 96-32t35-77q0-26-10-48t-39-47-82-62l-32-20q-9-6-9-9 0-4 4-8 36-41 52-63t28-48 11-60q0-46-29-85T312 9 186-14q-64 0-102 36zm253 406l28 49 28 92q-1 34-20 53t-53 20q-29 0-56-17t-45-45-18-55q0-29 16-58t50-70q7-7 11-7 5 0 10 4 49 34 77 83zM263 15l40 34 40 95q0 35-16 66t-54 75q-8 10-15 10-4 0-13-6-53-35-79-60t-37-52-10-64q0-41 22-69t59-29q63 0 103 34z"/><glyph unicode="9" glyph-name="nine" horiz-adv-x="480" d="M-5-31v10q0 5 5 8t13 4q80 0 180 81t170 193 71 200q0 54-21 91t-58 37q-32 0-62-22t-50-58-19-70q0-36 18-61t46-25q20 0 33 4t27 11 22 11q3 1 5 0t2-3q0-2-1-5t-2-6q-16-21-39-35-19-12-46-24t-50-12q-40 0-69 29t-30 69q0 51 40 105t101 91 116 37q52 0 86-46t34-112q0-99-84-218T228 52 6-31Q-5-31-5-21z"/><glyph unicode=":" glyph-name="colon" horiz-adv-x="216" d="M116 262l-13 15-13 35q0 27 19 46t46 19q19 0 32-15t13-35q0-27-19-46t-46-19q-19 0-32 15zM31-14L18 1 5 36q0 27 19 46t46 19q19 0 32-15t13-35q0-27-19-46T50-14Q31-14 18 1z"/><glyph unicode=";" glyph-name="semicolon" horiz-adv-x="215" d="M-38-129q-12 0-12 6 0 3 4 6t10 5 11 6q44 23 67 52T66 6q0 15-8 23T34 44q-15 8-22 15T4 80q0 17 17 28t38 12q29 0 47-18t19-52q0-47-25-88t-63-66-69-25h-6zm154 391l-13 15-13 35q0 27 19 46t46 19q19 0 32-15t13-35q0-27-19-46t-46-19q-19 0-32 15z"/><glyph unicode="&lt;" glyph-name="less" horiz-adv-x="590" d="M94 195q-41 19-41 27 0 9 10 24t23 22l430 198q3 2 10 2 11 0 11-14t-8-26-24-20L132 234q-2-1-2-2t3-3L513 55q12-6 18-20t6-24q0-8-5-12t-12-3L94 195z"/><glyph unicode="=" glyph-name="equal" horiz-adv-x="590" d="M76 314l-4 4-5 8q0 11 6 24t18 14h453q5 0 9-3t5-8q0-11-10-25t-22-14H81q-5 0-9 4zm0-171l-4 4-5 8q0 11 6 24t18 14h453q5 0 9-3t5-8q0-14-10-26t-22-13H81q-5 0-9 4z"/><glyph unicode="&gt;" glyph-name="greater" horiz-adv-x="590" d="M72-5h-5Q54-5 54 13q0 10 8 23t23 19l373 174q2 1 2 2t-3 3L77 408q-12 6-18 21t-6 27q0 4 3 8t8 5l3-1 429-200q41-19 41-27 0-9-10-24t-23-22L78-2q-6-3-11-3z"/><glyph unicode="?" glyph-name="question" horiz-adv-x="316" d="M147 176l-10 16-19 37-8 39q0 29 9 49t37 41 84 46q43 21 70 51t27 71q0 34-22 52t-60 19q-14 0-23-3t-11-5q-6-2-13-5t-14-4q-24 0-24 27 0 21 20 37t48 17q59 0 94-47t36-118q0-98-79-139l-88-45q-29-15-40-30t-11-41q0-15 6-37 5-13 5-22 0-6-11-6-3 0-13 16zM116-14L104 0 92 33q0 26 17 44t44 18q18 0 30-14t13-33q0-25-18-43t-44-19q-18 0-30 14z"/><glyph unicode="@" glyph-name="at" horiz-adv-x="761" d="M215-137l-61 30-92 81L32 91q0 97 55 194t153 159 223 63q81 0 141-33t92-84 32-102q0-60-31-119t-91-98-135-39q-49 0-47 56 0 7-4 7-3 0-10-4-28-18-53-31t-59-13q-50 0-76 26t-26 68q0 48 33 98t95 84 146 34q29 0 62-10 8-2 12-4t9-2q5 0 15 9t16 10q5 0 12-2t4-6q-24-34-39-64l-76-161q-9-18-9-32 0-21 24-21 51 0 92 31t65 79 23 99q0 50-27 93t-82 68-130 26q-81 0-164-49T140 289 86 109Q86-97 330-97q131 0 230 74 13 10 22 10 14 0 10-13-5-14-49-41t-108-49-129-21q-91 0-152 30zM345 81l14 5 36 17q12 7 22 17t20 32l55 114q10 23 10 34 0 14-14 20t-49 6q-53 0-92-26t-61-65-22-77q0-34 16-55t48-22q17 0 31 5z"/><glyph unicode="A" glyph-name="A" horiz-adv-x="658" d="M-60-5v15q0 6 7 10t27 9q80 21 131 79 76 84 141 165t147 189q-8-10 83 107l19 24q9 12 16 20t11 9q16 0 23 4t15 12 10 11q4 5 12 13t11 11 7 3q7 0 7-13 0-11-2-19L501 122q-5-22-5-44 0-23 9-35t31-18q19-5 25-8t7-10q0-12-31-12l-47 2q-48 4-74 4l-99-1q-24 0-24 14 0 6 8 11t20 7q34 6 52 13t28 23 18 44l31 119q4 14-4 20t-25 7l-112-2q-16 0-26-4t-17-14L163 102q-20-25-20-42 0-10 7-15t20-11q25-8 25-22 0-13-28-13-16 0-26 1L89 1Q66 1 48 0T18-2q-30-3-54-3t-24 15zm501 296q11 0 17 6t10 22l48 219q3 11 3 16 0 7-6 7-11 0-19-12L316 312q-8-12-8-14 0-8 26-8l107 1z"/><glyph unicode="B" glyph-name="B" horiz-adv-x="572" d="M-9-5l-5 2-6 9q0 7 8 11t28 7q39 7 62 24t34 51l137 450q7 25 7 34 0 17-11 25t-36 13q-16 3-21 6t-6 11q0 6 9 9t24 3q23 0 41-3 20-2 34-2 12 0 30 2t25 3q30 5 47 5 95 0 140-36t45-94q0-45-27-79t-69-54-83-26q-7-1-7-4t4-6q63-24 94-61t31-103q0-57-35-101t-96-70T252-4q-34 0-76 4-27 3-50 3T69-1Q33-5 4-5-9-5-14-3zm331 376l55 12q54 23 86 58t33 84q0 43-33 71t-90 29q-19 0-27-3t-11-13l-62-223q-1-2-1-6 0-9 13-9 37 0 92 12zM294 21l44 24 73 67 28 93q0 69-41 105t-124 36q-16 0-21-19l-64-219q-4-12-4-27 0-23 14-36 13-12 23-18t27-6q45 0 89 24z"/><glyph unicode="C" glyph-name="C" horiz-adv-x="631" d="M274-14l-59 32-98 90-39 132q0 117 56 214t150 154 201 57q57 0 111-19 10-3 28-9t29-7q5 0 21 8 3 1 10 4t13 3q10 0 10-8 0-5-3-8-19-26-40-68t-27-74q-1-7-7-13t-11-7q-8 0-12 8t-3 18q4 22 4 35 0 33-19 57-18 23-46 36t-61 13q-73 0-146-54T214 433t-48-201q0-76 28-124t72-69 91-22q48 0 80 15t54 41 45 66q6 9 11 14t12 5q4 0 5-4t2-16q0-10-15-46t-33-69-24-32q-4 0-10 5t-9 6q-11 9-21 9-8 0-41-11-40-14-83-14-56 0-115 32z"/><glyph unicode="D" glyph-name="D" horiz-adv-x="752" d="M274-5Q172 0 124 0q-16 0-44-2-24-3-60-3Q-4-5-4 6q0 7 9 12t27 6q30 1 47 9t26 23 18 43l150 461q2 5 2 14 0 21-19 29t-41 13-29 6q-14 3-19 7t-5 13q0 11 30 11 29 0 77-2 40-2 60-2 26 0 47 3 45 3 56 3 144 0 228-72t85-206q0-102-55-190T538 46 317-7l-43 2zm144 28l77 53 120 138 44 181q0 113-57 170t-160 57q-40 0-58-5t-24-14-13-32L211 141q-8-27-8-45 0-39 30-56t89-17q96 0 173 53z"/><glyph unicode="E" glyph-name="E" horiz-adv-x="576" d="M-32-5V6q0 12 36 18 49 8 70 24t33 51l137 450q7 21 7 36 0 19-14 27t-49 13q-15 2-20 6t-6 11q0 11 31 11 18 0 34-1 52-2 87-2h161q90 0 112 5t25 5q4 0 7-4t4-9q0-4-7-25-18-52-23-87-1-10-6-14t-11-5q-5 0-8 7t-3 18q1 8 1 21 0 34-13 47t-47 13H384q-23 0-33-6t-16-24l-67-212q-4-11-4-19 0-13 20-12l124 3q24 1 39 10t30 27l9 12q6 8 13 14t11 5q9 0 9-11 0-7-5-17-15-30-27-61-11-31-20-73-5-21-13-21-7 0-10 9t-3 18q0 56-38 56l-115 2q-21 0-32-5t-16-26l-51-182q-9-31-9-50t10-26 33-7h155q42 0 80 27 27 19 54 63 1 1 6 9t12 9q7 0 7-20 0-13-13-46t-26-52Q485-5 465-5q-18 0-210 3-79 3-143 3-33 0-59-3-8 0-25-1T-8-5Q-32-5-32 6z"/><glyph unicode="F" glyph-name="F" horiz-adv-x="509" d="M1-5l-5 2-6 9q0 7 8 11t28 7q37 7 55 22t29 53l137 450q6 18 6 30 0 19-12 28t-39 15q-25 5-25 20 0 11 31 11 16 0 30-1 46-2 79-2h159q74 0 106 6t35 6q5 0 6-2t2-8q0-5-5-22-19-62-23-90-2-17-17-17-11 0-11 23v19q0 15-2 25t-9 16q-12 12-37 12H377q-17 0-24-7t-15-23q-11-30-32-95t-37-119q-2-8-2-11 0-14 9-14l135 3q20 1 38 10t33 27q7 8 14 14t12 7q6 0 9-5t0-11q-17-38-26-65t-20-66q-3-8-5-12t-8-5q-7 0-11 8t-4 15q0 27-10 38t-27 13q-23 2-115 2-21 0-32-5t-16-26l-51-178q-8-29-8-42 0-22 14-31t47-16q15-3 20-6t5-12q0-11-30-11-27 0-61 4-6 0-19 1t-27 2q-16 0-33-1T76-1Q40-5 14-5 1-5-4-3z"/><glyph unicode="G" glyph-name="G" horiz-adv-x="687" d="M301-14l-69 30-110 90-41 148q0 114 57 207t156 148 220 54q46 0 97-19 14-6 27-10t25-5q6 0 13 4t10 5q12 7 20 7 10 0 10-8 0-5-3-8-19-26-40-68t-27-74q-2-10-7-16t-11-7q-16 0-16 20 0 6 1 9 3 14 3 28 0 39-20 64-15 21-40 35t-61 14q-89 0-164-58T213 423t-44-195q0-63 33-112t84-75 103-27q43 0 71 24t38 62l28 109q2 6 2 16t-4 16-16 9q-11 3-45 10-16 3-23 6t-8 9q0 7 9 11t23 4q32 0 59-3 7 0 24-1t34-2q12 0 24 1t19 2q20 3 42 3 9 0 15-4t6-10q0-6-8-11t-24-9q-23-4-35-13t-22-30q-13-27-24-68t-12-53q0-15 11-32-7-18-39-35T460-3t-71-11q-88 0-157 30z"/><glyph unicode="H" glyph-name="H" horiz-adv-x="751" d="M-20-5V6q0 6 7 9t27 10q36 10 50 18t20 29l149 479q9 31 9 41 0 12-8 18t-29 12q-14 3-19 7t-5 13q0 11 30 11 29 0 55-2l40-1 42 1q30 2 57 2 24 0 24-11 0-14-37-20-36-7-56-24t-29-47l-61-197v-3q0-6 10-6h335q4 0 6 3t4 9l61 195q5 17 5 26 0 34-45 44-14 3-19 7t-5 13q0 11 30 11 28 0 58-2l49-1 33 1q22 2 52 2 24 0 24-11 0-14-37-20-34-6-46-21t-24-49L592 81q-4-12-4-23 0-27 38-34 14-3 19-7t6-11q0-11-30-11-34 0-55 3-22 2-40 2t-44-2q-22-3-57-3-24 0-24 11 0 12 36 18 66 11 86 73l62 195q1 2 2 6t1 7-3 2H240q-5 0-8-11l-59-192q-6-19-6-34 0-21 13-31t40-15q14-3 19-7t6-11q0-11-30-11-35 0-59 3-30 2-49 2-18 0-46-2Q39-5 3-5-20-5-20 6z"/><glyph unicode="I" glyph-name="I" horiz-adv-x="362" d="M-20-5V6q0 12 36 18 39 7 62 24t34 50l138 452q6 20 6 32 0 17-11 26t-36 14q-14 3-19 7t-5 13q0 11 30 11 26 0 58-2l50-1 45 1q30 2 57 2 24 0 24-11 0-14-37-20-38-7-58-22t-30-50L186 98q-4-13-4-26 0-20 13-31t42-17q14-3 19-7t6-11q0-11-30-11-34 0-58 3-30 2-50 2-23 0-57-2Q39-5 4-5-20-5-20 6z"/><glyph unicode="J" glyph-name="J" horiz-adv-x="293" d="M-136-200l-24 17-24 36q0 45 24 45 7 0 28-17l20-16q17-13 30-20t28-7q32 0 56 32T54-5l169 556q6 20 6 32 0 17-10 25t-35 14q-25 5-25 20 0 11 31 11 26 0 58-2l49-1 35 1q26 2 54 2 23 0 23-11 0-14-36-20-35-6-49-20t-26-51L173 142Q143 44 121-9T82-83t-43-51q-30-32-62-49t-72-17q-41 0-65 17z"/><glyph unicode="K" glyph-name="K" horiz-adv-x="699" d="M-17-5V6q0 12 36 18 37 7 56 23t30 54l138 450q6 18 6 31 0 17-11 26t-36 14q-25 5-25 20 0 11 31 11l58-1q13-1 45-1 26 0 37 1l54 1q24 0 24-11 0-14-37-20-25-5-37-11t-19-18-16-42l-56-191q-1-2-1-6 0-7 12-7 14 0 29 9t38 29l211 182q17 15 24 23t7 15q0 9-19 15-24 8-24 20 0 6 11 8t25 3h50q32 0 90 2 48 2 62 2 17 0 17-11 0-14-37-20-92-17-161-66-54-39-98-76T373 373l-17-16q-4-4-4-9 0-4 3-9Q465 141 537 70q21-20 40-28t51-18q16-4 20-7t5-11q0-11-30-11-22 0-58 2-69 3-102 3h-23q-9-1-44-1-23 0-23 11 0 6 7 10t23 7q18 4 25 8t8 10q0 8-12 27L284 306q-5 8-16 12t-17 5q-5 0-10-21l-54-192q-7-28-7-39 0-20 11-31t37-16q14-3 19-7t6-11q0-11-30-11-28 0-56 4-5 0-16 1t-25 2q-16 0-33-1T69-1Q33-5 7-5-17-5-17 6z"/><glyph unicode="L" glyph-name="L" horiz-adv-x="583" d="M-20-5V6q0 12 36 18 42 8 69 25t38 50l141 461q7 20 7 33t-9 18-35 11q-25 5-25 20 0 11 30 11 34 0 58-3 26-2 46-2 22 0 58 2 29 3 64 3 23 0 23-11 0-14-39-17-42-4-67-17t-34-41L206 113q-7-26-7-40 0-43 49-43h80q99 0 141 42 22 22 39 48t22 32q5 6 7 8t9 2q8 0 8-12 0-14-19-66t-32-73q-4-7-10-11t-13-5q-92 0-218 4-98 2-133 2-33 0-62-3-8 0-26-1T4-5Q-20-5-20 6z"/><glyph unicode="M" glyph-name="M" horiz-adv-x="991" d="M383-14l-2 7-3 18q3 95 3 189 0 130-7 312 0 21-9 21-8 0-20-24-87-169-170-363-27-64-27-91 0-14 6-20t18-9q30-4 30-17 0-6-10-9t-24-3q-26 0-56 2L60 0Q41 0 26-3q-36-3-52-3-13 0-18 2t-6 8q0 13 35 19 44 8 71 32t62 89l199 388q13 26 13 42 0 20-18 32t-60 19q-23 3-31 6t-8 11q0 16 42 16l72-2q50-3 90-3 19 0 25-14t4-54l8-422q0-10 2-15t6-5q8 0 22 17 130 147 311 363l44 52 16 32q12 24 15 29 8 14 21 14h38q6 0 40 4 36 4 47 4 13 0 23-4t10-11q0-9-9-14t-32-8q-33-4-48-10t-24-22-20-53q-47-162-89-382-7-35-7-61 0-32 11-47t37-20q15-2 20-6t6-11q0-5-9-8t-21-4q-27 0-63 6-6 1-23 3t-35 2q-18 0-32-2t-20-3q-30-6-56-6-23 0-23 12 0 11 35 19 31 7 47 24t29 52q62 192 113 398v2q0 4-4 4-5 0-8-4L529 162 412 10q-19-24-25-24-4 0-6 7z"/><glyph unicode="N" glyph-name="N" horiz-adv-x="771" d="M-8-5V6q0 7 6 10t23 8q44 10 64 27t28 44l139 431q11 33 11 53 0 21-15 32t-51 14q-39 3-39 19 0 14 25 14 10 0 79-3 38-2 50-2 8 0 15-4t11-13l229-482q3-6 9-12t11-7q4 0 6 5t7 15q12 30 62 196t57 193q3 11 3 20 0 24-19 37t-62 19q-27 4-27 19 0 6 10 9t23 3q17 0 51-2 36-2 56-2 23 0 46 3 54 3 69 3 23 0 23-11 0-7-10-13t-27-7q-26-2-39-7t-23-19-21-41q-8-19-74-214t-76-228q-3-12-3-20 0-9 7-27 4-10 10-16t13-10 10-7q10-7 14-12t5-15q0-6-8-6-11 0-53-3-18-2-24-2-16 0-25 5t-17 21q-20 42-87 194-34 78-71 159t-69 141q-13 24-24 24-6 0-13-9t-11-25q-6-23-36-124-54-182-79-285-2-12-2-17 0-44 64-56 16-3 22-6t7-11q0-11-30-11-12 0-60 3-24 2-39 2-18 0-48-2-24-3-59-3Q-8-5-8 6z"/><glyph unicode="O" glyph-name="O" horiz-adv-x="694" d="M228-14l-50 34-75 93-25 130q0 100 47 197t135 161 208 63q75 0 125-34t75-93 25-130q0-100-47-197T511 49 303-14q-75 0-125 34zm164 31l69 64 108 165 39 199q0 79-36 135t-107 56q-83 0-152-65T204 404t-41-199q0-78 36-133t107-55q86 0 155 64z"/><glyph unicode="P" glyph-name="P" horiz-adv-x="566" d="M1-5V6q0 12 36 18 38 7 59 24t33 52l134 437q7 22 7 40 0 23-16 35t-52 15q-15 1-20 4t-5 11q0 11 31 11l89-1 50 2 61 2q96 0 154-49t58-135q0-62-38-112t-101-78-134-28q-15 0-28 3t-14 10q0 11 23 13 19 2 55 10 68 18 110 67t42 123q0 65-40 107t-113 43q-12 0-17-8t-13-34L206 111q-7-20-7-37 0-21 13-32t42-18q14-3 19-7t6-11q0-11-30-11-28 0-60 4-19 3-41 3-17 0-34-1T88-1Q50-5 25-5 1-5 1 6z"/><glyph unicode="Q" glyph-name="Q" horiz-adv-x="694" d="M692-154h7q3 0 5-2t2-7l-2-8q-17-37-63-68t-97-31q-47 0-88 17t-106 55q-52 30-95 46t-88 17q-37 0-61-9-9-4-24-10t-23-7h-5q-5 0-6 1t-1 8q0 17 48 39t131 53q15 6 43 16t44 18q10 4 28 14-16-2-27-2-77 0-130 34t-79 93-26 130q0 100 46 197t134 161 210 63q75 0 127-34t77-93 26-130q0-106-57-208T478 29q-71-45-114-68T253-86q72-4 159-56 64-39 101-57t71-18q31 0 56 14t44 38q8 11 15 11zM375 7q113 69 176 181t63 257q0 78-40 134t-118 56q-81 0-148-65T203 404t-39-199q0-51 20-96t68-73T374 7h1z"/><glyph unicode="R" glyph-name="R" horiz-adv-x="687" d="M3-5V6q0 12 36 18 38 7 59 24t33 52l134 438q11 35 11 49 0 18-15 24t-57 11q-15 1-21 5t-7 12q0 7 10 10t24 4l89-1q23 0 65 2l46 1q84 0 140-37t57-111q0-75-49-123t-124-72q-14-5-9-17 10-25 40-90t50-107q19-37 36-51t49-20q19-3 26-5t8-9q0-10-13-13t-38-4q-48 0-77 7t-41 29q-23 39-52 101t-51 116q-12 30-23 39t-38 10q-21 0-29-3t-11-15l-53-169q-7-21-7-39 0-39 43-48 14-3 19-7t6-11q0-11-30-11-29 0-53 4-16 3-36 3-17 0-34-1T90-1Q52-5 27-5 3-5 3 6zm370 323l43 18 75 61 33 111q0 51-35 86t-87 36q-22 0-33-14t-24-61l-53-199q-3-9-3-16 0-13 11-17t38-5q35 0 78 18z"/><glyph unicode="S" glyph-name="S" horiz-adv-x="467" d="M129-15L79 4Q50 16 46 16q-7 0-21-6Q9 0 5 0 0 0-7 6t-7 13q0 3 9 26 13 33 22 62t15 64q2 11 5 15t11 5q8 0 10-8t2-31q0-61 30-99t89-38q66 0 109 37t44 103q0 39-17 70t-66 77q-51 46-77 87t-27 93q0 52 27 93t76 65 106 24q23 0 69-12l27-9q19-8 27-8 11 0 19 5t17 5q7 0 9-5t3-11q0-1-12-23t-26-108q-2-14-7-23t-9-9q-12 0-12 26 0 68-31 105t-86 38q-34 0-63-18t-47-49-18-62q0-40 21-75t72-83q54-49 78-86t24-78q0-56-26-101t-78-71-123-27Q129-15 79 4z"/><glyph unicode="T" glyph-name="T" horiz-adv-x="622" d="M123-5V6q0 6 8 9t29 7q38 7 62 26t34 54l122 428q12 45 12 63 0 21-15 21h-83q-44 0-70-16t-50-45q-10-11-17-23-19-26-26-26-6 0-8 2t-3 11q0 10 10 31 3 7 18 37t24 61q2 7 7 13t10 7q6 0 18-12 6-6 20-9t56-3h357q41 0 56 3t23 10q1 1 7 6t10 5q10 0 10-11 0-10-10-28-7-12-17-46t-18-70q-3-14-11-14-7 0-10 6t-4 17q0 48-15 71t-52 23H507q-14 0-22-6t-15-24-19-57L330 102q-4-13-4-27 0-42 54-53 15-3 20-6t5-10q0-11-30-11-35 0-58 3-30 2-49 2-23 0-59-2-27-3-62-3-24 0-24 11z"/><glyph unicode="U" glyph-name="U" horiz-adv-x="700" d="M217-14l-55 43-55 127q0 44 16 95l90 296q6 20 6 33 0 33-26 40-31 9-31 22 0 5 12 8t26 3l39-1q32-2 50-2l44 1q12 1 31 1 23 0 23-10 0-7-8-11t-29-10q-18-5-36-26t-30-60l-88-297q-13-42-13-78 0-66 41-100t104-34q183 0 254 243 24 83 64 205 22 66 22 97 0 24-11 34t-37 17q-26 7-26 18t31 11l102-1q17 0 45 2l31 1q24 0 24-10 0-13-38-21-19-5-30-12t-23-31-32-73q-24-64-50-141-9-24-18-52t-21-59Q568 124 497 55T301-14q-84 0-139 43z"/><glyph unicode="V" glyph-name="V" horiz-adv-x="683" d="M165-14v42q0 16 4 35 35 199 51 305t23 182q1 8 1 21 0 23-10 35t-42 17q-24 4-24 20 0 6 8 9t22 4q9 0 41-2 38-4 65-4l97 1q24 0 24-11 0-7-10-12t-25-7q-31-4-46-18t-22-50l-67-410q-2-16-2-19 0-12 6-12 2 0 7 6t8 9q5 9 14 19l280 346q53 65 53 102 0 24-22 27-14 2-19 7t-5 13q0 11 30 11 18 0 31-1l60-1q10 0 52 3 20 3 39 3 23 0 23-13 0-12-37-23-71-20-117-77L285 95q-9-10-42-54-24-32-34-43t-17-12q-27 0-27 42z"/><glyph unicode="W" glyph-name="W" horiz-adv-x="1067" d="M196-14l-6 14-6 38q0 23 4 40 22 113 43 242t31 203q4 38 4 46 0 29-13 38t-54 16q-31 5-31 20 0 13 37 13 8 0 38-2 42-4 75-4l94 1q27 0 27-12 0-6-12-11t-28-8q-25-3-37-9t-18-22-11-50l-39-249-20-123-2-22q0-12 5-12 9 0 36 32l271 320q27 31 37 50t11 35q0 24-15 36t-53 17q-30 5-30 21 0 6 11 9t25 3q24 0 57-3 14-1 33-2t41-1q14 0 30 1t24 2q24 3 46 3 23 0 23-13 0-14-37-20-46-7-62-21t-21-51l-56-384-2-21q0-13 5-13 10 0 35 33l259 324q52 66 52 97 0 28-37 34-15 3-20 6t-5 12q0 6 9 9t22 4q22 0 39-1l75-1q10 0 52 3 20 3 39 3 23 0 23-13 0-7-10-13t-27-10q-33-6-60-23t-57-54L670 94l-19-24q-33-42-52-63t-27-21q-22 0-22 35 0 21 6 51t8 40l64 380L298 97q-15-18-41-55-15-22-29-39t-20-17q-12 0-18 14z"/><glyph unicode="X" glyph-name="X" horiz-adv-x="633" d="M-61-5V6q0 7 10 13t28 9q38 5 74 25t83 71l152 160q13 14 19 24t6 23q0 8-3 20l-52 178q-11 38-24 57t-29 25-39 11q-14 2-23 8t-9 13q0 6 12 9t26 3q13 0 51-2 11-1 34-2t41-1l56 1q10 1 26 1 24 0 24-11 0-7-10-13t-27-7q-26-2-36-9t-10-26q0-17 11-58l35-131q5-15 11-15t16 12l107 126q46 54 46 77 0 17-26 23-10 2-17 8t-7 12q0 11 30 11l77-1q3 0 63 3 27 3 45 3 24 0 24-11 0-6-9-10t-28-10q-29-8-75-40t-84-72L406 370q-13-15-16-22t-2-17l60-220q8-29 18-43t28-23 59-19q14-4 19-8t6-12q0-11-30-11l-53 2q-60 4-88 4l-87-1q-24 0-24 11 0 9 38 20 26 7 37 18t12 32q0 12-5 30l-44 159q-3 12-9 12-5 0-10-7L169 100q-22-26-22-43 0-19 27-27 15-5 19-8t5-10q0-6-9-9t-21-4q-18 0-30 1L82 1Q66 1 46 0T14-2q-29-3-51-3-24 0-24 11z"/><glyph unicode="Y" glyph-name="Y" horiz-adv-x="575" d="M99-5V6q0 12 36 18 77 14 99 84l51 160q6 18 6 34 0 14-7 40l-56 206q-9 35-23 52t-38 20q-13 1-20 8t-8 14q0 6 10 8t25 3l42-1q40-2 66-2l44 1q12 1 31 1 23 0 23-11 0-14-37-20-21-3-29-9t-9-20q0-9 5-32l42-159q5-20 9-29t10-9q5 0 14 9t22 23q31 35 81 98l18 22q9 11 17 22 31 40 31 57 0 10-7 16t-23 10q-10 2-17 7t-7 13q0 11 30 11l78-1q25 0 63 2l35 1q25 0 25-11 0-6-7-9t-27-10q-27-8-65-35t-62-54q-29-30-113-123l-53-59q-21-22-30-42t-21-54l-45-148q-5-17-5-28 0-22 13-36t40-20q14-3 19-7t6-11q0-11-30-11-35 0-59 3-30 2-49 2-22 0-58-2-27-3-62-3Q99-5 99 6z"/><glyph unicode="Z" glyph-name="Z" horiz-adv-x="635" d="M450-5L322-3Q204-1 167-1q-42 0-72-1L-16-3q-3 0-3 6l1 8q2 7 28 36t54 57q102 104 220 230 180 189 258 267 6 6 6 9 0 6-15 7-33 1-111-1t-128-8q-27-3-62-26t-60-64q-15-25-27-25-6 0-9 5t-3 14q0 7 8 25 7 18 19 41 21 45 23 49 6 13 12 19t18 7l32-2q16-2 52-4 48-1 158-1 100 0 203 3 6 0 11-9t2-13l-77-77-89-89Q383 340 305 259T130 67q-9-10-9-18 0-9 15-11 52-6 99-6 37 0 90 2t84 7q112 15 170 109 6 10 10 14t11 5q7 0 8-4t1-15q0-18-36-75t-40-63Q522-5 502-5q-52 0-180 2z"/><glyph unicode="[" glyph-name="bracketleft" horiz-adv-x="361" d="M8-200l-5 2-5 10q0 7 4 18l248 810q2 6 6 23t12 28 22 11l166-1q6 0 10-3t4-8q0-9-9-12t-21-4l-81-1q-10 0-18-8t-13-21q-47-142-131-409T83-142q-2-6-2-14 0-7 4-9t17-2q11 0 41-2l36-3q10-1 15-3t6-10q0-7-9-11t-19-4H21q-13 0-18 2z"/><glyph unicode="\" glyph-name="backslash" horiz-adv-x="410" d="M280-68l-9 4-10 14-91 705v1q0 7 5 11t13 4q27-4 29-20l93-705v-1q0-6-5-9t-13-4q-12 0-21 4z"/><glyph unicode="]" glyph-name="bracketright" horiz-adv-x="360" d="M384 702l5-2 5-10q0-7-4-18L142-138q-2-6-6-23t-12-28-22-11l-166 1q-6 0-10 3t-4 8q0 9 9 12t21 4l81 1q10 0 18 8t13 21Q111 0 195 267t114 377q2 6 2 14 0 7-4 9t-17 2q-11 0-41 2l-36 3q-10 1-15 3t-6 10q0 7 9 11t19 4h151q13 0 18-2z"/><glyph unicode="^" glyph-name="asciicircum" horiz-adv-x="501" d="M83 284l-2 3-3 8q0 6 3 10l197 298h3l198-298q3-4 3-10 0-11-9-11-11 0-23 5t-18 13L284 514q-4 5-5 5t-5-5L128 303q-6-8-18-13t-23-6q-4 0-6 3z"/><glyph unicode="_" glyph-name="underscore" horiz-adv-x="464" d="M355-132l2-4v-10q-12-19-20-27t-19-9h-424q-5 0-8 3t-1 9q4 11 14 24t20 14h431q5 0 7-4z"/><glyph unicode="`" glyph-name="grave" horiz-adv-x="200" d="M260 475l-11 15-92 108q-18 23-18 30 0 10 15 23t24 13q12 0 25-25l75-144q3-6 3-11 0-9-9-9-12 0-23 15z"/><glyph unicode="a" glyph-name="a" horiz-adv-x="491" d="M26-14L10 0-6 30q0 53 52 132t138 153q107 94 138 94 16 0 28-14 12-17 13-17l5 8q20 34 17 30 6 10 12 10 14 0 26-7t12-14q0-5-7-25L316 83q-4-9-4-17 0-17 17-17 18 0 43 17t45 43q3 5 9 5 7 0 7-11 0-7-14-27t-29-36q-28-26-56-40t-53-14q-16 0-29 12t-14 27q0 11 6 23-6-11 2 8t21 46 24 51q5 11 5 16t-7-1Q198 66 144 26T45-14Q26-14 10 0zm97 63l44 36 98 102q38 44 60 81t22 55q0 8-13 19-15 11-25 11-18 0-49-18t-58-43q-51-50-90-112T72 83q0-15 8-24t21-10q22 0 66 36z"/><glyph unicode="b" glyph-name="b" horiz-adv-x="449" d="M97-8L74 14 51 74q0 54 23 121l126 381q10 27 10 54 0 10-25 17-31 8-31 15 0 9 16 14 23 8 64 19t51 12q16 0 16-10 0-13-7-33-19-50-68-194t-72-213q-2-6-2-7 0-5 4-5t10 7q59 78 111 120t91 42q32 0 53-21t21-53q0-74-48-156T274 47 136-8Q97-8 74 14zm84 32l36 30 72 78q36 48 61 108t26 96q0 17-8 28t-21 12q-31 0-71-34t-93-108q-33-47-53-85t-20-58q0-27 15-47t37-20q19 0 55 30z"/><glyph unicode="c" glyph-name="c" horiz-adv-x="313" d="M81-15L61-2 28 35 15 88q0 65 31 141t91 131 139 54q26 0 40-9t15-23q0-17-10-33t-20-16q-7 0-12 6t-12 18q-7 14-16 22t-25 8q-31 0-66-48t-59-118T87 98q0-31 12-44t36-13q29 0 46 10t43 33l5 5q4 4 8 6t7 2q8 0 8-13 0-12-23-36T171 4 99-15Q81-15 61-2z"/><glyph unicode="d" glyph-name="d" horiz-adv-x="516" d="M354 107q-5-18-5-31 0-22 14-22 19 0 48 20t50 49q4 5 8 5 8 0 6-8 0-18-28-50t-65-58-57-26q-16 0-30 14t-14 31q0 5 4 26l18 82q1 7-1 9t-5-1Q228 60 176 23T70-14Q41-14 23 6T5 58q0 56 35 131t91 138q39 44 79 68t72 25q13 0 21-3t36-22q24-15 25-16l4 7 67 225q4 16 4 20 0 11-6 17t-22 13q-17 6-23 8t-7 6q0 7 8 11t26 7q82 12 93 12 12 0 12-14 0-11-4-23L354 107zM150 33l57 50 98 120 41 123q0 29-13 45t-37 17q-37 0-90-56t-93-133T73 71q0-22 7-30t27-8q43 0 100 50z"/><glyph unicode="e" glyph-name="e" horiz-adv-x="341" d="M85-15L64 1 28 41 14 89q0 68 36 144t97 129 128 52q35 0 54-14t20-41q0-57-63-89t-165-51q-1 0-5-1t-6-3-4-6q-21-61-21-97 0-35 13-54t40-19q32 0 56 15t46 39q10 11 18 11 10 0 10-10 0-5-2-8-30-49-71-75t-89-26Q85-15 64 1zm63 257l40 13 71 40 32 62q0 13-7 22t-20 10q-25 0-58-28t-59-63-26-50q0-4 2-5t5-1q20 0 60 13z"/><glyph unicode="f" glyph-name="f" horiz-adv-x="321" d="M-149-290l-22 13-23 37q0 14 14 28t25 14q5 0 11-5t11-12 10-11q22-24 52-24 20 0 33 11t27 39 30 85l134 454q1 3 1 8 0 10-15 10l-62-1q-13 0-13 12 0 9 6 17t13 9l70 4q14 2 19 20l8 32q22 89 62 146t84 84 83 26q44 0 69-19t25-51q0-24-13-37t-28-14q-7 0-12 8t-15 31q-18 41-59 41-29 0-48-13t-34-47-37-102l-10-37-11-37q-1-4-3-9t-2-11q0-9 10-9 23 0 59 2l51 1q7 0 7-11 0-8-8-18t-21-11l-91-1q-21 0-25-16-72-231-130-456-13-50-48-91t-76-65-70-24q-38 0-60 13z"/><glyph unicode="g" glyph-name="g" horiz-adv-x="415" d="M23-290l-59 30-60 80q0 30 55 58t144 57q8 3 2 9-26 22-37 35T57 6q0 24 50 61 8 7 8 12 0 3-8 6-30 14-41 36t-11 57q0 46 26 102t71 95 95 39q24 0 34-5t12-7q2-1 10-6t18-5q10 0 44 6 7 1 25 4t29 3q7 0 14-6t8-17q0-17-5-26t-13-9q-15 0-43 7-7 1-16 3t-19 2q-16 0-12-14 4-15 4-36 0-51-27-105t-69-90-85-36q-12 0-22-12-11-14-11-29 0-18 9-29t35-30l50-33q62-40 74-49 21-15 30-29t9-29q0-33-34-62t-85-47-98-18q-90 0-149 30zm158 391l30 44 52 102 22 92q0 16-10 31t-25 16q-29 0-60-40t-54-97-24-100q0-19 12-33t29-15q28 0 58 44zm19-361l28 20 29 49q0 36-41 61l-30 20q-18 12-28 17-18 10-28 10-9 0-25-4-64-20-98-43t-34-52q0-21 25-39t64-28 81-11q57 0 85 20z"/><glyph unicode="h" glyph-name="h" horiz-adv-x="488" d="M49-18l-5 8-5 18q0 13 3 30t10 37l141 483q15 49 15 68 0 9-9 13t-28 11q-18 5-18 11 0 4 3 7t14 8q22 9 57 20t45 11q17 0 17-10 0-12-5-27L148 200q-2-7 0-7t6 4q66 98 136 161t116 63q32 0 50-21t18-52q0-75-39-162T342 42q-15-16-49-36t-60-20q-11 0-25 13t-14 24q0 8 8 18t18 11q13 0 27-12 8-7 13-10t13-3q28 0 59 50t54 122 22 127q0 48-38 48-33 0-82-51t-95-121-75-124q-5-11-15-29Q85 12 75-3T56-18q-7 0-12 8z"/><glyph unicode="i" glyph-name="i" horiz-adv-x="294" d="M50-14L39-4 27 20q0 10 3 16 43 87 98 230 9 27 21 55 1 2 1 6 0 6-6 6-9 0-35-12t-43-26q-2-2-7-2-9 0-9 6 0 10 20 30t56 43 75 41q8 4 17-1t15-15 4-15L115 93q-7-15-7-29 0-12 16-12 18 0 42 21t68 64q2 2 4 2 6 0 6-5 0-21-32-56t-74-64-72-28Q50-14 39-4zm203 527l-10 12-10 27q0 25 16 43t40 18q15 0 24-13t10-30q0-23-16-40t-39-17q-15 0-25 12z"/><glyph unicode="j" glyph-name="j" horiz-adv-x="259" d="M-155-290l-22 14-23 29q0 13 12 26t27 14q8 0 15-5t16-15q20-22 47-22 25 0 42 25t34 73l143 439q4 16 4 19 0 14-12 14-13 0-65-26l-4-1q-3 0-6 2t-4 5q0 6 9 15 36 32 63 49t69 40l18 9q12 4 23-7t8-21q-14-36-39-111L67-128q-12-36-46-74t-74-63-69-25q-33 0-55 14zm388 803l-10 12-10 27q0 25 16 43t40 18q15 0 24-13t10-30q0-23-16-40t-39-17q-15 0-25 12z"/><glyph unicode="k" glyph-name="k" horiz-adv-x="455" d="M266-21L252-9l-26 37-38 106q-7 19-19 31t-27 13q-9 0-27-42-10-24-24-60T68 16Q61-4 57-9t-15-6q-8 0-17 7T16 7q0 15 8 42l167 518q10 31 10 57 0 12-22 20-26 10-26 14 0 8 6 11 23 11 62 24t51 13q16 0 16-10 0-14-3-23L150 262q-1-3-1-7 0-3 2-3 5 0 8 6 51 71 111 114t111 43q23 0 41-12t18-33q0-33-35-71t-84-70-85-41q-5-2-6-4t1-7l46-109q5-12 14-20t19-9q17 0 36 17t34 41q5 8 8 10t8 3q2 0 4-4t2-8q0-20-21-48T332 1t-43-22q-23 0-37 12zm-43 224l43 24 74 58 30 55q0 32-36 32-26 0-64-31t-68-69-30-52q0-7 3-12t9-5q39 0 82 24z"/><glyph unicode="l" glyph-name="l" horiz-adv-x="286" d="M42-14L27 0 11 30l2 12 190 541q10 27 10 53 0 9-9 17t-24 11q-22 5-22 13 0 10 6 11 28 7 72 14t56 7q5 0 8-4t4-11q0-10-6-28L96 90q-5-14-5-29 0-16 10-16 19 0 52 30t55 62q7 9 14 16t12 7q3 0 4-4t1-9q0-31-33-69t-78-65-72-27Q42-14 27 0z"/><glyph unicode="m" glyph-name="m" horiz-adv-x="789" d="M68-17L63-7l-6 20q0 9 23 71l92 241q2 8 2 12 0 8-5 13t-14 6q-18 0-34-8t-38-38q-3-4-8-4-6 0-7 8-1 9 4 25t13 25q40 49 99 50 20 0 35-8t15-27q0-10-4-19l-57-148-1-4q0-4 4-4t6 4q134 206 227 206 24 0 40-15t17-44q0-18-7-38l-36-105-1-4q0-4 4-4t6 4q62 101 121 153t110 53q23 0 38-15t16-45q0-20-10-46L621 86q-6-16-6-24 0-12 11-12 30 0 111 81 1 1 3 1 3 0 5-2t3-7q0-17-18-36-40-46-79-73t-83-28q-11 0-21 11t-11 25q0 4 2 10l116 299q3 9 3 16 0 12-7 18t-17 7q-18 0-44-18t-58-57q-25-30-69-98T388 78q-25-47-46-71t-33-24q-7 0-12 8t-6 19q0 12 23 74l93 250q3 9 3 16 0 13-9 19t-17 6q-17 0-43-19t-57-57q-24-29-69-98T141 78l-10-19Q107 15 96-1T75-17q-7 0-12 10z"/><glyph unicode="n" glyph-name="n" horiz-adv-x="527" d="M53-16L45-5l-9 24q0 3 2 9l116 284q10 23 10 35 0 9-8 9-19 0-35-9t-39-37q-3-4-8-4-6 0-7 8t6 23 15 27q15 23 41 36t59 14q14 0 24-9t11-23q0-3-2-11l-66-170-1-4q0-4 4-4t6 4q60 102 123 159t111 58q24 0 40-18t17-47q0-22-10-45L353 86q-6-16-6-24 0-12 11-12 21 0 60 26t54 42q1 1 3 1 3 0 5-2t3-7q0-8-4-14-41-50-88-80t-92-30q-12 0-22 10t-11 23q0 7 2 11l20 45q10 22 40 92t54 130q12 33 12 49 0 26-21 26-17 0-43-19t-57-59q-24-29-78-112T94 15Q85-2 78-9t-15-7Q53-16 45-5z"/><glyph unicode="o" glyph-name="o" horiz-adv-x="380" d="M72-14L45 20 17 99q0 64 33 138t88 126 119 51q49 0 77-33t28-85q0-63-32-136T239 37 108-14q-36 0-63 34zm90 30l41 52 68 126 27 130q0 29-9 44t-34 16q-37 0-78-48t-68-121T81 78q0-62 43-62 38 0 79 52z"/><glyph unicode="p" glyph-name="p" horiz-adv-x="439" d="M-123-286v9q0 7 10 12t20 8q23 4 34 11t18 26l193 539q6 17 6 24 0 10-17 7-25-4-42-9t-38-14q-3-2-9-2-12 0-12 9 0 14 15 21 59 31 116 46 14 3 18 16 15 51 27 70t33 19q9 0 14-5t4-14l-17-58-2-9q0-11 7-9 23 4 44 4 130 0 130-125 0-63-38-135T291 35 167-14q-12 0-41 18-5 4-11 4-8 0-16-22L33-209q-3-8-3-15 0-26 44-29 12-1 21-4t9-11q0-11-29-11l-60 1q-17 0-23-1-58-7-99-7-16 0-16 9zM216 20l40 43 70 105 29 113q0 54-19 75t-57 22q-24 0-38-2l-92-270q-6-19-6-37 0-12 3-23 9-26 40-26 30 0 70 43z"/><glyph unicode="q" glyph-name="q" horiz-adv-x="473" d="M106-286q-16 0-16 9 0 7 9 12t21 8q22 3 39 15t24 31l121 321q2 4 2 11 0 8-5 8-4 0-13-9-58-65-111-99T71-14Q39-14 20 3T1 47q0 61 42 139t105 145q38 41 85 65t85 24q37 0 57-26 5-6 10-14t11-8q11 0 19 16l9 19q9 21 27 21 8 0 8-14 0-11-5-24L259-199q-3-11-3-19 0-25 29-28 12-1 21-4t9-11q0-11-29-11-45 0-97-4t-79-10h-4zm15 308l38 26 76 65 58 75q55 95 55 149 0 21-10 35t-29 15q-31 0-89-58T116 193 71 61q0-21 5-30t20-9q25 0 63 26z"/><glyph unicode="r" glyph-name="r" horiz-adv-x="379" d="M52-17l-8 7-9 17q0 11 6 31t17 46l92 240q4 9 4 21 0 14-10 14-13 0-26-3t-22-8q-3-2-8-2-9 0-9 10 0 8 7 18t21 19q28 21 63 21 40 0 40-33 0-21-20-72l-45-113-1-4q0-5 5-6t8 4q60 102 119 165t95 64q24 0 35-14t12-36q0-29-15-55t-35-26q-16 0-16 35 0 32-19 32-23 0-68-58-24-31-68-100T122 75q-2-3-22-40Q84 5 76-6T60-17q-8 0-16 7z"/><glyph unicode="s" glyph-name="s" horiz-adv-x="276" d="M3-14L-12-2l-16 32q0 21 9 33T0 76q6 0 14-6t17-13q14-11 27-17t33-6q26 0 42 18t18 43q0 45-29 98-30 53-30 82 0 36 24 68t57 51 52 20q18 0 37-15t19-26q0-9-12-23t-22-14q-6 0-12 7t-9 9q-16 16-37 16-17 0-28-14t-12-35q0-12 10-41t23-51q12-22 21-52t9-52q0-38-29-69T111 4 26-14Q3-14-12-2z"/><glyph unicode="t" glyph-name="t" horiz-adv-x="292" d="M51-14L37-1 23 23q0 18 6 34t8 22l95 267 1 4q0 8-11 8l-40 2q-18 1-18 14 0 4 11 14t23 10h36q10 0 14 3t10 15l24 49q6 12 26 28t28 17q5 0 8-5t3-13q0-8-3-14l-26-67-1-4q0-4 3-5t11-2q27 0 75-8 15-3 19-6t4-9q0-3-4-7t-15-5q-61-4-84-5-26-1-31-15L106 99q-4-11-4-21 0-19 22-19 18 0 39 16t47 40q10 10 19 10 8 0 8-7 0-13-18-33-37-40-85-69T64-14Q51-14 37-1z"/><glyph unicode="u" glyph-name="u" horiz-adv-x="509" d="M56-14L45-5 27 18l-3 21 105 253q9 23 9 32t-6 9q-13 0-72-53-1-1-5-1-8 0-8 4 0 14 12 30 23 31 53 55t59 37 43 13q9 0 18-11t4-22q-31-65-85-188l-38-88q-11-25-11-41 0-13 8-13 14 0 45 30t84 89q52 58 103 127t66 97q9 16 25 16 9 0 17-13t5-21L327 86q-7-17-7-27 0-12 10-12 17 0 51 25t63 55q1 1 3 1 3 0 6-2t3-7q0-9-22-35-34-42-74-70t-84-28q-11 0-20 12t-10 26q0 3 2 9 65 140 76 170l2 8q0 5-4 5-5 0-10-5Q199 88 145 37T67-14q-11 0-22 9z"/><glyph unicode="v" glyph-name="v" horiz-adv-x="410" d="M92-14L74 13 55 75q0 22 7 40l65 173q9 25 9 34 0 11-11 11-6 0-23-14t-35-33q-7-8-13-8-7 0-7 5 0 13 12 30 36 49 71 77t58 28q10 0 18-9t9-22q0-5-1-8l-90-260q-7-23-7-36 0-19 9-29t28-11q47 0 91 35t72 90 28 112q0 17-6 34t-18 30q-12 13-12 33 0 14 19 27t40 14q12 0 20-18t9-51q0-143-95-253-46-54-93-82t-90-28q-27 0-45 27z"/><glyph unicode="w" glyph-name="w" horiz-adv-x="623" d="M596 420l9-19 9-52q0-134-114-269-81-94-153-94-28 0-43 27t-15 68q0 17 3 35-36-51-87-90t-78-40Q99-14 82 6T64 64q0 33 16 77l60 163q4 9 4 16 0 12-11 12-7 0-25-10t-33-27q-4-5-8-7t-8-2q-3 0-6 2t-3 5q0 11 12 26 36 44 78 71t65 28q8 0 14-7t7-18q0-8-2-12l-91-261q-7-20-7-37 0-19 9-29t27-11q23 0 55 28t58 63 29 52l12 56q5 24 10 49t10 44q7 31 23 41 3 2 13 8t21 9 23 4q9 0 9-24 0-26-9-51l-19-50q-13-38-22-58-7-16-13-37t-8-34q-4-23-4-45 0-57 34-57 36 0 76 39t68 97 27 111q0 19-13 41-4 7-12 18t-8 18q0 15 23 35t40 20q11 0 20-19z"/><glyph unicode="x" glyph-name="x" horiz-adv-x="438" d="M7-14L-5-4l-12 28q0 17 16 40t29 23q12 0 16-18 6-23 19-23h2q13 0 25 12 23 23 67 75l37 43q7 7 3 18l-38 140q-3 11-6 14t-9 3q-8 0-23-13t-33-39q-1-1-5-8t-12-8q-7 0-7 17 0 19 18 46t43 48 46 20q16 0 25-12t17-39l25-106q2-8 6-8t8 6l70 100q17 24 41 41t49 18q18 0 34-15t17-29q0-13-14-33t-27-21q-11 0-18 17-5 13-10 18t-12 5q-22 0-57-42-40-46-66-86-5-8-5-18 0-6 3-17l34-123q7-24 21-24 15 0 33 22t33 58q6 14 13 14 4 0 6-4t3-18q0-20-14-52t-39-56-51-24q-26 0-39 16t-24 51l-22 91q-3 13-7 13-2 0-5-3t-4-4l-37-48-60-75Q78 4 61-5t-37-9Q7-14-5-4z"/><glyph unicode="y" glyph-name="y" horiz-adv-x="405" d="M-71-290l-14 11-14 31q0 20 12 35t27 15q9 0 15-4t16-13q17-15 30-15 34 0 72 43t73 113q21 44 29 99t9 129q0 68-9 113t-24 67-25 21q-14 0-32-22t-24-43q-2-8-8-18t-11-11q-4 0-6 8t-3 20q0 29 16 58t40 48 47 19q47 0 67-66 15-47 23-98t9-123q0-32-1-49v-4q0-13 4-13 5 0 11 14 86 164 86 329 0 5 7 12t12 7q8 0 20-13t13-30q0-93-68-232T148-130Q90-202 38-246t-92-44q-17 0-31 11z"/><glyph unicode="z" glyph-name="z" horiz-adv-x="407" d="M407 398l-9-14-23-28L113 98h3q20 0 37-10t43-32q25-20 38-29t29-9q30 0 39 26t10 70q0 18 3 23t12 6q12 0 22-14t11-37q0-26-24-55t-57-50-50-21q-22 0-41 13t-45 37q-21 20-31 28t-19 8q-29 0-46-17T30-6q0-14-15-14-3 0-8 9T1 9q0 27 24 50l268 260q-12 1-28 7t-31 14q-25 13-44 19t-41 7q-18 0-33-14t-15-30q0-21 10-36 4-5 4-10 0-4-4-8-6-7-21-14t-20-8q-6 0-13 9t-8 25q0 25 11 44t39 44q17 16 47 31t48 15q15 0 29-4t37-12q6-2 27-10t36-9q14 0 23 4t22 17q18 18 30 18 3 0 6-4t3-8q0-8-9-22z"/><glyph unicode="{" glyph-name="braceleft" horiz-adv-x="352" d="M128-154l-45 25-45 73q0 17 6 35 12 41 35 96 22 52 31 82 6 18 6 35 0 27-15 47t-44 34q-1 1-4 2t-3 5q0 4 2 5t4 2 6 1q45 16 78 45t46 71q13 43 20 85 2 9 7 37t15 56q20 65 87 99t142 34q6 0 10-4t2-11q-3-12-28-12-48 0-84-24t-52-77q-12-40-22-93-9-49-19-80-15-49-56-83t-99-48q-4-2 0-4 37-9 58-34t22-60q0-18-6-38-11-34-30-79-23-55-35-94-6-21-6-38 0-32 21-47t59-16q23 0 20-12-2-6-8-10t-13-5q-63 0-108 25z"/><glyph unicode="|" glyph-name="bar" horiz-adv-x="260" d="M109-289l-4 4-4 10v951q0 14 18 22t28 9q5 0 9-4t5-9v-959q0-13-17-18t-31-6q-4 0-8 4z"/><glyph unicode="}" glyph-name="braceright" horiz-adv-x="352" d="M274 716l45-25 45-73q0-17-6-35-12-41-35-96-22-52-31-82-6-18-6-35 0-27 15-47t44-34q1-1 4-2t3-5q0-4-2-5t-4-2-6-1q-45-16-78-45t-46-71q-13-43-20-85-2-9-7-37t-15-56q-20-65-87-99t-142-34q-6 0-10 4t-2 11q3 12 28 12 48 0 84 24t52 77q12 40 22 93 9 49 19 80 15 49 56 83t99 48q4 2 0 4-37 9-58 34t-22 60q0 18 6 38 11 34 30 79 23 55 35 94 6 21 6 38 0 32-21 47t-59 16q-23 0-20 12 2 6 8 10t13 5q63 0 108-25z"/><glyph unicode="~" glyph-name="asciitilde" horiz-adv-x="500" d="M100 257q-5 0-10 7t-3 12q17 35 55 70t70 35q17 0 33-6t50-22q44-20 79-20 33 0 67 26 6 4 17 13t19 10q4 0 8-8t2-12q-8-16-29-40t-48-43-48-19q-14 0-29 4t-29 11-20 8q-32 13-51 19t-38 6q-16 0-48-18t-45-32l-2-1z"/><glyph glyph-name="uni00A0" horiz-adv-x="200"/><glyph unicode="¡" glyph-name="exclamdown" horiz-adv-x="287" d="M177 275v-14q0-9-3-25-17-79-42-187T97-94q-10-33-28-54t-38-21q-14 0-22 12t-8 31q0 18 5 32 9 31 100 251l32 79q16 39 30 39 9 0 9-14zm71 219l14-15 14-37q0-28-21-48t-51-20q-21 0-35 15t-14 37q0 28 21 48t51 20q21 0 35-15z"/><glyph unicode="¢" glyph-name="cent" horiz-adv-x="395" d="M110-80l-3 4-1 11 23 53Q77 5 50 41t-28 87q0 64 36 130t101 110 145 44l20 50q3 8 12 12t18 5q6 0 7-5t0-12l-20-49q36-2 67-20t26-40q-2-10-19-22t-29-12q-7 0-12 3t-6 7q-10 41-41 50L190 46q5-1 15-1 38 0 70 9t58 34q5 5 11 5t9-5-2-11q-42-46-86-67T165-14l-21-51q-3-6-11-10t-16-5q-7 0-10 4zm182 464q-50 0-95-34t-72-87-27-110q0-36 14-62t43-38l137 331z"/><glyph unicode="£" glyph-name="sterling" horiz-adv-x="499" d="M517 629l25-22 26-53q0-26-18-44t-49-19q-10 0-10 8 1 3 7 17t7 37q0 20-13 33t-37 14q-37 0-63-23t-45-61-45-105q-13-36-27-68l120 8q6 0 10-4t3-10q-13-24-31-24l-119-8q-29-61-64-111t-84-92q-3-2-3-5t4-4q36-1 60-10t51-26q33-19 53-27t52-8q32 0 57 20t25 49q0 9-2 19t-2 18q0 12 7 19t16 7q28 0 28-31 0-39-24-76t-68-60-105-24q-37 0-64 13t-59 39q-26 21-41 30T60 55Q39 42 26 29t-37-39q-4-6-15-6-14 0-26 9t-13 24q0 17 18 35T1 81t62 11q32 33 54 82t47 124l-75-5q-5 0-9 4t-5 8q0 7 7 16t17 10l78 5q2 7 4 12t3 10q48 141 123 206t163 65q47 0 72-22z"/><glyph unicode="¤" glyph-name="currency" horiz-adv-x="488" d="M506 473l9-10 9-20q0-7-6-12l-66-50q13-29 13-65 0-47-21-93t-60-82l29-40q2-2 2-7 0-9-11-17t-21-9q-7 0-11 4l-28 40q-62-36-135-36-66 0-103 39L42 67q-2-1-5-1t-4 0q-8 0-17 10T7 96q0 8 6 12l66 49q-12 29-12 62 0 47 21 94t61 82l-31 43q-2 2-2 7 0 9 11 17t21 9q7 0 11-4l30-43q59 35 134 35 62 0 100-36l66 49q2 2 5 2t4-1q8 0 17-10zM281 126l43 26 66 68 23 83q0 45-27 75t-78 31q-57 0-100-26t-66-68-23-83q0-45 27-75t78-31q57 0 100 26z"/><glyph unicode="¥" glyph-name="yen" horiz-adv-x="560" d="M92-5l3 11q2 7 10 11t26 7q76 14 98 84l28 89H140q-4 0-7 2t-3 7q0 7 10 16t20 10h108l7 24q5 14 6 24H165q-4 0-7 2t-3 7q0 7 10 16t20 10h99q-1 4-1 7t-3 8l-60 227q-8 30-19 43t-38 20q-13 3-19 9t-5 13q3 11 30 11l46-1q44-2 70-2l40 1q9 1 27 1 27 0 24-11-2-6-10-10t-27-10q-14-4-25-15t-11-30q0-4 2-16l42-165q2-6 5-18t5-16 6-5q4 0 11 7t16 17 13 15q65 75 114 139 30 39 30 59 0 18-25 27-28 10-25 20 3 11 31 11l75-1q21 0 55 2l35 1q27 0 24-11-4-13-37-20-40-8-122-96-65-72-125-141l-34-39q-24-26-27-31h114q6 0 9-4t-1-10q-16-21-36-21H357l-15-48h118q6 0 8-4t-1-10q-16-21-35-21H332l-28-89q-5-17-5-29 0-44 52-55 15-3 21-7t4-11q-3-11-30-11-34 0-58 3-28 2-49 2-22 0-58-2-27-3-63-3Q92-5 95 6z"/><glyph unicode="¦" glyph-name="brokenbar" horiz-adv-x="260" d="M109 276l-4 7-4 16v375q0 14 18 22t28 9q5 0 9-4t5-9V297q0-7-19-14t-29-7q-4 0-8 7zm0-566l-4 4-4 10v432q0 7 19 15t27 8q5 0 9-7t5-15v-423q0-13-17-18t-31-6q-4 0-8 4z"/><glyph unicode="§" glyph-name="section" horiz-adv-x="380" d="M12-148l-14 7-14 17q0 12 9 26t21 25 19 11q4-1 12-9t16-13q13-10 41-10 21 0 38 17t28 43 11 46q0 26-13 53t-28 52-19 32q-42 69-42 120 0 61 36 126t91 118q27 49 74 88t94 39q26 0 46-10t20-23q0-9-20-30t-31-21q-5 0-13 9t-12 14q-17 17-32 17-30 0-54-26t-25-58q0-26 14-59t40-68q46-61 46-128 0-71-30-137T235-11Q118-148 33-148q-21 0-35 7zM245 47h3l6 4q24 44 33 73 10 33 10 63 0 56-38 118-33 54-50 88t-18 65q0 4-3 4t-6-4q-21-37-32-70t-11-69q0-28 9-55t29-60q33-54 50-88t18-65q0-4 3-4z"/><glyph unicode="¨" glyph-name="dieresis" horiz-adv-x="300" d="M151 513l-10 12-10 27q0 25 16 43t40 18q15 0 24-13t10-30q0-23-16-40t-39-17q-15 0-25 12zm171 0l-10 12-10 27q0 25 16 43t40 18q15 0 24-13t10-30q0-23-16-40t-39-17q-15 0-25 12z"/><glyph unicode="©" glyph-name="copyright" horiz-adv-x="665" d="M289 24l-69 41-110 110-41 152q0 82 41 151t110 111 152 41q82 0 151-41t111-110 41-152q0-82-41-151T523 65 371 24q-82 0-151 41zm154 34l60 36 96 99 36 134q0 71-35 131t-96 96-132 36q-71 0-131-35t-96-96-36-132q0-72 35-134t95-98 132-37q72 0 132 36zm-104 96l-39 24-63 65-23 85q0 48 27 86t71 59 94 21q37 0 80-13 2-1 6-2t7-3 3-8q3-13 3-34l-1-25q0-3-3-7t-7-4q-6 0-12 15-8 22-28 35-24 16-57 16-50 0-81-38t-32-95q0-59 31-103t87-44q66 0 86 41 3 7 8 11t9 4q5 0 5-13 0-8-4-21t-11-22q-3-4-4-7t-4-6-9-4q-29-13-93-13-46 0-85 24z"/><glyph unicode="ª" glyph-name="ordfeminine" horiz-adv-x="293" d="M104 268l-14 16-15 34q0 25 12 39t39 23l88 28q14 4 17 8t8 16l7 23q2 10 2 13 0 13-8 20t-20 8q-12 0-25-5t-19-12q-3-4-5-14t-4-16q-3-8-17-13t-29-6q-5 0-7 4t-1 10q4 12 15 24t26 20q31 16 55 26t48 10q18 0 30-11t12-29q0-5-2-13l-41-124q-5-15-5-23 0-16 14-16 8 0 11 2t4 4q6 4 9 4t5-5 3-10q0-3-14-14-28-21-46-21-17 0-24 6t-7 15-1 13h-4l-16-12q-12-9-28-16t-34-6q-19 0-33 16zm68 35l24 15q5 3 7 7t7 16l14 42q1 2 1 5 0 5-4 6t-9 0q-46-13-67-27t-21-36q0-11 9-19t19-9q20 0 44 15zM35 161v11q0 7 10 15t18 9h180q4 0 5-3t2-11q0-8-11-14t-23-7H44q-9 0-9 11z"/><glyph unicode="«" glyph-name="guillemotleft" horiz-adv-x="620" d="M282 19l-9 6-15 12q-33 32-93 78t-95 66q-11 6-11 15 0 8 11 13 211 108 294 162 14 10 28 10 3 0 3-5 0-10-10-19-48-41-108-86t-102-71q-6-4-6-7t6-9q40-43 69-77t48-65q3-6 3-12 0-11-6-11-7 0-16 6zm211 0l-9 6-15 12q-33 32-93 78t-95 66q-11 6-11 15 0 8 11 13 211 108 294 162 14 10 28 10 3 0 3-5 0-10-10-19-48-41-108-86t-102-71q-6-4-6-7t6-9q40-43 69-77t48-65q3-6 3-12 0-11-6-11-7 0-16 6z"/><glyph unicode="¬" glyph-name="logicalnot" horiz-adv-x="600" d="M498 43l-4 4-4 10v247q0 18-14 18H64q-5 0-9 4t-5 8q0 14 5 31t19 17h463q5 0 9-4t4-10V67q0-13-17-18t-31-6q-4 0-8 4z"/><glyph unicode="­" glyph-name="uni00AD" horiz-adv-x="268" d="M37 170q-4 0-7 4t-3 10q0 15 11 30t21 16l183 25h3q5 0 5-8 0-18-10-34t-26-18L38 170h-1z"/><glyph unicode="®" glyph-name="registered" horiz-adv-x="665" d="M289 24l-69 41-110 110-41 152q0 82 41 151t110 111 152 41q82 0 151-41t111-110 41-152q0-82-41-151T523 65 371 24q-82 0-151 41zm154 34l60 36 96 99 36 134q0 71-35 131t-96 96-132 36q-71 0-131-35t-96-96-36-132q0-72 35-134t95-98 132-37q72 0 132 36zm42 115l-25 22-46 53-30 56q-6 16-38 16-6 0-11-3t-5-8l1-78q0-15 8-21t26-11q19-6 19-16 0-4-5-7t-11-4q-17 0-35 2-16 2-30 2t-28-2q-16-2-33-2-5 0-10 3t-6 8q0 10 19 16 14 4 19 10t6 22v195q0 26-2 31t-10 8-11 3q-11 3-15 6t-4 10q0 5 4 8t13 4q8 0 28-2 13-3 27-3 25 0 49 3 32 2 48 2 40 0 69-21t30-58q0-29-18-50t-44-30q-5-1-5-5 0-2 5-12 15-40 48-78t55-38l10 1q6 0 6-5 0-12-14-19t-30-8q-24 0-49 22zm-98 174l22 19 23 47q0 24-18 39t-46 15q-21 0-29-7t-9-23v-70q0-13 7-16t20-4q30 0 52 19z"/><glyph unicode="¯" glyph-name="overscore" horiz-adv-x="300" d="M145 544l-2 2-3 7q0 10 9 22t20 13h207q4 0 6-3t3-7q0-12-12-23t-24-11H149q-4 0-6 2z"/><glyph unicode="°" glyph-name="degree" horiz-adv-x="290" d="M215 402l-27 17-45 47-17 60q0 31 17 58t44 44 59 17q31 0 58-16t45-43 17-58q0-31-17-60t-44-48-59-18q-31 0-58 17zm62 42l23 23 23 56q0 33-22 56t-55 23q-32 0-54-23t-23-56q0-32 23-55t54-24q31 0 54 23z"/><glyph unicode="±" glyph-name="plusminus" horiz-adv-x="590" d="M278 121l-4 4-4 10v211q0 5-4 5H64q-5 0-9 4t-5 8q0 11 6 24t18 14h189q4 0 5 1t2 7v171q0 12 14 21t22 10q5 0 9-4t5-9V402q0-1 2-1t2 0h203q6 0 10-4t3-10q-6-18-12-27t-19-9H324q-4 0-4-4V145q0-12-13-18t-25-6q-4 0-8 4zM59 38l-4 4-5 8q0 11 6 24t18 14h453q6 0 10-4t3-10q-6-18-12-27t-19-9H64q-5 0-9 4z"/><glyph unicode="²" glyph-name="uni00B2" horiz-adv-x="278" d="M265 438q-42 3-72 3-38 0-95-3-3 0-3 3 0 7 8 13l113 94q41 33 67 73t27 63q0 21-13 32t-34 11q-19 0-39-10t-38-32q-6-6-9-6-7 0-4 11 6 18 25 38t48 35 58 14q28 0 47-18t19-48q0-28-12-47t-27-36-22-23q-30-31-108-93l-17-14-1-2q0-4 11-4h64q21 0 44 13t40 37q5 8 16 8 2 0 2-3t-2-6q-37-58-53-91-6-13-12-13l-28 1z"/><glyph unicode="³" glyph-name="uni00B3" horiz-adv-x="284" d="M127 434v24q0 9 10 23t17 14q5 0 14-7t17-12q18-8 34-8 32 0 54 26t23 56q0 21-12 33t-34 12q-7 0-21-3t-17-4q-5 0-8 4t0 7q14 10 39 16 19 6 23 9 30 17 47 34t18 39q0 17-9 25t-26 8q-20 0-37-7t-41-24q-2-1-4-3t-6-3q-4 0-5 4t0 8q27 34 60 53t64 19q27 0 44-15t17-44q0-28-22-50t-58-36q-3-1-4-3t2-2q22 0 34-17t13-41q0-34-28-65t-70-51-75-19q-53 0-53 24z"/><glyph unicode="´" glyph-name="acute" horiz-adv-x="200" d="M140 475v9q0 5 3 11l75 144q13 25 25 25 8 0 23-13t16-23q0-7-18-30l-92-108q-11-15-23-15-9 0-9 9z"/><glyph unicode="µ" glyph-name="uni00B5" horiz-adv-x="502" d="M-10-285l-12 14-12 37q0 36 11 79T11-39L23 0l11 27q3 7 11 28t14 37l23 81q51 181 63 217 4 12 9 18t16 6q23 0 43-11t21-21q0-18-13-46t-44-80q-39-68-58-106-8-18-8-45 0-23 15-38t37-15q20 0 49 27t83 97q40 114 91 226 5 12 21 12 12 0 26-8t22-18 6-18q-10-29-57-112t-76-121q-4-16-4-23 0-22 14-37t40-15q16 0 33 10t41 30q15 13 18 13 4 0 6-2t2-7q-21-53-59-86t-73-34q-27 0-40 18t-13 49q0 25 15 62h-2q-2-3-26-36t-57-63-56-30q-26 0-40 19T99 60q-2 6-5 11t-8 6q-10 0-23-38-8-24-18-76t-11-79q0-27 7-44t18-33l13-13q7-7 8-13 0-10-14-25t-33-28-27-13q-16 0-28 14z"/><glyph unicode="¶" glyph-name="paragraph" horiz-adv-x="589" d="M81-288l-38 30-39 81q0 55 35 92t87 37q31 0 49-15t19-38q0-26-15-41t-44-15q-17 0-38 17-3 2-13 9t-17 8q-9 0-15-13t-7-26q0-41 27-62t68-22q53 0 94 32t61 94l67 220q1 3 1 9 0 10-9 10-118 0-185 53t-68 150q0 178 129 250t350 73q72 0 95-3 11-1 11-15 0-10-3-17t-12-7l-89 4q-16 0-22-18L351-98q-32-104-84-147t-125-43q-61 0-99 30zm286 444l4 13 131 415v2q0 3-5 5t-10 2q-28 0-49-12t-45-55-52-134q-34-112-34-168 0-36 12-52t39-16q9 0 13 13z"/><glyph unicode="·" glyph-name="middot" horiz-adv-x="201" d="M74 150l-13 15-13 35q0 27 19 46t46 19q19 0 32-15t13-35q0-27-19-46t-46-19q-19 0-32 15z"/><glyph unicode="¸" glyph-name="cedilla" horiz-adv-x="200" d="M-79-281l-21 16-22 40q0 27 20 27 15 0 34-19 16-14 26-20t24-6q10 0 18 8t8 20q0 13-6 23t-15 18-10 11q-14 15-21 27t-7 28q0 24 34 61t78 64h30Q49-16 32-43T15-88q0-9 7-19t23-25q14-14 21-25t8-23q0-20-22-43T0-264t-45-17q-34 0-55 16z"/><glyph unicode="¹" glyph-name="uni00B9" horiz-adv-x="244" d="M115 437l-1 3-1 9q1 7 5 11t10 6q27 2 43 10t25 36l52 171 2 12q0 12-9 18t-36 17q-7 3-7 10 0 6 3 10t9 5q36 6 66 13t41 12q6 2 7 2 4 0 5-4t-1-10q-19-44-27-70l-57-186q-5-17-5-24 0-11 8-15t33-7q8-2 8-10 0-7-4-13t-12-6q-18 0-54 3-14 2-21 2t-25-2q-39-3-53-3-4 0-5 3z"/><glyph unicode="º" glyph-name="ordmasculine" horiz-adv-x="307" d="M88 268v97q0 37 20 74t57 61 89 24q40 0 63-22t23-61q0-45-19-84t-57-64-89-25q-87 0-87 97zm125 20l24 24 39 58 15 60q0 33-11 52t-34 20q-27 0-52-23t-42-58-16-63q0-28 14-49t37-21q26 0 50 24zM41 161v12q0 7 9 15t18 8h194q9 0 9-13 0-7-12-14t-23-8H49q-8 0-8 12z"/><glyph unicode="»" glyph-name="guillemotright" horiz-adv-x="700" d="M378 381l9-6 15-12q33-32 93-78t95-66q11-6 11-15 0-8-11-13Q379 83 296 29q-14-10-28-10-3 0-3 5 0 10 10 19 48 41 108 86t102 71q6 4 6 7t-6 9q-40 43-69 77t-48 65q-3 6-3 12 0 11 6 11 7 0 16-6zm-211 0l9-6 15-12q33-32 93-78t95-66q11-6 11-15 0-8-11-13Q168 83 85 29 71 19 57 19q-3 0-3 5 0 10 10 19 48 41 108 86t102 71q6 4 6 7t-6 9q-40 43-69 77t-48 65q-3 6-3 12 0 11 6 11 7 0 16-6z"/><glyph unicode="¼" glyph-name="onequarter" horiz-adv-x="627" d="M65 277l-1 3-1 9q1 7 5 11t10 6q27 2 43 10t25 36l52 171 2 12q0 12-9 18t-36 17q-7 3-7 10 0 6 3 10t9 5q36 6 66 13t41 12q6 2 7 2 4 0 5-4t-1-10q-19-44-27-70l-57-186q-5-17-5-24 0-11 8-15t33-7q8-2 8-10 0-7-4-13t-12-6q-18 0-54 3-14 2-21 2t-25-2q-39-3-53-3-4 0-5 3zM54-29l-4 5v10l606 668q9 10 17 13t20 4q10 0 13-5t-1-12L99-14Q86-29 61-29q-7 0-11 5zM442-8l3 8 24 83q1 3 1 8 0 6-8 6-23 0-65-2-38-2-68-2-3 0-4 3t1 5q75 74 172 164 16 15 74 65 2 2 8 7t9 5q3 0 4-2t0-6l-58-198q-2-4 2-4 41 0 54 1 4 0 4-4 0-6-9-18t-12-12l-40 1q-6 0-9-1t-4-8l-22-72q-3-10-22-18t-26-9q-9 0-6 8zm36 141q3 0 5 1t4 4l36 118q1 2-1 2t-4-1q-62-54-128-119-1-1-1-3t0-2h89z"/><glyph unicode="½" glyph-name="onehalf" horiz-adv-x="659" d="M65 277l-1 3-1 9q1 7 5 11t10 6q27 2 43 10t25 36l52 171 2 12q0 12-9 18t-36 17q-7 3-7 10 0 6 3 10t9 5q36 6 66 13t41 12q6 2 7 2 4 0 5-4t-1-10q-19-44-27-70l-57-186q-5-17-5-24 0-11 8-15t33-7q8-2 8-10 0-7-4-13t-12-6q-18 0-54 3-14 2-21 2t-25-2q-39-3-53-3-4 0-5 3zM51-29l-4 5v10l606 668q9 10 17 13t20 4q10 0 13-5t-1-12L96-14Q83-29 58-29q-7 0-11 5zm455 13q-42 3-72 3-38 0-95-3-3 0-3 3 0 7 8 13l113 94q41 33 67 73t27 63q0 21-13 32t-34 11q-19 0-39-10t-38-32q-6-6-9-6-7 0-4 11 6 18 25 38t48 35 58 14q28 0 47-18t19-48q0-28-12-47t-27-36-22-23q-30-31-108-93l-17-14-1-2q0-4 11-4h64q21 0 44 13t40 37q5 8 16 8 2 0 2-3t-2-6q-37-58-53-91-6-13-12-13l-28 1z"/><glyph unicode="¾" glyph-name="threequarters" horiz-adv-x="642" d="M77 274v24q0 9 10 23t17 14q5 0 14-7t17-12q18-8 34-8 32 0 54 26t23 56q0 21-12 33t-34 12q-7 0-21-3t-17-4q-5 0-8 4t0 7q14 10 39 16 19 6 23 9 30 17 47 34t18 39q0 17-9 25t-26 8q-20 0-37-7t-41-24q-2-1-4-3t-6-3q-4 0-5 4t0 8q27 34 60 53t64 19q27 0 44-15t17-44q0-28-22-50t-58-36q-3-1-4-3t2-2q22 0 34-17t13-41q0-34-28-65t-70-51-75-19q-53 0-53 24zM74-29l-4 5v10l606 668q9 10 17 13t20 4q10 0 13-5t-1-12L119-14q-13-15-38-15-7 0-11 5zM457-8l3 8 24 83q1 3 1 8 0 6-8 6-23 0-65-2-38-2-68-2-3 0-4 3t1 5q75 74 172 164 16 15 74 65 2 2 8 7t9 5q3 0 4-2t0-6l-58-198q-2-4 2-4 41 0 54 1 4 0 4-4 0-6-9-18t-12-12l-40 1q-6 0-9-1t-4-8l-22-72q-3-10-22-18t-26-9q-9 0-6 8zm36 141q3 0 5 1t4 4l36 118q1 2-1 2t-4-1q-62-54-128-119-1-1-1-3t0-2h89z"/><glyph unicode="¿" glyph-name="questiondown" horiz-adv-x="316" d="M195 307l10-16 19-37 8-39q0-29-9-49t-37-41-84-46Q59 58 32 28T5-43q0-34 22-52t60-19q14 0 23 3t11 5q6 2 13 5t14 4q24 0 24-27 0-21-20-37t-48-17q-59 0-94 47T-26-13q0 98 79 139l88 45q29 15 40 30t11 41q0 15-6 37-5 13-5 22 0 6 11 6 3 0 13-16zm31 190l12-14 12-33q0-26-17-44t-44-18q-18 0-30 14t-13 33q0 25 18 43t44 19q18 0 30-14z"/><glyph unicode="À" glyph-name="Agrave" horiz-adv-x="658" d="M-60-5v15q0 6 7 10t27 9q80 21 131 79 76 84 141 165t147 189q-8-10 83 107l19 24q9 12 16 20t11 9q16 0 23 4t15 12 10 11q4 5 12 13t11 11 7 3q7 0 7-13 0-11-2-19L501 122q-5-22-5-44 0-23 9-35t31-18q19-5 25-8t7-10q0-12-31-12l-47 2q-48 4-74 4l-99-1q-24 0-24 14 0 6 8 11t20 7q34 6 52 13t28 23 18 44l31 119q4 14-4 20t-25 7l-112-2q-16 0-26-4t-17-14L163 102q-20-25-20-42 0-10 7-15t20-11q25-8 25-22 0-13-28-13-16 0-26 1L89 1Q66 1 48 0T18-2q-30-3-54-3t-24 15zm501 296q11 0 17 6t10 22l48 219q3 11 3 16 0 7-6 7-11 0-19-12L316 312q-8-12-8-14 0-8 26-8l107 1zm186 406l-12 9-45 34q-63 48-85 68-6 5-9 9t-4 10q0 9 22 16t36 7q18 0 27-13 42-61 77-119 5-8 5-15 0-6-6-6t-18 9z"/><glyph unicode="Á" glyph-name="Aacute" horiz-adv-x="658" d="M-60-5v15q0 6 7 10t27 9q80 21 131 79 76 84 141 165t147 189q-8-10 83 107l19 24q9 12 16 20t11 9q16 0 23 4t15 12 10 11q4 5 12 13t11 11 7 3q7 0 7-13 0-11-2-19L501 122q-5-22-5-44 0-23 9-35t31-18q19-5 25-8t7-10q0-12-31-12l-47 2q-48 4-74 4l-99-1q-24 0-24 14 0 6 8 11t20 7q34 6 52 13t28 23 18 44l31 119q4 14-4 20t-25 7l-112-2q-16 0-26-4t-17-14L163 102q-20-25-20-42 0-10 7-15t20-11q25-8 25-22 0-13-28-13-16 0-26 1L89 1Q66 1 48 0T18-2q-30-3-54-3t-24 15zm501 296q11 0 17 6t10 22l48 219q3 11 3 16 0 7-6 7-11 0-19-12L316 312q-8-12-8-14 0-8 26-8l107 1zm120 406v6q0 7 5 15 35 58 77 119 9 13 27 13 14 0 36-7t22-16q0-5-3-9t-10-10q-22-20-85-68l-45-34q-12-9-18-9t-6 6z"/><glyph unicode="Â" glyph-name="Acircumflex" horiz-adv-x="658" d="M-60-5v15q0 6 7 10t27 9q80 21 131 79 76 84 141 165t147 189q-8-10 83 107l19 24q9 12 16 20t11 9q16 0 23 4t15 12 10 11q4 5 12 13t11 11 7 3q7 0 7-13 0-11-2-19L501 122q-5-22-5-44 0-23 9-35t31-18q19-5 25-8t7-10q0-12-31-12l-47 2q-48 4-74 4l-99-1q-24 0-24 14 0 6 8 11t20 7q34 6 52 13t28 23 18 44l31 119q4 14-4 20t-25 7l-112-2q-16 0-26-4t-17-14L163 102q-20-25-20-42 0-10 7-15t20-11q25-8 25-22 0-13-28-13-16 0-26 1L89 1Q66 1 48 0T18-2q-30-3-54-3t-24 15zm501 296q11 0 17 6t10 22l48 219q3 11 3 16 0 7-6 7-11 0-19-12L316 312q-8-12-8-14 0-8 26-8l107 1zm26 405l-4 3-4 7q0 6 7 12l124 82q16 10 27 16t18 6q17 0 37-22l72-82q6-7 6-12t-3-8-11-3q-9 0-43 20t-55 35q-7 5-13 5t-13-4q-20-11-74-33t-64-22q-7 0-11 3z"/><glyph unicode="Ã" glyph-name="Atilde" horiz-adv-x="658" d="M-60-5v15q0 6 7 10t27 9q80 21 131 79 76 84 141 165t147 189q-8-10 83 107l19 24q9 12 16 20t11 9q16 0 23 4t15 12 10 11q4 5 12 13t11 11 7 3q7 0 7-13 0-11-2-19L501 122q-5-22-5-44 0-23 9-35t31-18q19-5 25-8t7-10q0-12-31-12l-47 2q-48 4-74 4l-99-1q-24 0-24 14 0 6 8 11t20 7q34 6 52 13t28 23 18 44l31 119q4 14-4 20t-25 7l-112-2q-16 0-26-4t-17-14L163 102q-20-25-20-42 0-10 7-15t20-11q25-8 25-22 0-13-28-13-16 0-26 1L89 1Q66 1 48 0T18-2q-30-3-54-3t-24 15zm501 296q11 0 17 6t10 22l48 219q3 11 3 16 0 7-6 7-11 0-19-12L316 312q-8-12-8-14 0-8 26-8l107 1zm38 401l-5 5-6 11q0 5 16 26t35 40 31 18q39 0 68-3 44-4 64-4t39 19q5 5 11 12t9 8q8 0 13-5t6-12q0-4-14-18-12-12-27-31t-20-25q-5-7-14-10t-15-4q-14 0-47 3-75 5-84 5-8 0-17-3t-16-9q-6-5-13-14t-9-9q-5 0-10 5z"/><glyph unicode="Ä" glyph-name="Adieresis" horiz-adv-x="658" d="M-60-5v15q0 6 7 10t27 9q80 21 131 79 76 84 141 165t147 189q-8-10 83 107l19 24q9 12 16 20t11 9q16 0 23 4t15 12 10 11q4 5 12 13t11 11 7 3q7 0 7-13 0-11-2-19L501 122q-5-22-5-44 0-23 9-35t31-18q19-5 25-8t7-10q0-12-31-12l-47 2q-48 4-74 4l-99-1q-24 0-24 14 0 6 8 11t20 7q34 6 52 13t28 23 18 44l31 119q4 14-4 20t-25 7l-112-2q-16 0-26-4t-17-14L163 102q-20-25-20-42 0-10 7-15t20-11q25-8 25-22 0-13-28-13-16 0-26 1L89 1Q66 1 48 0T18-2q-30-3-54-3t-24 15zm501 296q11 0 17 6t10 22l48 219q3 11 3 16 0 7-6 7-11 0-19-12L316 312q-8-12-8-14 0-8 26-8l107 1zm47 409l-11 12-11 27q0 25 17 43t41 18q15 0 25-13t11-30q0-22-17-39t-40-18q-15 0-26 12zm201 0l-11 12-11 27q0 25 17 43t41 18q15 0 25-13t11-30q0-22-17-39t-40-18q-15 0-26 12z"/><glyph unicode="Å" glyph-name="Aring" horiz-adv-x="658" d="M-60-5v15q0 6 7 10t27 9q80 21 131 79 76 84 141 165t147 189q-8-10 83 107l19 24q9 12 16 20t11 9q16 0 23 4t15 12 10 11q4 5 12 13t11 11 7 3q7 0 7-13 0-11-2-19L501 122q-5-22-5-44 0-23 9-35t31-18q19-5 25-8t7-10q0-12-31-12l-47 2q-48 4-74 4l-99-1q-24 0-24 14 0 6 8 11t20 7q34 6 52 13t28 23 18 44l31 119q4 14-4 20t-25 7l-112-2q-16 0-26-4t-17-14L163 102q-20-25-20-42 0-10 7-15t20-11q25-8 25-22 0-13-28-13-16 0-26 1L89 1Q66 1 48 0T18-2q-30-3-54-3t-24 15zm501 296q11 0 17 6t10 22l48 219q3 11 3 16 0 7-6 7-11 0-19-12L316 312q-8-12-8-14 0-8 26-8l107 1zm143 409l-21 15-22 39q0 38 29 64t69 26q27 0 48-16t22-42q0-38-29-62t-69-24q-27 0-48 15zm59 22l12 17 12 44q0 16-10 27t-25 11q-23 0-36-17t-13-46q0-15 11-25t26-11q23 0 35 17z"/><glyph unicode="Æ" glyph-name="AE" horiz-adv-x="800" d="M-65-5l3 11q4 12 38 22 26 7 61 34t65 64l393 467q4 4 4 8 0 9-18 12l-76 13q-13 3-13 11 0 5 6 9t15 5l65-1q64-2 103-2 48 0 74 1l80 1q50 0 109 8 18 3 30 3 15 0 14-13-4-48-22-110-5-18-18-18-5 0-6 2t-1 8q0 47-8 63-13 25-53 25H658q-18 0-31-26-19-39-42-106t-38-122q-5-20-5-28 0-13 10-13h39q40 0 56 3 26 4 43 19 12 12 22 36 4 7 10 12t13 5q4 0 7-5t0-11q-18-40-31-104l-10-43q-6-17-14-17t-11 7-3 16q0 22-10 34t-22 13q-17 0-25 1l-71 1q-11 0-19-8t-14-31q-12-39-25-87l-14-51q-6-18-6-35 0-20 10-31t31-12h97q53 0 86 27 22 18 48 62 9 15 19 15 6 0 8-5t0-11q-19-54-49-111-8-17-19-17-38 0-89 1t-79 2q-70 3-131 3-26 0-49-3-7 0-24-1t-36-2q-26 0-23 11 2 7 10 11t26 7q39 7 60 23t32 52q5 17 24 85 21 78 24 87 2 6 2 9 0 9-17 9H304q-17 0-35-23l-85-109q-11-13-19-24t-17-21q-19-23-19-42 0-15 12-24t34-16q24-7 24-17 0-14-30-14-18 0-30 1L81 1Q65 1 45 0T13-2q-29-3-51-3-27 0-24 11zm508 327q11 0 13 2t6 13l77 249q3 10-1 10t-11-9L331 337q-2-2-4-6t-3-6q0-3 13-3h106z"/><glyph unicode="Ç" glyph-name="Ccedilla" horiz-adv-x="631" d="M274-14l-59 32-98 90-39 132q0 117 56 214t150 154 201 57q57 0 111-19 10-3 28-9t29-7q5 0 21 8 3 1 10 4t13 3q10 0 10-8 0-5-3-8-19-26-40-68t-27-74q-1-7-7-13t-11-7q-8 0-12 8t-3 18q4 22 4 35 0 33-19 57-18 23-46 36t-61 13q-73 0-146-54T214 433t-48-201q0-76 28-124t72-69 91-22q48 0 80 15t54 41 45 66q6 9 11 14t12 5q4 0 5-4t2-16q0-10-15-46t-33-69-24-32q-4 0-10 5t-9 6q-11 9-21 9-8 0-41-11-40-14-83-14-56 0-115 32zm-56-267l-21 16-22 40q0 27 20 27 15 0 34-19 16-14 26-20t24-6q10 0 18 8t8 20q0 13-6 23t-15 18-10 11q-14 15-21 27t-7 28q0 24 34 61t78 64h30q-42-33-59-60t-17-45q0-9 7-19t23-25q14-14 21-25t8-23q0-20-22-43t-52-41-45-17q-34 0-55 16z"/><glyph unicode="È" glyph-name="Egrave" horiz-adv-x="576" d="M-32-5V6q0 12 36 18 49 8 70 24t33 51l137 450q7 21 7 36 0 19-14 27t-49 13q-15 2-20 6t-6 11q0 11 31 11 18 0 34-1 52-2 87-2h161q90 0 112 5t25 5q4 0 7-4t4-9q0-4-7-25-18-52-23-87-1-10-6-14t-11-5q-5 0-8 7t-3 18q1 8 1 21 0 34-13 47t-47 13H384q-23 0-33-6t-16-24l-67-212q-4-11-4-19 0-13 20-12l124 3q24 1 39 10t30 27l9 12q6 8 13 14t11 5q9 0 9-11 0-7-5-17-15-30-27-61-11-31-20-73-5-21-13-21-7 0-10 9t-3 18q0 56-38 56l-115 2q-21 0-32-5t-16-26l-51-182q-9-31-9-50t10-26 33-7h155q42 0 80 27 27 19 54 63 1 1 6 9t12 9q7 0 7-20 0-13-13-46t-26-52Q485-5 465-5q-18 0-210 3-79 3-143 3-33 0-59-3-8 0-25-1T-8-5Q-32-5-32 6zm487 702l-12 9-45 34q-63 48-85 68-6 5-9 9t-4 10q0 9 22 16t36 7q18 0 27-13 42-61 77-119 5-8 5-15 0-6-6-6t-18 9z"/><glyph unicode="É" glyph-name="Eacute" horiz-adv-x="576" d="M-32-5V6q0 12 36 18 49 8 70 24t33 51l137 450q7 21 7 36 0 19-14 27t-49 13q-15 2-20 6t-6 11q0 11 31 11 18 0 34-1 52-2 87-2h161q90 0 112 5t25 5q4 0 7-4t4-9q0-4-7-25-18-52-23-87-1-10-6-14t-11-5q-5 0-8 7t-3 18q1 8 1 21 0 34-13 47t-47 13H384q-23 0-33-6t-16-24l-67-212q-4-11-4-19 0-13 20-12l124 3q24 1 39 10t30 27l9 12q6 8 13 14t11 5q9 0 9-11 0-7-5-17-15-30-27-61-11-31-20-73-5-21-13-21-7 0-10 9t-3 18q0 56-38 56l-115 2q-21 0-32-5t-16-26l-51-182q-9-31-9-50t10-26 33-7h155q42 0 80 27 27 19 54 63 1 1 6 9t12 9q7 0 7-20 0-13-13-46t-26-52Q485-5 465-5q-18 0-210 3-79 3-143 3-33 0-59-3-8 0-25-1T-8-5Q-32-5-32 6zm421 702v6q0 7 5 15 35 58 77 119 9 13 27 13 14 0 36-7t22-16q0-5-3-9t-10-10q-22-20-85-68l-45-34q-12-9-18-9t-6 6z"/><glyph unicode="Ê" glyph-name="Ecircumflex" horiz-adv-x="576" d="M-32-5V6q0 12 36 18 49 8 70 24t33 51l137 450q7 21 7 36 0 19-14 27t-49 13q-15 2-20 6t-6 11q0 11 31 11 18 0 34-1 52-2 87-2h161q90 0 112 5t25 5q4 0 7-4t4-9q0-4-7-25-18-52-23-87-1-10-6-14t-11-5q-5 0-8 7t-3 18q1 8 1 21 0 34-13 47t-47 13H384q-23 0-33-6t-16-24l-67-212q-4-11-4-19 0-13 20-12l124 3q24 1 39 10t30 27l9 12q6 8 13 14t11 5q9 0 9-11 0-7-5-17-15-30-27-61-11-31-20-73-5-21-13-21-7 0-10 9t-3 18q0 56-38 56l-115 2q-21 0-32-5t-16-26l-51-182q-9-31-9-50t10-26 33-7h155q42 0 80 27 27 19 54 63 1 1 6 9t12 9q7 0 7-20 0-13-13-46t-26-52Q485-5 465-5q-18 0-210 3-79 3-143 3-33 0-59-3-8 0-25-1T-8-5Q-32-5-32 6zm327 701l-4 3-4 7q0 6 7 12l124 82q16 10 27 16t18 6q17 0 37-22l72-82q6-7 6-12t-3-8-11-3q-9 0-43 20t-55 35q-7 5-13 5t-13-4q-20-11-74-33t-64-22q-7 0-11 3z"/><glyph unicode="Ë" glyph-name="Edieresis" horiz-adv-x="576" d="M-32-5V6q0 12 36 18 49 8 70 24t33 51l137 450q7 21 7 36 0 19-14 27t-49 13q-15 2-20 6t-6 11q0 11 31 11 18 0 34-1 52-2 87-2h161q90 0 112 5t25 5q4 0 7-4t4-9q0-4-7-25-18-52-23-87-1-10-6-14t-11-5q-5 0-8 7t-3 18q1 8 1 21 0 34-13 47t-47 13H384q-23 0-33-6t-16-24l-67-212q-4-11-4-19 0-13 20-12l124 3q24 1 39 10t30 27l9 12q6 8 13 14t11 5q9 0 9-11 0-7-5-17-15-30-27-61-11-31-20-73-5-21-13-21-7 0-10 9t-3 18q0 56-38 56l-115 2q-21 0-32-5t-16-26l-51-182q-9-31-9-50t10-26 33-7h155q42 0 80 27 27 19 54 63 1 1 6 9t12 9q7 0 7-20 0-13-13-46t-26-52Q485-5 465-5q-18 0-210 3-79 3-143 3-33 0-59-3-8 0-25-1T-8-5Q-32-5-32 6zm348 705l-11 12-11 27q0 25 17 43t41 18q15 0 25-13t11-30q0-22-17-39t-40-18q-15 0-26 12zm201 0l-11 12-11 27q0 25 17 43t41 18q15 0 25-13t11-30q0-22-17-39t-40-18q-15 0-26 12z"/><glyph unicode="Ì" glyph-name="Igrave" horiz-adv-x="362" d="M-20-5V6q0 12 36 18 39 7 62 24t34 50l138 452q6 20 6 32 0 17-11 26t-36 14q-14 3-19 7t-5 13q0 11 30 11 26 0 58-2l50-1 45 1q30 2 57 2 24 0 24-11 0-14-37-20-38-7-58-22t-30-50L186 98q-4-13-4-26 0-20 13-31t42-17q14-3 19-7t6-11q0-11-30-11-34 0-58 3-30 2-50 2-23 0-57-2Q39-5 4-5-20-5-20 6zm380 702l-12 9-45 34q-63 48-85 68-6 5-9 9t-4 10q0 9 22 16t36 7q18 0 27-13 42-61 77-119 5-8 5-15 0-6-6-6t-18 9z"/><glyph unicode="Í" glyph-name="Iacute" horiz-adv-x="362" d="M-20-5V6q0 12 36 18 39 7 62 24t34 50l138 452q6 20 6 32 0 17-11 26t-36 14q-14 3-19 7t-5 13q0 11 30 11 26 0 58-2l50-1 45 1q30 2 57 2 24 0 24-11 0-14-37-20-38-7-58-22t-30-50L186 98q-4-13-4-26 0-20 13-31t42-17q14-3 19-7t6-11q0-11-30-11-34 0-58 3-30 2-50 2-23 0-57-2Q39-5 4-5-20-5-20 6zm314 702v6q0 7 5 15 35 58 77 119 9 13 27 13 14 0 36-7t22-16q0-5-3-9t-10-10q-22-20-85-68l-45-34q-12-9-18-9t-6 6z"/><glyph unicode="Î" glyph-name="Icircumflex" horiz-adv-x="362" d="M-20-5V6q0 12 36 18 39 7 62 24t34 50l138 452q6 20 6 32 0 17-11 26t-36 14q-14 3-19 7t-5 13q0 11 30 11 26 0 58-2l50-1 45 1q30 2 57 2 24 0 24-11 0-14-37-20-38-7-58-22t-30-50L186 98q-4-13-4-26 0-20 13-31t42-17q14-3 19-7t6-11q0-11-30-11-34 0-58 3-30 2-50 2-23 0-57-2Q39-5 4-5-20-5-20 6zm220 701l-4 3-4 7q0 6 7 12l124 82q16 10 27 16t18 6q17 0 37-22l72-82q6-7 6-12t-3-8-11-3q-9 0-43 20t-55 35q-7 5-13 5t-13-4q-20-11-74-33t-64-22q-7 0-11 3z"/><glyph unicode="Ï" glyph-name="Idieresis" horiz-adv-x="362" d="M-20-5V6q0 12 36 18 39 7 62 24t34 50l138 452q6 20 6 32 0 17-11 26t-36 14q-14 3-19 7t-5 13q0 11 30 11 26 0 58-2l50-1 45 1q30 2 57 2 24 0 24-11 0-14-37-20-38-7-58-22t-30-50L186 98q-4-13-4-26 0-20 13-31t42-17q14-3 19-7t6-11q0-11-30-11-34 0-58 3-30 2-50 2-23 0-57-2Q39-5 4-5-20-5-20 6zm241 705l-11 12-11 27q0 25 17 43t41 18q15 0 25-13t11-30q0-22-17-39t-40-18q-15 0-26 12zm201 0l-11 12-11 27q0 25 17 43t41 18q15 0 25-13t11-30q0-22-17-39t-40-18q-15 0-26 12z"/><glyph unicode="Ð" glyph-name="Eth" horiz-adv-x="752" d="M576 655l84-72 85-206q0-102-55-190T538 46 317-7l-43 2Q172 0 124 0q-16 0-44-2-24-3-60-3Q-4-5-4 6q0 7 9 12t27 6q30 1 47 9t26 23 18 43l71 218h-91q-5 0-7 6t-1 12q2 7 11 12t17 6h83l67 207q2 5 2 14 0 21-19 29t-41 13-29 6q-14 3-19 7t-5 13q0 11 30 11 29 0 77-2 40-2 60-2 26 0 47 3 45 3 56 3 144 0 228-72zM418 23l77 53 120 138 44 181q0 113-57 170t-160 57q-40 0-58-5t-24-14-13-32l-69-218h181q6 0 8-4t-1-10q-17-22-35-22H267l-56-176q-8-27-8-45 0-39 30-56t89-17q96 0 173 53z"/><glyph unicode="Ñ" glyph-name="Ntilde" horiz-adv-x="771" d="M-8-5V6q0 7 6 10t23 8q44 10 64 27t28 44l139 431q11 33 11 53 0 21-15 32t-51 14q-39 3-39 19 0 14 25 14 10 0 79-3 38-2 50-2 8 0 15-4t11-13l229-482q3-6 9-12t11-7q4 0 6 5t7 15q12 30 62 196t57 193q3 11 3 20 0 24-19 37t-62 19q-27 4-27 19 0 6 10 9t23 3q17 0 51-2 36-2 56-2 23 0 46 3 54 3 69 3 23 0 23-11 0-7-10-13t-27-7q-26-2-39-7t-23-19-21-41q-8-19-74-214t-76-228q-3-12-3-20 0-9 7-27 4-10 10-16t13-10 10-7q10-7 14-12t5-15q0-6-8-6-11 0-53-3-18-2-24-2-16 0-25 5t-17 21q-20 42-87 194-34 78-71 159t-69 141q-13 24-24 24-6 0-13-9t-11-25q-6-23-36-124-54-182-79-285-2-12-2-17 0-44 64-56 16-3 22-6t7-11q0-11-30-11-12 0-60 3-24 2-39 2-18 0-48-2-24-3-59-3Q-8-5-8 6zm423 697l-5 5-6 11q0 5 16 26t35 40 31 18q39 0 68-3 44-4 64-4t39 19q5 5 11 12t9 8q8 0 13-5t6-12q0-4-14-18-12-12-27-31t-20-25q-5-7-14-10t-15-4q-14 0-47 3-75 5-84 5-8 0-17-3t-16-9q-6-5-13-14t-9-9q-5 0-10 5z"/><glyph unicode="Ò" glyph-name="Ograve" horiz-adv-x="694" d="M228-14l-50 34-75 93-25 130q0 100 47 197t135 161 208 63q75 0 125-34t75-93 25-130q0-100-47-197T511 49 303-14q-75 0-125 34zm164 31l69 64 108 165 39 199q0 79-36 135t-107 56q-83 0-152-65T204 404t-41-199q0-78 36-133t107-55q86 0 155 64zm126 680l-12 9-45 34q-63 48-85 68-6 5-9 9t-4 10q0 9 22 16t36 7q18 0 27-13 42-61 77-119 5-8 5-15 0-6-6-6t-18 9z"/><glyph unicode="Ó" glyph-name="Oacute" horiz-adv-x="694" d="M228-14l-50 34-75 93-25 130q0 100 47 197t135 161 208 63q75 0 125-34t75-93 25-130q0-100-47-197T511 49 303-14q-75 0-125 34zm164 31l69 64 108 165 39 199q0 79-36 135t-107 56q-83 0-152-65T204 404t-41-199q0-78 36-133t107-55q86 0 155 64zm60 680v6q0 7 5 15 35 58 77 119 9 13 27 13 14 0 36-7t22-16q0-5-3-9t-10-10q-22-20-85-68l-45-34q-12-9-18-9t-6 6z"/><glyph unicode="Ô" glyph-name="Ocircumflex" horiz-adv-x="694" d="M228-14l-50 34-75 93-25 130q0 100 47 197t135 161 208 63q75 0 125-34t75-93 25-130q0-100-47-197T511 49 303-14q-75 0-125 34zm164 31l69 64 108 165 39 199q0 79-36 135t-107 56q-83 0-152-65T204 404t-41-199q0-78 36-133t107-55q86 0 155 64zm-34 679l-4 3-4 7q0 6 7 12l124 82q16 10 27 16t18 6q17 0 37-22l72-82q6-7 6-12t-3-8-11-3q-9 0-43 20t-55 35q-7 5-13 5t-13-4q-20-11-74-33t-64-22q-7 0-11 3z"/><glyph unicode="Õ" glyph-name="Otilde" horiz-adv-x="694" d="M228-14l-50 34-75 93-25 130q0 100 47 197t135 161 208 63q75 0 125-34t75-93 25-130q0-100-47-197T511 49 303-14q-75 0-125 34zm164 31l69 64 108 165 39 199q0 79-36 135t-107 56q-83 0-152-65T204 404t-41-199q0-78 36-133t107-55q86 0 155 64zm-22 675l-5 5-6 11q0 5 16 26t35 40 31 18q39 0 68-3 44-4 64-4t39 19q5 5 11 12t9 8q8 0 13-5t6-12q0-4-14-18-12-12-27-31t-20-25q-5-7-14-10t-15-4q-14 0-47 3-75 5-84 5-8 0-17-3t-16-9q-6-5-13-14t-9-9q-5 0-10 5z"/><glyph unicode="Ö" glyph-name="Odieresis" horiz-adv-x="694" d="M228-14l-50 34-75 93-25 130q0 100 47 197t135 161 208 63q75 0 125-34t75-93 25-130q0-100-47-197T511 49 303-14q-75 0-125 34zm164 31l69 64 108 165 39 199q0 79-36 135t-107 56q-83 0-152-65T204 404t-41-199q0-78 36-133t107-55q86 0 155 64zm-13 683l-11 12-11 27q0 25 17 43t41 18q15 0 25-13t11-30q0-22-17-39t-40-18q-15 0-26 12zm201 0l-11 12-11 27q0 25 17 43t41 18q15 0 25-13t11-30q0-22-17-39t-40-18q-15 0-26 12z"/><glyph unicode="×" glyph-name="multiply" horiz-adv-x="600" d="M456 53l-4 4-149 150q-3 4-7 0L153 64q-4-4-10-4-5 0-8 3-7 7-14 18t-8 21q0 7 5 12l134 134q3 3 3 5t-4 5L130 379q-5 5-5 14 0 10 6 22t10 19q4 4 10 4t9-4l135-135q4-4 5-3t2 2l144 143q5 5 10 5 6 0 9-5 2-4 9-17t8-23q0-8-7-15L344 255q-2-2 0-5l143-143q5-5 5-12 0-13-10-27t-20-15q-6 0-10 4z"/><glyph unicode="Ø" glyph-name="Oslash" horiz-adv-x="713" d="M660 557l-1-1q34-62 34-149 0-100-47-197T511 49 303-14q-85 0-141 46L133 7 121-5q-9-9-15-9-8 0-17 5T79 4q0 13 16 29l35 33q-26 34-39 79t-13 98q0 100 47 197t135 161 208 63q104 0 165-69l51 55q14 16 26 16 8 0 14-5t6-12q0-7-5-17t-14-20l-51-55zm-278 79l-69-65-109-167-41-199q0-51 15-93l410 439q-18 39-48 62t-75 23q-83 0-152-65zm10-619l69 64 108 165 39 199q0 26-5 56L201 69q37-52 105-52 86 0 155 64z"/><glyph unicode="Ù" glyph-name="Ugrave" horiz-adv-x="700" d="M217-14l-55 43-55 127q0 44 16 95l90 296q6 20 6 33 0 33-26 40-31 9-31 22 0 5 12 8t26 3l39-1q32-2 50-2l44 1q12 1 31 1 23 0 23-10 0-7-8-11t-29-10q-18-5-36-26t-30-60l-88-297q-13-42-13-78 0-66 41-100t104-34q183 0 254 243 24 83 64 205 22 66 22 97 0 24-11 34t-37 17q-26 7-26 18t31 11l102-1q17 0 45 2l31 1q24 0 24-10 0-13-38-21-19-5-30-12t-23-31-32-73q-24-64-50-141-9-24-18-52t-21-59Q568 124 497 55T301-14q-84 0-139 43zm316 711l-12 9-45 34q-63 48-85 68-6 5-9 9t-4 10q0 9 22 16t36 7q18 0 27-13 42-61 77-119 5-8 5-15 0-6-6-6t-18 9z"/><glyph unicode="Ú" glyph-name="Uacute" horiz-adv-x="700" d="M217-14l-55 43-55 127q0 44 16 95l90 296q6 20 6 33 0 33-26 40-31 9-31 22 0 5 12 8t26 3l39-1q32-2 50-2l44 1q12 1 31 1 23 0 23-10 0-7-8-11t-29-10q-18-5-36-26t-30-60l-88-297q-13-42-13-78 0-66 41-100t104-34q183 0 254 243 24 83 64 205 22 66 22 97 0 24-11 34t-37 17q-26 7-26 18t31 11l102-1q17 0 45 2l31 1q24 0 24-10 0-13-38-21-19-5-30-12t-23-31-32-73q-24-64-50-141-9-24-18-52t-21-59Q568 124 497 55T301-14q-84 0-139 43zm250 711v6q0 7 5 15 35 58 77 119 9 13 27 13 14 0 36-7t22-16q0-5-3-9t-10-10q-22-20-85-68l-45-34q-12-9-18-9t-6 6z"/><glyph unicode="Û" glyph-name="Ucircumflex" horiz-adv-x="700" d="M217-14l-55 43-55 127q0 44 16 95l90 296q6 20 6 33 0 33-26 40-31 9-31 22 0 5 12 8t26 3l39-1q32-2 50-2l44 1q12 1 31 1 23 0 23-10 0-7-8-11t-29-10q-18-5-36-26t-30-60l-88-297q-13-42-13-78 0-66 41-100t104-34q183 0 254 243 24 83 64 205 22 66 22 97 0 24-11 34t-37 17q-26 7-26 18t31 11l102-1q17 0 45 2l31 1q24 0 24-10 0-13-38-21-19-5-30-12t-23-31-32-73q-24-64-50-141-9-24-18-52t-21-59Q568 124 497 55T301-14q-84 0-139 43zm156 710l-4 3-4 7q0 6 7 12l124 82q16 10 27 16t18 6q17 0 37-22l72-82q6-7 6-12t-3-8-11-3q-9 0-43 20t-55 35q-7 5-13 5t-13-4q-20-11-74-33t-64-22q-7 0-11 3z"/><glyph unicode="Ü" glyph-name="Udieresis" horiz-adv-x="700" d="M217-14l-55 43-55 127q0 44 16 95l90 296q6 20 6 33 0 33-26 40-31 9-31 22 0 5 12 8t26 3l39-1q32-2 50-2l44 1q12 1 31 1 23 0 23-10 0-7-8-11t-29-10q-18-5-36-26t-30-60l-88-297q-13-42-13-78 0-66 41-100t104-34q183 0 254 243 24 83 64 205 22 66 22 97 0 24-11 34t-37 17q-26 7-26 18t31 11l102-1q17 0 45 2l31 1q24 0 24-10 0-13-38-21-19-5-30-12t-23-31-32-73q-24-64-50-141-9-24-18-52t-21-59Q568 124 497 55T301-14q-84 0-139 43zm177 714l-11 12-11 27q0 25 17 43t41 18q15 0 25-13t11-30q0-22-17-39t-40-18q-15 0-26 12zm201 0l-11 12-11 27q0 25 17 43t41 18q15 0 25-13t11-30q0-22-17-39t-40-18q-15 0-26 12z"/><glyph unicode="Ý" glyph-name="Yacute" horiz-adv-x="575" d="M99-5V6q0 12 36 18 77 14 99 84l51 160q6 18 6 34 0 14-7 40l-56 206q-9 35-23 52t-38 20q-13 1-20 8t-8 14q0 6 10 8t25 3l42-1q40-2 66-2l44 1q12 1 31 1 23 0 23-11 0-14-37-20-21-3-29-9t-9-20q0-9 5-32l42-159q5-20 9-29t10-9q5 0 14 9t22 23q31 35 81 98l18 22q9 11 17 22 31 40 31 57 0 10-7 16t-23 10q-10 2-17 7t-7 13q0 11 30 11l78-1q25 0 63 2l35 1q25 0 25-11 0-6-7-9t-27-10q-27-8-65-35t-62-54q-29-30-113-123l-53-59q-21-22-30-42t-21-54l-45-148q-5-17-5-28 0-22 13-36t40-20q14-3 19-7t6-11q0-11-30-11-35 0-59 3-30 2-49 2-22 0-58-2-27-3-62-3Q99-5 99 6zm301 702v6q0 7 5 15 35 58 77 119 9 13 27 13 14 0 36-7t22-16q0-5-3-9t-10-10q-22-20-85-68l-45-34q-12-9-18-9t-6 6z"/><glyph unicode="Þ" glyph-name="Thorn" horiz-adv-x="551" d="M447 529l58-51 59-137q0-63-39-112t-103-77-137-28q-15 0-28 3t-14 10q0 11 23 13 40 4 57 9 68 19 112 69t44 124q0 63-40 105t-101 43q-20 0-27-7t-15-33L186 98q-4-13-4-26 0-20 13-31t42-17q14-3 19-7t6-11q0-11-30-11-34 0-58 3-30 2-50 2-23 0-57-2Q39-5 4-5-20-5-20 6q0 12 36 18 39 7 62 24t34 50l138 452q6 20 6 32 0 17-11 26t-36 14q-14 3-19 7t-5 13q0 11 30 11 26 0 58-2l50-1 45 1q30 2 57 2 24 0 24-11 0-14-37-20-38-7-57-22t-31-50l-7-22q11 1 35 1 95 0 153-51z"/><glyph unicode="ß" glyph-name="germandbls" d="M-173-288v50q0 18 12 31t27 13q5 0 11-4t11-10 10-11q24-22 52-22 31 0 45 25t29 92l52 242q39 179 86 296 60 151 144 221t197 71q61 0 92-23t31-57q0-34-38-73t-105-90l-40-32q-6-5-27-22t-33-38-11-47q0-11 12-43t23-54q29-60 29-97 0-56-55-99-59-45-121-45-28 0-45 12t-17 32q0 19 8 32t20 14q9 0 30-19 13-11 25-17t32-6q25 0 44 18t20 46q0 34-28 90-16 34-26 59t-10 45q0 37 24 73t80 78q4 3 42 31t67 67 29 68q0 28-22 47t-63 19q-54 0-103-41t-87-103-61-125q-31-85-59-193T112 0Q92-113 44-200t-126-88q-91 0-91 50z"/><glyph unicode="à" glyph-name="agrave" horiz-adv-x="491" d="M26-14L10 0-6 30q0 53 52 132t138 153q107 94 138 94 16 0 28-14 12-17 13-17l5 8q20 34 17 30 6 10 12 10 14 0 26-7t12-14q0-5-7-25L316 83q-4-9-4-17 0-17 17-17 18 0 43 17t45 43q3 5 9 5 7 0 7-11 0-7-14-27t-29-36q-28-26-56-40t-53-14q-16 0-29 12t-14 27q0 11 6 23-6-11 2 8t21 46 24 51q5 11 5 16t-7-1Q198 66 144 26T45-14Q26-14 10 0zm97 63l44 36 98 102q38 44 60 81t22 55q0 8-13 19-15 11-25 11-18 0-49-18t-58-43q-51-50-90-112T72 83q0-15 8-24t21-10q22 0 66 36zm217 426l-11 15-92 108q-18 23-18 30 0 10 15 23t24 13q12 0 25-25l75-144q3-6 3-11 0-9-9-9-12 0-23 15z"/><glyph unicode="á" glyph-name="aacute" horiz-adv-x="491" d="M26-14L10 0-6 30q0 53 52 132t138 153q107 94 138 94 16 0 28-14 12-17 13-17l5 8q20 34 17 30 6 10 12 10 14 0 26-7t12-14q0-5-7-25L316 83q-4-9-4-17 0-17 17-17 18 0 43 17t45 43q3 5 9 5 7 0 7-11 0-7-14-27t-29-36q-28-26-56-40t-53-14q-16 0-29 12t-14 27q0 11 6 23-6-11 2 8t21 46 24 51q5 11 5 16t-7-1Q198 66 144 26T45-14Q26-14 10 0zm97 63l44 36 98 102q38 44 60 81t22 55q0 8-13 19-15 11-25 11-18 0-49-18t-58-43q-51-50-90-112T72 83q0-15 8-24t21-10q22 0 66 36zm217 426v9q0 5 3 11l75 144q13 25 25 25 8 0 23-13t16-23q0-7-18-30l-92-108q-11-15-23-15-9 0-9 9z"/><glyph unicode="â" glyph-name="acircumflex" horiz-adv-x="491" d="M26-14L10 0-6 30q0 53 52 132t138 153q107 94 138 94 16 0 28-14 12-17 13-17l5 8q20 34 17 30 6 10 12 10 14 0 26-7t12-14q0-5-7-25L316 83q-4-9-4-17 0-17 17-17 18 0 43 17t45 43q3 5 9 5 7 0 7-11 0-7-14-27t-29-36q-28-26-56-40t-53-14q-16 0-29 12t-14 27q0 11 6 23-6-11 2 8t21 46 24 51q5 11 5 16t-7-1Q198 66 144 26T45-14Q26-14 10 0zm97 63l44 36 98 102q38 44 60 81t22 55q0 8-13 19-15 11-25 11-18 0-49-18t-58-43q-51-50-90-112T72 83q0-15 8-24t21-10q22 0 66 36zm293 592l3-6 9-24q7-26 15-79t8-65q0-7-2-14t-6-7q-9 0-17 17l-36 91q-1 4-4 4t-5-4l-62-62-31-30q-16-16-23-16-9 0-9 9 0 8 7 18 12 18 45 61t52 65q15 18 29 30t21 12q6 0 9-6z"/><glyph unicode="ã" glyph-name="atilde" horiz-adv-x="491" d="M26-14L10 0-6 30q0 53 52 132t138 153q107 94 138 94 16 0 28-14 12-17 13-17l5 8q20 34 17 30 6 10 12 10 14 0 26-7t12-14q0-5-7-25L316 83q-4-9-4-17 0-17 17-17 18 0 43 17t45 43q3 5 9 5 7 0 7-11 0-7-14-27t-29-36q-28-26-56-40t-53-14q-16 0-29 12t-14 27q0 11 6 23-6-11 2 8t21 46 24 51q5 11 5 16t-7-1Q198 66 144 26T45-14Q26-14 10 0zm97 63l44 36 98 102q38 44 60 81t22 55q0 8-13 19-15 11-25 11-18 0-49-18t-58-43q-51-50-90-112T72 83q0-15 8-24t21-10q22 0 66 36zm104 420v15q0 5 17 26t38 39 32 18q15 0 28-2t23-3q44-4 56-4 20 0 35 15 8 8 15 16t9 8q8 0 13-5t6-12q0-4-18-22-11-11-24-28t-19-24q-5-7-14-10t-15-4l-31 2q-48 6-88 6-7 0-11-1t-9-6q-6-5-15-14t-12-10q-16 0-16 15z"/><glyph unicode="ä" glyph-name="adieresis" horiz-adv-x="491" d="M26-14L10 0-6 30q0 53 52 132t138 153q107 94 138 94 16 0 28-14 12-17 13-17l5 8q20 34 17 30 6 10 12 10 14 0 26-7t12-14q0-5-7-25L316 83q-4-9-4-17 0-17 17-17 18 0 43 17t45 43q3 5 9 5 7 0 7-11 0-7-14-27t-29-36q-28-26-56-40t-53-14q-16 0-29 12t-14 27q0 11 6 23-6-11 2 8t21 46 24 51q5 11 5 16t-7-1Q198 66 144 26T45-14Q26-14 10 0zm97 63l44 36 98 102q38 44 60 81t22 55q0 8-13 19-15 11-25 11-18 0-49-18t-58-43q-51-50-90-112T72 83q0-15 8-24t21-10q22 0 66 36zm141 464l-10 12-10 27q0 25 16 43t40 18q15 0 24-13t10-30q0-23-16-40t-39-17q-15 0-25 12zm171 0l-10 12-10 27q0 25 16 43t40 18q15 0 24-13t10-30q0-23-16-40t-39-17q-15 0-25 12z"/><glyph unicode="å" glyph-name="aring" horiz-adv-x="491" d="M26-14L10 0-6 30q0 53 52 132t138 153q107 94 138 94 16 0 28-14 12-17 13-17l5 8q20 34 17 30 6 10 12 10 14 0 26-7t12-14q0-5-7-25L316 83q-4-9-4-17 0-17 17-17 18 0 43 17t45 43q3 5 9 5 7 0 7-11 0-7-14-27t-29-36q-28-26-56-40t-53-14q-16 0-29 12t-14 27q0 11 6 23-6-11 2 8t21 46 24 51q5 11 5 16t-7-1Q198 66 144 26T45-14Q26-14 10 0zm97 63l44 36 98 102q38 44 60 81t22 55q0 8-13 19-15 11-25 11-18 0-49-18t-58-43q-51-50-90-112T72 83q0-15 8-24t21-10q22 0 66 36zm209 444l-15 16-15 42q0 28 17 53t44 40 49 16q25 0 40-15t16-40q0-33-18-58t-44-40-50-14q-24 0-39 16zm60 28l19 22 20 49q0 17-10 28t-26 12q-22 0-39-22t-17-50q0-17 8-28t24-11q21 0 40 22z"/><glyph unicode="æ" glyph-name="ae" horiz-adv-x="521" d="M297 219l-3-2-5-8q-7-24-10-40t-4-36q0-49 11-72t39-24q30 0 55 18t43 44q7 11 16 11 4 0 7-3t4-9q0-9-2-12Q386-14 303-14q-31 0-61 30t-38 63q-52-50-89-71T44-14Q26-14 10-1T-7 30q0 32 25 83t71 106 103 99q72 56 126 76t100 20l-2-1q6 1 18 1 36 0 56-15t21-43q0-38-36-69t-87-50-85-18q-6 0-9-2zm153 150l-7 11-22 11q-24 0-52-26t-48-61-20-56q0-4 2-5t5-1q19 0 53 13t62 38 27 60q0 16-7 27zM212 197l28 60 71 101q-48-12-103-60-56-48-94-114T75 74q0-25 28-25 16 0 42 20t60 67q7 61 35 121z"/><glyph unicode="ç" glyph-name="ccedilla" horiz-adv-x="313" d="M81-15L61-2 28 35 15 88q0 65 31 141t91 131 139 54q26 0 40-9t15-23q0-17-10-33t-20-16q-7 0-12 6t-12 18q-7 14-16 22t-25 8q-31 0-66-48t-59-118T87 98q0-31 12-44t36-13q29 0 46 10t43 33l5 5q4 4 8 6t7 2q8 0 8-13 0-12-23-36T171 4 99-15Q81-15 61-2zM-6-281l-21 16-22 40q0 27 20 27 15 0 34-19 16-14 26-20t24-6q10 0 18 8t8 20q0 13-6 23t-15 18-10 11q-14 15-21 27t-7 28q0 24 34 61t78 64h30q-42-33-59-60T88-88q0-9 7-19t23-25q14-14 21-25t8-23q0-20-22-43t-52-41-45-17q-34 0-55 16z"/><glyph unicode="è" glyph-name="egrave" horiz-adv-x="341" d="M85-15L64 1 28 41 14 89q0 68 36 144t97 129 128 52q35 0 54-14t20-41q0-57-63-89t-165-51q-1 0-5-1t-6-3-4-6q-21-61-21-97 0-35 13-54t40-19q32 0 56 15t46 39q10 11 18 11 10 0 10-10 0-5-2-8-30-49-71-75t-89-26Q85-15 64 1zm63 257l40 13 71 40 32 62q0 13-7 22t-20 10q-25 0-58-28t-59-63-26-50q0-4 2-5t5-1q20 0 60 13zm124 233l-11 15-92 108q-18 23-18 30 0 10 15 23t24 13q12 0 25-25l75-144q3-6 3-11 0-9-9-9-12 0-23 15z"/><glyph unicode="é" glyph-name="eacute" horiz-adv-x="341" d="M85-15L64 1 28 41 14 89q0 68 36 144t97 129 128 52q35 0 54-14t20-41q0-57-63-89t-165-51q-1 0-5-1t-6-3-4-6q-21-61-21-97 0-35 13-54t40-19q32 0 56 15t46 39q10 11 18 11 10 0 10-10 0-5-2-8-30-49-71-75t-89-26Q85-15 64 1zm63 257l40 13 71 40 32 62q0 13-7 22t-20 10q-25 0-58-28t-59-63-26-50q0-4 2-5t5-1q20 0 60 13zm124 233v9q0 5 3 11l75 144q13 25 25 25 8 0 23-13t16-23q0-7-18-30l-92-108q-11-15-23-15-9 0-9 9z"/><glyph unicode="ê" glyph-name="ecircumflex" horiz-adv-x="341" d="M85-15L64 1 28 41 14 89q0 68 36 144t97 129 128 52q35 0 54-14t20-41q0-57-63-89t-165-51q-1 0-5-1t-6-3-4-6q-21-61-21-97 0-35 13-54t40-19q32 0 56 15t46 39q10 11 18 11 10 0 10-10 0-5-2-8-30-49-71-75t-89-26Q85-15 64 1zm63 257l40 13 71 40 32 62q0 13-7 22t-20 10q-25 0-58-28t-59-63-26-50q0-4 2-5t5-1q20 0 60 13zm200 399l3-6 9-24q7-26 15-79t8-65q0-7-2-14t-6-7q-9 0-17 17l-36 91q-1 4-4 4t-5-4l-62-62-31-30q-16-16-23-16-9 0-9 9 0 8 7 18 12 18 45 61t52 65q15 18 29 30t21 12q6 0 9-6z"/><glyph unicode="ë" glyph-name="edieresis" horiz-adv-x="341" d="M85-15L64 1 28 41 14 89q0 68 36 144t97 129 128 52q35 0 54-14t20-41q0-57-63-89t-165-51q-1 0-5-1t-6-3-4-6q-21-61-21-97 0-35 13-54t40-19q32 0 56 15t46 39q10 11 18 11 10 0 10-10 0-5-2-8-30-49-71-75t-89-26Q85-15 64 1zm63 257l40 13 71 40 32 62q0 13-7 22t-20 10q-25 0-58-28t-59-63-26-50q0-4 2-5t5-1q20 0 60 13zm48 271l-10 12-10 27q0 25 16 43t40 18q15 0 24-13t10-30q0-23-16-40t-39-17q-15 0-25 12zm171 0l-10 12-10 27q0 25 16 43t40 18q15 0 24-13t10-30q0-23-16-40t-39-17q-15 0-25 12z"/><glyph unicode="ì" glyph-name="igrave" horiz-adv-x="294" d="M50-14L39-4 27 20q0 10 3 16 43 87 98 230 9 27 21 55 1 2 1 6 0 6-6 6-9 0-35-12t-43-26q-2-2-7-2-9 0-9 6 0 10 20 30t56 43 75 41q8 4 17-1t15-15 4-15L115 93q-7-15-7-29 0-12 16-12 18 0 42 21t68 64q2 2 4 2 6 0 6-5 0-21-32-56t-74-64-72-28Q50-14 39-4zm175 489l-11 15-92 108q-18 23-18 30 0 10 15 23t24 13q12 0 25-25l75-144q3-6 3-11 0-9-9-9-12 0-23 15z"/><glyph unicode="í" glyph-name="iacute" horiz-adv-x="294" d="M50-14L39-4 27 20q0 10 3 16 43 87 98 230 9 27 21 55 1 2 1 6 0 6-6 6-9 0-35-12t-43-26q-2-2-7-2-9 0-9 6 0 10 20 30t56 43 75 41q8 4 17-1t15-15 4-15L115 93q-7-15-7-29 0-12 16-12 18 0 42 21t68 64q2 2 4 2 6 0 6-5 0-21-32-56t-74-64-72-28Q50-14 39-4zm175 489v9q0 5 3 11l75 144q13 25 25 25 8 0 23-13t16-23q0-7-18-30l-92-108q-11-15-23-15-9 0-9 9z"/><glyph unicode="î" glyph-name="icircumflex" horiz-adv-x="294" d="M50-14L39-4 27 20q0 10 3 16 43 87 98 230 9 27 21 55 1 2 1 6 0 6-6 6-9 0-35-12t-43-26q-2-2-7-2-9 0-9 6 0 10 20 30t56 43 75 41q8 4 17-1t15-15 4-15L115 93q-7-15-7-29 0-12 16-12 18 0 42 21t68 64q2 2 4 2 6 0 6-5 0-21-32-56t-74-64-72-28Q50-14 39-4zm251 655l3-6 9-24q7-26 15-79t8-65q0-7-2-14t-6-7q-9 0-17 17l-36 91q-1 4-4 4t-5-4l-62-62-31-30q-16-16-23-16-9 0-9 9 0 8 7 18 12 18 45 61t52 65q15 18 29 30t21 12q6 0 9-6z"/><glyph unicode="ï" glyph-name="idieresis" horiz-adv-x="294" d="M50-14L39-4 27 20q0 10 3 16 43 87 98 230 9 27 21 55 1 2 1 6 0 6-6 6-9 0-35-12t-43-26q-2-2-7-2-9 0-9 6 0 10 20 30t56 43 75 41q8 4 17-1t15-15 4-15L115 93q-7-15-7-29 0-12 16-12 18 0 42 21t68 64q2 2 4 2 6 0 6-5 0-21-32-56t-74-64-72-28Q50-14 39-4zm355 527l-10 12-10 27q0 25 16 43t40 18q15 0 24-13t10-30q0-23-16-40t-39-17q-15 0-25 12zm171 0l-10 12-10 27q0 25 16 43t40 18q15 0 24-13t10-30q0-23-16-40t-39-17q-15 0-25 12z"/><glyph unicode="ð" glyph-name="eth" horiz-adv-x="415" d="M131-14L109 0 72 41l-15 63q0 63 32 136t89 123 127 51q21 0 38-10l6-3 6-3q3 0 6 15t3 41q0 57-18 103l-144-70q-10-5-16-5-8 0-8 10t6 23 16 18l127 62q-44 69-126 83-5 1-9 5t-4 9q0 9 6 11t20 2q51 0 93-22t71-64l89 44q7 4 15 4 13 0 13-12 0-13-9-23t-21-17l-67-32q29-61 29-141 0-107-33-213T298 55 152-14q-21 0-43 14zm71 30l40 51 68 120 28 117q0 40-9 60t-34 20q-38 0-78-51t-68-120-28-117q0-40 9-60t34-20q38 0 78 51z"/><glyph unicode="ñ" glyph-name="ntilde" horiz-adv-x="527" d="M53-16L45-5l-9 24q0 3 2 9l116 284q10 23 10 35 0 9-8 9-19 0-35-9t-39-37q-3-4-8-4-6 0-7 8t6 23 15 27q15 23 41 36t59 14q14 0 24-9t11-23q0-3-2-11l-66-170-1-4q0-4 4-4t6 4q60 102 123 159t111 58q24 0 40-18t17-47q0-22-10-45L353 86q-6-16-6-24 0-12 11-12 21 0 60 26t54 42q1 1 3 1 3 0 5-2t3-7q0-8-4-14-41-50-88-80t-92-30q-12 0-22 10t-11 23q0 7 2 11l20 45q10 22 40 92t54 130q12 33 12 49 0 26-21 26-17 0-43-19t-57-59q-24-29-78-112T94 15Q85-2 78-9t-15-7Q53-16 45-5zm154 485v15q0 5 17 26t38 39 32 18q15 0 28-2t23-3q44-4 56-4 20 0 35 15 8 8 15 16t9 8q8 0 13-5t6-12q0-4-18-22-11-11-24-28t-19-24q-5-7-14-10t-15-4l-31 2q-48 6-88 6-7 0-11-1t-9-6q-6-5-15-14t-12-10q-16 0-16 15z"/><glyph unicode="ò" glyph-name="ograve" horiz-adv-x="380" d="M72-14L45 20 17 99q0 64 33 138t88 126 119 51q49 0 77-33t28-85q0-63-32-136T239 37 108-14q-36 0-63 34zm90 30l41 52 68 126 27 130q0 29-9 44t-34 16q-37 0-78-48t-68-121T81 78q0-62 43-62 38 0 79 52zm121 459l-11 15-92 108q-18 23-18 30 0 10 15 23t24 13q12 0 25-25l75-144q3-6 3-11 0-9-9-9-12 0-23 15z"/><glyph unicode="ó" glyph-name="oacute" horiz-adv-x="380" d="M72-14L45 20 17 99q0 64 33 138t88 126 119 51q49 0 77-33t28-85q0-63-32-136T239 37 108-14q-36 0-63 34zm90 30l41 52 68 126 27 130q0 29-9 44t-34 16q-37 0-78-48t-68-121T81 78q0-62 43-62 38 0 79 52zm121 459v9q0 5 3 11l75 144q13 25 25 25 8 0 23-13t16-23q0-7-18-30l-92-108q-11-15-23-15-9 0-9 9z"/><glyph unicode="ô" glyph-name="ocircumflex" horiz-adv-x="380" d="M72-14L45 20 17 99q0 64 33 138t88 126 119 51q49 0 77-33t28-85q0-63-32-136T239 37 108-14q-36 0-63 34zm90 30l41 52 68 126 27 130q0 29-9 44t-34 16q-37 0-78-48t-68-121T81 78q0-62 43-62 38 0 79 52zm197 625l3-6 9-24q7-26 15-79t8-65q0-7-2-14t-6-7q-9 0-17 17l-36 91q-1 4-4 4t-5-4l-62-62-31-30q-16-16-23-16-9 0-9 9 0 8 7 18 12 18 45 61t52 65q15 18 29 30t21 12q6 0 9-6z"/><glyph unicode="õ" glyph-name="otilde" horiz-adv-x="380" d="M72-14L45 20 17 99q0 64 33 138t88 126 119 51q49 0 77-33t28-85q0-63-32-136T239 37 108-14q-36 0-63 34zm90 30l41 52 68 126 27 130q0 29-9 44t-34 16q-37 0-78-48t-68-121T81 78q0-62 43-62 38 0 79 52zm17 453v15q0 5 17 26t38 39 32 18q15 0 28-2t23-3q44-4 56-4 20 0 35 15 8 8 15 16t9 8q8 0 13-5t6-12q0-4-18-22-11-11-24-28t-19-24q-5-7-14-10t-15-4l-31 2q-48 6-88 6-7 0-11-1t-9-6q-6-5-15-14t-12-10q-16 0-16 15z"/><glyph unicode="ö" glyph-name="odieresis" horiz-adv-x="380" d="M72-14L45 20 17 99q0 64 33 138t88 126 119 51q49 0 77-33t28-85q0-63-32-136T239 37 108-14q-36 0-63 34zm90 30l41 52 68 126 27 130q0 29-9 44t-34 16q-37 0-78-48t-68-121T81 78q0-62 43-62 38 0 79 52zm45 497l-10 12-10 27q0 25 16 43t40 18q15 0 24-13t10-30q0-23-16-40t-39-17q-15 0-25 12zm171 0l-10 12-10 27q0 25 16 43t40 18q15 0 24-13t10-30q0-23-16-40t-39-17q-15 0-25 12z"/><glyph unicode="÷" glyph-name="divide" horiz-adv-x="586" d="M290 352l-14 14-14 33q0 19 14 33t33 14q20 0 33-13t14-34q0-19-13-33t-34-14q-19 0-33 14zM75 231l-4 3-5 7q0 12 5 26t18 15h453q4 0 8-3t4-7q0-15-8-28t-22-13H80q-5 0-9 3zM291 67l-14 14-14 33q0 19 14 33t33 14q20 0 33-13t14-34q0-19-13-33t-34-14q-19 0-33 14z"/><glyph unicode="ø" glyph-name="oslash" horiz-adv-x="380" d="M405 397q0-7-3-13t-8-11l-37-38q5-20 5-39 0-63-32-136T239 37 108-14Q90-14 73-4T43 23L9-11q-3-3-7-3-8 0-16 6t-8 13q0 12 10 20l35 35q-6 18-6 39 0 64 33 138t88 126 119 51q28 0 49-11t36-32l38 38q5 5 11 5 12 0 14-15v-2zm-184-13l-38-41-65-105-35-127 215 221q-2 52-43 52-34 0-72-41zM157 16l35 40 63 100 38 118L83 55q7-39 41-39 33 0 68 40z"/><glyph unicode="ù" glyph-name="ugrave" horiz-adv-x="509" d="M56-14L45-5 27 18l-3 21 105 253q9 23 9 32t-6 9q-13 0-72-53-1-1-5-1-8 0-8 4 0 14 12 30 23 31 53 55t59 37 43 13q9 0 18-11t4-22q-31-65-85-188l-38-88q-11-25-11-41 0-13 8-13 14 0 45 30t84 89q52 58 103 127t66 97q9 16 25 16 9 0 17-13t5-21L327 86q-7-17-7-27 0-12 10-12 17 0 51 25t63 55q1 1 3 1 3 0 6-2t3-7q0-9-22-35-34-42-74-70t-84-28q-11 0-20 12t-10 26q0 3 2 9 65 140 76 170l2 8q0 5-4 5-5 0-10-5Q199 88 145 37T67-14q-11 0-22 9zm278 489l-11 15-92 108q-18 23-18 30 0 10 15 23t24 13q12 0 25-25l75-144q3-6 3-11 0-9-9-9-12 0-23 15z"/><glyph unicode="ú" glyph-name="uacute" horiz-adv-x="509" d="M56-14L45-5 27 18l-3 21 105 253q9 23 9 32t-6 9q-13 0-72-53-1-1-5-1-8 0-8 4 0 14 12 30 23 31 53 55t59 37 43 13q9 0 18-11t4-22q-31-65-85-188l-38-88q-11-25-11-41 0-13 8-13 14 0 45 30t84 89q52 58 103 127t66 97q9 16 25 16 9 0 17-13t5-21L327 86q-7-17-7-27 0-12 10-12 17 0 51 25t63 55q1 1 3 1 3 0 6-2t3-7q0-9-22-35-34-42-74-70t-84-28q-11 0-20 12t-10 26q0 3 2 9 65 140 76 170l2 8q0 5-4 5-5 0-10-5Q199 88 145 37T67-14q-11 0-22 9zm278 489v9q0 5 3 11l75 144q13 25 25 25 8 0 23-13t16-23q0-7-18-30l-92-108q-11-15-23-15-9 0-9 9z"/><glyph unicode="û" glyph-name="ucircumflex" horiz-adv-x="509" d="M56-14L45-5 27 18l-3 21 105 253q9 23 9 32t-6 9q-13 0-72-53-1-1-5-1-8 0-8 4 0 14 12 30 23 31 53 55t59 37 43 13q9 0 18-11t4-22q-31-65-85-188l-38-88q-11-25-11-41 0-13 8-13 14 0 45 30t84 89q52 58 103 127t66 97q9 16 25 16 9 0 17-13t5-21L327 86q-7-17-7-27 0-12 10-12 17 0 51 25t63 55q1 1 3 1 3 0 6-2t3-7q0-9-22-35-34-42-74-70t-84-28q-11 0-20 12t-10 26q0 3 2 9 65 140 76 170l2 8q0 5-4 5-5 0-10-5Q199 88 145 37T67-14q-11 0-22 9zm354 655l3-6 9-24q7-26 15-79t8-65q0-7-2-14t-6-7q-9 0-17 17l-36 91q-1 4-4 4t-5-4l-62-62-31-30q-16-16-23-16-9 0-9 9 0 8 7 18 12 18 45 61t52 65q15 18 29 30t21 12q6 0 9-6z"/><glyph unicode="ü" glyph-name="udieresis" horiz-adv-x="509" d="M56-14L45-5 27 18l-3 21 105 253q9 23 9 32t-6 9q-13 0-72-53-1-1-5-1-8 0-8 4 0 14 12 30 23 31 53 55t59 37 43 13q9 0 18-11t4-22q-31-65-85-188l-38-88q-11-25-11-41 0-13 8-13 14 0 45 30t84 89q52 58 103 127t66 97q9 16 25 16 9 0 17-13t5-21L327 86q-7-17-7-27 0-12 10-12 17 0 51 25t63 55q1 1 3 1 3 0 6-2t3-7q0-9-22-35-34-42-74-70t-84-28q-11 0-20 12t-10 26q0 3 2 9 65 140 76 170l2 8q0 5-4 5-5 0-10-5Q199 88 145 37T67-14q-11 0-22 9zm202 527l-10 12-10 27q0 25 16 43t40 18q15 0 24-13t10-30q0-23-16-40t-39-17q-15 0-25 12zm171 0l-10 12-10 27q0 25 16 43t40 18q15 0 24-13t10-30q0-23-16-40t-39-17q-15 0-25 12z"/><glyph unicode="ý" glyph-name="yacute" horiz-adv-x="405" d="M-71-290l-14 11-14 31q0 20 12 35t27 15q9 0 15-4t16-13q17-15 30-15 34 0 72 43t73 113q21 44 29 99t9 129q0 68-9 113t-24 67-25 21q-14 0-32-22t-24-43q-2-8-8-18t-11-11q-4 0-6 8t-3 20q0 29 16 58t40 48 47 19q47 0 67-66 15-47 23-98t9-123q0-32-1-49v-4q0-13 4-13 5 0 11 14 86 164 86 329 0 5 7 12t12 7q8 0 20-13t13-30q0-93-68-232T148-130Q90-202 38-246t-92-44q-17 0-31 11zm315 765v9q0 5 3 11l75 144q13 25 25 25 8 0 23-13t16-23q0-7-18-30l-92-108q-11-15-23-15-9 0-9 9z"/><glyph unicode="þ" glyph-name="thorn" horiz-adv-x="451" d="M405 414l20-20 20-59q0-63-46-145T282 50 138-8Q114-8 89 3L25-208q-2-5-2-14 0-13 10-19t31-8q12-1 21-4t9-11q0-11-29-11-32 0-80-4l-21-2q-43-5-78-5-16 0-16 9 0 7 9 12t21 8q23 4 34 11t18 26l250 796q10 33 10 57 0 4-8 7t-19 7q-11 4-21 8t-10 7q0 6 6 9 21 11 68 23t60 13q16 0 16-10 0-15-7-33-17-48-63-180t-78-234q-2-5-2-11 0-2 1-2 3 0 10 12 49 68 105 116t107 49q28 0 48-20zm-77-234l25 59 26 97q0 40-30 40-28 0-75-40t-89-102q-73-106-73-143 0-30 16-48t36-19q21 0 57 32t70 76q37 48 62 107z"/><glyph unicode="ÿ" glyph-name="ydieresis" horiz-adv-x="405" d="M-71-290l-14 11-14 31q0 20 12 35t27 15q9 0 15-4t16-13q17-15 30-15 34 0 72 43t73 113q21 44 29 99t9 129q0 68-9 113t-24 67-25 21q-14 0-32-22t-24-43q-2-8-8-18t-11-11q-4 0-6 8t-3 20q0 29 16 58t40 48 47 19q47 0 67-66 15-47 23-98t9-123q0-32-1-49v-4q0-13 4-13 5 0 11 14 86 164 86 329 0 5 7 12t12 7q8 0 20-13t13-30q0-93-68-232T148-130Q90-202 38-246t-92-44q-17 0-31 11zm239 803l-10 12-10 27q0 25 16 43t40 18q15 0 24-13t10-30q0-23-16-40t-39-17q-15 0-25 12zm171 0l-10 12-10 27q0 25 16 43t40 18q15 0 24-13t10-30q0-23-16-40t-39-17q-15 0-25 12z"/><glyph unicode="–" glyph-name="endash" horiz-adv-x="519" d="M53 185l-3 3-1 9q4 13 13 27t22 15h384q5 0 8-4t0-10q-12-21-20-30t-21-10H58q-5 0-8 3z"/><glyph unicode="—" glyph-name="emdash" horiz-adv-x="891" d="M53 185l-3 3-1 9q4 13 13 27t22 15h756q5 0 8-4t0-10q-12-21-20-30t-21-10H58q-5 0-8 3z"/><glyph unicode="‘" glyph-name="quoteleft" horiz-adv-x="215" d="M303 692q12 0 12-6 0-3-4-6t-10-5-11-6q-44-23-67-52t-24-60q0-15 8-23t24-15q15-8 22-15t8-21q0-17-17-28t-38-12q-29 0-47 18t-19 52q0 47 25 88t63 66 69 25h6z"/><glyph unicode="’" glyph-name="quoteright" horiz-adv-x="215" d="M139 443q-12 0-12 6 0 3 4 6t10 5 11 6q44 23 67 52t24 60q0 15-8 23t-24 15q-15 8-22 15t-8 21q0 17 17 28t38 12q29 0 47-18t19-52q0-47-25-88t-63-66-69-25h-6z"/><glyph unicode="‚" glyph-name="quotesinglbase" horiz-adv-x="215" d="M-38-129q-12 0-12 6 0 3 4 6t10 5 11 6q44 23 67 52T66 6q0 15-8 23T34 44q-15 8-22 15T4 80q0 17 17 28t38 12q29 0 47-18t19-52q0-47-25-88t-63-66-69-25h-6z"/><glyph unicode="“" glyph-name="quotedblleft" horiz-adv-x="389" d="M478 693q12 0 12-6 0-3-4-6t-10-5-11-6q-44-23-67-52t-24-60q0-15 8-23t24-15q15-8 22-15t8-21q0-17-17-28t-38-12q-29 0-47 18t-19 52q0 47 25 88t63 66 69 25h6zm-174 0q12 0 12-6 0-3-4-6t-10-5-11-6q-44-23-67-52t-24-60q0-15 8-23t24-15q15-8 22-15t8-21q0-17-17-28t-38-12q-29 0-47 18t-19 52q0 47 25 88t63 66 69 25h6z"/><glyph unicode="”" glyph-name="quotedblright" horiz-adv-x="390" d="M140 444q-12 0-12 6 0 3 4 6t10 5 11 6q44 23 67 52t24 60q0 15-8 23t-24 15q-15 8-22 15t-8 21q0 17 17 28t38 12q29 0 47-18t19-52q0-47-25-88t-63-66-69-25h-6zm174 0q-12 0-12 6 0 3 4 6t10 5 11 6q44 23 67 52t24 60q0 15-8 23t-24 15q-15 8-22 15t-8 21q0 17 17 28t38 12q29 0 47-18t19-52q0-47-25-88t-63-66-69-25h-6z"/><glyph unicode="„" glyph-name="quotedblbase" horiz-adv-x="389" d="M-38-129q-12 0-12 6 0 3 4 6t10 5 11 6q44 23 67 52T66 6q0 15-8 23T34 44q-15 8-22 15T4 80q0 17 17 28t38 12q29 0 47-18t19-52q0-47-25-88t-63-66-69-25h-6zm174 0q-12 0-12 6 0 3 4 6t10 5 11 6q44 23 67 52t24 60q0 15-8 23t-24 15q-15 8-22 15t-8 21q0 17 17 28t38 12q29 0 47-18t19-52q0-47-25-88t-63-66-69-25h-6z"/><glyph unicode="•" glyph-name="bullet" horiz-adv-x="341" d="M154 231l-29 33-29 79q0 39 20 72t53 53 73 20q43 0 72-33t30-79q0-40-20-73t-53-52-74-20q-43 0-72 33z"/><glyph unicode="‹" glyph-name="guilsinglleft" horiz-adv-x="409" d="M282 19l-9 6-15 12q-33 32-93 78t-95 66q-11 6-11 15 0 8 11 13 211 108 294 162 14 10 28 10 3 0 3-5 0-10-10-19-48-41-108-86t-102-71q-6-4-6-7t6-9q40-43 69-77t48-65q3-6 3-12 0-11-6-11-7 0-16 6z"/><glyph unicode="›" glyph-name="guilsinglright" horiz-adv-x="409" d="M127 381l9-6 15-12q33-32 93-78t95-66q11-6 11-15 0-8-11-13Q128 83 45 29 31 19 17 19q-3 0-3 5 0 10 10 19 48 41 108 86t102 71q6 4 6 7t-6 9q-40 43-69 77t-48 65q-3 6-3 12 0 11 6 11 7 0 16-6z"/></font>
</defs>
</svg>
